  0
SECTION
  2
HEADER
  9
$ACADVER
  1
AC1009
  9
$FILLMODE
 70
0
  9
$EXTMIN
 10
-41.1683
 20
-31.0083
 30
0.0000
  9
$EXTMAX
 10
41.1683
 20
47.5183
 30
0.0000
  0
ENDSEC
  0
SECTION
  2
TABLES
  0
TABLE
  2
LTYPE
 70
1
  0
LTYPE
  2
CONTINUOUS
 70
64
  3
Solid line
 72
65
 73
0
 40
0
  0
ENDTAB
  0
TABLE
  2
LAYER
 70
255
  0
LAYER
  2
16
 70
64
 62
132
  6
CONTINUOUS
  0
LAYER
  2
17
 70
64
 62
110
  6
CONTINUOUS
  0
LAYER
  2
18
 70
64
 62
110
  6
CONTINUOUS
  0
LAYER
  2
20
 70
64
 62
31
  6
CONTINUOUS
  0
LAYER
  2
44
 70
64
 62
253
  6
CONTINUOUS
  0
ENDTAB
  0
ENDSEC
  0
SECTION
  2
BLOCKS
  0
BLOCK
  8
0
  2
RECT
 70
64
 10
0.0000
 20
0.0000
 30
0.0000
  3
RECT
  0
SOLID
  8
0
 10
-0.5000
 20
-0.5000
 30
0.0000
 11
0.5000
 21
-0.5000
 31
0.0000
 12
-0.5000
 22
0.5000
 32
0.0000
 13
0.5000
 23
0.5000
 33
0.0000
  0
ENDBLK
  8
0
  0
BLOCK
  8
0
  2
PIE
 70
64
 10
0.0000
 20
0.0000
 30
0.0000
  3
PIE
  0
CIRCLE
  8
0
 10
0.0000
 20
0.0000
 30
0.0000
 40
0.5000
  0
ENDBLK
  8
0
  0
BLOCK
  8
0
  2
OCTAGONP
 70
64
 10
0.0000
 20
0.0000
 30
0.0000
  3
OCTAGONP
  0
POLYLINE
  8
0
 66
1
 10
0.0000
 20
0.0000
 30
0.0000
 40
0.0000
 41
0.0000
 70
1
  0
VERTEX
  8
0
 10
-0.5000
 20
-0.2071
 30
0.0000
  0
VERTEX
  8
0
 10
-0.5000
 20
0.2071
 30
0.0000
  0
VERTEX
  8
0
 10
-0.2071
 20
0.5000
 30
0.0000
  0
VERTEX
  8
0
 10
0.2071
 20
0.5000
 30
0.0000
  0
VERTEX
  8
0
 10
0.5000
 20
0.2071
 30
0.0000
  0
VERTEX
  8
0
 10
0.5000
 20
-0.2071
 30
0.0000
  0
VERTEX
  8
0
 10
0.2071
 20
-0.5000
 30
0.0000
  0
VERTEX
  8
0
 10
-0.2071
 20
-0.5000
 30
0.0000
  0
SEQEND
  8
0
  0
ENDBLK
  8
0
  0
BLOCK
  8
0
  2
SQUAREP
 70
64
 10
0.0000
 20
0.0000
 30
0.0000
  3
SQUAREP
  0
SOLID
  8
0
 10
-0.5000
 20
-0.5000
 30
0.0000
 11
0.5000
 21
-0.5000
 31
0.0000
 12
-0.5000
 22
0.5000
 32
0.0000
 13
0.5000
 23
0.5000
 33
0.0000
  0
ENDBLK
  8
0
  0
BLOCK
  8
0
  2
ROUNDP
 70
64
 10
0.0000
 20
0.0000
 30
0.0000
  3
ROUNDP
  0
CIRCLE
  8
0
 10
0.0000
 20
0.0000
 30
0.0000
 40
0.5000
  0
ENDBLK
  8
0
  0
BLOCK
  8
0
  2
ANNULUSP
 70
64
 10
0.0000
 20
0.0000
 30
0.0000
  3
ANNULUSP
  0
CIRCLE
  8
0
 10
0.0000
 20
0.0000
 30
0.0000
 40
0.5000
  0
ENDBLK
  8
0
  0
BLOCK
  8
0
  2
THERMALP
 70
64
 10
0.0000
 20
0.0000
 30
0.0000
  3
THERMALP
  0
POLYLINE
  8
0
 66
1
 10
0.0000
 20
0.0000
 30
0.0000
 40
0.0000
 41
0.0000
 70
1
  0
VERTEX
  8
0
 10
-0.2379
 20
0.4000
 30
0.0000
  0
VERTEX
  8
0
 10
0.2379
 20
0.4000
 30
0.0000
 42
1.0000
  0
VERTEX
  8
0
 10
0.2379
 20
0.5000
 30
0.0000
  0
VERTEX
  8
0
 10
-0.2379
 20
0.5000
 30
0.0000
 42
1.0000
  0
SEQEND
  8
0
  0
POLYLINE
  8
0
 66
1
 10
0.0000
 20
0.0000
 30
0.0000
 40
0.0000
 41
0.0000
 70
1
  0
VERTEX
  8
0
 10
0.4000
 20
0.2379
 30
0.0000
  0
VERTEX
  8
0
 10
0.4000
 20
-0.2379
 30
0.0000
 42
1.0000
  0
VERTEX
  8
0
 10
0.5000
 20
-0.2379
 30
0.0000
  0
VERTEX
  8
0
 10
0.5000
 20
0.2379
 30
0.0000
 42
1.0000
  0
SEQEND
  8
0
  0
POLYLINE
  8
0
 66
1
 10
0.0000
 20
0.0000
 30
0.0000
 40
0.0000
 41
0.0000
 70
1
  0
VERTEX
  8
0
 10
0.2379
 20
-0.4000
 30
0.0000
  0
VERTEX
  8
0
 10
-0.2379
 20
-0.4000
 30
0.0000
 42
1.0000
  0
VERTEX
  8
0
 10
-0.2379
 20
-0.5000
 30
0.0000
  0
VERTEX
  8
0
 10
0.2379
 20
-0.5000
 30
0.0000
 42
1.0000
  0
SEQEND
  8
0
  0
POLYLINE
  8
0
 66
1
 10
0.0000
 20
0.0000
 30
0.0000
 40
0.0000
 41
0.0000
 70
1
  0
VERTEX
  8
0
 10
-0.4000
 20
-0.2379
 30
0.0000
  0
VERTEX
  8
0
 10
-0.4000
 20
0.2379
 30
0.0000
 42
1.0000
  0
VERTEX
  8
0
 10
-0.5000
 20
0.2379
 30
0.0000
  0
VERTEX
  8
0
 10
-0.5000
 20
-0.2379
 30
0.0000
 42
1.0000
  0
SEQEND
  8
0
  0
ENDBLK
  8
0
  0
BLOCK
  8
0
  2
OCTAGONV
 70
64
 10
0.0000
 20
0.0000
 30
0.0000
  3
OCTAGONV
  0
POLYLINE
  8
0
 66
1
 10
0.0000
 20
0.0000
 30
0.0000
 40
0.0000
 41
0.0000
 70
1
  0
VERTEX
  8
0
 10
-0.5000
 20
-0.2071
 30
0.0000
  0
VERTEX
  8
0
 10
-0.5000
 20
0.2071
 30
0.0000
  0
VERTEX
  8
0
 10
-0.2071
 20
0.5000
 30
0.0000
  0
VERTEX
  8
0
 10
0.2071
 20
0.5000
 30
0.0000
  0
VERTEX
  8
0
 10
0.5000
 20
0.2071
 30
0.0000
  0
VERTEX
  8
0
 10
0.5000
 20
-0.2071
 30
0.0000
  0
VERTEX
  8
0
 10
0.2071
 20
-0.5000
 30
0.0000
  0
VERTEX
  8
0
 10
-0.2071
 20
-0.5000
 30
0.0000
  0
SEQEND
  8
0
  0
ENDBLK
  8
0
  0
BLOCK
  8
0
  2
SQUAREV
 70
64
 10
0.0000
 20
0.0000
 30
0.0000
  3
SQUAREV
  0
SOLID
  8
0
 10
-0.5000
 20
-0.5000
 30
0.0000
 11
0.5000
 21
-0.5000
 31
0.0000
 12
-0.5000
 22
0.5000
 32
0.0000
 13
0.5000
 23
0.5000
 33
0.0000
  0
ENDBLK
  8
0
  0
BLOCK
  8
0
  2
ROUNDV
 70
64
 10
0.0000
 20
0.0000
 30
0.0000
  3
ROUNDV
  0
CIRCLE
  8
0
 10
0.0000
 20
0.0000
 30
0.0000
 40
0.5000
  0
ENDBLK
  8
0
  0
BLOCK
  8
0
  2
ANNULUSV
 70
64
 10
0.0000
 20
0.0000
 30
0.0000
  3
ANNULUSV
  0
CIRCLE
  8
0
 10
0.0000
 20
0.0000
 30
0.0000
 40
0.5000
  0
ENDBLK
  8
0
  0
BLOCK
  8
0
  2
THERMALV
 70
64
 10
0.0000
 20
0.0000
 30
0.0000
  3
THERMALV
  0
POLYLINE
  8
0
 66
1
 10
0.0000
 20
0.0000
 30
0.0000
 40
0.0000
 41
0.0000
 70
1
  0
VERTEX
  8
0
 10
-0.2379
 20
0.4000
 30
0.0000
  0
VERTEX
  8
0
 10
0.2379
 20
0.4000
 30
0.0000
 42
1.0000
  0
VERTEX
  8
0
 10
0.2379
 20
0.5000
 30
0.0000
  0
VERTEX
  8
0
 10
-0.2379
 20
0.5000
 30
0.0000
 42
1.0000
  0
SEQEND
  8
0
  0
POLYLINE
  8
0
 66
1
 10
0.0000
 20
0.0000
 30
0.0000
 40
0.0000
 41
0.0000
 70
1
  0
VERTEX
  8
0
 10
0.4000
 20
0.2379
 30
0.0000
  0
VERTEX
  8
0
 10
0.4000
 20
-0.2379
 30
0.0000
 42
1.0000
  0
VERTEX
  8
0
 10
0.5000
 20
-0.2379
 30
0.0000
  0
VERTEX
  8
0
 10
0.5000
 20
0.2379
 30
0.0000
 42
1.0000
  0
SEQEND
  8
0
  0
POLYLINE
  8
0
 66
1
 10
0.0000
 20
0.0000
 30
0.0000
 40
0.0000
 41
0.0000
 70
1
  0
VERTEX
  8
0
 10
0.2379
 20
-0.4000
 30
0.0000
  0
VERTEX
  8
0
 10
-0.2379
 20
-0.4000
 30
0.0000
 42
1.0000
  0
VERTEX
  8
0
 10
-0.2379
 20
-0.5000
 30
0.0000
  0
VERTEX
  8
0
 10
0.2379
 20
-0.5000
 30
0.0000
 42
1.0000
  0
SEQEND
  8
0
  0
POLYLINE
  8
0
 66
1
 10
0.0000
 20
0.0000
 30
0.0000
 40
0.0000
 41
0.0000
 70
1
  0
VERTEX
  8
0
 10
-0.4000
 20
-0.2379
 30
0.0000
  0
VERTEX
  8
0
 10
-0.4000
 20
0.2379
 30
0.0000
 42
1.0000
  0
VERTEX
  8
0
 10
-0.5000
 20
0.2379
 30
0.0000
  0
VERTEX
  8
0
 10
-0.5000
 20
-0.2379
 30
0.0000
 42
1.0000
  0
SEQEND
  8
0
  0
ENDBLK
  8
0
  0
BLOCK
  8
0
  2
LONGP100
 70
64
 10
0.0000
 20
0.0000
 30
0.0000
  3
LONGP100
  0
POLYLINE
  8
0
 66
1
 10
0.0000
 20
0.0000
 30
0.0000
 40
0.0000
 41
0.0000
 70
1
  0
VERTEX
  8
0
 10
-0.5000
 20
-0.5000
 30
0.0000
  0
VERTEX
  8
0
 10
0.5000
 20
-0.5000
 30
0.0000
 42
1.0000
  0
VERTEX
  8
0
 10
0.5000
 20
0.5000
 30
0.0000
  0
VERTEX
  8
0
 10
-0.5000
 20
0.5000
 30
0.0000
 42
1.0000
  0
SEQEND
  8
0
  0
ENDBLK
  8
0
  0
ENDSEC
  0
SECTION
  2
ENTITIES
  0
POLYLINE
  8
20
 66
1
 10
0.0000
 20
0.0000
 30
0.0000
 40
0.0000
 41
0.0000
 70
1
  0
VERTEX
  8
20
 10
-8.3332
 20
23.5698
 30
0.0000
 42
1.0000
  0
VERTEX
  8
20
 10
-8.3335
 20
23.5707
 30
0.0000
 42
0.3692
  0
VERTEX
  8
20
 10
-24.5796
 20
-4.5683
 30
0.0000
 42
1.0000
  0
VERTEX
  8
20
 10
-24.5786
 20
-4.5681
 30
0.0000
 42
-0.3692
  0
SEQEND
  8
0
  0
POLYLINE
  8
20
 66
1
 10
0.0000
 20
0.0000
 30
0.0000
 40
0.0000
 41
0.0000
 70
1
  0
VERTEX
  8
20
 10
-16.2454
 20
-19.0016
 30
0.0000
 42
1.0000
  0
VERTEX
  8
20
 10
-16.2461
 20
-19.0024
 30
0.0000
 42
0.3692
  0
VERTEX
  8
20
 10
16.2461
 20
-19.0024
 30
0.0000
 42
1.0000
  0
VERTEX
  8
20
 10
16.2454
 20
-19.0016
 30
0.0000
 42
-0.3692
  0
SEQEND
  8
0
  0
POLYLINE
  8
20
 66
1
 10
0.0000
 20
0.0000
 30
0.0000
 40
0.0000
 41
0.0000
 70
1
  0
VERTEX
  8
20
 10
24.5786
 20
-4.5681
 30
0.0000
 42
1.0000
  0
VERTEX
  8
20
 10
24.5796
 20
-4.5683
 30
0.0000
 42
0.3692
  0
VERTEX
  8
20
 10
8.3335
 20
23.5707
 30
0.0000
 42
1.0000
  0
VERTEX
  8
20
 10
8.3332
 20
23.5698
 30
0.0000
 42
-0.3692
  0
SEQEND
  8
0
  0
POLYLINE
  8
20
 66
1
 10
0.0000
 20
0.0000
 30
0.0000
 40
0.0000
 41
0.0000
 70
1
  0
VERTEX
  8
20
 10
4.9995
 20
40.0000
 30
0.0000
 42
1.0000
  0
VERTEX
  8
20
 10
5.0005
 20
40.0000
 30
0.0000
 42
1.0000
  0
VERTEX
  8
20
 10
-5.0005
 20
40.0000
 30
0.0000
 42
1.0000
  0
VERTEX
  8
20
 10
-4.9995
 20
40.0000
 30
0.0000
 42
-1.0000
  0
SEQEND
  8
0
  0
POLYLINE
  8
20
 66
1
 10
0.0000
 20
0.0000
 30
0.0000
 40
0.0000
 41
0.0000
 70
1
  0
VERTEX
  8
20
 10
5.0005
 20
28.2843
 30
0.0000
 42
1.0000
  0
VERTEX
  8
20
 10
4.9995
 20
28.2843
 30
0.0000
 42
0.3178
  0
VERTEX
  8
20
 10
8.3332
 20
23.5698
 30
0.0000
 42
1.0000
  0
VERTEX
  8
20
 10
8.3335
 20
23.5707
 30
0.0000
 42
-0.3178
  0
SEQEND
  8
0
  0
POLYLINE
  8
20
 66
1
 10
0.0000
 20
0.0000
 30
0.0000
 40
0.0000
 41
0.0000
 70
1
  0
VERTEX
  8
20
 10
24.5796
 20
-4.5683
 30
0.0000
 42
1.0000
  0
VERTEX
  8
20
 10
24.5786
 20
-4.5681
 30
0.0000
 42
0.3178
  0
VERTEX
  8
20
 10
26.9947
 20
-9.8124
 30
0.0000
 42
1.0000
  0
VERTEX
  8
20
 10
26.9951
 20
-9.8116
 30
0.0000
 42
-0.3178
  0
SEQEND
  8
0
  0
POLYLINE
  8
20
 66
1
 10
0.0000
 20
0.0000
 30
0.0000
 40
0.0000
 41
0.0000
 70
1
  0
VERTEX
  8
20
 10
21.9947
 20
-18.4727
 30
0.0000
 42
1.0000
  0
VERTEX
  8
20
 10
21.9951
 20
-18.4718
 30
0.0000
 42
0.3178
  0
VERTEX
  8
20
 10
16.2454
 20
-19.0016
 30
0.0000
 42
1.0000
  0
VERTEX
  8
20
 10
16.2461
 20
-19.0024
 30
0.0000
 42
-0.3178
  0
SEQEND
  8
0
  0
POLYLINE
  8
20
 66
1
 10
0.0000
 20
0.0000
 30
0.0000
 40
0.0000
 41
0.0000
 70
1
  0
VERTEX
  8
20
 10
-16.2461
 20
-19.0024
 30
0.0000
 42
1.0000
  0
VERTEX
  8
20
 10
-16.2454
 20
-19.0016
 30
0.0000
 42
0.3178
  0
VERTEX
  8
20
 10
-21.9951
 20
-18.4718
 30
0.0000
 42
1.0000
  0
VERTEX
  8
20
 10
-21.9947
 20
-18.4727
 30
0.0000
 42
-0.3178
  0
SEQEND
  8
0
  0
POLYLINE
  8
20
 66
1
 10
0.0000
 20
0.0000
 30
0.0000
 40
0.0000
 41
0.0000
 70
1
  0
VERTEX
  8
20
 10
-26.9951
 20
-9.8116
 30
0.0000
 42
1.0000
  0
VERTEX
  8
20
 10
-26.9947
 20
-9.8124
 30
0.0000
 42
0.3178
  0
VERTEX
  8
20
 10
-24.5786
 20
-4.5681
 30
0.0000
 42
1.0000
  0
VERTEX
  8
20
 10
-24.5796
 20
-4.5683
 30
0.0000
 42
-0.3178
  0
SEQEND
  8
0
  0
POLYLINE
  8
20
 66
1
 10
0.0000
 20
0.0000
 30
0.0000
 40
0.0000
 41
0.0000
 70
1
  0
VERTEX
  8
20
 10
-8.3335
 20
23.5707
 30
0.0000
 42
1.0000
  0
VERTEX
  8
20
 10
-8.3332
 20
23.5698
 30
0.0000
 42
0.3178
  0
VERTEX
  8
20
 10
-4.9995
 20
28.2843
 30
0.0000
 42
1.0000
  0
VERTEX
  8
20
 10
-5.0005
 20
28.2843
 30
0.0000
 42
-0.3178
  0
SEQEND
  8
0
  0
POLYLINE
  8
20
 66
1
 10
0.0000
 20
0.0000
 30
0.0000
 40
0.0000
 41
0.0000
 70
1
  0
VERTEX
  8
20
 10
32.1413
 20
-24.3297
 30
0.0000
 42
1.0000
  0
VERTEX
  8
20
 10
32.1408
 20
-24.3306
 30
0.0000
 42
1.0000
  0
VERTEX
  8
20
 10
37.1413
 20
-15.6694
 30
0.0000
 42
1.0000
  0
VERTEX
  8
20
 10
37.1408
 20
-15.6703
 30
0.0000
 42
-1.0000
  0
SEQEND
  8
0
  0
POLYLINE
  8
20
 66
1
 10
0.0000
 20
0.0000
 30
0.0000
 40
0.0000
 41
0.0000
 70
1
  0
VERTEX
  8
20
 10
-37.1408
 20
-15.6703
 30
0.0000
 42
1.0000
  0
VERTEX
  8
20
 10
-37.1413
 20
-15.6694
 30
0.0000
 42
1.0000
  0
VERTEX
  8
20
 10
-32.1408
 20
-24.3306
 30
0.0000
 42
1.0000
  0
VERTEX
  8
20
 10
-32.1413
 20
-24.3297
 30
0.0000
 42
-1.0000
  0
SEQEND
  8
0
  0
POLYLINE
  8
20
 66
1
 10
0.0000
 20
0.0000
 30
0.0000
 40
0.0000
 41
0.0000
 70
1
  0
VERTEX
  8
20
 10
-5.0005
 20
40.0000
 30
0.0000
  0
VERTEX
  8
20
 10
-5.0005
 20
28.2843
 30
0.0000
 42
1.0000
  0
VERTEX
  8
20
 10
-4.9995
 20
28.2843
 30
0.0000
  0
VERTEX
  8
20
 10
-4.9995
 20
40.0000
 30
0.0000
 42
1.0000
  0
SEQEND
  8
0
  0
POLYLINE
  8
20
 66
1
 10
0.0000
 20
0.0000
 30
0.0000
 40
0.0000
 41
0.0000
 70
1
  0
VERTEX
  8
20
 10
4.9995
 20
40.0000
 30
0.0000
  0
VERTEX
  8
20
 10
4.9995
 20
28.2843
 30
0.0000
 42
1.0000
  0
VERTEX
  8
20
 10
5.0005
 20
28.2843
 30
0.0000
  0
VERTEX
  8
20
 10
5.0005
 20
40.0000
 30
0.0000
 42
1.0000
  0
SEQEND
  8
0
  0
POLYLINE
  8
20
 66
1
 10
0.0000
 20
0.0000
 30
0.0000
 40
0.0000
 41
0.0000
 70
1
  0
VERTEX
  8
20
 10
37.1413
 20
-15.6694
 30
0.0000
  0
VERTEX
  8
20
 10
26.9951
 20
-9.8116
 30
0.0000
 42
1.0000
  0
VERTEX
  8
20
 10
26.9947
 20
-9.8124
 30
0.0000
  0
VERTEX
  8
20
 10
37.1408
 20
-15.6703
 30
0.0000
 42
1.0000
  0
SEQEND
  8
0
  0
POLYLINE
  8
20
 66
1
 10
0.0000
 20
0.0000
 30
0.0000
 40
0.0000
 41
0.0000
 70
1
  0
VERTEX
  8
20
 10
32.1413
 20
-24.3297
 30
0.0000
  0
VERTEX
  8
20
 10
21.9952
 20
-18.4718
 30
0.0000
 42
1.0000
  0
VERTEX
  8
20
 10
21.9946
 20
-18.4727
 30
0.0000
  0
VERTEX
  8
20
 10
32.1408
 20
-24.3306
 30
0.0000
 42
1.0000
  0
SEQEND
  8
0
  0
POLYLINE
  8
20
 66
1
 10
0.0000
 20
0.0000
 30
0.0000
 40
0.0000
 41
0.0000
 70
1
  0
VERTEX
  8
20
 10
-32.1408
 20
-24.3306
 30
0.0000
  0
VERTEX
  8
20
 10
-21.9946
 20
-18.4727
 30
0.0000
 42
1.0000
  0
VERTEX
  8
20
 10
-21.9952
 20
-18.4718
 30
0.0000
  0
VERTEX
  8
20
 10
-32.1413
 20
-24.3297
 30
0.0000
 42
1.0000
  0
SEQEND
  8
0
  0
POLYLINE
  8
20
 66
1
 10
0.0000
 20
0.0000
 30
0.0000
 40
0.0000
 41
0.0000
 70
1
  0
VERTEX
  8
20
 10
-37.1408
 20
-15.6703
 30
0.0000
  0
VERTEX
  8
20
 10
-26.9947
 20
-9.8124
 30
0.0000
 42
1.0000
  0
VERTEX
  8
20
 10
-26.9951
 20
-9.8116
 30
0.0000
  0
VERTEX
  8
20
 10
-37.1413
 20
-15.6694
 30
0.0000
 42
1.0000
  0
SEQEND
  8
0
  0
POLYLINE
  8
16
 66
1
 10
0.0000
 20
0.0000
 30
0.0000
 40
0.0000
 41
0.0000
 70
1
  0
VERTEX
  8
16
 10
11.2568
 20
9.7436
 30
0.0000
  0
VERTEX
  8
16
 10
10.5879
 20
7.7370
 30
0.0000
 42
1.0000
  0
VERTEX
  8
16
 10
10.7566
 20
7.6808
 30
0.0000
  0
VERTEX
  8
16
 10
11.4254
 20
9.6874
 30
0.0000
 42
1.0000
  0
SEQEND
  8
0
  0
POLYLINE
  8
16
 66
1
 10
0.0000
 20
0.0000
 30
0.0000
 40
0.0000
 41
0.0000
 70
1
  0
VERTEX
  8
16
 10
10.7566
 20
7.7370
 30
0.0000
  0
VERTEX
  8
16
 10
10.0877
 20
9.7436
 30
0.0000
 42
1.0000
  0
VERTEX
  8
16
 10
9.9190
 20
9.6874
 30
0.0000
  0
VERTEX
  8
16
 10
10.5879
 20
7.6808
 30
0.0000
 42
1.0000
  0
SEQEND
  8
0
  0
POLYLINE
  8
16
 66
1
 10
0.0000
 20
0.0000
 30
0.0000
 40
0.0000
 41
0.0000
 70
1
  0
VERTEX
  8
16
 10
8.7858
 20
9.7155
 30
0.0000
  0
VERTEX
  8
16
 10
8.7858
 20
8.1548
 30
0.0000
 42
1.0000
  0
VERTEX
  8
16
 10
8.9636
 20
8.1548
 30
0.0000
  0
VERTEX
  8
16
 10
8.9636
 20
9.7155
 30
0.0000
 42
1.0000
  0
SEQEND
  8
0
  0
POLYLINE
  8
16
 66
1
 10
0.0000
 20
0.0000
 30
0.0000
 40
0.0000
 41
0.0000
 70
1
  0
VERTEX
  8
16
 10
8.9636
 20
8.1548
 30
0.0000
 42
1.0000
  0
VERTEX
  8
16
 10
8.7858
 20
8.1548
 30
0.0000
 42
0.4142
  0
VERTEX
  8
16
 10
9.3206
 20
7.6200
 30
0.0000
 42
1.0000
  0
VERTEX
  8
16
 10
9.3206
 20
7.7978
 30
0.0000
 42
-0.4142
  0
SEQEND
  8
0
  0
POLYLINE
  8
16
 66
1
 10
0.0000
 20
0.0000
 30
0.0000
 40
0.0000
 41
0.0000
 70
1
  0
VERTEX
  8
16
 10
9.3206
 20
7.6200
 30
0.0000
  0
VERTEX
  8
16
 10
9.5435
 20
7.6200
 30
0.0000
 42
1.0000
  0
VERTEX
  8
16
 10
9.5435
 20
7.7978
 30
0.0000
  0
VERTEX
  8
16
 10
9.3206
 20
7.7978
 30
0.0000
 42
1.0000
  0
SEQEND
  8
0
  0
POLYLINE
  8
16
 66
1
 10
0.0000
 20
0.0000
 30
0.0000
 40
0.0000
 41
0.0000
 70
1
  0
VERTEX
  8
16
 10
8.1791
 20
8.1548
 30
0.0000
  0
VERTEX
  8
16
 10
8.1791
 20
8.6007
 30
0.0000
 42
1.0000
  0
VERTEX
  8
16
 10
8.0013
 20
8.6007
 30
0.0000
  0
VERTEX
  8
16
 10
8.0013
 20
8.1548
 30
0.0000
 42
1.0000
  0
SEQEND
  8
0
  0
POLYLINE
  8
16
 66
1
 10
0.0000
 20
0.0000
 30
0.0000
 40
0.0000
 41
0.0000
 70
1
  0
VERTEX
  8
16
 10
8.0013
 20
8.6007
 30
0.0000
 42
1.0000
  0
VERTEX
  8
16
 10
8.1791
 20
8.6007
 30
0.0000
 42
1.0000
  0
VERTEX
  8
16
 10
7.1095
 20
8.6007
 30
0.0000
 42
1.0000
  0
VERTEX
  8
16
 10
7.2873
 20
8.6007
 30
0.0000
 42
-1.0000
  0
SEQEND
  8
0
  0
POLYLINE
  8
16
 66
1
 10
0.0000
 20
0.0000
 30
0.0000
 40
0.0000
 41
0.0000
 70
1
  0
VERTEX
  8
16
 10
7.1095
 20
8.6007
 30
0.0000
  0
VERTEX
  8
16
 10
7.1095
 20
8.1548
 30
0.0000
 42
1.0000
  0
VERTEX
  8
16
 10
7.2873
 20
8.1548
 30
0.0000
  0
VERTEX
  8
16
 10
7.2873
 20
8.6007
 30
0.0000
 42
1.0000
  0
SEQEND
  8
0
  0
POLYLINE
  8
16
 66
1
 10
0.0000
 20
0.0000
 30
0.0000
 40
0.0000
 41
0.0000
 70
1
  0
VERTEX
  8
16
 10
7.2873
 20
8.1548
 30
0.0000
 42
1.0000
  0
VERTEX
  8
16
 10
7.1095
 20
8.1548
 30
0.0000
 42
1.0000
  0
VERTEX
  8
16
 10
8.1791
 20
8.1548
 30
0.0000
 42
1.0000
  0
VERTEX
  8
16
 10
8.0013
 20
8.1548
 30
0.0000
 42
-1.0000
  0
SEQEND
  8
0
  0
POLYLINE
  8
16
 66
1
 10
0.0000
 20
0.0000
 30
0.0000
 40
0.0000
 41
0.0000
 70
1
  0
VERTEX
  8
16
 10
6.5454
 20
7.1289
 30
0.0000
  0
VERTEX
  8
16
 10
6.3224
 20
7.1289
 30
0.0000
 42
1.0000
  0
VERTEX
  8
16
 10
6.3224
 20
6.9511
 30
0.0000
  0
VERTEX
  8
16
 10
6.5454
 20
6.9511
 30
0.0000
 42
1.0000
  0
SEQEND
  8
0
  0
POLYLINE
  8
16
 66
1
 10
0.0000
 20
0.0000
 30
0.0000
 40
0.0000
 41
0.0000
 70
1
  0
VERTEX
  8
16
 10
6.4067
 20
7.0681
 30
0.0000
  0
VERTEX
  8
16
 10
5.7379
 20
9.0747
 30
0.0000
 42
1.0000
  0
VERTEX
  8
16
 10
5.5692
 20
9.0185
 30
0.0000
  0
VERTEX
  8
16
 10
6.2381
 20
7.0119
 30
0.0000
 42
1.0000
  0
SEQEND
  8
0
  0
POLYLINE
  8
16
 66
1
 10
0.0000
 20
0.0000
 30
0.0000
 40
0.0000
 41
0.0000
 70
1
  0
VERTEX
  8
16
 10
6.4610
 20
9.0747
 30
0.0000
  0
VERTEX
  8
16
 10
6.0151
 20
7.7370
 30
0.0000
 42
1.0000
  0
VERTEX
  8
16
 10
6.1838
 20
7.6808
 30
0.0000
  0
VERTEX
  8
16
 10
6.6297
 20
9.0185
 30
0.0000
 42
1.0000
  0
SEQEND
  8
0
  0
POLYLINE
  8
16
 66
1
 10
0.0000
 20
0.0000
 30
0.0000
 40
0.0000
 41
0.0000
 70
1
  0
VERTEX
  8
16
 10
4.1152
 20
8.4003
 30
0.0000
  0
VERTEX
  8
16
 10
4.6168
 20
8.4003
 30
0.0000
 42
1.0000
  0
VERTEX
  8
16
 10
4.6168
 20
8.5781
 30
0.0000
  0
VERTEX
  8
16
 10
4.1152
 20
8.5781
 30
0.0000
 42
1.0000
  0
SEQEND
  8
0
  0
POLYLINE
  8
16
 66
1
 10
0.0000
 20
0.0000
 30
0.0000
 40
0.0000
 41
0.0000
 70
1
  0
VERTEX
  8
16
 10
4.6168
 20
7.7978
 30
0.0000
 42
1.0000
  0
VERTEX
  8
16
 10
4.6168
 20
7.6200
 30
0.0000
 42
1.0000
  0
VERTEX
  8
16
 10
4.6168
 20
8.5781
 30
0.0000
 42
1.0000
  0
VERTEX
  8
16
 10
4.6168
 20
8.4003
 30
0.0000
 42
-1.0000
  0
SEQEND
  8
0
  0
POLYLINE
  8
16
 66
1
 10
0.0000
 20
0.0000
 30
0.0000
 40
0.0000
 41
0.0000
 70
1
  0
VERTEX
  8
16
 10
4.6168
 20
7.7978
 30
0.0000
  0
VERTEX
  8
16
 10
4.1152
 20
7.7978
 30
0.0000
 42
1.0000
  0
VERTEX
  8
16
 10
4.1152
 20
7.6200
 30
0.0000
  0
VERTEX
  8
16
 10
4.6168
 20
7.6200
 30
0.0000
 42
1.0000
  0
SEQEND
  8
0
  0
POLYLINE
  8
16
 66
1
 10
0.0000
 20
0.0000
 30
0.0000
 40
0.0000
 41
0.0000
 70
1
  0
VERTEX
  8
16
 10
4.2041
 20
7.7089
 30
0.0000
  0
VERTEX
  8
16
 10
4.2041
 20
8.7122
 30
0.0000
 42
1.0000
  0
VERTEX
  8
16
 10
4.0263
 20
8.7122
 30
0.0000
  0
VERTEX
  8
16
 10
4.0263
 20
7.7089
 30
0.0000
 42
1.0000
  0
SEQEND
  8
0
  0
POLYLINE
  8
16
 66
1
 10
0.0000
 20
0.0000
 30
0.0000
 40
0.0000
 41
0.0000
 70
1
  0
VERTEX
  8
16
 10
4.4496
 20
8.9577
 30
0.0000
 42
1.0000
  0
VERTEX
  8
16
 10
4.4496
 20
9.1355
 30
0.0000
 42
0.4142
  0
VERTEX
  8
16
 10
4.0263
 20
8.7122
 30
0.0000
 42
1.0000
  0
VERTEX
  8
16
 10
4.2041
 20
8.7122
 30
0.0000
 42
-0.4142
  0
SEQEND
  8
0
  0
POLYLINE
  8
16
 66
1
 10
0.0000
 20
0.0000
 30
0.0000
 40
0.0000
 41
0.0000
 70
1
  0
VERTEX
  8
16
 10
4.4496
 20
8.9577
 30
0.0000
  0
VERTEX
  8
16
 10
4.8955
 20
8.9577
 30
0.0000
 42
1.0000
  0
VERTEX
  8
16
 10
4.8955
 20
9.1355
 30
0.0000
  0
VERTEX
  8
16
 10
4.4496
 20
9.1355
 30
0.0000
 42
1.0000
  0
SEQEND
  8
0
  0
POLYLINE
  8
16
 66
1
 10
0.0000
 20
0.0000
 30
0.0000
 40
0.0000
 41
0.0000
 70
1
  0
VERTEX
  8
16
 10
2.6405
 20
8.1837
 30
0.0000
  0
VERTEX
  8
16
 10
3.1979
 20
8.4067
 30
0.0000
 42
1.0000
  0
VERTEX
  8
16
 10
3.1318
 20
8.5718
 30
0.0000
  0
VERTEX
  8
16
 10
2.5744
 20
8.3488
 30
0.0000
 42
1.0000
  0
SEQEND
  8
0
  0
POLYLINE
  8
16
 66
1
 10
0.0000
 20
0.0000
 30
0.0000
 40
0.0000
 41
0.0000
 70
1
  0
VERTEX
  8
16
 10
3.1318
 20
8.5718
 30
0.0000
 42
1.0000
  0
VERTEX
  8
16
 10
3.1979
 20
8.4067
 30
0.0000
 42
0.8318
  0
VERTEX
  8
16
 10
3.0521
 20
9.1355
 30
0.0000
 42
1.0000
  0
VERTEX
  8
16
 10
3.0546
 20
8.9577
 30
0.0000
 42
-0.8318
  0
SEQEND
  8
0
  0
POLYLINE
  8
16
 66
1
 10
0.0000
 20
0.0000
 30
0.0000
 40
0.0000
 41
0.0000
 70
1
  0
VERTEX
  8
16
 10
3.0546
 20
8.9577
 30
0.0000
 42
1.0000
  0
VERTEX
  8
16
 10
3.0521
 20
9.1355
 30
0.0000
 42
0.1026
  0
VERTEX
  8
16
 10
2.5152
 20
9.0162
 30
0.0000
 42
1.0000
  0
VERTEX
  8
16
 10
2.5882
 20
8.8541
 30
0.0000
 42
-0.1026
  0
SEQEND
  8
0
  0
POLYLINE
  8
16
 66
1
 10
0.0000
 20
0.0000
 30
0.0000
 40
0.0000
 41
0.0000
 70
1
  0
VERTEX
  8
16
 10
2.6405
 20
8.1837
 30
0.0000
 42
1.0000
  0
VERTEX
  8
16
 10
2.5744
 20
8.3488
 30
0.0000
 42
0.8318
  0
VERTEX
  8
16
 10
2.7202
 20
7.6200
 30
0.0000
 42
1.0000
  0
VERTEX
  8
16
 10
2.7177
 20
7.7978
 30
0.0000
 42
-0.8318
  0
SEQEND
  8
0
  0
POLYLINE
  8
16
 66
1
 10
0.0000
 20
0.0000
 30
0.0000
 40
0.0000
 41
0.0000
 70
1
  0
VERTEX
  8
16
 10
2.7177
 20
7.7978
 30
0.0000
 42
1.0000
  0
VERTEX
  8
16
 10
2.7202
 20
7.6200
 30
0.0000
 42
0.0830
  0
VERTEX
  8
16
 10
3.3622
 20
7.7367
 30
0.0000
 42
1.0000
  0
VERTEX
  8
16
 10
3.3019
 20
7.9040
 30
0.0000
 42
-0.0830
  0
SEQEND
  8
0
  0
INSERT
  8
17
  2
ROUNDP
 10
-13.9700
 20
13.7550
 30
0.0000
 41
1.9500
 42
1.9500
 43
1.0000
 50
180.0000
  0
CIRCLE
  8
44
 10
-13.9700
 20
13.7550
 30
0.0000
 40
0.6500
  0
INSERT
  8
17
  2
ROUNDP
 10
-13.9700
 20
-6.2450
 30
0.0000
 41
1.9500
 42
1.9500
 43
1.0000
 50
180.0000
  0
CIRCLE
  8
44
 10
-13.9700
 20
-6.2450
 30
0.0000
 40
0.6500
  0
INSERT
  8
17
  2
ROUNDP
 10
-7.6200
 20
-1.2700
 30
0.0000
 41
1.8796
 42
1.8796
 43
1.0000
 50
180.0000
  0
CIRCLE
  8
44
 10
-7.6200
 20
-1.2700
 30
0.0000
 40
0.5080
  0
INSERT
  8
17
  2
ROUNDP
 10
-7.6200
 20
1.2700
 30
0.0000
 41
1.8796
 42
1.8796
 43
1.0000
 50
180.0000
  0
CIRCLE
  8
44
 10
-7.6200
 20
1.2700
 30
0.0000
 40
0.5080
  0
INSERT
  8
17
  2
ROUNDP
 10
-7.6200
 20
3.8100
 30
0.0000
 41
1.8796
 42
1.8796
 43
1.0000
 50
180.0000
  0
CIRCLE
  8
44
 10
-7.6200
 20
3.8100
 30
0.0000
 40
0.5080
  0
INSERT
  8
17
  2
ROUNDP
 10
-7.6200
 20
6.3500
 30
0.0000
 41
1.8796
 42
1.8796
 43
1.0000
 50
180.0000
  0
CIRCLE
  8
44
 10
-7.6200
 20
6.3500
 30
0.0000
 40
0.5080
  0
INSERT
  8
17
  2
ROUNDP
 10
2.5400
 20
39.3700
 30
0.0000
 41
3.3020
 42
3.3020
 43
1.0000
 50
90.0000
  0
CIRCLE
  8
44
 10
2.5400
 20
39.3700
 30
0.0000
 40
1.0000
  0
INSERT
  8
17
  2
ROUNDP
 10
-1.9050
 20
39.3700
 30
0.0000
 41
3.3020
 42
3.3020
 43
1.0000
 50
90.0000
  0
CIRCLE
  8
44
 10
-1.9050
 20
39.3700
 30
0.0000
 40
1.0000
  0
INSERT
  8
17
  2
ROUNDP
 10
-34.9250
 20
-17.1450
 30
0.0000
 41
3.3020
 42
3.3020
 43
1.0000
 50
90.0000
  0
CIRCLE
  8
44
 10
-34.9250
 20
-17.1450
 30
0.0000
 40
1.0000
  0
INSERT
  8
17
  2
ROUNDP
 10
-32.3850
 20
-21.5900
 30
0.0000
 41
3.3020
 42
3.3020
 43
1.0000
 50
90.0000
  0
CIRCLE
  8
44
 10
-32.3850
 20
-21.5900
 30
0.0000
 40
1.0000
  0
INSERT
  8
17
  2
ROUNDP
 10
32.3850
 20
-21.5900
 30
0.0000
 41
3.3020
 42
3.3020
 43
1.0000
 50
90.0000
  0
CIRCLE
  8
44
 10
32.3850
 20
-21.5900
 30
0.0000
 40
1.0000
  0
INSERT
  8
17
  2
ROUNDP
 10
34.9250
 20
-17.1450
 30
0.0000
 41
3.3020
 42
3.3020
 43
1.0000
 50
90.0000
  0
CIRCLE
  8
44
 10
34.9250
 20
-17.1450
 30
0.0000
 40
1.0000
  0
INSERT
  8
17
  2
ROUNDP
 10
1.2700
 20
22.8600
 30
0.0000
 41
1.8796
 42
1.8796
 43
1.0000
 50
0.0000
  0
CIRCLE
  8
44
 10
1.2700
 20
22.8600
 30
0.0000
 40
0.4064
  0
INSERT
  8
17
  2
ROUNDP
 10
2.5400
 20
24.7650
 30
0.0000
 41
1.8796
 42
1.8796
 43
1.0000
 50
0.0000
  0
CIRCLE
  8
44
 10
2.5400
 20
24.7650
 30
0.0000
 40
0.4064
  0
INSERT
  8
17
  2
ROUNDP
 10
3.8100
 20
22.8600
 30
0.0000
 41
1.8796
 42
1.8796
 43
1.0000
 50
0.0000
  0
CIRCLE
  8
44
 10
3.8100
 20
22.8600
 30
0.0000
 40
0.4064
  0
INSERT
  8
17
  2
ROUNDP
 10
-9.5250
 20
-17.1450
 30
0.0000
 41
1.8796
 42
1.8796
 43
1.0000
 50
90.0000
  0
CIRCLE
  8
44
 10
-9.5250
 20
-17.1450
 30
0.0000
 40
0.4064
  0
INSERT
  8
17
  2
ROUNDP
 10
-11.4300
 20
-15.8750
 30
0.0000
 41
1.8796
 42
1.8796
 43
1.0000
 50
90.0000
  0
CIRCLE
  8
44
 10
-11.4300
 20
-15.8750
 30
0.0000
 40
0.4064
  0
INSERT
  8
17
  2
ROUNDP
 10
-9.5250
 20
-14.6050
 30
0.0000
 41
1.8796
 42
1.8796
 43
1.0000
 50
90.0000
  0
CIRCLE
  8
44
 10
-9.5250
 20
-14.6050
 30
0.0000
 40
0.4064
  0
INSERT
  8
17
  2
ROUNDP
 10
20.9550
 20
-8.8900
 30
0.0000
 41
1.8796
 42
1.8796
 43
1.0000
 50
270.0000
  0
CIRCLE
  8
44
 10
20.9550
 20
-8.8900
 30
0.0000
 40
0.4064
  0
INSERT
  8
17
  2
ROUNDP
 10
22.8600
 20
-10.1600
 30
0.0000
 41
1.8796
 42
1.8796
 43
1.0000
 50
270.0000
  0
CIRCLE
  8
44
 10
22.8600
 20
-10.1600
 30
0.0000
 40
0.4064
  0
INSERT
  8
17
  2
ROUNDP
 10
20.9550
 20
-11.4300
 30
0.0000
 41
1.8796
 42
1.8796
 43
1.0000
 50
270.0000
  0
CIRCLE
  8
44
 10
20.9550
 20
-11.4300
 30
0.0000
 40
0.4064
  0
INSERT
  8
17
  2
OCTAGONP
 10
-1.9050
 20
27.3050
 30
0.0000
 41
1.3208
 42
1.3208
 43
1.0000
 50
270.0000
  0
CIRCLE
  8
44
 10
-1.9050
 20
27.3050
 30
0.0000
 40
0.4064
  0
INSERT
  8
17
  2
OCTAGONP
 10
-1.9050
 20
19.6850
 30
0.0000
 41
1.3208
 42
1.3208
 43
1.0000
 50
270.0000
  0
CIRCLE
  8
44
 10
-1.9050
 20
19.6850
 30
0.0000
 40
0.4064
  0
INSERT
  8
17
  2
OCTAGONP
 10
12.0650
 20
18.4150
 30
0.0000
 41
1.3208
 42
1.3208
 43
1.0000
 50
180.0000
  0
CIRCLE
  8
44
 10
12.0650
 20
18.4150
 30
0.0000
 40
0.4064
  0
INSERT
  8
17
  2
OCTAGONP
 10
4.4450
 20
18.4150
 30
0.0000
 41
1.3208
 42
1.3208
 43
1.0000
 50
180.0000
  0
CIRCLE
  8
44
 10
4.4450
 20
18.4150
 30
0.0000
 40
0.4064
  0
INSERT
  8
17
  2
OCTAGONP
 10
-24.1300
 20
-10.7950
 30
0.0000
 41
1.3208
 42
1.3208
 43
1.0000
 50
0.0000
  0
CIRCLE
  8
44
 10
-24.1300
 20
-10.7950
 30
0.0000
 40
0.4064
  0
INSERT
  8
17
  2
OCTAGONP
 10
-16.5100
 20
-10.7950
 30
0.0000
 41
1.3208
 42
1.3208
 43
1.0000
 50
0.0000
  0
CIRCLE
  8
44
 10
-16.5100
 20
-10.7950
 30
0.0000
 40
0.4064
  0
INSERT
  8
17
  2
OCTAGONP
 10
-5.7150
 20
-9.5250
 30
0.0000
 41
1.3208
 42
1.3208
 43
1.0000
 50
270.0000
  0
CIRCLE
  8
44
 10
-5.7150
 20
-9.5250
 30
0.0000
 40
0.4064
  0
INSERT
  8
17
  2
OCTAGONP
 10
-5.7150
 20
-17.1450
 30
0.0000
 41
1.3208
 42
1.3208
 43
1.0000
 50
270.0000
  0
CIRCLE
  8
44
 10
-5.7150
 20
-17.1450
 30
0.0000
 40
0.4064
  0
INSERT
  8
17
  2
OCTAGONP
 10
25.4000
 20
-15.2400
 30
0.0000
 41
1.3208
 42
1.3208
 43
1.0000
 50
180.0000
  0
CIRCLE
  8
44
 10
25.4000
 20
-15.2400
 30
0.0000
 40
0.4064
  0
INSERT
  8
17
  2
OCTAGONP
 10
17.7800
 20
-15.2400
 30
0.0000
 41
1.3208
 42
1.3208
 43
1.0000
 50
180.0000
  0
CIRCLE
  8
44
 10
17.7800
 20
-15.2400
 30
0.0000
 40
0.4064
  0
INSERT
  8
17
  2
OCTAGONP
 10
20.3200
 20
8.2550
 30
0.0000
 41
1.3208
 42
1.3208
 43
1.0000
 50
270.0000
  0
CIRCLE
  8
44
 10
20.3200
 20
8.2550
 30
0.0000
 40
0.4064
  0
INSERT
  8
17
  2
OCTAGONP
 10
20.3200
 20
0.6350
 30
0.0000
 41
1.3208
 42
1.3208
 43
1.0000
 50
270.0000
  0
CIRCLE
  8
44
 10
20.3200
 20
0.6350
 30
0.0000
 40
0.4064
  0
INSERT
  8
17
  2
LONGP100
 10
14.6050
 20
0.0000
 30
0.0000
 41
1.3080
 42
1.3080
 43
1.0000
 50
0.0000
  0
CIRCLE
  8
44
 10
14.6050
 20
0.0000
 30
0.0000
 40
0.4000
  0
INSERT
  8
17
  2
LONGP100
 10
14.6050
 20
-2.5400
 30
0.0000
 41
1.3080
 42
1.3080
 43
1.0000
 50
0.0000
  0
CIRCLE
  8
44
 10
14.6050
 20
-2.5400
 30
0.0000
 40
0.4000
  0
INSERT
  8
17
  2
LONGP100
 10
14.6050
 20
-5.0800
 30
0.0000
 41
1.3080
 42
1.3080
 43
1.0000
 50
0.0000
  0
CIRCLE
  8
44
 10
14.6050
 20
-5.0800
 30
0.0000
 40
0.4000
  0
INSERT
  8
17
  2
LONGP100
 10
14.6050
 20
-7.6200
 30
0.0000
 41
1.3080
 42
1.3080
 43
1.0000
 50
0.0000
  0
CIRCLE
  8
44
 10
14.6050
 20
-7.6200
 30
0.0000
 40
0.4000
  0
INSERT
  8
17
  2
LONGP100
 10
10.7950
 20
-1.2700
 30
0.0000
 41
1.3080
 42
1.3080
 43
1.0000
 50
180.0000
  0
CIRCLE
  8
44
 10
10.7950
 20
-1.2700
 30
0.0000
 40
0.4000
  0
INSERT
  8
17
  2
LONGP100
 10
10.7950
 20
1.2700
 30
0.0000
 41
1.3080
 42
1.3080
 43
1.0000
 50
180.0000
  0
CIRCLE
  8
44
 10
10.7950
 20
1.2700
 30
0.0000
 40
0.4000
  0
INSERT
  8
17
  2
LONGP100
 10
10.7950
 20
-11.4300
 30
0.0000
 41
1.3080
 42
1.3080
 43
1.0000
 50
180.0000
  0
CIRCLE
  8
44
 10
10.7950
 20
-11.4300
 30
0.0000
 40
0.4000
  0
INSERT
  8
17
  2
LONGP100
 10
10.7950
 20
-8.8900
 30
0.0000
 41
1.3080
 42
1.3080
 43
1.0000
 50
180.0000
  0
CIRCLE
  8
44
 10
10.7950
 20
-8.8900
 30
0.0000
 40
0.4000
  0
INSERT
  8
17
  2
LONGP100
 10
-0.6350
 20
0.0000
 30
0.0000
 41
1.3080
 42
1.3080
 43
1.0000
 50
0.0000
  0
CIRCLE
  8
44
 10
-0.6350
 20
0.0000
 30
0.0000
 40
0.4000
  0
INSERT
  8
17
  2
LONGP100
 10
-0.6350
 20
-2.5400
 30
0.0000
 41
1.3080
 42
1.3080
 43
1.0000
 50
0.0000
  0
CIRCLE
  8
44
 10
-0.6350
 20
-2.5400
 30
0.0000
 40
0.4000
  0
INSERT
  8
17
  2
LONGP100
 10
-0.6350
 20
-5.0800
 30
0.0000
 41
1.3080
 42
1.3080
 43
1.0000
 50
0.0000
  0
CIRCLE
  8
44
 10
-0.6350
 20
-5.0800
 30
0.0000
 40
0.4000
  0
INSERT
  8
17
  2
LONGP100
 10
-0.6350
 20
-7.6200
 30
0.0000
 41
1.3080
 42
1.3080
 43
1.0000
 50
0.0000
  0
CIRCLE
  8
44
 10
-0.6350
 20
-7.6200
 30
0.0000
 40
0.4000
  0
INSERT
  8
17
  2
LONGP100
 10
-0.6350
 20
-10.1600
 30
0.0000
 41
1.3080
 42
1.3080
 43
1.0000
 50
0.0000
  0
CIRCLE
  8
44
 10
-0.6350
 20
-10.1600
 30
0.0000
 40
0.4000
  0
INSERT
  8
17
  2
LONGP100
 10
-0.6350
 20
-12.7000
 30
0.0000
 41
1.3080
 42
1.3080
 43
1.0000
 50
0.0000
  0
CIRCLE
  8
44
 10
-0.6350
 20
-12.7000
 30
0.0000
 40
0.4000
  0
INSERT
  8
17
  2
LONGP100
 10
-0.6350
 20
-15.2400
 30
0.0000
 41
1.3080
 42
1.3080
 43
1.0000
 50
0.0000
  0
CIRCLE
  8
44
 10
-0.6350
 20
-15.2400
 30
0.0000
 40
0.4000
  0
INSERT
  8
17
  2
LONGP100
 10
-0.6350
 20
-17.7800
 30
0.0000
 41
1.3080
 42
1.3080
 43
1.0000
 50
0.0000
  0
CIRCLE
  8
44
 10
-0.6350
 20
-17.7800
 30
0.0000
 40
0.4000
  0
INSERT
  8
17
  2
LONGP100
 10
14.6050
 20
-17.7800
 30
0.0000
 41
1.3080
 42
1.3080
 43
1.0000
 50
0.0000
  0
CIRCLE
  8
44
 10
14.6050
 20
-17.7800
 30
0.0000
 40
0.4000
  0
INSERT
  8
17
  2
LONGP100
 10
14.6050
 20
-15.2400
 30
0.0000
 41
1.3080
 42
1.3080
 43
1.0000
 50
0.0000
  0
CIRCLE
  8
44
 10
14.6050
 20
-15.2400
 30
0.0000
 40
0.4000
  0
INSERT
  8
17
  2
LONGP100
 10
14.6050
 20
-12.7000
 30
0.0000
 41
1.3080
 42
1.3080
 43
1.0000
 50
0.0000
  0
CIRCLE
  8
44
 10
14.6050
 20
-12.7000
 30
0.0000
 40
0.4000
  0
INSERT
  8
17
  2
LONGP100
 10
14.6050
 20
-10.1600
 30
0.0000
 41
1.3080
 42
1.3080
 43
1.0000
 50
0.0000
  0
CIRCLE
  8
44
 10
14.6050
 20
-10.1600
 30
0.0000
 40
0.4000
  0
INSERT
  8
17
  2
LONGP100
 10
13.3350
 20
12.7000
 30
0.0000
 41
1.3080
 42
1.3080
 43
1.0000
 50
90.0000
  0
CIRCLE
  8
44
 10
13.3350
 20
12.7000
 30
0.0000
 40
0.4000
  0
INSERT
  8
17
  2
LONGP100
 10
14.6050
 20
7.6200
 30
0.0000
 41
1.3080
 42
1.3080
 43
1.0000
 50
0.0000
  0
CIRCLE
  8
44
 10
14.6050
 20
7.6200
 30
0.0000
 40
0.4000
  0
INSERT
  8
17
  2
LONGP100
 10
-0.6350
 20
2.5400
 30
0.0000
 41
1.3080
 42
1.3080
 43
1.0000
 50
0.0000
  0
CIRCLE
  8
44
 10
-0.6350
 20
2.5400
 30
0.0000
 40
0.4000
  0
INSERT
  8
17
  2
LONGP100
 10
0.6350
 20
12.7000
 30
0.0000
 41
1.3080
 42
1.3080
 43
1.0000
 50
90.0000
  0
CIRCLE
  8
44
 10
0.6350
 20
12.7000
 30
0.0000
 40
0.4000
  0
INSERT
  8
17
  2
LONGP100
 10
3.1750
 20
12.7000
 30
0.0000
 41
1.3080
 42
1.3080
 43
1.0000
 50
90.0000
  0
CIRCLE
  8
44
 10
3.1750
 20
12.7000
 30
0.0000
 40
0.4000
  0
INSERT
  8
17
  2
LONGP100
 10
14.6050
 20
10.1600
 30
0.0000
 41
1.3080
 42
1.3080
 43
1.0000
 50
0.0000
  0
CIRCLE
  8
44
 10
14.6050
 20
10.1600
 30
0.0000
 40
0.4000
  0
INSERT
  8
17
  2
LONGP100
 10
14.6050
 20
5.0800
 30
0.0000
 41
1.3080
 42
1.3080
 43
1.0000
 50
0.0000
  0
CIRCLE
  8
44
 10
14.6050
 20
5.0800
 30
0.0000
 40
0.4000
  0
INSERT
  8
17
  2
LONGP100
 10
-0.6350
 20
5.0800
 30
0.0000
 41
1.3080
 42
1.3080
 43
1.0000
 50
0.0000
  0
CIRCLE
  8
44
 10
-0.6350
 20
5.0800
 30
0.0000
 40
0.4000
  0
INSERT
  8
17
  2
LONGP100
 10
-0.6350
 20
7.6200
 30
0.0000
 41
1.3080
 42
1.3080
 43
1.0000
 50
0.0000
  0
CIRCLE
  8
44
 10
-0.6350
 20
7.6200
 30
0.0000
 40
0.4000
  0
INSERT
  8
17
  2
LONGP100
 10
8.2550
 20
12.7000
 30
0.0000
 41
1.3080
 42
1.3080
 43
1.0000
 50
90.0000
  0
CIRCLE
  8
44
 10
8.2550
 20
12.7000
 30
0.0000
 40
0.4000
  0
INSERT
  8
17
  2
LONGP100
 10
-0.6350
 20
10.1600
 30
0.0000
 41
1.3080
 42
1.3080
 43
1.0000
 50
0.0000
  0
CIRCLE
  8
44
 10
-0.6350
 20
10.1600
 30
0.0000
 40
0.4000
  0
INSERT
  8
17
  2
LONGP100
 10
10.7950
 20
12.7000
 30
0.0000
 41
1.3080
 42
1.3080
 43
1.0000
 50
90.0000
  0
CIRCLE
  8
44
 10
10.7950
 20
12.7000
 30
0.0000
 40
0.4000
  0
INSERT
  8
17
  2
LONGP100
 10
14.6050
 20
2.5400
 30
0.0000
 41
1.3080
 42
1.3080
 43
1.0000
 50
0.0000
  0
CIRCLE
  8
44
 10
14.6050
 20
2.5400
 30
0.0000
 40
0.4000
  0
INSERT
  8
17
  2
LONGP100
 10
5.7150
 20
12.7000
 30
0.0000
 41
1.3080
 42
1.3080
 43
1.0000
 50
90.0000
  0
CIRCLE
  8
44
 10
5.7150
 20
12.7000
 30
0.0000
 40
0.4000
  0
POLYLINE
  8
16
 66
1
 10
0.0000
 20
0.0000
 30
0.0000
 40
0.0000
 41
0.0000
 70
1
  0
VERTEX
  8
16
 10
-2.1924
 20
19.3976
 30
0.0000
  0
VERTEX
  8
16
 10
1.6176
 20
15.5876
 30
0.0000
 42
1.0000
  0
VERTEX
  8
16
 10
2.1924
 20
16.1624
 30
0.0000
  0
VERTEX
  8
16
 10
-1.6176
 20
19.9724
 30
0.0000
 42
1.0000
  0
SEQEND
  8
0
  0
POLYLINE
  8
16
 66
1
 10
0.0000
 20
0.0000
 30
0.0000
 40
0.0000
 41
0.0000
 70
1
  0
VERTEX
  8
16
 10
1.9050
 20
15.4686
 30
0.0000
  0
VERTEX
  8
16
 10
8.8900
 20
15.4686
 30
0.0000
 42
1.0000
  0
VERTEX
  8
16
 10
8.8900
 20
16.2814
 30
0.0000
  0
VERTEX
  8
16
 10
1.9050
 20
16.2814
 30
0.0000
 42
1.0000
  0
SEQEND
  8
0
  0
POLYLINE
  8
16
 66
1
 10
0.0000
 20
0.0000
 30
0.0000
 40
0.0000
 41
0.0000
 70
1
  0
VERTEX
  8
16
 10
8.8900
 20
15.4686
 30
0.0000
  0
VERTEX
  8
16
 10
13.3350
 20
15.4686
 30
0.0000
 42
1.0000
  0
VERTEX
  8
16
 10
13.3350
 20
16.2814
 30
0.0000
  0
VERTEX
  8
16
 10
8.8900
 20
16.2814
 30
0.0000
 42
1.0000
  0
SEQEND
  8
0
  0
POLYLINE
  8
16
 66
1
 10
0.0000
 20
0.0000
 30
0.0000
 40
0.0000
 41
0.0000
 70
1
  0
VERTEX
  8
16
 10
13.0476
 20
15.5876
 30
0.0000
  0
VERTEX
  8
16
 10
14.9526
 20
13.6826
 30
0.0000
 42
1.0000
  0
VERTEX
  8
16
 10
15.5274
 20
14.2574
 30
0.0000
  0
VERTEX
  8
16
 10
13.6224
 20
16.1624
 30
0.0000
 42
1.0000
  0
SEQEND
  8
0
  0
POLYLINE
  8
16
 66
1
 10
0.0000
 20
0.0000
 30
0.0000
 40
0.0000
 41
0.0000
 70
1
  0
VERTEX
  8
16
 10
14.9526
 20
11.0824
 30
0.0000
  0
VERTEX
  8
16
 10
14.3176
 20
10.4474
 30
0.0000
 42
1.0000
  0
VERTEX
  8
16
 10
14.8924
 20
9.8726
 30
0.0000
  0
VERTEX
  8
16
 10
15.5274
 20
10.5076
 30
0.0000
 42
1.0000
  0
SEQEND
  8
0
  0
POLYLINE
  8
16
 66
1
 10
0.0000
 20
0.0000
 30
0.0000
 40
0.0000
 41
0.0000
 70
1
  0
VERTEX
  8
16
 10
14.8336
 20
13.9700
 30
0.0000
  0
VERTEX
  8
16
 10
14.8336
 20
10.7950
 30
0.0000
 42
1.0000
  0
VERTEX
  8
16
 10
15.6464
 20
10.7950
 30
0.0000
  0
VERTEX
  8
16
 10
15.6464
 20
13.9700
 30
0.0000
 42
1.0000
  0
SEQEND
  8
0
  0
POLYLINE
  8
16
 66
1
 10
0.0000
 20
0.0000
 30
0.0000
 40
0.0000
 41
0.0000
 70
1
  0
VERTEX
  8
16
 10
-9.1186
 20
-14.6050
 30
0.0000
  0
VERTEX
  8
16
 10
-9.1186
 20
-12.7000
 30
0.0000
 42
1.0000
  0
VERTEX
  8
16
 10
-9.9314
 20
-12.7000
 30
0.0000
  0
VERTEX
  8
16
 10
-9.9314
 20
-14.6050
 30
0.0000
 42
1.0000
  0
SEQEND
  8
0
  0
POLYLINE
  8
16
 66
1
 10
0.0000
 20
0.0000
 30
0.0000
 40
0.0000
 41
0.0000
 70
1
  0
VERTEX
  8
16
 10
-9.2376
 20
-12.4126
 30
0.0000
  0
VERTEX
  8
16
 10
-11.1426
 20
-10.5076
 30
0.0000
 42
1.0000
  0
VERTEX
  8
16
 10
-11.7174
 20
-11.0824
 30
0.0000
  0
VERTEX
  8
16
 10
-9.8124
 20
-12.9874
 30
0.0000
 42
1.0000
  0
SEQEND
  8
0
  0
POLYLINE
  8
16
 66
1
 10
0.0000
 20
0.0000
 30
0.0000
 40
0.0000
 41
0.0000
 70
1
  0
VERTEX
  8
16
 10
-11.4300
 20
-10.3886
 30
0.0000
  0
VERTEX
  8
16
 10
-16.5100
 20
-10.3886
 30
0.0000
 42
1.0000
  0
VERTEX
  8
16
 10
-16.5100
 20
-11.2014
 30
0.0000
  0
VERTEX
  8
16
 10
-11.4300
 20
-11.2014
 30
0.0000
 42
1.0000
  0
SEQEND
  8
0
  0
POLYLINE
  8
16
 66
1
 10
0.0000
 20
0.0000
 30
0.0000
 40
0.0000
 41
0.0000
 70
1
  0
VERTEX
  8
16
 10
20.5486
 20
-11.4300
 30
0.0000
  0
VERTEX
  8
16
 10
20.5486
 20
-13.9700
 30
0.0000
 42
1.0000
  0
VERTEX
  8
16
 10
21.3614
 20
-13.9700
 30
0.0000
  0
VERTEX
  8
16
 10
21.3614
 20
-11.4300
 30
0.0000
 42
1.0000
  0
SEQEND
  8
0
  0
POLYLINE
  8
16
 66
1
 10
0.0000
 20
0.0000
 30
0.0000
 40
0.0000
 41
0.0000
 70
1
  0
VERTEX
  8
16
 10
20.6676
 20
-13.6826
 30
0.0000
  0
VERTEX
  8
16
 10
19.3976
 20
-14.9526
 30
0.0000
 42
1.0000
  0
VERTEX
  8
16
 10
19.9724
 20
-15.5274
 30
0.0000
  0
VERTEX
  8
16
 10
21.2424
 20
-14.2574
 30
0.0000
 42
1.0000
  0
SEQEND
  8
0
  0
POLYLINE
  8
16
 66
1
 10
0.0000
 20
0.0000
 30
0.0000
 40
0.0000
 41
0.0000
 70
1
  0
VERTEX
  8
16
 10
19.6850
 20
-14.8336
 30
0.0000
  0
VERTEX
  8
16
 10
17.7800
 20
-14.8336
 30
0.0000
 42
1.0000
  0
VERTEX
  8
16
 10
17.7800
 20
-15.6464
 30
0.0000
  0
VERTEX
  8
16
 10
19.6850
 20
-15.6464
 30
0.0000
 42
1.0000
  0
SEQEND
  8
0
  0
POLYLINE
  8
16
 66
1
 10
0.0000
 20
0.0000
 30
0.0000
 40
0.0000
 41
0.0000
 70
1
  0
VERTEX
  8
16
 10
-13.5636
 20
13.7550
 30
0.0000
  0
VERTEX
  8
16
 10
-13.5636
 20
15.8750
 30
0.0000
 42
1.0000
  0
VERTEX
  8
16
 10
-14.3764
 20
15.8750
 30
0.0000
  0
VERTEX
  8
16
 10
-14.3764
 20
13.7550
 30
0.0000
 42
1.0000
  0
SEQEND
  8
0
  0
POLYLINE
  8
16
 66
1
 10
0.0000
 20
0.0000
 30
0.0000
 40
0.0000
 41
0.0000
 70
1
  0
VERTEX
  8
16
 10
-13.6826
 20
15.5876
 30
0.0000
  0
VERTEX
  8
16
 10
-11.7776
 20
17.4926
 30
0.0000
 42
1.0000
  0
VERTEX
  8
16
 10
-12.3524
 20
18.0674
 30
0.0000
  0
VERTEX
  8
16
 10
-14.2574
 20
16.1624
 30
0.0000
 42
1.0000
  0
SEQEND
  8
0
  0
POLYLINE
  8
16
 66
1
 10
0.0000
 20
0.0000
 30
0.0000
 40
0.0000
 41
0.0000
 70
1
  0
VERTEX
  8
16
 10
-12.0650
 20
17.3736
 30
0.0000
  0
VERTEX
  8
16
 10
-3.8100
 20
17.3736
 30
0.0000
 42
1.0000
  0
VERTEX
  8
16
 10
-3.8100
 20
18.1864
 30
0.0000
  0
VERTEX
  8
16
 10
-12.0650
 20
18.1864
 30
0.0000
 42
1.0000
  0
SEQEND
  8
0
  0
POLYLINE
  8
16
 66
1
 10
0.0000
 20
0.0000
 30
0.0000
 40
0.0000
 41
0.0000
 70
1
  0
VERTEX
  8
16
 10
-3.5226
 20
17.4926
 30
0.0000
  0
VERTEX
  8
16
 10
-1.6176
 20
19.3976
 30
0.0000
 42
1.0000
  0
VERTEX
  8
16
 10
-2.1924
 20
19.9724
 30
0.0000
  0
VERTEX
  8
16
 10
-4.0974
 20
18.0674
 30
0.0000
 42
1.0000
  0
SEQEND
  8
0
  0
POLYLINE
  8
16
 66
1
 10
0.0000
 20
0.0000
 30
0.0000
 40
0.0000
 41
0.0000
 70
1
  0
VERTEX
  8
16
 10
-16.1036
 20
-10.7950
 30
0.0000
  0
VERTEX
  8
16
 10
-16.1036
 20
0.6350
 30
0.0000
 42
1.0000
  0
VERTEX
  8
16
 10
-16.9164
 20
0.6350
 30
0.0000
  0
VERTEX
  8
16
 10
-16.9164
 20
-10.7950
 30
0.0000
 42
1.0000
  0
SEQEND
  8
0
  0
POLYLINE
  8
16
 66
1
 10
0.0000
 20
0.0000
 30
0.0000
 40
0.0000
 41
0.0000
 70
1
  0
VERTEX
  8
16
 10
-16.2226
 20
0.3476
 30
0.0000
  0
VERTEX
  8
16
 10
-13.0476
 20
3.5226
 30
0.0000
 42
1.0000
  0
VERTEX
  8
16
 10
-13.6224
 20
4.0974
 30
0.0000
  0
VERTEX
  8
16
 10
-16.7974
 20
0.9224
 30
0.0000
 42
1.0000
  0
SEQEND
  8
0
  0
POLYLINE
  8
16
 66
1
 10
0.0000
 20
0.0000
 30
0.0000
 40
0.0000
 41
0.0000
 70
1
  0
VERTEX
  8
16
 10
-13.3350
 20
3.4036
 30
0.0000
  0
VERTEX
  8
16
 10
-7.6200
 20
3.4036
 30
0.0000
 42
1.0000
  0
VERTEX
  8
16
 10
-7.6200
 20
4.2164
 30
0.0000
  0
VERTEX
  8
16
 10
-13.3350
 20
4.2164
 30
0.0000
 42
1.0000
  0
SEQEND
  8
0
  0
POLYLINE
  8
16
 66
1
 10
0.0000
 20
0.0000
 30
0.0000
 40
0.0000
 41
0.0000
 70
1
  0
VERTEX
  8
16
 10
-14.2574
 20
4.1576
 30
0.0000
  0
VERTEX
  8
16
 10
-13.6224
 20
3.5226
 30
0.0000
 42
1.0000
  0
VERTEX
  8
16
 10
-13.0476
 20
4.0974
 30
0.0000
  0
VERTEX
  8
16
 10
-13.6826
 20
4.7324
 30
0.0000
 42
1.0000
  0
SEQEND
  8
0
  0
POLYLINE
  8
16
 66
1
 10
0.0000
 20
0.0000
 30
0.0000
 40
0.0000
 41
0.0000
 70
1
  0
VERTEX
  8
16
 10
-14.3764
 20
13.7550
 30
0.0000
  0
VERTEX
  8
16
 10
-14.3764
 20
4.4450
 30
0.0000
 42
1.0000
  0
VERTEX
  8
16
 10
-13.5636
 20
4.4450
 30
0.0000
  0
VERTEX
  8
16
 10
-13.5636
 20
13.7550
 30
0.0000
 42
1.0000
  0
SEQEND
  8
0
  0
POLYLINE
  8
16
 66
1
 10
0.0000
 20
0.0000
 30
0.0000
 40
0.0000
 41
0.0000
 70
1
  0
VERTEX
  8
16
 10
3.8100
 20
22.4536
 30
0.0000
  0
VERTEX
  8
16
 10
5.7150
 20
22.4536
 30
0.0000
 42
1.0000
  0
VERTEX
  8
16
 10
5.7150
 20
23.2664
 30
0.0000
  0
VERTEX
  8
16
 10
3.8100
 20
23.2664
 30
0.0000
 42
1.0000
  0
SEQEND
  8
0
  0
POLYLINE
  8
16
 66
1
 10
0.0000
 20
0.0000
 30
0.0000
 40
0.0000
 41
0.0000
 70
1
  0
VERTEX
  8
16
 10
8.4836
 20
19.6850
 30
0.0000
  0
VERTEX
  8
16
 10
8.4836
 20
15.8750
 30
0.0000
 42
1.0000
  0
VERTEX
  8
16
 10
9.2964
 20
15.8750
 30
0.0000
  0
VERTEX
  8
16
 10
9.2964
 20
19.6850
 30
0.0000
 42
1.0000
  0
SEQEND
  8
0
  0
POLYLINE
  8
16
 66
1
 10
0.0000
 20
0.0000
 30
0.0000
 40
0.0000
 41
0.0000
 70
1
  0
VERTEX
  8
16
 10
5.4276
 20
22.5726
 30
0.0000
  0
VERTEX
  8
16
 10
8.6026
 20
19.3976
 30
0.0000
 42
1.0000
  0
VERTEX
  8
16
 10
9.1774
 20
19.9724
 30
0.0000
  0
VERTEX
  8
16
 10
6.0024
 20
23.1474
 30
0.0000
 42
1.0000
  0
SEQEND
  8
0
  0
POLYLINE
  8
16
 66
1
 10
0.0000
 20
0.0000
 30
0.0000
 40
0.0000
 41
0.0000
 70
1
  0
VERTEX
  8
16
 10
17.7800
 20
-14.8336
 30
0.0000
  0
VERTEX
  8
16
 10
12.0650
 20
-14.8336
 30
0.0000
 42
1.0000
  0
VERTEX
  8
16
 10
12.0650
 20
-15.6464
 30
0.0000
  0
VERTEX
  8
16
 10
17.7800
 20
-15.6464
 30
0.0000
 42
1.0000
  0
SEQEND
  8
0
  0
POLYLINE
  8
16
 66
1
 10
0.0000
 20
0.0000
 30
0.0000
 40
0.0000
 41
0.0000
 70
1
  0
VERTEX
  8
16
 10
5.0800
 20
-21.8186
 30
0.0000
  0
VERTEX
  8
16
 10
-2.5400
 20
-21.8186
 30
0.0000
 42
1.0000
  0
VERTEX
  8
16
 10
-2.5400
 20
-22.6314
 30
0.0000
  0
VERTEX
  8
16
 10
5.0800
 20
-22.6314
 30
0.0000
 42
1.0000
  0
SEQEND
  8
0
  0
POLYLINE
  8
16
 66
1
 10
0.0000
 20
0.0000
 30
0.0000
 40
0.0000
 41
0.0000
 70
1
  0
VERTEX
  8
16
 10
-2.8274
 20
-21.9376
 30
0.0000
  0
VERTEX
  8
16
 10
-3.4624
 20
-22.5726
 30
0.0000
 42
1.0000
  0
VERTEX
  8
16
 10
-2.8876
 20
-23.1474
 30
0.0000
  0
VERTEX
  8
16
 10
-2.2526
 20
-22.5124
 30
0.0000
 42
1.0000
  0
SEQEND
  8
0
  0
POLYLINE
  8
16
 66
1
 10
0.0000
 20
0.0000
 30
0.0000
 40
0.0000
 41
0.0000
 70
1
  0
VERTEX
  8
16
 10
11.7776
 20
-14.9526
 30
0.0000
  0
VERTEX
  8
16
 10
4.7926
 20
-21.9376
 30
0.0000
 42
1.0000
  0
VERTEX
  8
16
 10
5.3674
 20
-22.5124
 30
0.0000
  0
VERTEX
  8
16
 10
12.3524
 20
-15.5274
 30
0.0000
 42
1.0000
  0
SEQEND
  8
0
  0
POLYLINE
  8
16
 66
1
 10
0.0000
 20
0.0000
 30
0.0000
 40
0.0000
 41
0.0000
 70
1
  0
VERTEX
  8
16
 10
-9.5250
 20
-15.0114
 30
0.0000
  0
VERTEX
  8
16
 10
-3.8100
 20
-15.0114
 30
0.0000
 42
1.0000
  0
VERTEX
  8
16
 10
-3.8100
 20
-14.1986
 30
0.0000
  0
VERTEX
  8
16
 10
-9.5250
 20
-14.1986
 30
0.0000
 42
1.0000
  0
SEQEND
  8
0
  0
POLYLINE
  8
16
 66
1
 10
0.0000
 20
0.0000
 30
0.0000
 40
0.0000
 41
0.0000
 70
1
  0
VERTEX
  8
16
 10
-4.0974
 20
-14.8924
 30
0.0000
  0
VERTEX
  8
16
 10
-3.4624
 20
-15.5274
 30
0.0000
 42
1.0000
  0
VERTEX
  8
16
 10
-2.8876
 20
-14.9526
 30
0.0000
  0
VERTEX
  8
16
 10
-3.5226
 20
-14.3176
 30
0.0000
 42
1.0000
  0
SEQEND
  8
0
  0
POLYLINE
  8
16
 66
1
 10
0.0000
 20
0.0000
 30
0.0000
 40
0.0000
 41
0.0000
 70
1
  0
VERTEX
  8
16
 10
-3.5814
 20
-15.2400
 30
0.0000
  0
VERTEX
  8
16
 10
-3.5814
 20
-15.8750
 30
0.0000
 42
1.0000
  0
VERTEX
  8
16
 10
-2.7686
 20
-15.8750
 30
0.0000
  0
VERTEX
  8
16
 10
-2.7686
 20
-15.2400
 30
0.0000
 42
1.0000
  0
SEQEND
  8
0
  0
INSERT
  8
18
  2
ROUNDV
 10
-3.1750
 20
-15.8750
 30
0.0000
 41
1.5000
 42
1.5000
 43
1.0000
 50
0.0000
  0
INSERT
  8
18
  2
ROUNDV
 10
-3.1750
 20
-15.8750
 30
0.0000
 41
1.5000
 42
1.5000
 43
1.0000
 50
0.0000
  0
CIRCLE
  8
44
 10
-3.1750
 20
-15.8750
 30
0.0000
 40
0.5000
  0
INSERT
  8
18
  2
ROUNDV
 10
-3.1750
 20
-22.8600
 30
0.0000
 41
1.5000
 42
1.5000
 43
1.0000
 50
0.0000
  0
INSERT
  8
18
  2
ROUNDV
 10
-3.1750
 20
-22.8600
 30
0.0000
 41
1.5000
 42
1.5000
 43
1.0000
 50
0.0000
  0
CIRCLE
  8
44
 10
-3.1750
 20
-22.8600
 30
0.0000
 40
0.5000
  0
POLYLINE
  8
16
 66
1
 10
0.0000
 20
0.0000
 30
0.0000
 40
0.0000
 41
0.0000
 70
1
  0
VERTEX
  8
16
 10
-40.2336
 20
-30.4800
 30
0.0000
  0
VERTEX
  8
16
 10
-40.2336
 20
46.9900
 30
0.0000
 42
1.0000
  0
VERTEX
  8
16
 10
-41.0464
 20
46.9900
 30
0.0000
  0
VERTEX
  8
16
 10
-41.0464
 20
-30.4800
 30
0.0000
 42
1.0000
  0
SEQEND
  8
0
  0
POLYLINE
  8
16
 66
1
 10
0.0000
 20
0.0000
 30
0.0000
 40
0.0000
 41
0.0000
 70
1
  0
VERTEX
  8
16
 10
-40.6400
 20
46.5836
 30
0.0000
  0
VERTEX
  8
16
 10
40.6400
 20
46.5836
 30
0.0000
 42
1.0000
  0
VERTEX
  8
16
 10
40.6400
 20
47.3964
 30
0.0000
  0
VERTEX
  8
16
 10
-40.6400
 20
47.3964
 30
0.0000
 42
1.0000
  0
SEQEND
  8
0
  0
POLYLINE
  8
16
 66
1
 10
0.0000
 20
0.0000
 30
0.0000
 40
0.0000
 41
0.0000
 70
1
  0
VERTEX
  8
16
 10
40.2336
 20
46.9900
 30
0.0000
  0
VERTEX
  8
16
 10
40.2336
 20
-30.4800
 30
0.0000
 42
1.0000
  0
VERTEX
  8
16
 10
41.0464
 20
-30.4800
 30
0.0000
  0
VERTEX
  8
16
 10
41.0464
 20
46.9900
 30
0.0000
 42
1.0000
  0
SEQEND
  8
0
  0
POLYLINE
  8
16
 66
1
 10
0.0000
 20
0.0000
 30
0.0000
 40
0.0000
 41
0.0000
 70
1
  0
VERTEX
  8
16
 10
40.6400
 20
-30.0736
 30
0.0000
  0
VERTEX
  8
16
 10
-40.6400
 20
-30.0736
 30
0.0000
 42
1.0000
  0
VERTEX
  8
16
 10
-40.6400
 20
-30.8864
 30
0.0000
  0
VERTEX
  8
16
 10
40.6400
 20
-30.8864
 30
0.0000
 42
1.0000
  0
SEQEND
  8
0
  0
POLYLINE
  8
16
 66
1
 10
0.0000
 20
0.0000
 30
0.0000
 40
0.0000
 41
0.0000
 70
1
  0
VERTEX
  8
16
 10
-8.9950
 20
-5.8386
 30
0.0000
  0
VERTEX
  8
16
 10
-10.1600
 20
-5.8386
 30
0.0000
 42
1.0000
  0
VERTEX
  8
16
 10
-10.1600
 20
-6.6514
 30
0.0000
  0
VERTEX
  8
16
 10
-8.9950
 20
-6.6514
 30
0.0000
 42
1.0000
  0
SEQEND
  8
0
  0
POLYLINE
  8
16
 66
1
 10
0.0000
 20
0.0000
 30
0.0000
 40
0.0000
 41
0.0000
 70
1
  0
VERTEX
  8
16
 10
-10.1600
 20
-5.8386
 30
0.0000
  0
VERTEX
  8
16
 10
-13.9700
 20
-5.8386
 30
0.0000
 42
1.0000
  0
VERTEX
  8
16
 10
-13.9700
 20
-6.6514
 30
0.0000
  0
VERTEX
  8
16
 10
-10.1600
 20
-6.6514
 30
0.0000
 42
1.0000
  0
SEQEND
  8
0
  0
POLYLINE
  8
16
 66
1
 10
0.0000
 20
0.0000
 30
0.0000
 40
0.0000
 41
0.0000
 70
1
  0
VERTEX
  8
16
 10
-5.4276
 20
-9.2376
 30
0.0000
  0
VERTEX
  8
16
 10
-8.7076
 20
-5.9576
 30
0.0000
 42
1.0000
  0
VERTEX
  8
16
 10
-9.2824
 20
-6.5324
 30
0.0000
  0
VERTEX
  8
16
 10
-6.0024
 20
-9.8124
 30
0.0000
 42
1.0000
  0
SEQEND
  8
0
  0
POLYLINE
  8
16
 66
1
 10
0.0000
 20
0.0000
 30
0.0000
 40
0.0000
 41
0.0000
 70
1
  0
VERTEX
  8
16
 10
19.3976
 20
8.6026
 30
0.0000
  0
VERTEX
  8
16
 10
20.0326
 20
7.9676
 30
0.0000
 42
1.0000
  0
VERTEX
  8
16
 10
20.6074
 20
8.5424
 30
0.0000
  0
VERTEX
  8
16
 10
19.9724
 20
9.1774
 30
0.0000
 42
1.0000
  0
SEQEND
  8
0
  0
POLYLINE
  8
16
 66
1
 10
0.0000
 20
0.0000
 30
0.0000
 40
0.0000
 41
0.0000
 70
1
  0
VERTEX
  8
16
 10
14.6050
 20
7.2136
 30
0.0000
  0
VERTEX
  8
16
 10
18.4150
 20
7.2136
 30
0.0000
 42
1.0000
  0
VERTEX
  8
16
 10
18.4150
 20
8.0264
 30
0.0000
  0
VERTEX
  8
16
 10
14.6050
 20
8.0264
 30
0.0000
 42
1.0000
  0
SEQEND
  8
0
  0
POLYLINE
  8
16
 66
1
 10
0.0000
 20
0.0000
 30
0.0000
 40
0.0000
 41
0.0000
 70
1
  0
VERTEX
  8
16
 10
18.4150
 20
8.4836
 30
0.0000
  0
VERTEX
  8
16
 10
19.6850
 20
8.4836
 30
0.0000
 42
1.0000
  0
VERTEX
  8
16
 10
19.6850
 20
9.2964
 30
0.0000
  0
VERTEX
  8
16
 10
18.4150
 20
9.2964
 30
0.0000
 42
1.0000
  0
SEQEND
  8
0
  0
POLYLINE
  8
16
 66
1
 10
0.0000
 20
0.0000
 30
0.0000
 40
0.0000
 41
0.0000
 70
1
  0
VERTEX
  8
16
 10
18.7024
 20
12.9874
 30
0.0000
  0
VERTEX
  8
16
 10
12.9874
 20
18.7024
 30
0.0000
 42
1.0000
  0
VERTEX
  8
16
 10
12.4126
 20
18.1276
 30
0.0000
  0
VERTEX
  8
16
 10
18.1276
 20
12.4126
 30
0.0000
 42
1.0000
  0
SEQEND
  8
0
  0
POLYLINE
  8
16
 66
1
 10
0.0000
 20
0.0000
 30
0.0000
 40
0.0000
 41
0.0000
 70
1
  0
VERTEX
  8
16
 10
12.0650
 20
18.0086
 30
0.0000
  0
VERTEX
  8
16
 10
12.7000
 20
18.0086
 30
0.0000
 42
1.0000
  0
VERTEX
  8
16
 10
12.7000
 20
18.8214
 30
0.0000
  0
VERTEX
  8
16
 10
12.0650
 20
18.8214
 30
0.0000
 42
1.0000
  0
SEQEND
  8
0
  0
POLYLINE
  8
16
 66
1
 10
0.0000
 20
0.0000
 30
0.0000
 40
0.0000
 41
0.0000
 70
1
  0
VERTEX
  8
16
 10
18.0086
 20
12.7000
 30
0.0000
  0
VERTEX
  8
16
 10
18.0086
 20
8.8900
 30
0.0000
 42
1.0000
  0
VERTEX
  8
16
 10
18.8214
 20
8.8900
 30
0.0000
  0
VERTEX
  8
16
 10
18.8214
 20
12.7000
 30
0.0000
 42
1.0000
  0
SEQEND
  8
0
  0
POLYLINE
  8
16
 66
1
 10
0.0000
 20
0.0000
 30
0.0000
 40
0.0000
 41
0.0000
 70
1
  0
VERTEX
  8
16
 10
18.0086
 20
8.8900
 30
0.0000
  0
VERTEX
  8
16
 10
18.0086
 20
7.6200
 30
0.0000
 42
1.0000
  0
VERTEX
  8
16
 10
18.8214
 20
7.6200
 30
0.0000
  0
VERTEX
  8
16
 10
18.8214
 20
8.8900
 30
0.0000
 42
1.0000
  0
SEQEND
  8
0
  0
POLYLINE
  8
16
 66
1
 10
0.0000
 20
0.0000
 30
0.0000
 40
0.0000
 41
0.0000
 70
1
  0
VERTEX
  8
16
 10
11.7174
 20
6.0626
 30
0.0000
  0
VERTEX
  8
16
 10
12.9874
 20
7.3326
 30
0.0000
 42
1.0000
  0
VERTEX
  8
16
 10
12.4126
 20
7.9074
 30
0.0000
  0
VERTEX
  8
16
 10
11.1426
 20
6.6374
 30
0.0000
 42
1.0000
  0
SEQEND
  8
0
  0
POLYLINE
  8
16
 66
1
 10
0.0000
 20
0.0000
 30
0.0000
 40
0.0000
 41
0.0000
 70
1
  0
VERTEX
  8
16
 10
12.7000
 20
7.2136
 30
0.0000
  0
VERTEX
  8
16
 10
14.6050
 20
7.2136
 30
0.0000
 42
1.0000
  0
VERTEX
  8
16
 10
14.6050
 20
8.0264
 30
0.0000
  0
VERTEX
  8
16
 10
12.7000
 20
8.0264
 30
0.0000
 42
1.0000
  0
SEQEND
  8
0
  0
POLYLINE
  8
16
 66
1
 10
0.0000
 20
0.0000
 30
0.0000
 40
0.0000
 41
0.0000
 70
1
  0
VERTEX
  8
16
 10
-7.6200
 20
5.9436
 30
0.0000
  0
VERTEX
  8
16
 10
-5.0800
 20
5.9436
 30
0.0000
 42
1.0000
  0
VERTEX
  8
16
 10
-5.0800
 20
6.7564
 30
0.0000
  0
VERTEX
  8
16
 10
-7.6200
 20
6.7564
 30
0.0000
 42
1.0000
  0
SEQEND
  8
0
  0
POLYLINE
  8
16
 66
1
 10
0.0000
 20
0.0000
 30
0.0000
 40
0.0000
 41
0.0000
 70
1
  0
VERTEX
  8
16
 10
-5.0800
 20
5.9436
 30
0.0000
  0
VERTEX
  8
16
 10
11.4300
 20
5.9436
 30
0.0000
 42
1.0000
  0
VERTEX
  8
16
 10
11.4300
 20
6.7564
 30
0.0000
  0
VERTEX
  8
16
 10
-5.0800
 20
6.7564
 30
0.0000
 42
1.0000
  0
SEQEND
  8
0
  0
POLYLINE
  8
16
 66
1
 10
0.0000
 20
0.0000
 30
0.0000
 40
0.0000
 41
0.0000
 70
1
  0
VERTEX
  8
16
 10
-5.1435
 20
6.3500
 30
0.0000
  0
VERTEX
  8
16
 10
-5.1435
 20
3.8100
 30
0.0000
 42
1.0000
  0
VERTEX
  8
16
 10
-5.0165
 20
3.8100
 30
0.0000
  0
VERTEX
  8
16
 10
-5.0165
 20
6.3500
 30
0.0000
 42
1.0000
  0
SEQEND
  8
0
  0
POLYLINE
  8
16
 66
1
 10
0.0000
 20
0.0000
 30
0.0000
 40
0.0000
 41
0.0000
 70
1
  0
VERTEX
  8
16
 10
-6.3500
 20
2.6035
 30
0.0000
  0
VERTEX
  8
16
 10
-9.5250
 20
2.6035
 30
0.0000
 42
1.0000
  0
VERTEX
  8
16
 10
-9.5250
 20
2.4765
 30
0.0000
  0
VERTEX
  8
16
 10
-6.3500
 20
2.4765
 30
0.0000
 42
1.0000
  0
SEQEND
  8
0
  0
POLYLINE
  8
16
 66
1
 10
0.0000
 20
0.0000
 30
0.0000
 40
0.0000
 41
0.0000
 70
1
  0
VERTEX
  8
16
 10
-9.5699
 20
2.5849
 30
0.0000
  0
VERTEX
  8
16
 10
-10.2049
 20
1.9499
 30
0.0000
 42
1.0000
  0
VERTEX
  8
16
 10
-10.1151
 20
1.8601
 30
0.0000
  0
VERTEX
  8
16
 10
-9.4801
 20
2.4951
 30
0.0000
 42
1.0000
  0
SEQEND
  8
0
  0
POLYLINE
  8
16
 66
1
 10
0.0000
 20
0.0000
 30
0.0000
 40
0.0000
 41
0.0000
 70
1
  0
VERTEX
  8
16
 10
-10.2235
 20
1.9050
 30
0.0000
  0
VERTEX
  8
16
 10
-10.2235
 20
-6.2450
 30
0.0000
 42
1.0000
  0
VERTEX
  8
16
 10
-10.0965
 20
-6.2450
 30
0.0000
  0
VERTEX
  8
16
 10
-10.0965
 20
1.9050
 30
0.0000
 42
1.0000
  0
SEQEND
  8
0
  0
POLYLINE
  8
16
 66
1
 10
0.0000
 20
0.0000
 30
0.0000
 40
0.0000
 41
0.0000
 70
1
  0
VERTEX
  8
16
 10
-5.1249
 20
3.8549
 30
0.0000
  0
VERTEX
  8
16
 10
-6.3949
 20
2.5849
 30
0.0000
 42
1.0000
  0
VERTEX
  8
16
 10
-6.3051
 20
2.4951
 30
0.0000
  0
VERTEX
  8
16
 10
-5.0351
 20
3.7651
 30
0.0000
 42
1.0000
  0
SEQEND
  8
0
  0
INSERT
  8
18
  2
ROUNDV
 10
-4.4450
 20
11.4300
 30
0.0000
 41
1.5000
 42
1.5000
 43
1.0000
 50
0.0000
  0
INSERT
  8
18
  2
ROUNDV
 10
-4.4450
 20
11.4300
 30
0.0000
 41
1.5000
 42
1.5000
 43
1.0000
 50
0.0000
  0
CIRCLE
  8
44
 10
-4.4450
 20
11.4300
 30
0.0000
 40
0.5000
  0
INSERT
  8
18
  2
ROUNDV
 10
-3.8100
 20
-6.3500
 30
0.0000
 41
1.5000
 42
1.5000
 43
1.0000
 50
0.0000
  0
INSERT
  8
18
  2
ROUNDV
 10
-3.8100
 20
-6.3500
 30
0.0000
 41
1.5000
 42
1.5000
 43
1.0000
 50
0.0000
  0
CIRCLE
  8
44
 10
-3.8100
 20
-6.3500
 30
0.0000
 40
0.5000
  0
POLYLINE
  8
16
 66
1
 10
0.0000
 20
0.0000
 30
0.0000
 40
0.0000
 41
0.0000
 70
1
  0
VERTEX
  8
16
 10
-7.6200
 20
0.8636
 30
0.0000
  0
VERTEX
  8
16
 10
10.7950
 20
0.8636
 30
0.0000
 42
1.0000
  0
VERTEX
  8
16
 10
10.7950
 20
1.6764
 30
0.0000
  0
VERTEX
  8
16
 10
-7.6200
 20
1.6764
 30
0.0000
 42
1.0000
  0
SEQEND
  8
0
  0
POLYLINE
  8
16
 66
1
 10
0.0000
 20
0.0000
 30
0.0000
 40
0.0000
 41
0.0000
 70
1
  0
VERTEX
  8
16
 10
-7.6200
 20
-1.6764
 30
0.0000
  0
VERTEX
  8
16
 10
10.7950
 20
-1.6764
 30
0.0000
 42
1.0000
  0
VERTEX
  8
16
 10
10.7950
 20
-0.8636
 30
0.0000
  0
VERTEX
  8
16
 10
-7.6200
 20
-0.8636
 30
0.0000
 42
1.0000
  0
SEQEND
  8
0
  0
POLYLINE
  8
16
 66
1
 10
0.0000
 20
0.0000
 30
0.0000
 40
0.0000
 41
0.0000
 70
1
  0
VERTEX
  8
16
 10
0.8636
 20
22.8600
 30
0.0000
  0
VERTEX
  8
16
 10
0.8636
 20
20.9550
 30
0.0000
 42
1.0000
  0
VERTEX
  8
16
 10
1.6764
 20
20.9550
 30
0.0000
  0
VERTEX
  8
16
 10
1.6764
 20
22.8600
 30
0.0000
 42
1.0000
  0
SEQEND
  8
0
  0
POLYLINE
  8
16
 66
1
 10
0.0000
 20
0.0000
 30
0.0000
 40
0.0000
 41
0.0000
 70
1
  0
VERTEX
  8
16
 10
0.9826
 20
20.6676
 30
0.0000
  0
VERTEX
  8
16
 10
2.2526
 20
19.3976
 30
0.0000
 42
1.0000
  0
VERTEX
  8
16
 10
2.8274
 20
19.9724
 30
0.0000
  0
VERTEX
  8
16
 10
1.5574
 20
21.2424
 30
0.0000
 42
1.0000
  0
SEQEND
  8
0
  0
POLYLINE
  8
16
 66
1
 10
0.0000
 20
0.0000
 30
0.0000
 40
0.0000
 41
0.0000
 70
1
  0
VERTEX
  8
16
 10
2.2526
 20
19.3976
 30
0.0000
  0
VERTEX
  8
16
 10
3.5226
 20
18.1276
 30
0.0000
 42
1.0000
  0
VERTEX
  8
16
 10
4.0974
 20
18.7024
 30
0.0000
  0
VERTEX
  8
16
 10
2.8274
 20
19.9724
 30
0.0000
 42
1.0000
  0
SEQEND
  8
0
  0
POLYLINE
  8
16
 66
1
 10
0.0000
 20
0.0000
 30
0.0000
 40
0.0000
 41
0.0000
 70
1
  0
VERTEX
  8
16
 10
3.8100
 20
18.0086
 30
0.0000
  0
VERTEX
  8
16
 10
4.4450
 20
18.0086
 30
0.0000
 42
1.0000
  0
VERTEX
  8
16
 10
4.4450
 20
18.8214
 30
0.0000
  0
VERTEX
  8
16
 10
3.8100
 20
18.8214
 30
0.0000
 42
1.0000
  0
SEQEND
  8
0
  0
POLYLINE
  8
16
 66
1
 10
0.0000
 20
0.0000
 30
0.0000
 40
0.0000
 41
0.0000
 70
1
  0
VERTEX
  8
16
 10
14.6050
 20
-0.4064
 30
0.0000
  0
VERTEX
  8
16
 10
16.5100
 20
-0.4064
 30
0.0000
 42
1.0000
  0
VERTEX
  8
16
 10
16.5100
 20
0.4064
 30
0.0000
  0
VERTEX
  8
16
 10
14.6050
 20
0.4064
 30
0.0000
 42
1.0000
  0
SEQEND
  8
0
  0
POLYLINE
  8
16
 66
1
 10
0.0000
 20
0.0000
 30
0.0000
 40
0.0000
 41
0.0000
 70
1
  0
VERTEX
  8
16
 10
22.6314
 20
5.7150
 30
0.0000
  0
VERTEX
  8
16
 10
22.6314
 20
8.8900
 30
0.0000
 42
1.0000
  0
VERTEX
  8
16
 10
21.8186
 20
8.8900
 30
0.0000
  0
VERTEX
  8
16
 10
21.8186
 20
5.7150
 30
0.0000
 42
1.0000
  0
SEQEND
  8
0
  0
POLYLINE
  8
16
 66
1
 10
0.0000
 20
0.0000
 30
0.0000
 40
0.0000
 41
0.0000
 70
1
  0
VERTEX
  8
16
 10
22.5124
 20
9.1774
 30
0.0000
  0
VERTEX
  8
16
 10
20.6074
 20
11.0824
 30
0.0000
 42
1.0000
  0
VERTEX
  8
16
 10
20.0326
 20
10.5076
 30
0.0000
  0
VERTEX
  8
16
 10
21.9376
 20
8.6026
 30
0.0000
 42
1.0000
  0
SEQEND
  8
0
  0
POLYLINE
  8
16
 66
1
 10
0.0000
 20
0.0000
 30
0.0000
 40
0.0000
 41
0.0000
 70
1
  0
VERTEX
  8
16
 10
20.7264
 20
10.7950
 30
0.0000
  0
VERTEX
  8
16
 10
20.7264
 20
12.7000
 30
0.0000
 42
1.0000
  0
VERTEX
  8
16
 10
19.9136
 20
12.7000
 30
0.0000
  0
VERTEX
  8
16
 10
19.9136
 20
10.7950
 30
0.0000
 42
1.0000
  0
SEQEND
  8
0
  0
POLYLINE
  8
16
 66
1
 10
0.0000
 20
0.0000
 30
0.0000
 40
0.0000
 41
0.0000
 70
1
  0
VERTEX
  8
16
 10
20.6074
 20
12.9874
 30
0.0000
  0
VERTEX
  8
16
 10
12.9874
 20
20.6074
 30
0.0000
 42
1.0000
  0
VERTEX
  8
16
 10
12.4126
 20
20.0326
 30
0.0000
  0
VERTEX
  8
16
 10
20.0326
 20
12.4126
 30
0.0000
 42
1.0000
  0
SEQEND
  8
0
  0
POLYLINE
  8
16
 66
1
 10
0.0000
 20
0.0000
 30
0.0000
 40
0.0000
 41
0.0000
 70
1
  0
VERTEX
  8
16
 10
12.7000
 20
20.7264
 30
0.0000
  0
VERTEX
  8
16
 10
11.4300
 20
20.7264
 30
0.0000
 42
1.0000
  0
VERTEX
  8
16
 10
11.4300
 20
19.9136
 30
0.0000
  0
VERTEX
  8
16
 10
12.7000
 20
19.9136
 30
0.0000
 42
1.0000
  0
SEQEND
  8
0
  0
POLYLINE
  8
16
 66
1
 10
0.0000
 20
0.0000
 30
0.0000
 40
0.0000
 41
0.0000
 70
1
  0
VERTEX
  8
16
 10
11.7174
 20
20.6074
 30
0.0000
  0
VERTEX
  8
16
 10
10.4474
 20
21.8774
 30
0.0000
 42
1.0000
  0
VERTEX
  8
16
 10
9.8726
 20
21.3026
 30
0.0000
  0
VERTEX
  8
16
 10
11.1426
 20
20.0326
 30
0.0000
 42
1.0000
  0
SEQEND
  8
0
  0
POLYLINE
  8
16
 66
1
 10
0.0000
 20
0.0000
 30
0.0000
 40
0.0000
 41
0.0000
 70
1
  0
VERTEX
  8
16
 10
16.7974
 20
-0.2874
 30
0.0000
  0
VERTEX
  8
16
 10
22.5124
 20
5.4276
 30
0.0000
 42
1.0000
  0
VERTEX
  8
16
 10
21.9376
 20
6.0024
 30
0.0000
  0
VERTEX
  8
16
 10
16.2226
 20
0.2874
 30
0.0000
 42
1.0000
  0
SEQEND
  8
0
  0
INSERT
  8
18
  2
ROUNDV
 10
10.1600
 20
21.5900
 30
0.0000
 41
1.5000
 42
1.5000
 43
1.0000
 50
0.0000
  0
INSERT
  8
18
  2
ROUNDV
 10
10.1600
 20
21.5900
 30
0.0000
 41
1.5000
 42
1.5000
 43
1.0000
 50
0.0000
  0
CIRCLE
  8
44
 10
10.1600
 20
21.5900
 30
0.0000
 40
0.5000
  0
INSERT
  8
18
  2
ROUNDV
 10
2.5400
 20
19.6850
 30
0.0000
 41
1.5000
 42
1.5000
 43
1.0000
 50
0.0000
  0
INSERT
  8
18
  2
ROUNDV
 10
2.5400
 20
19.6850
 30
0.0000
 41
1.5000
 42
1.5000
 43
1.0000
 50
0.0000
  0
CIRCLE
  8
44
 10
2.5400
 20
19.6850
 30
0.0000
 40
0.5000
  0
POLYLINE
  8
16
 66
1
 10
0.0000
 20
0.0000
 30
0.0000
 40
0.0000
 41
0.0000
 70
1
  0
VERTEX
  8
16
 10
2.1336
 20
39.3700
 30
0.0000
  0
VERTEX
  8
16
 10
2.1336
 20
24.7650
 30
0.0000
 42
1.0000
  0
VERTEX
  8
16
 10
2.9464
 20
24.7650
 30
0.0000
  0
VERTEX
  8
16
 10
2.9464
 20
39.3700
 30
0.0000
 42
1.0000
  0
SEQEND
  8
0
  0
POLYLINE
  8
16
 66
1
 10
0.0000
 20
0.0000
 30
0.0000
 40
0.0000
 41
0.0000
 70
1
  0
VERTEX
  8
16
 10
-2.3114
 20
39.3700
 30
0.0000
  0
VERTEX
  8
16
 10
-2.3114
 20
27.3050
 30
0.0000
 42
1.0000
  0
VERTEX
  8
16
 10
-1.4986
 20
27.3050
 30
0.0000
  0
VERTEX
  8
16
 10
-1.4986
 20
39.3700
 30
0.0000
 42
1.0000
  0
SEQEND
  8
0
  0
POLYLINE
  8
16
 66
1
 10
0.0000
 20
0.0000
 30
0.0000
 40
0.0000
 41
0.0000
 70
1
  0
VERTEX
  8
16
 10
-34.7189
 20
-17.4953
 30
0.0000
  0
VERTEX
  8
16
 10
-23.9239
 20
-11.1453
 30
0.0000
 42
1.0000
  0
VERTEX
  8
16
 10
-24.3361
 20
-10.4447
 30
0.0000
  0
VERTEX
  8
16
 10
-35.1311
 20
-16.7947
 30
0.0000
 42
1.0000
  0
SEQEND
  8
0
  0
POLYLINE
  8
16
 66
1
 10
0.0000
 20
0.0000
 30
0.0000
 40
0.0000
 41
0.0000
 70
1
  0
VERTEX
  8
16
 10
35.1286
 20
-16.7933
 30
0.0000
  0
VERTEX
  8
16
 10
23.0636
 20
-9.8083
 30
0.0000
 42
1.0000
  0
VERTEX
  8
16
 10
22.6564
 20
-10.5117
 30
0.0000
  0
VERTEX
  8
16
 10
34.7214
 20
-17.4967
 30
0.0000
 42
1.0000
  0
SEQEND
  8
0
  0
POLYLINE
  8
16
 66
1
 10
0.0000
 20
0.0000
 30
0.0000
 40
0.0000
 41
0.0000
 70
1
  0
VERTEX
  8
16
 10
-32.1858
 20
-21.9442
 30
0.0000
  0
VERTEX
  8
16
 10
-22.0258
 20
-16.2292
 30
0.0000
 42
1.0000
  0
VERTEX
  8
16
 10
-22.4242
 20
-15.5208
 30
0.0000
  0
VERTEX
  8
16
 10
-32.5842
 20
-21.2358
 30
0.0000
 42
1.0000
  0
SEQEND
  8
0
  0
POLYLINE
  8
16
 66
1
 10
0.0000
 20
0.0000
 30
0.0000
 40
0.0000
 41
0.0000
 70
1
  0
VERTEX
  8
16
 10
-22.2250
 20
-16.2814
 30
0.0000
  0
VERTEX
  8
16
 10
-11.4300
 20
-16.2814
 30
0.0000
 42
1.0000
  0
VERTEX
  8
16
 10
-11.4300
 20
-15.4686
 30
0.0000
  0
VERTEX
  8
16
 10
-22.2250
 20
-15.4686
 30
0.0000
 42
1.0000
  0
SEQEND
  8
0
  0
POLYLINE
  8
16
 66
1
 10
0.0000
 20
0.0000
 30
0.0000
 40
0.0000
 41
0.0000
 70
1
  0
VERTEX
  8
16
 10
-9.5250
 20
-17.5514
 30
0.0000
  0
VERTEX
  8
16
 10
-5.7150
 20
-17.5514
 30
0.0000
 42
1.0000
  0
VERTEX
  8
16
 10
-5.7150
 20
-16.7386
 30
0.0000
  0
VERTEX
  8
16
 10
-9.5250
 20
-16.7386
 30
0.0000
 42
1.0000
  0
SEQEND
  8
0
  0
POLYLINE
  8
16
 66
1
 10
0.0000
 20
0.0000
 30
0.0000
 40
0.0000
 41
0.0000
 70
1
  0
VERTEX
  8
16
 10
-6.0024
 20
-17.4324
 30
0.0000
  0
VERTEX
  8
16
 10
-2.8274
 20
-20.6074
 30
0.0000
 42
1.0000
  0
VERTEX
  8
16
 10
-2.2526
 20
-20.0326
 30
0.0000
  0
VERTEX
  8
16
 10
-5.4276
 20
-16.8576
 30
0.0000
 42
1.0000
  0
SEQEND
  8
0
  0
POLYLINE
  8
16
 66
1
 10
0.0000
 20
0.0000
 30
0.0000
 40
0.0000
 41
0.0000
 70
1
  0
VERTEX
  8
16
 10
-2.5400
 20
-20.7264
 30
0.0000
  0
VERTEX
  8
16
 10
1.9050
 20
-20.7264
 30
0.0000
 42
1.0000
  0
VERTEX
  8
16
 10
1.9050
 20
-19.9136
 30
0.0000
  0
VERTEX
  8
16
 10
-2.5400
 20
-19.9136
 30
0.0000
 42
1.0000
  0
SEQEND
  8
0
  0
POLYLINE
  8
16
 66
1
 10
0.0000
 20
0.0000
 30
0.0000
 40
0.0000
 41
0.0000
 70
1
  0
VERTEX
  8
16
 10
2.1924
 20
-20.6074
 30
0.0000
  0
VERTEX
  8
16
 10
4.0974
 20
-18.7024
 30
0.0000
 42
1.0000
  0
VERTEX
  8
16
 10
3.5226
 20
-18.1276
 30
0.0000
  0
VERTEX
  8
16
 10
1.6176
 20
-20.0326
 30
0.0000
 42
1.0000
  0
SEQEND
  8
0
  0
POLYLINE
  8
16
 66
1
 10
0.0000
 20
0.0000
 30
0.0000
 40
0.0000
 41
0.0000
 70
1
  0
VERTEX
  8
16
 10
4.0974
 20
-5.3674
 30
0.0000
  0
VERTEX
  8
16
 10
5.3674
 20
-4.0974
 30
0.0000
 42
1.0000
  0
VERTEX
  8
16
 10
4.7926
 20
-3.5226
 30
0.0000
  0
VERTEX
  8
16
 10
3.5226
 20
-4.7926
 30
0.0000
 42
1.0000
  0
SEQEND
  8
0
  0
POLYLINE
  8
16
 66
1
 10
0.0000
 20
0.0000
 30
0.0000
 40
0.0000
 41
0.0000
 70
1
  0
VERTEX
  8
16
 10
5.0800
 20
-4.2164
 30
0.0000
  0
VERTEX
  8
16
 10
11.4300
 20
-4.2164
 30
0.0000
 42
1.0000
  0
VERTEX
  8
16
 10
11.4300
 20
-3.4036
 30
0.0000
  0
VERTEX
  8
16
 10
5.0800
 20
-3.4036
 30
0.0000
 42
1.0000
  0
SEQEND
  8
0
  0
POLYLINE
  8
16
 66
1
 10
0.0000
 20
0.0000
 30
0.0000
 40
0.0000
 41
0.0000
 70
1
  0
VERTEX
  8
16
 10
11.7174
 20
-4.0974
 30
0.0000
  0
VERTEX
  8
16
 10
12.9874
 20
-2.8274
 30
0.0000
 42
1.0000
  0
VERTEX
  8
16
 10
12.4126
 20
-2.2526
 30
0.0000
  0
VERTEX
  8
16
 10
11.1426
 20
-3.5226
 30
0.0000
 42
1.0000
  0
SEQEND
  8
0
  0
POLYLINE
  8
16
 66
1
 10
0.0000
 20
0.0000
 30
0.0000
 40
0.0000
 41
0.0000
 70
1
  0
VERTEX
  8
16
 10
12.7000
 20
-2.9464
 30
0.0000
  0
VERTEX
  8
16
 10
14.6050
 20
-2.9464
 30
0.0000
 42
1.0000
  0
VERTEX
  8
16
 10
14.6050
 20
-2.1336
 30
0.0000
  0
VERTEX
  8
16
 10
12.7000
 20
-2.1336
 30
0.0000
 42
1.0000
  0
SEQEND
  8
0
  0
POLYLINE
  8
16
 66
1
 10
0.0000
 20
0.0000
 30
0.0000
 40
0.0000
 41
0.0000
 70
1
  0
VERTEX
  8
16
 10
4.2164
 20
-18.4150
 30
0.0000
  0
VERTEX
  8
16
 10
4.2164
 20
-5.0800
 30
0.0000
 42
1.0000
  0
VERTEX
  8
16
 10
3.4036
 20
-5.0800
 30
0.0000
  0
VERTEX
  8
16
 10
3.4036
 20
-18.4150
 30
0.0000
 42
1.0000
  0
SEQEND
  8
0
  0
POLYLINE
  8
16
 66
1
 10
0.0000
 20
0.0000
 30
0.0000
 40
0.0000
 41
0.0000
 70
1
  0
VERTEX
  8
16
 10
14.6050
 20
-5.4864
 30
0.0000
  0
VERTEX
  8
16
 10
20.3200
 20
-5.4864
 30
0.0000
 42
1.0000
  0
VERTEX
  8
16
 10
20.3200
 20
-4.6736
 30
0.0000
  0
VERTEX
  8
16
 10
14.6050
 20
-4.6736
 30
0.0000
 42
1.0000
  0
SEQEND
  8
0
  0
POLYLINE
  8
16
 66
1
 10
0.0000
 20
0.0000
 30
0.0000
 40
0.0000
 41
0.0000
 70
1
  0
VERTEX
  8
16
 10
20.7264
 20
-5.0800
 30
0.0000
  0
VERTEX
  8
16
 10
20.7264
 20
-3.8100
 30
0.0000
 42
1.0000
  0
VERTEX
  8
16
 10
19.9136
 20
-3.8100
 30
0.0000
  0
VERTEX
  8
16
 10
19.9136
 20
-5.0800
 30
0.0000
 42
1.0000
  0
SEQEND
  8
0
  0
POLYLINE
  8
16
 66
1
 10
0.0000
 20
0.0000
 30
0.0000
 40
0.0000
 41
0.0000
 70
1
  0
VERTEX
  8
16
 10
20.7264
 20
-3.8100
 30
0.0000
  0
VERTEX
  8
16
 10
20.7264
 20
0.6350
 30
0.0000
 42
1.0000
  0
VERTEX
  8
16
 10
19.9136
 20
0.6350
 30
0.0000
  0
VERTEX
  8
16
 10
19.9136
 20
-3.8100
 30
0.0000
 42
1.0000
  0
SEQEND
  8
0
  0
POLYLINE
  8
16
 66
1
 10
0.0000
 20
0.0000
 30
0.0000
 40
0.0000
 41
0.0000
 70
1
  0
VERTEX
  8
16
 10
21.2424
 20
-4.1576
 30
0.0000
  0
VERTEX
  8
16
 10
20.6074
 20
-3.5226
 30
0.0000
 42
1.0000
  0
VERTEX
  8
16
 10
20.0326
 20
-4.0974
 30
0.0000
  0
VERTEX
  8
16
 10
20.6676
 20
-4.7324
 30
0.0000
 42
1.0000
  0
SEQEND
  8
0
  0
POLYLINE
  8
16
 66
1
 10
0.0000
 20
0.0000
 30
0.0000
 40
0.0000
 41
0.0000
 70
1
  0
VERTEX
  8
16
 10
21.3614
 20
-8.8900
 30
0.0000
  0
VERTEX
  8
16
 10
21.3614
 20
-4.4450
 30
0.0000
 42
1.0000
  0
VERTEX
  8
16
 10
20.5486
 20
-4.4450
 30
0.0000
  0
VERTEX
  8
16
 10
20.5486
 20
-8.8900
 30
0.0000
 42
1.0000
  0
SEQEND
  8
0
  0
POLYLINE
  8
16
 66
1
 10
0.0000
 20
0.0000
 30
0.0000
 40
0.0000
 41
0.0000
 70
1
  0
VERTEX
  8
16
 10
32.5796
 20
-21.2332
 30
0.0000
  0
VERTEX
  8
16
 10
26.8403
 20
-18.1027
 30
0.0000
 42
1.0000
  0
VERTEX
  8
16
 10
26.4511
 20
-18.8163
 30
0.0000
  0
VERTEX
  8
16
 10
32.1904
 20
-21.9468
 30
0.0000
 42
1.0000
  0
SEQEND
  8
0
  0
POLYLINE
  8
16
 66
1
 10
0.0000
 20
0.0000
 30
0.0000
 40
0.0000
 41
0.0000
 70
1
  0
VERTEX
  8
16
 10
26.8403
 20
-18.1027
 30
0.0000
  0
VERTEX
  8
16
 10
25.5946
 20
-17.4232
 30
0.0000
 42
1.0000
  0
VERTEX
  8
16
 10
25.2054
 20
-18.1368
 30
0.0000
  0
VERTEX
  8
16
 10
26.4511
 20
-18.8163
 30
0.0000
 42
1.0000
  0
SEQEND
  8
0
  0
POLYLINE
  8
16
 66
1
 10
0.0000
 20
0.0000
 30
0.0000
 40
0.0000
 41
0.0000
 70
1
  0
VERTEX
  8
16
 10
25.8064
 20
-17.7800
 30
0.0000
  0
VERTEX
  8
16
 10
25.8064
 20
-15.2400
 30
0.0000
 42
1.0000
  0
VERTEX
  8
16
 10
24.9936
 20
-15.2400
 30
0.0000
  0
VERTEX
  8
16
 10
24.9936
 20
-17.7800
 30
0.0000
 42
1.0000
  0
SEQEND
  8
0
  0
ENDSEC
  0
EOF
