  0
SECTION
  2
HEADER
  9
$ACADVER
  1
AC1009
  9
$FILLMODE
 70
1
  9
$EXTMIN
 10
-41.1683
 20
-31.0083
 30
0.0000
  9
$EXTMAX
 10
41.1683
 20
47.5183
 30
0.0000
  0
ENDSEC
  0
SECTION
  2
TABLES
  0
TABLE
  2
LTYPE
 70
1
  0
LTYPE
  2
CONTINUOUS
 70
64
  3
Solid line
 72
65
 73
0
 40
0
  0
ENDTAB
  0
TABLE
  2
LAYER
 70
255
  0
LAYER
  2
16
 70
64
 62
132
  6
CONTINUOUS
  0
LAYER
  2
17
 70
64
 62
110
  6
CONTINUOUS
  0
LAYER
  2
18
 70
64
 62
110
  6
CONTINUOUS
  0
LAYER
  2
20
 70
64
 62
31
  6
CONTINUOUS
  0
LAYER
  2
44
 70
64
 62
253
  6
CONTINUOUS
  0
ENDTAB
  0
ENDSEC
  0
SECTION
  2
BLOCKS
  0
BLOCK
  8
0
  2
RECT
 70
64
 10
0.0000
 20
0.0000
 30
0.0000
  3
RECT
  0
SOLID
  8
0
 10
-0.5000
 20
-0.5000
 30
0.0000
 11
0.5000
 21
-0.5000
 31
0.0000
 12
-0.5000
 22
0.5000
 32
0.0000
 13
0.5000
 23
0.5000
 33
0.0000
  0
ENDBLK
  8
0
  0
BLOCK
  8
0
  2
PIE
 70
64
 10
0.0000
 20
0.0000
 30
0.0000
  3
PIE
  0
POLYLINE
  8
0
 66
1
 10
0.0000
 20
0.0000
 30
0.0000
 40
0.5000
 41
0.5000
 70
0
  0
VERTEX
  8
0
 10
0.0000
 20
-0.2500
 30
0.0000
 42
1.0000
  0
VERTEX
  8
0
 10
0.0000
 20
0.2500
 30
0.0000
 42
1.0000
  0
VERTEX
  8
0
 10
0.0000
 20
-0.2500
 30
0.0000
  0
SEQEND
  8
0
  0
ENDBLK
  8
0
  0
BLOCK
  8
0
  2
OCTAGONP
 70
64
 10
0.0000
 20
0.0000
 30
0.0000
  3
OCTAGONP
  0
POLYLINE
  8
0
 66
1
 10
0.0000
 20
0.0000
 30
0.0000
 40
0.5000
 41
0.5000
 70
0
  0
VERTEX
  8
0
 10
-0.2500
 20
-0.1036
 30
0.0000
  0
VERTEX
  8
0
 10
-0.2500
 20
0.1036
 30
0.0000
  0
VERTEX
  8
0
 10
-0.1036
 20
0.2500
 30
0.0000
  0
VERTEX
  8
0
 10
0.1036
 20
0.2500
 30
0.0000
  0
VERTEX
  8
0
 10
0.2500
 20
0.1036
 30
0.0000
  0
VERTEX
  8
0
 10
0.2500
 20
-0.1036
 30
0.0000
  0
VERTEX
  8
0
 10
0.1036
 20
-0.2500
 30
0.0000
  0
VERTEX
  8
0
 10
-0.1036
 20
-0.2500
 30
0.0000
  0
VERTEX
  8
0
 10
-0.2500
 20
-0.1036
 30
0.0000
  0
VERTEX
  8
0
 10
-0.2500
 20
0.1036
 30
0.0000
  0
SEQEND
  8
0
  0
ENDBLK
  8
0
  0
BLOCK
  8
0
  2
SQUAREP
 70
64
 10
0.0000
 20
0.0000
 30
0.0000
  3
SQUAREP
  0
SOLID
  8
0
 10
-0.5000
 20
-0.5000
 30
0.0000
 11
0.5000
 21
-0.5000
 31
0.0000
 12
-0.5000
 22
0.5000
 32
0.0000
 13
0.5000
 23
0.5000
 33
0.0000
  0
ENDBLK
  8
0
  0
BLOCK
  8
0
  2
ROUNDP
 70
64
 10
0.0000
 20
0.0000
 30
0.0000
  3
ROUNDP
  0
POLYLINE
  8
0
 66
1
 10
0.0000
 20
0.0000
 30
0.0000
 40
0.5000
 41
0.5000
 70
0
  0
VERTEX
  8
0
 10
0.0000
 20
-0.2500
 30
0.0000
 42
1.0000
  0
VERTEX
  8
0
 10
0.0000
 20
0.2500
 30
0.0000
 42
1.0000
  0
VERTEX
  8
0
 10
0.0000
 20
-0.2500
 30
0.0000
  0
SEQEND
  8
0
  0
ENDBLK
  8
0
  0
BLOCK
  8
0
  2
ANNULUSP
 70
64
 10
0.0000
 20
0.0000
 30
0.0000
  3
ANNULUSP
  0
POLYLINE
  8
0
 66
1
 10
0.0000
 20
0.0000
 30
0.0000
 40
0.5000
 41
0.5000
 70
0
  0
VERTEX
  8
0
 10
0.0000
 20
-0.2500
 30
0.0000
 42
1.0000
  0
VERTEX
  8
0
 10
0.0000
 20
0.2500
 30
0.0000
 42
1.0000
  0
VERTEX
  8
0
 10
0.0000
 20
-0.2500
 30
0.0000
  0
SEQEND
  8
0
  0
ENDBLK
  8
0
  0
BLOCK
  8
0
  2
THERMALP
 70
64
 10
0.0000
 20
0.0000
 30
0.0000
  3
THERMALP
  0
POLYLINE
  8
0
 66
1
 10
0.0000
 20
0.0000
 30
0.0000
 40
0.1000
 41
0.1000
 70
0
  0
VERTEX
  8
0
 10
-0.2379
 20
0.4500
 30
0.0000
  0
VERTEX
  8
0
 10
0.2379
 20
0.4500
 30
0.0000
  0
SEQEND
  8
0
  0
POLYLINE
  8
0
 66
1
 10
0.0000
 20
0.0000
 30
0.0000
 40
0.0500
 41
0.0500
 70
0
  0
VERTEX
  8
0
 10
0.2379
 20
0.4250
 30
0.0000
 42
1.0000
  0
VERTEX
  8
0
 10
0.2379
 20
0.4750
 30
0.0000
  0
SEQEND
  8
0
  0
POLYLINE
  8
0
 66
1
 10
0.0000
 20
0.0000
 30
0.0000
 40
0.0500
 41
0.0500
 70
0
  0
VERTEX
  8
0
 10
-0.2379
 20
0.4750
 30
0.0000
 42
1.0000
  0
VERTEX
  8
0
 10
-0.2379
 20
0.4250
 30
0.0000
  0
SEQEND
  8
0
  0
POLYLINE
  8
0
 66
1
 10
0.0000
 20
0.0000
 30
0.0000
 40
0.1000
 41
0.1000
 70
0
  0
VERTEX
  8
0
 10
0.4500
 20
0.2379
 30
0.0000
  0
VERTEX
  8
0
 10
0.4500
 20
-0.2379
 30
0.0000
  0
SEQEND
  8
0
  0
POLYLINE
  8
0
 66
1
 10
0.0000
 20
0.0000
 30
0.0000
 40
0.0500
 41
0.0500
 70
0
  0
VERTEX
  8
0
 10
0.4250
 20
-0.2379
 30
0.0000
 42
1.0000
  0
VERTEX
  8
0
 10
0.4750
 20
-0.2379
 30
0.0000
  0
SEQEND
  8
0
  0
POLYLINE
  8
0
 66
1
 10
0.0000
 20
0.0000
 30
0.0000
 40
0.0500
 41
0.0500
 70
0
  0
VERTEX
  8
0
 10
0.4750
 20
0.2379
 30
0.0000
 42
1.0000
  0
VERTEX
  8
0
 10
0.4250
 20
0.2379
 30
0.0000
  0
SEQEND
  8
0
  0
POLYLINE
  8
0
 66
1
 10
0.0000
 20
0.0000
 30
0.0000
 40
0.1000
 41
0.1000
 70
0
  0
VERTEX
  8
0
 10
0.2379
 20
-0.4500
 30
0.0000
  0
VERTEX
  8
0
 10
-0.2379
 20
-0.4500
 30
0.0000
  0
SEQEND
  8
0
  0
POLYLINE
  8
0
 66
1
 10
0.0000
 20
0.0000
 30
0.0000
 40
0.0500
 41
0.0500
 70
0
  0
VERTEX
  8
0
 10
-0.2379
 20
-0.4250
 30
0.0000
 42
1.0000
  0
VERTEX
  8
0
 10
-0.2379
 20
-0.4750
 30
0.0000
  0
SEQEND
  8
0
  0
POLYLINE
  8
0
 66
1
 10
0.0000
 20
0.0000
 30
0.0000
 40
0.0500
 41
0.0500
 70
0
  0
VERTEX
  8
0
 10
0.2379
 20
-0.4750
 30
0.0000
 42
1.0000
  0
VERTEX
  8
0
 10
0.2379
 20
-0.4250
 30
0.0000
  0
SEQEND
  8
0
  0
POLYLINE
  8
0
 66
1
 10
0.0000
 20
0.0000
 30
0.0000
 40
0.1000
 41
0.1000
 70
0
  0
VERTEX
  8
0
 10
-0.4500
 20
-0.2379
 30
0.0000
  0
VERTEX
  8
0
 10
-0.4500
 20
0.2379
 30
0.0000
  0
SEQEND
  8
0
  0
POLYLINE
  8
0
 66
1
 10
0.0000
 20
0.0000
 30
0.0000
 40
0.0500
 41
0.0500
 70
0
  0
VERTEX
  8
0
 10
-0.4250
 20
0.2379
 30
0.0000
 42
1.0000
  0
VERTEX
  8
0
 10
-0.4750
 20
0.2379
 30
0.0000
  0
SEQEND
  8
0
  0
POLYLINE
  8
0
 66
1
 10
0.0000
 20
0.0000
 30
0.0000
 40
0.0500
 41
0.0500
 70
0
  0
VERTEX
  8
0
 10
-0.4750
 20
-0.2379
 30
0.0000
 42
1.0000
  0
VERTEX
  8
0
 10
-0.4250
 20
-0.2379
 30
0.0000
  0
SEQEND
  8
0
  0
ENDBLK
  8
0
  0
BLOCK
  8
0
  2
OCTAGONV
 70
64
 10
0.0000
 20
0.0000
 30
0.0000
  3
OCTAGONV
  0
POLYLINE
  8
0
 66
1
 10
0.0000
 20
0.0000
 30
0.0000
 40
0.5000
 41
0.5000
 70
0
  0
VERTEX
  8
0
 10
-0.2500
 20
-0.1036
 30
0.0000
  0
VERTEX
  8
0
 10
-0.2500
 20
0.1036
 30
0.0000
  0
VERTEX
  8
0
 10
-0.1036
 20
0.2500
 30
0.0000
  0
VERTEX
  8
0
 10
0.1036
 20
0.2500
 30
0.0000
  0
VERTEX
  8
0
 10
0.2500
 20
0.1036
 30
0.0000
  0
VERTEX
  8
0
 10
0.2500
 20
-0.1036
 30
0.0000
  0
VERTEX
  8
0
 10
0.1036
 20
-0.2500
 30
0.0000
  0
VERTEX
  8
0
 10
-0.1036
 20
-0.2500
 30
0.0000
  0
VERTEX
  8
0
 10
-0.2500
 20
-0.1036
 30
0.0000
  0
VERTEX
  8
0
 10
-0.2500
 20
0.1036
 30
0.0000
  0
SEQEND
  8
0
  0
ENDBLK
  8
0
  0
BLOCK
  8
0
  2
SQUAREV
 70
64
 10
0.0000
 20
0.0000
 30
0.0000
  3
SQUAREV
  0
SOLID
  8
0
 10
-0.5000
 20
-0.5000
 30
0.0000
 11
0.5000
 21
-0.5000
 31
0.0000
 12
-0.5000
 22
0.5000
 32
0.0000
 13
0.5000
 23
0.5000
 33
0.0000
  0
ENDBLK
  8
0
  0
BLOCK
  8
0
  2
ROUNDV
 70
64
 10
0.0000
 20
0.0000
 30
0.0000
  3
ROUNDV
  0
POLYLINE
  8
0
 66
1
 10
0.0000
 20
0.0000
 30
0.0000
 40
0.5000
 41
0.5000
 70
0
  0
VERTEX
  8
0
 10
0.0000
 20
-0.2500
 30
0.0000
 42
1.0000
  0
VERTEX
  8
0
 10
0.0000
 20
0.2500
 30
0.0000
 42
1.0000
  0
VERTEX
  8
0
 10
0.0000
 20
-0.2500
 30
0.0000
  0
SEQEND
  8
0
  0
ENDBLK
  8
0
  0
BLOCK
  8
0
  2
ANNULUSV
 70
64
 10
0.0000
 20
0.0000
 30
0.0000
  3
ANNULUSV
  0
POLYLINE
  8
0
 66
1
 10
0.0000
 20
0.0000
 30
0.0000
 40
0.5000
 41
0.5000
 70
0
  0
VERTEX
  8
0
 10
0.0000
 20
-0.2500
 30
0.0000
 42
1.0000
  0
VERTEX
  8
0
 10
0.0000
 20
0.2500
 30
0.0000
 42
1.0000
  0
VERTEX
  8
0
 10
0.0000
 20
-0.2500
 30
0.0000
  0
SEQEND
  8
0
  0
ENDBLK
  8
0
  0
BLOCK
  8
0
  2
THERMALV
 70
64
 10
0.0000
 20
0.0000
 30
0.0000
  3
THERMALV
  0
POLYLINE
  8
0
 66
1
 10
0.0000
 20
0.0000
 30
0.0000
 40
0.1000
 41
0.1000
 70
0
  0
VERTEX
  8
0
 10
-0.2379
 20
0.4500
 30
0.0000
  0
VERTEX
  8
0
 10
0.2379
 20
0.4500
 30
0.0000
  0
SEQEND
  8
0
  0
POLYLINE
  8
0
 66
1
 10
0.0000
 20
0.0000
 30
0.0000
 40
0.0500
 41
0.0500
 70
0
  0
VERTEX
  8
0
 10
0.2379
 20
0.4250
 30
0.0000
 42
1.0000
  0
VERTEX
  8
0
 10
0.2379
 20
0.4750
 30
0.0000
  0
SEQEND
  8
0
  0
POLYLINE
  8
0
 66
1
 10
0.0000
 20
0.0000
 30
0.0000
 40
0.0500
 41
0.0500
 70
0
  0
VERTEX
  8
0
 10
-0.2379
 20
0.4750
 30
0.0000
 42
1.0000
  0
VERTEX
  8
0
 10
-0.2379
 20
0.4250
 30
0.0000
  0
SEQEND
  8
0
  0
POLYLINE
  8
0
 66
1
 10
0.0000
 20
0.0000
 30
0.0000
 40
0.1000
 41
0.1000
 70
0
  0
VERTEX
  8
0
 10
0.4500
 20
0.2379
 30
0.0000
  0
VERTEX
  8
0
 10
0.4500
 20
-0.2379
 30
0.0000
  0
SEQEND
  8
0
  0
POLYLINE
  8
0
 66
1
 10
0.0000
 20
0.0000
 30
0.0000
 40
0.0500
 41
0.0500
 70
0
  0
VERTEX
  8
0
 10
0.4250
 20
-0.2379
 30
0.0000
 42
1.0000
  0
VERTEX
  8
0
 10
0.4750
 20
-0.2379
 30
0.0000
  0
SEQEND
  8
0
  0
POLYLINE
  8
0
 66
1
 10
0.0000
 20
0.0000
 30
0.0000
 40
0.0500
 41
0.0500
 70
0
  0
VERTEX
  8
0
 10
0.4750
 20
0.2379
 30
0.0000
 42
1.0000
  0
VERTEX
  8
0
 10
0.4250
 20
0.2379
 30
0.0000
  0
SEQEND
  8
0
  0
POLYLINE
  8
0
 66
1
 10
0.0000
 20
0.0000
 30
0.0000
 40
0.1000
 41
0.1000
 70
0
  0
VERTEX
  8
0
 10
0.2379
 20
-0.4500
 30
0.0000
  0
VERTEX
  8
0
 10
-0.2379
 20
-0.4500
 30
0.0000
  0
SEQEND
  8
0
  0
POLYLINE
  8
0
 66
1
 10
0.0000
 20
0.0000
 30
0.0000
 40
0.0500
 41
0.0500
 70
0
  0
VERTEX
  8
0
 10
-0.2379
 20
-0.4250
 30
0.0000
 42
1.0000
  0
VERTEX
  8
0
 10
-0.2379
 20
-0.4750
 30
0.0000
  0
SEQEND
  8
0
  0
POLYLINE
  8
0
 66
1
 10
0.0000
 20
0.0000
 30
0.0000
 40
0.0500
 41
0.0500
 70
0
  0
VERTEX
  8
0
 10
0.2379
 20
-0.4750
 30
0.0000
 42
1.0000
  0
VERTEX
  8
0
 10
0.2379
 20
-0.4250
 30
0.0000
  0
SEQEND
  8
0
  0
POLYLINE
  8
0
 66
1
 10
0.0000
 20
0.0000
 30
0.0000
 40
0.1000
 41
0.1000
 70
0
  0
VERTEX
  8
0
 10
-0.4500
 20
-0.2379
 30
0.0000
  0
VERTEX
  8
0
 10
-0.4500
 20
0.2379
 30
0.0000
  0
SEQEND
  8
0
  0
POLYLINE
  8
0
 66
1
 10
0.0000
 20
0.0000
 30
0.0000
 40
0.0500
 41
0.0500
 70
0
  0
VERTEX
  8
0
 10
-0.4250
 20
0.2379
 30
0.0000
 42
1.0000
  0
VERTEX
  8
0
 10
-0.4750
 20
0.2379
 30
0.0000
  0
SEQEND
  8
0
  0
POLYLINE
  8
0
 66
1
 10
0.0000
 20
0.0000
 30
0.0000
 40
0.0500
 41
0.0500
 70
0
  0
VERTEX
  8
0
 10
-0.4750
 20
-0.2379
 30
0.0000
 42
1.0000
  0
VERTEX
  8
0
 10
-0.4250
 20
-0.2379
 30
0.0000
  0
SEQEND
  8
0
  0
ENDBLK
  8
0
  0
BLOCK
  8
0
  2
LONGP100
 70
64
 10
0.0000
 20
0.0000
 30
0.0000
  3
LONGP100
  0
POLYLINE
  8
0
 66
1
 10
0.0000
 20
0.0000
 30
0.0000
 40
1.0000
 41
1.0000
 70
0
  0
VERTEX
  8
0
 10
-0.5000
 20
0.0000
 30
0.0000
  0
VERTEX
  8
0
 10
0.5000
 20
0.0000
 30
0.0000
  0
SEQEND
  8
0
  0
POLYLINE
  8
0
 66
1
 10
0.0000
 20
0.0000
 30
0.0000
 40
0.5000
 41
0.5000
 70
0
  0
VERTEX
  8
0
 10
0.5000
 20
-0.2500
 30
0.0000
 42
1.0000
  0
VERTEX
  8
0
 10
0.5000
 20
0.2500
 30
0.0000
  0
SEQEND
  8
0
  0
POLYLINE
  8
0
 66
1
 10
0.0000
 20
0.0000
 30
0.0000
 40
0.5000
 41
0.5000
 70
0
  0
VERTEX
  8
0
 10
-0.5000
 20
0.2500
 30
0.0000
 42
1.0000
  0
VERTEX
  8
0
 10
-0.5000
 20
-0.2500
 30
0.0000
  0
SEQEND
  8
0
  0
ENDBLK
  8
0
  0
ENDSEC
  0
SECTION
  2
ENTITIES
  0
POLYLINE
  8
20
 66
1
 10
0.0000
 20
0.0000
 30
0.0000
 40
0.0010
 41
0.0010
 70
0
  0
VERTEX
  8
20
 10
-8.3333
 20
23.5702
 30
0.0000
 42
0.3692
  0
VERTEX
  8
20
 10
-24.5791
 20
-4.5682
 30
0.0000
  0
SEQEND
  8
0
  0
POLYLINE
  8
20
 66
1
 10
0.0000
 20
0.0000
 30
0.0000
 40
0.0005
 41
0.0005
 70
0
  0
VERTEX
  8
20
 10
-8.3332
 20
23.5700
 30
0.0000
 42
1.0000
  0
VERTEX
  8
20
 10
-8.3334
 20
23.5705
 30
0.0000
  0
SEQEND
  8
0
  0
POLYLINE
  8
20
 66
1
 10
0.0000
 20
0.0000
 30
0.0000
 40
0.0005
 41
0.0005
 70
0
  0
VERTEX
  8
20
 10
-24.5793
 20
-4.5683
 30
0.0000
 42
1.0000
  0
VERTEX
  8
20
 10
-24.5788
 20
-4.5682
 30
0.0000
  0
SEQEND
  8
0
  0
POLYLINE
  8
20
 66
1
 10
0.0000
 20
0.0000
 30
0.0000
 40
0.0010
 41
0.0010
 70
0
  0
VERTEX
  8
20
 10
-16.2458
 20
-19.0020
 30
0.0000
 42
0.3692
  0
VERTEX
  8
20
 10
16.2458
 20
-19.0020
 30
0.0000
  0
SEQEND
  8
0
  0
POLYLINE
  8
20
 66
1
 10
0.0000
 20
0.0000
 30
0.0000
 40
0.0005
 41
0.0005
 70
0
  0
VERTEX
  8
20
 10
-16.2456
 20
-19.0018
 30
0.0000
 42
1.0000
  0
VERTEX
  8
20
 10
-16.2459
 20
-19.0022
 30
0.0000
  0
SEQEND
  8
0
  0
POLYLINE
  8
20
 66
1
 10
0.0000
 20
0.0000
 30
0.0000
 40
0.0005
 41
0.0005
 70
0
  0
VERTEX
  8
20
 10
16.2459
 20
-19.0022
 30
0.0000
 42
1.0000
  0
VERTEX
  8
20
 10
16.2456
 20
-19.0018
 30
0.0000
  0
SEQEND
  8
0
  0
POLYLINE
  8
20
 66
1
 10
0.0000
 20
0.0000
 30
0.0000
 40
0.0010
 41
0.0010
 70
0
  0
VERTEX
  8
20
 10
24.5791
 20
-4.5682
 30
0.0000
 42
0.3692
  0
VERTEX
  8
20
 10
8.3333
 20
23.5702
 30
0.0000
  0
SEQEND
  8
0
  0
POLYLINE
  8
20
 66
1
 10
0.0000
 20
0.0000
 30
0.0000
 40
0.0005
 41
0.0005
 70
0
  0
VERTEX
  8
20
 10
24.5788
 20
-4.5682
 30
0.0000
 42
1.0000
  0
VERTEX
  8
20
 10
24.5793
 20
-4.5683
 30
0.0000
  0
SEQEND
  8
0
  0
POLYLINE
  8
20
 66
1
 10
0.0000
 20
0.0000
 30
0.0000
 40
0.0005
 41
0.0005
 70
0
  0
VERTEX
  8
20
 10
8.3334
 20
23.5705
 30
0.0000
 42
1.0000
  0
VERTEX
  8
20
 10
8.3332
 20
23.5700
 30
0.0000
  0
SEQEND
  8
0
  0
POLYLINE
  8
20
 66
1
 10
0.0000
 20
0.0000
 30
0.0000
 40
0.0010
 41
0.0010
 70
0
  0
VERTEX
  8
20
 10
5.0000
 20
40.0000
 30
0.0000
 42
1.0000
  0
VERTEX
  8
20
 10
-5.0000
 20
40.0000
 30
0.0000
  0
SEQEND
  8
0
  0
POLYLINE
  8
20
 66
1
 10
0.0000
 20
0.0000
 30
0.0000
 40
0.0005
 41
0.0005
 70
0
  0
VERTEX
  8
20
 10
4.9997
 20
40.0000
 30
0.0000
 42
1.0000
  0
VERTEX
  8
20
 10
5.0003
 20
40.0000
 30
0.0000
  0
SEQEND
  8
0
  0
POLYLINE
  8
20
 66
1
 10
0.0000
 20
0.0000
 30
0.0000
 40
0.0005
 41
0.0005
 70
0
  0
VERTEX
  8
20
 10
-5.0003
 20
40.0000
 30
0.0000
 42
1.0000
  0
VERTEX
  8
20
 10
-4.9997
 20
40.0000
 30
0.0000
  0
SEQEND
  8
0
  0
POLYLINE
  8
20
 66
1
 10
0.0000
 20
0.0000
 30
0.0000
 40
0.0010
 41
0.0010
 70
0
  0
VERTEX
  8
20
 10
5.0000
 20
28.2843
 30
0.0000
 42
0.3178
  0
VERTEX
  8
20
 10
8.3333
 20
23.5702
 30
0.0000
  0
SEQEND
  8
0
  0
POLYLINE
  8
20
 66
1
 10
0.0000
 20
0.0000
 30
0.0000
 40
0.0005
 41
0.0005
 70
0
  0
VERTEX
  8
20
 10
5.0003
 20
28.2843
 30
0.0000
 42
1.0000
  0
VERTEX
  8
20
 10
4.9997
 20
28.2843
 30
0.0000
  0
SEQEND
  8
0
  0
POLYLINE
  8
20
 66
1
 10
0.0000
 20
0.0000
 30
0.0000
 40
0.0005
 41
0.0005
 70
0
  0
VERTEX
  8
20
 10
8.3332
 20
23.5700
 30
0.0000
 42
1.0000
  0
VERTEX
  8
20
 10
8.3334
 20
23.5705
 30
0.0000
  0
SEQEND
  8
0
  0
POLYLINE
  8
20
 66
1
 10
0.0000
 20
0.0000
 30
0.0000
 40
0.0010
 41
0.0010
 70
0
  0
VERTEX
  8
20
 10
24.5791
 20
-4.5682
 30
0.0000
 42
0.3178
  0
VERTEX
  8
20
 10
26.9949
 20
-9.8120
 30
0.0000
  0
SEQEND
  8
0
  0
POLYLINE
  8
20
 66
1
 10
0.0000
 20
0.0000
 30
0.0000
 40
0.0005
 41
0.0005
 70
0
  0
VERTEX
  8
20
 10
24.5793
 20
-4.5683
 30
0.0000
 42
1.0000
  0
VERTEX
  8
20
 10
24.5788
 20
-4.5682
 30
0.0000
  0
SEQEND
  8
0
  0
POLYLINE
  8
20
 66
1
 10
0.0000
 20
0.0000
 30
0.0000
 40
0.0005
 41
0.0005
 70
0
  0
VERTEX
  8
20
 10
26.9948
 20
-9.8122
 30
0.0000
 42
1.0000
  0
VERTEX
  8
20
 10
26.9950
 20
-9.8118
 30
0.0000
  0
SEQEND
  8
0
  0
POLYLINE
  8
20
 66
1
 10
0.0000
 20
0.0000
 30
0.0000
 40
0.0010
 41
0.0010
 70
0
  0
VERTEX
  8
20
 10
21.9949
 20
-18.4723
 30
0.0000
 42
0.3178
  0
VERTEX
  8
20
 10
16.2458
 20
-19.0020
 30
0.0000
  0
SEQEND
  8
0
  0
POLYLINE
  8
20
 66
1
 10
0.0000
 20
0.0000
 30
0.0000
 40
0.0005
 41
0.0005
 70
0
  0
VERTEX
  8
20
 10
21.9948
 20
-18.4725
 30
0.0000
 42
1.0000
  0
VERTEX
  8
20
 10
21.9950
 20
-18.4720
 30
0.0000
  0
SEQEND
  8
0
  0
POLYLINE
  8
20
 66
1
 10
0.0000
 20
0.0000
 30
0.0000
 40
0.0005
 41
0.0005
 70
0
  0
VERTEX
  8
20
 10
16.2456
 20
-19.0018
 30
0.0000
 42
1.0000
  0
VERTEX
  8
20
 10
16.2459
 20
-19.0022
 30
0.0000
  0
SEQEND
  8
0
  0
POLYLINE
  8
20
 66
1
 10
0.0000
 20
0.0000
 30
0.0000
 40
0.0010
 41
0.0010
 70
0
  0
VERTEX
  8
20
 10
-16.2458
 20
-19.0020
 30
0.0000
 42
0.3178
  0
VERTEX
  8
20
 10
-21.9949
 20
-18.4723
 30
0.0000
  0
SEQEND
  8
0
  0
POLYLINE
  8
20
 66
1
 10
0.0000
 20
0.0000
 30
0.0000
 40
0.0005
 41
0.0005
 70
0
  0
VERTEX
  8
20
 10
-16.2459
 20
-19.0022
 30
0.0000
 42
1.0000
  0
VERTEX
  8
20
 10
-16.2456
 20
-19.0018
 30
0.0000
  0
SEQEND
  8
0
  0
POLYLINE
  8
20
 66
1
 10
0.0000
 20
0.0000
 30
0.0000
 40
0.0005
 41
0.0005
 70
0
  0
VERTEX
  8
20
 10
-21.9950
 20
-18.4720
 30
0.0000
 42
1.0000
  0
VERTEX
  8
20
 10
-21.9948
 20
-18.4725
 30
0.0000
  0
SEQEND
  8
0
  0
POLYLINE
  8
20
 66
1
 10
0.0000
 20
0.0000
 30
0.0000
 40
0.0010
 41
0.0010
 70
0
  0
VERTEX
  8
20
 10
-26.9949
 20
-9.8120
 30
0.0000
 42
0.3178
  0
VERTEX
  8
20
 10
-24.5791
 20
-4.5682
 30
0.0000
  0
SEQEND
  8
0
  0
POLYLINE
  8
20
 66
1
 10
0.0000
 20
0.0000
 30
0.0000
 40
0.0005
 41
0.0005
 70
0
  0
VERTEX
  8
20
 10
-26.9950
 20
-9.8118
 30
0.0000
 42
1.0000
  0
VERTEX
  8
20
 10
-26.9948
 20
-9.8122
 30
0.0000
  0
SEQEND
  8
0
  0
POLYLINE
  8
20
 66
1
 10
0.0000
 20
0.0000
 30
0.0000
 40
0.0005
 41
0.0005
 70
0
  0
VERTEX
  8
20
 10
-24.5788
 20
-4.5682
 30
0.0000
 42
1.0000
  0
VERTEX
  8
20
 10
-24.5793
 20
-4.5683
 30
0.0000
  0
SEQEND
  8
0
  0
POLYLINE
  8
20
 66
1
 10
0.0000
 20
0.0000
 30
0.0000
 40
0.0010
 41
0.0010
 70
0
  0
VERTEX
  8
20
 10
-8.3333
 20
23.5702
 30
0.0000
 42
0.3178
  0
VERTEX
  8
20
 10
-5.0000
 20
28.2843
 30
0.0000
  0
SEQEND
  8
0
  0
POLYLINE
  8
20
 66
1
 10
0.0000
 20
0.0000
 30
0.0000
 40
0.0005
 41
0.0005
 70
0
  0
VERTEX
  8
20
 10
-8.3334
 20
23.5705
 30
0.0000
 42
1.0000
  0
VERTEX
  8
20
 10
-8.3332
 20
23.5700
 30
0.0000
  0
SEQEND
  8
0
  0
POLYLINE
  8
20
 66
1
 10
0.0000
 20
0.0000
 30
0.0000
 40
0.0005
 41
0.0005
 70
0
  0
VERTEX
  8
20
 10
-4.9998
 20
28.2843
 30
0.0000
 42
1.0000
  0
VERTEX
  8
20
 10
-5.0002
 20
28.2843
 30
0.0000
  0
SEQEND
  8
0
  0
POLYLINE
  8
20
 66
1
 10
0.0000
 20
0.0000
 30
0.0000
 40
0.0010
 41
0.0010
 70
0
  0
VERTEX
  8
20
 10
32.1410
 20
-24.3301
 30
0.0000
 42
1.0000
  0
VERTEX
  8
20
 10
37.1410
 20
-15.6699
 30
0.0000
  0
SEQEND
  8
0
  0
POLYLINE
  8
20
 66
1
 10
0.0000
 20
0.0000
 30
0.0000
 40
0.0005
 41
0.0005
 70
0
  0
VERTEX
  8
20
 10
32.1411
 20
-24.3299
 30
0.0000
 42
1.0000
  0
VERTEX
  8
20
 10
32.1409
 20
-24.3303
 30
0.0000
  0
SEQEND
  8
0
  0
POLYLINE
  8
20
 66
1
 10
0.0000
 20
0.0000
 30
0.0000
 40
0.0005
 41
0.0005
 70
0
  0
VERTEX
  8
20
 10
37.1411
 20
-15.6697
 30
0.0000
 42
1.0000
  0
VERTEX
  8
20
 10
37.1409
 20
-15.6701
 30
0.0000
  0
SEQEND
  8
0
  0
POLYLINE
  8
20
 66
1
 10
0.0000
 20
0.0000
 30
0.0000
 40
0.0010
 41
0.0010
 70
0
  0
VERTEX
  8
20
 10
-37.1410
 20
-15.6699
 30
0.0000
 42
1.0000
  0
VERTEX
  8
20
 10
-32.1410
 20
-24.3301
 30
0.0000
  0
SEQEND
  8
0
  0
POLYLINE
  8
20
 66
1
 10
0.0000
 20
0.0000
 30
0.0000
 40
0.0005
 41
0.0005
 70
0
  0
VERTEX
  8
20
 10
-37.1409
 20
-15.6701
 30
0.0000
 42
1.0000
  0
VERTEX
  8
20
 10
-37.1411
 20
-15.6697
 30
0.0000
  0
SEQEND
  8
0
  0
POLYLINE
  8
20
 66
1
 10
0.0000
 20
0.0000
 30
0.0000
 40
0.0005
 41
0.0005
 70
0
  0
VERTEX
  8
20
 10
-32.1409
 20
-24.3303
 30
0.0000
 42
1.0000
  0
VERTEX
  8
20
 10
-32.1411
 20
-24.3299
 30
0.0000
  0
SEQEND
  8
0
  0
POLYLINE
  8
20
 66
1
 10
0.0000
 20
0.0000
 30
0.0000
 40
0.0010
 41
0.0010
 70
0
  0
VERTEX
  8
20
 10
-5.0000
 20
40.0000
 30
0.0000
  0
VERTEX
  8
20
 10
-5.0000
 20
28.2843
 30
0.0000
  0
SEQEND
  8
0
  0
POLYLINE
  8
20
 66
1
 10
0.0000
 20
0.0000
 30
0.0000
 40
0.0005
 41
0.0005
 70
0
  0
VERTEX
  8
20
 10
-5.0003
 20
28.2843
 30
0.0000
 42
1.0000
  0
VERTEX
  8
20
 10
-4.9997
 20
28.2843
 30
0.0000
  0
SEQEND
  8
0
  0
POLYLINE
  8
20
 66
1
 10
0.0000
 20
0.0000
 30
0.0000
 40
0.0005
 41
0.0005
 70
0
  0
VERTEX
  8
20
 10
-4.9997
 20
40.0000
 30
0.0000
 42
1.0000
  0
VERTEX
  8
20
 10
-5.0003
 20
40.0000
 30
0.0000
  0
SEQEND
  8
0
  0
POLYLINE
  8
20
 66
1
 10
0.0000
 20
0.0000
 30
0.0000
 40
0.0010
 41
0.0010
 70
0
  0
VERTEX
  8
20
 10
5.0000
 20
40.0000
 30
0.0000
  0
VERTEX
  8
20
 10
5.0000
 20
28.2843
 30
0.0000
  0
SEQEND
  8
0
  0
POLYLINE
  8
20
 66
1
 10
0.0000
 20
0.0000
 30
0.0000
 40
0.0005
 41
0.0005
 70
0
  0
VERTEX
  8
20
 10
4.9997
 20
28.2843
 30
0.0000
 42
1.0000
  0
VERTEX
  8
20
 10
5.0003
 20
28.2843
 30
0.0000
  0
SEQEND
  8
0
  0
POLYLINE
  8
20
 66
1
 10
0.0000
 20
0.0000
 30
0.0000
 40
0.0005
 41
0.0005
 70
0
  0
VERTEX
  8
20
 10
5.0003
 20
40.0000
 30
0.0000
 42
1.0000
  0
VERTEX
  8
20
 10
4.9997
 20
40.0000
 30
0.0000
  0
SEQEND
  8
0
  0
POLYLINE
  8
20
 66
1
 10
0.0000
 20
0.0000
 30
0.0000
 40
0.0010
 41
0.0010
 70
0
  0
VERTEX
  8
20
 10
37.1410
 20
-15.6699
 30
0.0000
  0
VERTEX
  8
20
 10
26.9949
 20
-9.8120
 30
0.0000
  0
SEQEND
  8
0
  0
POLYLINE
  8
20
 66
1
 10
0.0000
 20
0.0000
 30
0.0000
 40
0.0005
 41
0.0005
 70
0
  0
VERTEX
  8
20
 10
26.9950
 20
-9.8118
 30
0.0000
 42
1.0000
  0
VERTEX
  8
20
 10
26.9948
 20
-9.8122
 30
0.0000
  0
SEQEND
  8
0
  0
POLYLINE
  8
20
 66
1
 10
0.0000
 20
0.0000
 30
0.0000
 40
0.0005
 41
0.0005
 70
0
  0
VERTEX
  8
20
 10
37.1409
 20
-15.6701
 30
0.0000
 42
1.0000
  0
VERTEX
  8
20
 10
37.1411
 20
-15.6697
 30
0.0000
  0
SEQEND
  8
0
  0
POLYLINE
  8
20
 66
1
 10
0.0000
 20
0.0000
 30
0.0000
 40
0.0010
 41
0.0010
 70
0
  0
VERTEX
  8
20
 10
32.1410
 20
-24.3301
 30
0.0000
  0
VERTEX
  8
20
 10
21.9949
 20
-18.4723
 30
0.0000
  0
SEQEND
  8
0
  0
POLYLINE
  8
20
 66
1
 10
0.0000
 20
0.0000
 30
0.0000
 40
0.0005
 41
0.0005
 70
0
  0
VERTEX
  8
20
 10
21.9950
 20
-18.4720
 30
0.0000
 42
1.0000
  0
VERTEX
  8
20
 10
21.9948
 20
-18.4725
 30
0.0000
  0
SEQEND
  8
0
  0
POLYLINE
  8
20
 66
1
 10
0.0000
 20
0.0000
 30
0.0000
 40
0.0005
 41
0.0005
 70
0
  0
VERTEX
  8
20
 10
32.1409
 20
-24.3303
 30
0.0000
 42
1.0000
  0
VERTEX
  8
20
 10
32.1411
 20
-24.3299
 30
0.0000
  0
SEQEND
  8
0
  0
POLYLINE
  8
20
 66
1
 10
0.0000
 20
0.0000
 30
0.0000
 40
0.0010
 41
0.0010
 70
0
  0
VERTEX
  8
20
 10
-32.1410
 20
-24.3301
 30
0.0000
  0
VERTEX
  8
20
 10
-21.9949
 20
-18.4723
 30
0.0000
  0
SEQEND
  8
0
  0
POLYLINE
  8
20
 66
1
 10
0.0000
 20
0.0000
 30
0.0000
 40
0.0005
 41
0.0005
 70
0
  0
VERTEX
  8
20
 10
-21.9948
 20
-18.4725
 30
0.0000
 42
1.0000
  0
VERTEX
  8
20
 10
-21.9950
 20
-18.4720
 30
0.0000
  0
SEQEND
  8
0
  0
POLYLINE
  8
20
 66
1
 10
0.0000
 20
0.0000
 30
0.0000
 40
0.0005
 41
0.0005
 70
0
  0
VERTEX
  8
20
 10
-32.1411
 20
-24.3299
 30
0.0000
 42
1.0000
  0
VERTEX
  8
20
 10
-32.1409
 20
-24.3303
 30
0.0000
  0
SEQEND
  8
0
  0
POLYLINE
  8
20
 66
1
 10
0.0000
 20
0.0000
 30
0.0000
 40
0.0010
 41
0.0010
 70
0
  0
VERTEX
  8
20
 10
-37.1410
 20
-15.6699
 30
0.0000
  0
VERTEX
  8
20
 10
-26.9949
 20
-9.8120
 30
0.0000
  0
SEQEND
  8
0
  0
POLYLINE
  8
20
 66
1
 10
0.0000
 20
0.0000
 30
0.0000
 40
0.0005
 41
0.0005
 70
0
  0
VERTEX
  8
20
 10
-26.9948
 20
-9.8122
 30
0.0000
 42
1.0000
  0
VERTEX
  8
20
 10
-26.9950
 20
-9.8118
 30
0.0000
  0
SEQEND
  8
0
  0
POLYLINE
  8
20
 66
1
 10
0.0000
 20
0.0000
 30
0.0000
 40
0.0005
 41
0.0005
 70
0
  0
VERTEX
  8
20
 10
-37.1411
 20
-15.6697
 30
0.0000
 42
1.0000
  0
VERTEX
  8
20
 10
-37.1409
 20
-15.6701
 30
0.0000
  0
SEQEND
  8
0
  0
POLYLINE
  8
16
 66
1
 10
0.0000
 20
0.0000
 30
0.0000
 40
0.1778
 41
0.1778
 70
0
  0
VERTEX
  8
16
 10
11.3411
 20
9.7155
 30
0.0000
  0
VERTEX
  8
16
 10
10.6722
 20
7.7089
 30
0.0000
  0
SEQEND
  8
0
  0
POLYLINE
  8
16
 66
1
 10
0.0000
 20
0.0000
 30
0.0000
 40
0.0889
 41
0.0889
 70
0
  0
VERTEX
  8
16
 10
10.6301
 20
7.7230
 30
0.0000
 42
1.0000
  0
VERTEX
  8
16
 10
10.7144
 20
7.6948
 30
0.0000
  0
SEQEND
  8
0
  0
POLYLINE
  8
16
 66
1
 10
0.0000
 20
0.0000
 30
0.0000
 40
0.0889
 41
0.0889
 70
0
  0
VERTEX
  8
16
 10
11.3833
 20
9.7014
 30
0.0000
 42
1.0000
  0
VERTEX
  8
16
 10
11.2989
 20
9.7296
 30
0.0000
  0
SEQEND
  8
0
  0
POLYLINE
  8
16
 66
1
 10
0.0000
 20
0.0000
 30
0.0000
 40
0.1778
 41
0.1778
 70
0
  0
VERTEX
  8
16
 10
10.6722
 20
7.7089
 30
0.0000
  0
VERTEX
  8
16
 10
10.0034
 20
9.7155
 30
0.0000
  0
SEQEND
  8
0
  0
POLYLINE
  8
16
 66
1
 10
0.0000
 20
0.0000
 30
0.0000
 40
0.0889
 41
0.0889
 70
0
  0
VERTEX
  8
16
 10
10.0455
 20
9.7296
 30
0.0000
 42
1.0000
  0
VERTEX
  8
16
 10
9.9612
 20
9.7014
 30
0.0000
  0
SEQEND
  8
0
  0
POLYLINE
  8
16
 66
1
 10
0.0000
 20
0.0000
 30
0.0000
 40
0.0889
 41
0.0889
 70
0
  0
VERTEX
  8
16
 10
10.6301
 20
7.6948
 30
0.0000
 42
1.0000
  0
VERTEX
  8
16
 10
10.7144
 20
7.7230
 30
0.0000
  0
SEQEND
  8
0
  0
POLYLINE
  8
16
 66
1
 10
0.0000
 20
0.0000
 30
0.0000
 40
0.1778
 41
0.1778
 70
0
  0
VERTEX
  8
16
 10
8.8747
 20
9.7155
 30
0.0000
  0
VERTEX
  8
16
 10
8.8747
 20
8.1548
 30
0.0000
  0
SEQEND
  8
0
  0
POLYLINE
  8
16
 66
1
 10
0.0000
 20
0.0000
 30
0.0000
 40
0.0889
 41
0.0889
 70
0
  0
VERTEX
  8
16
 10
8.8302
 20
8.1548
 30
0.0000
 42
1.0000
  0
VERTEX
  8
16
 10
8.9191
 20
8.1548
 30
0.0000
  0
SEQEND
  8
0
  0
POLYLINE
  8
16
 66
1
 10
0.0000
 20
0.0000
 30
0.0000
 40
0.0889
 41
0.0889
 70
0
  0
VERTEX
  8
16
 10
8.9191
 20
9.7155
 30
0.0000
 42
1.0000
  0
VERTEX
  8
16
 10
8.8302
 20
9.7155
 30
0.0000
  0
SEQEND
  8
0
  0
POLYLINE
  8
16
 66
1
 10
0.0000
 20
0.0000
 30
0.0000
 40
0.1778
 41
0.1778
 70
0
  0
VERTEX
  8
16
 10
8.8747
 20
8.1548
 30
0.0000
 42
0.4142
  0
VERTEX
  8
16
 10
9.3206
 20
7.7089
 30
0.0000
  0
SEQEND
  8
0
  0
POLYLINE
  8
16
 66
1
 10
0.0000
 20
0.0000
 30
0.0000
 40
0.0889
 41
0.0889
 70
0
  0
VERTEX
  8
16
 10
8.9191
 20
8.1548
 30
0.0000
 42
1.0000
  0
VERTEX
  8
16
 10
8.8302
 20
8.1548
 30
0.0000
  0
SEQEND
  8
0
  0
POLYLINE
  8
16
 66
1
 10
0.0000
 20
0.0000
 30
0.0000
 40
0.0889
 41
0.0889
 70
0
  0
VERTEX
  8
16
 10
9.3206
 20
7.6644
 30
0.0000
 42
1.0000
  0
VERTEX
  8
16
 10
9.3206
 20
7.7533
 30
0.0000
  0
SEQEND
  8
0
  0
POLYLINE
  8
16
 66
1
 10
0.0000
 20
0.0000
 30
0.0000
 40
0.1778
 41
0.1778
 70
0
  0
VERTEX
  8
16
 10
9.3206
 20
7.7089
 30
0.0000
  0
VERTEX
  8
16
 10
9.5435
 20
7.7089
 30
0.0000
  0
SEQEND
  8
0
  0
POLYLINE
  8
16
 66
1
 10
0.0000
 20
0.0000
 30
0.0000
 40
0.0889
 41
0.0889
 70
0
  0
VERTEX
  8
16
 10
9.5435
 20
7.6645
 30
0.0000
 42
1.0000
  0
VERTEX
  8
16
 10
9.5435
 20
7.7534
 30
0.0000
  0
SEQEND
  8
0
  0
POLYLINE
  8
16
 66
1
 10
0.0000
 20
0.0000
 30
0.0000
 40
0.0889
 41
0.0889
 70
0
  0
VERTEX
  8
16
 10
9.3206
 20
7.7534
 30
0.0000
 42
1.0000
  0
VERTEX
  8
16
 10
9.3206
 20
7.6645
 30
0.0000
  0
SEQEND
  8
0
  0
POLYLINE
  8
16
 66
1
 10
0.0000
 20
0.0000
 30
0.0000
 40
0.1778
 41
0.1778
 70
0
  0
VERTEX
  8
16
 10
8.0902
 20
8.1548
 30
0.0000
  0
VERTEX
  8
16
 10
8.0902
 20
8.6007
 30
0.0000
  0
SEQEND
  8
0
  0
POLYLINE
  8
16
 66
1
 10
0.0000
 20
0.0000
 30
0.0000
 40
0.0889
 41
0.0889
 70
0
  0
VERTEX
  8
16
 10
8.1347
 20
8.6007
 30
0.0000
 42
1.0000
  0
VERTEX
  8
16
 10
8.0458
 20
8.6007
 30
0.0000
  0
SEQEND
  8
0
  0
POLYLINE
  8
16
 66
1
 10
0.0000
 20
0.0000
 30
0.0000
 40
0.0889
 41
0.0889
 70
0
  0
VERTEX
  8
16
 10
8.0458
 20
8.1548
 30
0.0000
 42
1.0000
  0
VERTEX
  8
16
 10
8.1347
 20
8.1548
 30
0.0000
  0
SEQEND
  8
0
  0
POLYLINE
  8
16
 66
1
 10
0.0000
 20
0.0000
 30
0.0000
 40
0.1778
 41
0.1778
 70
0
  0
VERTEX
  8
16
 10
8.0902
 20
8.6007
 30
0.0000
 42
1.0000
  0
VERTEX
  8
16
 10
7.1984
 20
8.6007
 30
0.0000
  0
SEQEND
  8
0
  0
POLYLINE
  8
16
 66
1
 10
0.0000
 20
0.0000
 30
0.0000
 40
0.0889
 41
0.0889
 70
0
  0
VERTEX
  8
16
 10
8.0458
 20
8.6007
 30
0.0000
 42
1.0000
  0
VERTEX
  8
16
 10
8.1347
 20
8.6007
 30
0.0000
  0
SEQEND
  8
0
  0
POLYLINE
  8
16
 66
1
 10
0.0000
 20
0.0000
 30
0.0000
 40
0.0889
 41
0.0889
 70
0
  0
VERTEX
  8
16
 10
7.1539
 20
8.6007
 30
0.0000
 42
1.0000
  0
VERTEX
  8
16
 10
7.2428
 20
8.6007
 30
0.0000
  0
SEQEND
  8
0
  0
POLYLINE
  8
16
 66
1
 10
0.0000
 20
0.0000
 30
0.0000
 40
0.1778
 41
0.1778
 70
0
  0
VERTEX
  8
16
 10
7.1984
 20
8.6007
 30
0.0000
  0
VERTEX
  8
16
 10
7.1984
 20
8.1548
 30
0.0000
  0
SEQEND
  8
0
  0
POLYLINE
  8
16
 66
1
 10
0.0000
 20
0.0000
 30
0.0000
 40
0.0889
 41
0.0889
 70
0
  0
VERTEX
  8
16
 10
7.1539
 20
8.1548
 30
0.0000
 42
1.0000
  0
VERTEX
  8
16
 10
7.2428
 20
8.1548
 30
0.0000
  0
SEQEND
  8
0
  0
POLYLINE
  8
16
 66
1
 10
0.0000
 20
0.0000
 30
0.0000
 40
0.0889
 41
0.0889
 70
0
  0
VERTEX
  8
16
 10
7.2428
 20
8.6007
 30
0.0000
 42
1.0000
  0
VERTEX
  8
16
 10
7.1539
 20
8.6007
 30
0.0000
  0
SEQEND
  8
0
  0
POLYLINE
  8
16
 66
1
 10
0.0000
 20
0.0000
 30
0.0000
 40
0.1778
 41
0.1778
 70
0
  0
VERTEX
  8
16
 10
7.1984
 20
8.1548
 30
0.0000
 42
1.0000
  0
VERTEX
  8
16
 10
8.0902
 20
8.1548
 30
0.0000
  0
SEQEND
  8
0
  0
POLYLINE
  8
16
 66
1
 10
0.0000
 20
0.0000
 30
0.0000
 40
0.0889
 41
0.0889
 70
0
  0
VERTEX
  8
16
 10
7.2428
 20
8.1548
 30
0.0000
 42
1.0000
  0
VERTEX
  8
16
 10
7.1539
 20
8.1548
 30
0.0000
  0
SEQEND
  8
0
  0
POLYLINE
  8
16
 66
1
 10
0.0000
 20
0.0000
 30
0.0000
 40
0.0889
 41
0.0889
 70
0
  0
VERTEX
  8
16
 10
8.1347
 20
8.1548
 30
0.0000
 42
1.0000
  0
VERTEX
  8
16
 10
8.0458
 20
8.1548
 30
0.0000
  0
SEQEND
  8
0
  0
POLYLINE
  8
16
 66
1
 10
0.0000
 20
0.0000
 30
0.0000
 40
0.1778
 41
0.1778
 70
0
  0
VERTEX
  8
16
 10
6.5454
 20
7.0400
 30
0.0000
  0
VERTEX
  8
16
 10
6.3224
 20
7.0400
 30
0.0000
  0
SEQEND
  8
0
  0
POLYLINE
  8
16
 66
1
 10
0.0000
 20
0.0000
 30
0.0000
 40
0.0889
 41
0.0889
 70
0
  0
VERTEX
  8
16
 10
6.3224
 20
7.0845
 30
0.0000
 42
1.0000
  0
VERTEX
  8
16
 10
6.3224
 20
6.9956
 30
0.0000
  0
SEQEND
  8
0
  0
POLYLINE
  8
16
 66
1
 10
0.0000
 20
0.0000
 30
0.0000
 40
0.0889
 41
0.0889
 70
0
  0
VERTEX
  8
16
 10
6.5454
 20
6.9956
 30
0.0000
 42
1.0000
  0
VERTEX
  8
16
 10
6.5454
 20
7.0845
 30
0.0000
  0
SEQEND
  8
0
  0
POLYLINE
  8
16
 66
1
 10
0.0000
 20
0.0000
 30
0.0000
 40
0.1778
 41
0.1778
 70
0
  0
VERTEX
  8
16
 10
6.3224
 20
7.0400
 30
0.0000
  0
VERTEX
  8
16
 10
5.6535
 20
9.0466
 30
0.0000
  0
SEQEND
  8
0
  0
POLYLINE
  8
16
 66
1
 10
0.0000
 20
0.0000
 30
0.0000
 40
0.0889
 41
0.0889
 70
0
  0
VERTEX
  8
16
 10
5.6957
 20
9.0607
 30
0.0000
 42
1.0000
  0
VERTEX
  8
16
 10
5.6114
 20
9.0326
 30
0.0000
  0
SEQEND
  8
0
  0
POLYLINE
  8
16
 66
1
 10
0.0000
 20
0.0000
 30
0.0000
 40
0.0889
 41
0.0889
 70
0
  0
VERTEX
  8
16
 10
6.2802
 20
7.0260
 30
0.0000
 42
1.0000
  0
VERTEX
  8
16
 10
6.3646
 20
7.0541
 30
0.0000
  0
SEQEND
  8
0
  0
POLYLINE
  8
16
 66
1
 10
0.0000
 20
0.0000
 30
0.0000
 40
0.1778
 41
0.1778
 70
0
  0
VERTEX
  8
16
 10
6.5454
 20
9.0466
 30
0.0000
  0
VERTEX
  8
16
 10
6.0995
 20
7.7089
 30
0.0000
  0
SEQEND
  8
0
  0
POLYLINE
  8
16
 66
1
 10
0.0000
 20
0.0000
 30
0.0000
 40
0.0889
 41
0.0889
 70
0
  0
VERTEX
  8
16
 10
6.0573
 20
7.7230
 30
0.0000
 42
1.0000
  0
VERTEX
  8
16
 10
6.1416
 20
7.6948
 30
0.0000
  0
SEQEND
  8
0
  0
POLYLINE
  8
16
 66
1
 10
0.0000
 20
0.0000
 30
0.0000
 40
0.0889
 41
0.0889
 70
0
  0
VERTEX
  8
16
 10
6.5875
 20
9.0326
 30
0.0000
 42
1.0000
  0
VERTEX
  8
16
 10
6.5032
 20
9.0607
 30
0.0000
  0
SEQEND
  8
0
  0
POLYLINE
  8
16
 66
1
 10
0.0000
 20
0.0000
 30
0.0000
 40
0.1778
 41
0.1778
 70
0
  0
VERTEX
  8
16
 10
4.1152
 20
8.4892
 30
0.0000
  0
VERTEX
  8
16
 10
4.6168
 20
8.4892
 30
0.0000
  0
SEQEND
  8
0
  0
POLYLINE
  8
16
 66
1
 10
0.0000
 20
0.0000
 30
0.0000
 40
0.0889
 41
0.0889
 70
0
  0
VERTEX
  8
16
 10
4.6168
 20
8.4448
 30
0.0000
 42
1.0000
  0
VERTEX
  8
16
 10
4.6168
 20
8.5337
 30
0.0000
  0
SEQEND
  8
0
  0
POLYLINE
  8
16
 66
1
 10
0.0000
 20
0.0000
 30
0.0000
 40
0.0889
 41
0.0889
 70
0
  0
VERTEX
  8
16
 10
4.1152
 20
8.5337
 30
0.0000
 42
1.0000
  0
VERTEX
  8
16
 10
4.1152
 20
8.4448
 30
0.0000
  0
SEQEND
  8
0
  0
POLYLINE
  8
16
 66
1
 10
0.0000
 20
0.0000
 30
0.0000
 40
0.1778
 41
0.1778
 70
0
  0
VERTEX
  8
16
 10
4.6168
 20
7.7089
 30
0.0000
 42
1.0000
  0
VERTEX
  8
16
 10
4.6168
 20
8.4892
 30
0.0000
  0
SEQEND
  8
0
  0
POLYLINE
  8
16
 66
1
 10
0.0000
 20
0.0000
 30
0.0000
 40
0.0889
 41
0.0889
 70
0
  0
VERTEX
  8
16
 10
4.6168
 20
7.7534
 30
0.0000
 42
1.0000
  0
VERTEX
  8
16
 10
4.6168
 20
7.6645
 30
0.0000
  0
SEQEND
  8
0
  0
POLYLINE
  8
16
 66
1
 10
0.0000
 20
0.0000
 30
0.0000
 40
0.0889
 41
0.0889
 70
0
  0
VERTEX
  8
16
 10
4.6168
 20
8.5337
 30
0.0000
 42
1.0000
  0
VERTEX
  8
16
 10
4.6168
 20
8.4448
 30
0.0000
  0
SEQEND
  8
0
  0
POLYLINE
  8
16
 66
1
 10
0.0000
 20
0.0000
 30
0.0000
 40
0.1778
 41
0.1778
 70
0
  0
VERTEX
  8
16
 10
4.6168
 20
7.7089
 30
0.0000
  0
VERTEX
  8
16
 10
4.1152
 20
7.7089
 30
0.0000
  0
SEQEND
  8
0
  0
POLYLINE
  8
16
 66
1
 10
0.0000
 20
0.0000
 30
0.0000
 40
0.0889
 41
0.0889
 70
0
  0
VERTEX
  8
16
 10
4.1152
 20
7.7534
 30
0.0000
 42
1.0000
  0
VERTEX
  8
16
 10
4.1152
 20
7.6645
 30
0.0000
  0
SEQEND
  8
0
  0
POLYLINE
  8
16
 66
1
 10
0.0000
 20
0.0000
 30
0.0000
 40
0.0889
 41
0.0889
 70
0
  0
VERTEX
  8
16
 10
4.6168
 20
7.6645
 30
0.0000
 42
1.0000
  0
VERTEX
  8
16
 10
4.6168
 20
7.7534
 30
0.0000
  0
SEQEND
  8
0
  0
POLYLINE
  8
16
 66
1
 10
0.0000
 20
0.0000
 30
0.0000
 40
0.1778
 41
0.1778
 70
0
  0
VERTEX
  8
16
 10
4.1152
 20
7.7089
 30
0.0000
  0
VERTEX
  8
16
 10
4.1152
 20
8.7122
 30
0.0000
  0
SEQEND
  8
0
  0
POLYLINE
  8
16
 66
1
 10
0.0000
 20
0.0000
 30
0.0000
 40
0.0889
 41
0.0889
 70
0
  0
VERTEX
  8
16
 10
4.1596
 20
8.7122
 30
0.0000
 42
1.0000
  0
VERTEX
  8
16
 10
4.0707
 20
8.7122
 30
0.0000
  0
SEQEND
  8
0
  0
POLYLINE
  8
16
 66
1
 10
0.0000
 20
0.0000
 30
0.0000
 40
0.0889
 41
0.0889
 70
0
  0
VERTEX
  8
16
 10
4.0707
 20
7.7089
 30
0.0000
 42
1.0000
  0
VERTEX
  8
16
 10
4.1596
 20
7.7089
 30
0.0000
  0
SEQEND
  8
0
  0
POLYLINE
  8
16
 66
1
 10
0.0000
 20
0.0000
 30
0.0000
 40
0.1778
 41
0.1778
 70
0
  0
VERTEX
  8
16
 10
4.4496
 20
9.0466
 30
0.0000
 42
0.4142
  0
VERTEX
  8
16
 10
4.1152
 20
8.7122
 30
0.0000
  0
SEQEND
  8
0
  0
POLYLINE
  8
16
 66
1
 10
0.0000
 20
0.0000
 30
0.0000
 40
0.0889
 41
0.0889
 70
0
  0
VERTEX
  8
16
 10
4.4496
 20
9.0022
 30
0.0000
 42
1.0000
  0
VERTEX
  8
16
 10
4.4496
 20
9.0911
 30
0.0000
  0
SEQEND
  8
0
  0
POLYLINE
  8
16
 66
1
 10
0.0000
 20
0.0000
 30
0.0000
 40
0.0889
 41
0.0889
 70
0
  0
VERTEX
  8
16
 10
4.0707
 20
8.7122
 30
0.0000
 42
1.0000
  0
VERTEX
  8
16
 10
4.1596
 20
8.7122
 30
0.0000
  0
SEQEND
  8
0
  0
POLYLINE
  8
16
 66
1
 10
0.0000
 20
0.0000
 30
0.0000
 40
0.1778
 41
0.1778
 70
0
  0
VERTEX
  8
16
 10
4.4496
 20
9.0466
 30
0.0000
  0
VERTEX
  8
16
 10
4.8955
 20
9.0466
 30
0.0000
  0
SEQEND
  8
0
  0
POLYLINE
  8
16
 66
1
 10
0.0000
 20
0.0000
 30
0.0000
 40
0.0889
 41
0.0889
 70
0
  0
VERTEX
  8
16
 10
4.8955
 20
9.0022
 30
0.0000
 42
1.0000
  0
VERTEX
  8
16
 10
4.8955
 20
9.0911
 30
0.0000
  0
SEQEND
  8
0
  0
POLYLINE
  8
16
 66
1
 10
0.0000
 20
0.0000
 30
0.0000
 40
0.0889
 41
0.0889
 70
0
  0
VERTEX
  8
16
 10
4.4496
 20
9.0911
 30
0.0000
 42
1.0000
  0
VERTEX
  8
16
 10
4.4496
 20
9.0022
 30
0.0000
  0
SEQEND
  8
0
  0
POLYLINE
  8
16
 66
1
 10
0.0000
 20
0.0000
 30
0.0000
 40
0.1778
 41
0.1778
 70
0
  0
VERTEX
  8
16
 10
2.6074
 20
8.2663
 30
0.0000
  0
VERTEX
  8
16
 10
3.1648
 20
8.4892
 30
0.0000
  0
SEQEND
  8
0
  0
POLYLINE
  8
16
 66
1
 10
0.0000
 20
0.0000
 30
0.0000
 40
0.0889
 41
0.0889
 70
0
  0
VERTEX
  8
16
 10
3.1813
 20
8.4480
 30
0.0000
 42
1.0000
  0
VERTEX
  8
16
 10
3.1483
 20
8.5305
 30
0.0000
  0
SEQEND
  8
0
  0
POLYLINE
  8
16
 66
1
 10
0.0000
 20
0.0000
 30
0.0000
 40
0.0889
 41
0.0889
 70
0
  0
VERTEX
  8
16
 10
2.5909
 20
8.3076
 30
0.0000
 42
1.0000
  0
VERTEX
  8
16
 10
2.6240
 20
8.2250
 30
0.0000
  0
SEQEND
  8
0
  0
POLYLINE
  8
16
 66
1
 10
0.0000
 20
0.0000
 30
0.0000
 40
0.1778
 41
0.1778
 70
0
  0
VERTEX
  8
16
 10
3.1648
 20
8.4892
 30
0.0000
 42
0.8318
  0
VERTEX
  8
16
 10
3.0534
 20
9.0466
 30
0.0000
  0
SEQEND
  8
0
  0
POLYLINE
  8
16
 66
1
 10
0.0000
 20
0.0000
 30
0.0000
 40
0.0889
 41
0.0889
 70
0
  0
VERTEX
  8
16
 10
3.1483
 20
8.5305
 30
0.0000
 42
1.0000
  0
VERTEX
  8
16
 10
3.1813
 20
8.4480
 30
0.0000
  0
SEQEND
  8
0
  0
POLYLINE
  8
16
 66
1
 10
0.0000
 20
0.0000
 30
0.0000
 40
0.0889
 41
0.0889
 70
0
  0
VERTEX
  8
16
 10
3.0527
 20
9.0911
 30
0.0000
 42
1.0000
  0
VERTEX
  8
16
 10
3.0540
 20
9.0022
 30
0.0000
  0
SEQEND
  8
0
  0
POLYLINE
  8
16
 66
1
 10
0.0000
 20
0.0000
 30
0.0000
 40
0.1778
 41
0.1778
 70
0
  0
VERTEX
  8
16
 10
3.0534
 20
9.0466
 30
0.0000
 42
0.1026
  0
VERTEX
  8
16
 10
2.5517
 20
8.9352
 30
0.0000
  0
SEQEND
  8
0
  0
POLYLINE
  8
16
 66
1
 10
0.0000
 20
0.0000
 30
0.0000
 40
0.0889
 41
0.0889
 70
0
  0
VERTEX
  8
16
 10
3.0540
 20
9.0022
 30
0.0000
 42
1.0000
  0
VERTEX
  8
16
 10
3.0527
 20
9.0911
 30
0.0000
  0
SEQEND
  8
0
  0
POLYLINE
  8
16
 66
1
 10
0.0000
 20
0.0000
 30
0.0000
 40
0.0889
 41
0.0889
 70
0
  0
VERTEX
  8
16
 10
2.5335
 20
8.9757
 30
0.0000
 42
1.0000
  0
VERTEX
  8
16
 10
2.5700
 20
8.8946
 30
0.0000
  0
SEQEND
  8
0
  0
POLYLINE
  8
16
 66
1
 10
0.0000
 20
0.0000
 30
0.0000
 40
0.1778
 41
0.1778
 70
0
  0
VERTEX
  8
16
 10
2.6074
 20
8.2663
 30
0.0000
 42
0.8318
  0
VERTEX
  8
16
 10
2.7189
 20
7.7089
 30
0.0000
  0
SEQEND
  8
0
  0
POLYLINE
  8
16
 66
1
 10
0.0000
 20
0.0000
 30
0.0000
 40
0.0889
 41
0.0889
 70
0
  0
VERTEX
  8
16
 10
2.6240
 20
8.2250
 30
0.0000
 42
1.0000
  0
VERTEX
  8
16
 10
2.5909
 20
8.3076
 30
0.0000
  0
SEQEND
  8
0
  0
POLYLINE
  8
16
 66
1
 10
0.0000
 20
0.0000
 30
0.0000
 40
0.0889
 41
0.0889
 70
0
  0
VERTEX
  8
16
 10
2.7196
 20
7.6645
 30
0.0000
 42
1.0000
  0
VERTEX
  8
16
 10
2.7183
 20
7.7533
 30
0.0000
  0
SEQEND
  8
0
  0
POLYLINE
  8
16
 66
1
 10
0.0000
 20
0.0000
 30
0.0000
 40
0.1778
 41
0.1778
 70
0
  0
VERTEX
  8
16
 10
2.7189
 20
7.7089
 30
0.0000
 42
0.0830
  0
VERTEX
  8
16
 10
3.3321
 20
7.8204
 30
0.0000
  0
SEQEND
  8
0
  0
POLYLINE
  8
16
 66
1
 10
0.0000
 20
0.0000
 30
0.0000
 40
0.0889
 41
0.0889
 70
0
  0
VERTEX
  8
16
 10
2.7183
 20
7.7533
 30
0.0000
 42
1.0000
  0
VERTEX
  8
16
 10
2.7196
 20
7.6645
 30
0.0000
  0
SEQEND
  8
0
  0
POLYLINE
  8
16
 66
1
 10
0.0000
 20
0.0000
 30
0.0000
 40
0.0889
 41
0.0889
 70
0
  0
VERTEX
  8
16
 10
3.3471
 20
7.7786
 30
0.0000
 42
1.0000
  0
VERTEX
  8
16
 10
3.3170
 20
7.8622
 30
0.0000
  0
SEQEND
  8
0
  0
INSERT
  8
17
  2
ROUNDP
 10
-13.9700
 20
13.7550
 30
0.0000
 41
1.9500
 42
1.9500
 43
1.0000
 50
180.0000
  0
CIRCLE
  8
44
 10
-13.9700
 20
13.7550
 30
0.0000
 40
0.6500
  0
INSERT
  8
17
  2
ROUNDP
 10
-13.9700
 20
-6.2450
 30
0.0000
 41
1.9500
 42
1.9500
 43
1.0000
 50
180.0000
  0
CIRCLE
  8
44
 10
-13.9700
 20
-6.2450
 30
0.0000
 40
0.6500
  0
INSERT
  8
17
  2
ROUNDP
 10
-7.6200
 20
-1.2700
 30
0.0000
 41
1.8796
 42
1.8796
 43
1.0000
 50
180.0000
  0
CIRCLE
  8
44
 10
-7.6200
 20
-1.2700
 30
0.0000
 40
0.5080
  0
INSERT
  8
17
  2
ROUNDP
 10
-7.6200
 20
1.2700
 30
0.0000
 41
1.8796
 42
1.8796
 43
1.0000
 50
180.0000
  0
CIRCLE
  8
44
 10
-7.6200
 20
1.2700
 30
0.0000
 40
0.5080
  0
INSERT
  8
17
  2
ROUNDP
 10
-7.6200
 20
3.8100
 30
0.0000
 41
1.8796
 42
1.8796
 43
1.0000
 50
180.0000
  0
CIRCLE
  8
44
 10
-7.6200
 20
3.8100
 30
0.0000
 40
0.5080
  0
INSERT
  8
17
  2
ROUNDP
 10
-7.6200
 20
6.3500
 30
0.0000
 41
1.8796
 42
1.8796
 43
1.0000
 50
180.0000
  0
CIRCLE
  8
44
 10
-7.6200
 20
6.3500
 30
0.0000
 40
0.5080
  0
INSERT
  8
17
  2
ROUNDP
 10
2.5400
 20
39.3700
 30
0.0000
 41
3.3020
 42
3.3020
 43
1.0000
 50
90.0000
  0
CIRCLE
  8
44
 10
2.5400
 20
39.3700
 30
0.0000
 40
1.0000
  0
INSERT
  8
17
  2
ROUNDP
 10
-1.9050
 20
39.3700
 30
0.0000
 41
3.3020
 42
3.3020
 43
1.0000
 50
90.0000
  0
CIRCLE
  8
44
 10
-1.9050
 20
39.3700
 30
0.0000
 40
1.0000
  0
INSERT
  8
17
  2
ROUNDP
 10
-34.9250
 20
-17.1450
 30
0.0000
 41
3.3020
 42
3.3020
 43
1.0000
 50
90.0000
  0
CIRCLE
  8
44
 10
-34.9250
 20
-17.1450
 30
0.0000
 40
1.0000
  0
INSERT
  8
17
  2
ROUNDP
 10
-32.3850
 20
-21.5900
 30
0.0000
 41
3.3020
 42
3.3020
 43
1.0000
 50
90.0000
  0
CIRCLE
  8
44
 10
-32.3850
 20
-21.5900
 30
0.0000
 40
1.0000
  0
INSERT
  8
17
  2
ROUNDP
 10
32.3850
 20
-21.5900
 30
0.0000
 41
3.3020
 42
3.3020
 43
1.0000
 50
90.0000
  0
CIRCLE
  8
44
 10
32.3850
 20
-21.5900
 30
0.0000
 40
1.0000
  0
INSERT
  8
17
  2
ROUNDP
 10
34.9250
 20
-17.1450
 30
0.0000
 41
3.3020
 42
3.3020
 43
1.0000
 50
90.0000
  0
CIRCLE
  8
44
 10
34.9250
 20
-17.1450
 30
0.0000
 40
1.0000
  0
INSERT
  8
17
  2
ROUNDP
 10
1.2700
 20
22.8600
 30
0.0000
 41
1.8796
 42
1.8796
 43
1.0000
 50
0.0000
  0
CIRCLE
  8
44
 10
1.2700
 20
22.8600
 30
0.0000
 40
0.4064
  0
INSERT
  8
17
  2
ROUNDP
 10
2.5400
 20
24.7650
 30
0.0000
 41
1.8796
 42
1.8796
 43
1.0000
 50
0.0000
  0
CIRCLE
  8
44
 10
2.5400
 20
24.7650
 30
0.0000
 40
0.4064
  0
INSERT
  8
17
  2
ROUNDP
 10
3.8100
 20
22.8600
 30
0.0000
 41
1.8796
 42
1.8796
 43
1.0000
 50
0.0000
  0
CIRCLE
  8
44
 10
3.8100
 20
22.8600
 30
0.0000
 40
0.4064
  0
INSERT
  8
17
  2
ROUNDP
 10
-9.5250
 20
-17.1450
 30
0.0000
 41
1.8796
 42
1.8796
 43
1.0000
 50
90.0000
  0
CIRCLE
  8
44
 10
-9.5250
 20
-17.1450
 30
0.0000
 40
0.4064
  0
INSERT
  8
17
  2
ROUNDP
 10
-11.4300
 20
-15.8750
 30
0.0000
 41
1.8796
 42
1.8796
 43
1.0000
 50
90.0000
  0
CIRCLE
  8
44
 10
-11.4300
 20
-15.8750
 30
0.0000
 40
0.4064
  0
INSERT
  8
17
  2
ROUNDP
 10
-9.5250
 20
-14.6050
 30
0.0000
 41
1.8796
 42
1.8796
 43
1.0000
 50
90.0000
  0
CIRCLE
  8
44
 10
-9.5250
 20
-14.6050
 30
0.0000
 40
0.4064
  0
INSERT
  8
17
  2
ROUNDP
 10
20.9550
 20
-8.8900
 30
0.0000
 41
1.8796
 42
1.8796
 43
1.0000
 50
270.0000
  0
CIRCLE
  8
44
 10
20.9550
 20
-8.8900
 30
0.0000
 40
0.4064
  0
INSERT
  8
17
  2
ROUNDP
 10
22.8600
 20
-10.1600
 30
0.0000
 41
1.8796
 42
1.8796
 43
1.0000
 50
270.0000
  0
CIRCLE
  8
44
 10
22.8600
 20
-10.1600
 30
0.0000
 40
0.4064
  0
INSERT
  8
17
  2
ROUNDP
 10
20.9550
 20
-11.4300
 30
0.0000
 41
1.8796
 42
1.8796
 43
1.0000
 50
270.0000
  0
CIRCLE
  8
44
 10
20.9550
 20
-11.4300
 30
0.0000
 40
0.4064
  0
INSERT
  8
17
  2
OCTAGONP
 10
-1.9050
 20
27.3050
 30
0.0000
 41
1.3208
 42
1.3208
 43
1.0000
 50
270.0000
  0
CIRCLE
  8
44
 10
-1.9050
 20
27.3050
 30
0.0000
 40
0.4064
  0
INSERT
  8
17
  2
OCTAGONP
 10
-1.9050
 20
19.6850
 30
0.0000
 41
1.3208
 42
1.3208
 43
1.0000
 50
270.0000
  0
CIRCLE
  8
44
 10
-1.9050
 20
19.6850
 30
0.0000
 40
0.4064
  0
INSERT
  8
17
  2
OCTAGONP
 10
12.0650
 20
18.4150
 30
0.0000
 41
1.3208
 42
1.3208
 43
1.0000
 50
180.0000
  0
CIRCLE
  8
44
 10
12.0650
 20
18.4150
 30
0.0000
 40
0.4064
  0
INSERT
  8
17
  2
OCTAGONP
 10
4.4450
 20
18.4150
 30
0.0000
 41
1.3208
 42
1.3208
 43
1.0000
 50
180.0000
  0
CIRCLE
  8
44
 10
4.4450
 20
18.4150
 30
0.0000
 40
0.4064
  0
INSERT
  8
17
  2
OCTAGONP
 10
-24.1300
 20
-10.7950
 30
0.0000
 41
1.3208
 42
1.3208
 43
1.0000
 50
0.0000
  0
CIRCLE
  8
44
 10
-24.1300
 20
-10.7950
 30
0.0000
 40
0.4064
  0
INSERT
  8
17
  2
OCTAGONP
 10
-16.5100
 20
-10.7950
 30
0.0000
 41
1.3208
 42
1.3208
 43
1.0000
 50
0.0000
  0
CIRCLE
  8
44
 10
-16.5100
 20
-10.7950
 30
0.0000
 40
0.4064
  0
INSERT
  8
17
  2
OCTAGONP
 10
-5.7150
 20
-9.5250
 30
0.0000
 41
1.3208
 42
1.3208
 43
1.0000
 50
270.0000
  0
CIRCLE
  8
44
 10
-5.7150
 20
-9.5250
 30
0.0000
 40
0.4064
  0
INSERT
  8
17
  2
OCTAGONP
 10
-5.7150
 20
-17.1450
 30
0.0000
 41
1.3208
 42
1.3208
 43
1.0000
 50
270.0000
  0
CIRCLE
  8
44
 10
-5.7150
 20
-17.1450
 30
0.0000
 40
0.4064
  0
INSERT
  8
17
  2
OCTAGONP
 10
25.4000
 20
-15.2400
 30
0.0000
 41
1.3208
 42
1.3208
 43
1.0000
 50
180.0000
  0
CIRCLE
  8
44
 10
25.4000
 20
-15.2400
 30
0.0000
 40
0.4064
  0
INSERT
  8
17
  2
OCTAGONP
 10
17.7800
 20
-15.2400
 30
0.0000
 41
1.3208
 42
1.3208
 43
1.0000
 50
180.0000
  0
CIRCLE
  8
44
 10
17.7800
 20
-15.2400
 30
0.0000
 40
0.4064
  0
INSERT
  8
17
  2
OCTAGONP
 10
20.3200
 20
8.2550
 30
0.0000
 41
1.3208
 42
1.3208
 43
1.0000
 50
270.0000
  0
CIRCLE
  8
44
 10
20.3200
 20
8.2550
 30
0.0000
 40
0.4064
  0
INSERT
  8
17
  2
OCTAGONP
 10
20.3200
 20
0.6350
 30
0.0000
 41
1.3208
 42
1.3208
 43
1.0000
 50
270.0000
  0
CIRCLE
  8
44
 10
20.3200
 20
0.6350
 30
0.0000
 40
0.4064
  0
INSERT
  8
17
  2
LONGP100
 10
14.6050
 20
0.0000
 30
0.0000
 41
1.3080
 42
1.3080
 43
1.0000
 50
0.0000
  0
CIRCLE
  8
44
 10
14.6050
 20
0.0000
 30
0.0000
 40
0.4000
  0
INSERT
  8
17
  2
LONGP100
 10
14.6050
 20
-2.5400
 30
0.0000
 41
1.3080
 42
1.3080
 43
1.0000
 50
0.0000
  0
CIRCLE
  8
44
 10
14.6050
 20
-2.5400
 30
0.0000
 40
0.4000
  0
INSERT
  8
17
  2
LONGP100
 10
14.6050
 20
-5.0800
 30
0.0000
 41
1.3080
 42
1.3080
 43
1.0000
 50
0.0000
  0
CIRCLE
  8
44
 10
14.6050
 20
-5.0800
 30
0.0000
 40
0.4000
  0
INSERT
  8
17
  2
LONGP100
 10
14.6050
 20
-7.6200
 30
0.0000
 41
1.3080
 42
1.3080
 43
1.0000
 50
0.0000
  0
CIRCLE
  8
44
 10
14.6050
 20
-7.6200
 30
0.0000
 40
0.4000
  0
INSERT
  8
17
  2
LONGP100
 10
10.7950
 20
-1.2700
 30
0.0000
 41
1.3080
 42
1.3080
 43
1.0000
 50
180.0000
  0
CIRCLE
  8
44
 10
10.7950
 20
-1.2700
 30
0.0000
 40
0.4000
  0
INSERT
  8
17
  2
LONGP100
 10
10.7950
 20
1.2700
 30
0.0000
 41
1.3080
 42
1.3080
 43
1.0000
 50
180.0000
  0
CIRCLE
  8
44
 10
10.7950
 20
1.2700
 30
0.0000
 40
0.4000
  0
INSERT
  8
17
  2
LONGP100
 10
10.7950
 20
-11.4300
 30
0.0000
 41
1.3080
 42
1.3080
 43
1.0000
 50
180.0000
  0
CIRCLE
  8
44
 10
10.7950
 20
-11.4300
 30
0.0000
 40
0.4000
  0
INSERT
  8
17
  2
LONGP100
 10
10.7950
 20
-8.8900
 30
0.0000
 41
1.3080
 42
1.3080
 43
1.0000
 50
180.0000
  0
CIRCLE
  8
44
 10
10.7950
 20
-8.8900
 30
0.0000
 40
0.4000
  0
INSERT
  8
17
  2
LONGP100
 10
-0.6350
 20
0.0000
 30
0.0000
 41
1.3080
 42
1.3080
 43
1.0000
 50
0.0000
  0
CIRCLE
  8
44
 10
-0.6350
 20
0.0000
 30
0.0000
 40
0.4000
  0
INSERT
  8
17
  2
LONGP100
 10
-0.6350
 20
-2.5400
 30
0.0000
 41
1.3080
 42
1.3080
 43
1.0000
 50
0.0000
  0
CIRCLE
  8
44
 10
-0.6350
 20
-2.5400
 30
0.0000
 40
0.4000
  0
INSERT
  8
17
  2
LONGP100
 10
-0.6350
 20
-5.0800
 30
0.0000
 41
1.3080
 42
1.3080
 43
1.0000
 50
0.0000
  0
CIRCLE
  8
44
 10
-0.6350
 20
-5.0800
 30
0.0000
 40
0.4000
  0
INSERT
  8
17
  2
LONGP100
 10
-0.6350
 20
-7.6200
 30
0.0000
 41
1.3080
 42
1.3080
 43
1.0000
 50
0.0000
  0
CIRCLE
  8
44
 10
-0.6350
 20
-7.6200
 30
0.0000
 40
0.4000
  0
INSERT
  8
17
  2
LONGP100
 10
-0.6350
 20
-10.1600
 30
0.0000
 41
1.3080
 42
1.3080
 43
1.0000
 50
0.0000
  0
CIRCLE
  8
44
 10
-0.6350
 20
-10.1600
 30
0.0000
 40
0.4000
  0
INSERT
  8
17
  2
LONGP100
 10
-0.6350
 20
-12.7000
 30
0.0000
 41
1.3080
 42
1.3080
 43
1.0000
 50
0.0000
  0
CIRCLE
  8
44
 10
-0.6350
 20
-12.7000
 30
0.0000
 40
0.4000
  0
INSERT
  8
17
  2
LONGP100
 10
-0.6350
 20
-15.2400
 30
0.0000
 41
1.3080
 42
1.3080
 43
1.0000
 50
0.0000
  0
CIRCLE
  8
44
 10
-0.6350
 20
-15.2400
 30
0.0000
 40
0.4000
  0
INSERT
  8
17
  2
LONGP100
 10
-0.6350
 20
-17.7800
 30
0.0000
 41
1.3080
 42
1.3080
 43
1.0000
 50
0.0000
  0
CIRCLE
  8
44
 10
-0.6350
 20
-17.7800
 30
0.0000
 40
0.4000
  0
INSERT
  8
17
  2
LONGP100
 10
14.6050
 20
-17.7800
 30
0.0000
 41
1.3080
 42
1.3080
 43
1.0000
 50
0.0000
  0
CIRCLE
  8
44
 10
14.6050
 20
-17.7800
 30
0.0000
 40
0.4000
  0
INSERT
  8
17
  2
LONGP100
 10
14.6050
 20
-15.2400
 30
0.0000
 41
1.3080
 42
1.3080
 43
1.0000
 50
0.0000
  0
CIRCLE
  8
44
 10
14.6050
 20
-15.2400
 30
0.0000
 40
0.4000
  0
INSERT
  8
17
  2
LONGP100
 10
14.6050
 20
-12.7000
 30
0.0000
 41
1.3080
 42
1.3080
 43
1.0000
 50
0.0000
  0
CIRCLE
  8
44
 10
14.6050
 20
-12.7000
 30
0.0000
 40
0.4000
  0
INSERT
  8
17
  2
LONGP100
 10
14.6050
 20
-10.1600
 30
0.0000
 41
1.3080
 42
1.3080
 43
1.0000
 50
0.0000
  0
CIRCLE
  8
44
 10
14.6050
 20
-10.1600
 30
0.0000
 40
0.4000
  0
INSERT
  8
17
  2
LONGP100
 10
13.3350
 20
12.7000
 30
0.0000
 41
1.3080
 42
1.3080
 43
1.0000
 50
90.0000
  0
CIRCLE
  8
44
 10
13.3350
 20
12.7000
 30
0.0000
 40
0.4000
  0
INSERT
  8
17
  2
LONGP100
 10
14.6050
 20
7.6200
 30
0.0000
 41
1.3080
 42
1.3080
 43
1.0000
 50
0.0000
  0
CIRCLE
  8
44
 10
14.6050
 20
7.6200
 30
0.0000
 40
0.4000
  0
INSERT
  8
17
  2
LONGP100
 10
-0.6350
 20
2.5400
 30
0.0000
 41
1.3080
 42
1.3080
 43
1.0000
 50
0.0000
  0
CIRCLE
  8
44
 10
-0.6350
 20
2.5400
 30
0.0000
 40
0.4000
  0
INSERT
  8
17
  2
LONGP100
 10
0.6350
 20
12.7000
 30
0.0000
 41
1.3080
 42
1.3080
 43
1.0000
 50
90.0000
  0
CIRCLE
  8
44
 10
0.6350
 20
12.7000
 30
0.0000
 40
0.4000
  0
INSERT
  8
17
  2
LONGP100
 10
3.1750
 20
12.7000
 30
0.0000
 41
1.3080
 42
1.3080
 43
1.0000
 50
90.0000
  0
CIRCLE
  8
44
 10
3.1750
 20
12.7000
 30
0.0000
 40
0.4000
  0
INSERT
  8
17
  2
LONGP100
 10
14.6050
 20
10.1600
 30
0.0000
 41
1.3080
 42
1.3080
 43
1.0000
 50
0.0000
  0
CIRCLE
  8
44
 10
14.6050
 20
10.1600
 30
0.0000
 40
0.4000
  0
INSERT
  8
17
  2
LONGP100
 10
14.6050
 20
5.0800
 30
0.0000
 41
1.3080
 42
1.3080
 43
1.0000
 50
0.0000
  0
CIRCLE
  8
44
 10
14.6050
 20
5.0800
 30
0.0000
 40
0.4000
  0
INSERT
  8
17
  2
LONGP100
 10
-0.6350
 20
5.0800
 30
0.0000
 41
1.3080
 42
1.3080
 43
1.0000
 50
0.0000
  0
CIRCLE
  8
44
 10
-0.6350
 20
5.0800
 30
0.0000
 40
0.4000
  0
INSERT
  8
17
  2
LONGP100
 10
-0.6350
 20
7.6200
 30
0.0000
 41
1.3080
 42
1.3080
 43
1.0000
 50
0.0000
  0
CIRCLE
  8
44
 10
-0.6350
 20
7.6200
 30
0.0000
 40
0.4000
  0
INSERT
  8
17
  2
LONGP100
 10
8.2550
 20
12.7000
 30
0.0000
 41
1.3080
 42
1.3080
 43
1.0000
 50
90.0000
  0
CIRCLE
  8
44
 10
8.2550
 20
12.7000
 30
0.0000
 40
0.4000
  0
INSERT
  8
17
  2
LONGP100
 10
-0.6350
 20
10.1600
 30
0.0000
 41
1.3080
 42
1.3080
 43
1.0000
 50
0.0000
  0
CIRCLE
  8
44
 10
-0.6350
 20
10.1600
 30
0.0000
 40
0.4000
  0
INSERT
  8
17
  2
LONGP100
 10
10.7950
 20
12.7000
 30
0.0000
 41
1.3080
 42
1.3080
 43
1.0000
 50
90.0000
  0
CIRCLE
  8
44
 10
10.7950
 20
12.7000
 30
0.0000
 40
0.4000
  0
INSERT
  8
17
  2
LONGP100
 10
14.6050
 20
2.5400
 30
0.0000
 41
1.3080
 42
1.3080
 43
1.0000
 50
0.0000
  0
CIRCLE
  8
44
 10
14.6050
 20
2.5400
 30
0.0000
 40
0.4000
  0
INSERT
  8
17
  2
LONGP100
 10
5.7150
 20
12.7000
 30
0.0000
 41
1.3080
 42
1.3080
 43
1.0000
 50
90.0000
  0
CIRCLE
  8
44
 10
5.7150
 20
12.7000
 30
0.0000
 40
0.4000
  0
POLYLINE
  8
16
 66
1
 10
0.0000
 20
0.0000
 30
0.0000
 40
0.8128
 41
0.8128
 70
0
  0
VERTEX
  8
16
 10
-1.9050
 20
19.6850
 30
0.0000
  0
VERTEX
  8
16
 10
1.9050
 20
15.8750
 30
0.0000
  0
SEQEND
  8
0
  0
POLYLINE
  8
16
 66
1
 10
0.0000
 20
0.0000
 30
0.0000
 40
0.4064
 41
0.4064
 70
0
  0
VERTEX
  8
16
 10
1.7613
 20
15.7313
 30
0.0000
 42
1.0000
  0
VERTEX
  8
16
 10
2.0487
 20
16.0187
 30
0.0000
  0
SEQEND
  8
0
  0
POLYLINE
  8
16
 66
1
 10
0.0000
 20
0.0000
 30
0.0000
 40
0.4064
 41
0.4064
 70
0
  0
VERTEX
  8
16
 10
-1.7613
 20
19.8287
 30
0.0000
 42
1.0000
  0
VERTEX
  8
16
 10
-2.0487
 20
19.5413
 30
0.0000
  0
SEQEND
  8
0
  0
POLYLINE
  8
16
 66
1
 10
0.0000
 20
0.0000
 30
0.0000
 40
0.8128
 41
0.8128
 70
0
  0
VERTEX
  8
16
 10
1.9050
 20
15.8750
 30
0.0000
  0
VERTEX
  8
16
 10
8.8900
 20
15.8750
 30
0.0000
  0
SEQEND
  8
0
  0
POLYLINE
  8
16
 66
1
 10
0.0000
 20
0.0000
 30
0.0000
 40
0.4064
 41
0.4064
 70
0
  0
VERTEX
  8
16
 10
8.8900
 20
15.6718
 30
0.0000
 42
1.0000
  0
VERTEX
  8
16
 10
8.8900
 20
16.0782
 30
0.0000
  0
SEQEND
  8
0
  0
POLYLINE
  8
16
 66
1
 10
0.0000
 20
0.0000
 30
0.0000
 40
0.4064
 41
0.4064
 70
0
  0
VERTEX
  8
16
 10
1.9050
 20
16.0782
 30
0.0000
 42
1.0000
  0
VERTEX
  8
16
 10
1.9050
 20
15.6718
 30
0.0000
  0
SEQEND
  8
0
  0
POLYLINE
  8
16
 66
1
 10
0.0000
 20
0.0000
 30
0.0000
 40
0.8128
 41
0.8128
 70
0
  0
VERTEX
  8
16
 10
8.8900
 20
15.8750
 30
0.0000
  0
VERTEX
  8
16
 10
13.3350
 20
15.8750
 30
0.0000
  0
SEQEND
  8
0
  0
POLYLINE
  8
16
 66
1
 10
0.0000
 20
0.0000
 30
0.0000
 40
0.4064
 41
0.4064
 70
0
  0
VERTEX
  8
16
 10
13.3350
 20
15.6718
 30
0.0000
 42
1.0000
  0
VERTEX
  8
16
 10
13.3350
 20
16.0782
 30
0.0000
  0
SEQEND
  8
0
  0
POLYLINE
  8
16
 66
1
 10
0.0000
 20
0.0000
 30
0.0000
 40
0.4064
 41
0.4064
 70
0
  0
VERTEX
  8
16
 10
8.8900
 20
16.0782
 30
0.0000
 42
1.0000
  0
VERTEX
  8
16
 10
8.8900
 20
15.6718
 30
0.0000
  0
SEQEND
  8
0
  0
POLYLINE
  8
16
 66
1
 10
0.0000
 20
0.0000
 30
0.0000
 40
0.8128
 41
0.8128
 70
0
  0
VERTEX
  8
16
 10
13.3350
 20
15.8750
 30
0.0000
  0
VERTEX
  8
16
 10
15.2400
 20
13.9700
 30
0.0000
  0
SEQEND
  8
0
  0
POLYLINE
  8
16
 66
1
 10
0.0000
 20
0.0000
 30
0.0000
 40
0.4064
 41
0.4064
 70
0
  0
VERTEX
  8
16
 10
15.0963
 20
13.8263
 30
0.0000
 42
1.0000
  0
VERTEX
  8
16
 10
15.3837
 20
14.1137
 30
0.0000
  0
SEQEND
  8
0
  0
POLYLINE
  8
16
 66
1
 10
0.0000
 20
0.0000
 30
0.0000
 40
0.4064
 41
0.4064
 70
0
  0
VERTEX
  8
16
 10
13.4787
 20
16.0187
 30
0.0000
 42
1.0000
  0
VERTEX
  8
16
 10
13.1913
 20
15.7313
 30
0.0000
  0
SEQEND
  8
0
  0
POLYLINE
  8
16
 66
1
 10
0.0000
 20
0.0000
 30
0.0000
 40
0.8128
 41
0.8128
 70
0
  0
VERTEX
  8
16
 10
15.2400
 20
10.7950
 30
0.0000
  0
VERTEX
  8
16
 10
14.6050
 20
10.1600
 30
0.0000
  0
SEQEND
  8
0
  0
POLYLINE
  8
16
 66
1
 10
0.0000
 20
0.0000
 30
0.0000
 40
0.4064
 41
0.4064
 70
0
  0
VERTEX
  8
16
 10
14.4613
 20
10.3037
 30
0.0000
 42
1.0000
  0
VERTEX
  8
16
 10
14.7487
 20
10.0163
 30
0.0000
  0
SEQEND
  8
0
  0
POLYLINE
  8
16
 66
1
 10
0.0000
 20
0.0000
 30
0.0000
 40
0.4064
 41
0.4064
 70
0
  0
VERTEX
  8
16
 10
15.3837
 20
10.6513
 30
0.0000
 42
1.0000
  0
VERTEX
  8
16
 10
15.0963
 20
10.9387
 30
0.0000
  0
SEQEND
  8
0
  0
POLYLINE
  8
16
 66
1
 10
0.0000
 20
0.0000
 30
0.0000
 40
0.8128
 41
0.8128
 70
0
  0
VERTEX
  8
16
 10
15.2400
 20
13.9700
 30
0.0000
  0
VERTEX
  8
16
 10
15.2400
 20
10.7950
 30
0.0000
  0
SEQEND
  8
0
  0
POLYLINE
  8
16
 66
1
 10
0.0000
 20
0.0000
 30
0.0000
 40
0.4064
 41
0.4064
 70
0
  0
VERTEX
  8
16
 10
15.0368
 20
10.7950
 30
0.0000
 42
1.0000
  0
VERTEX
  8
16
 10
15.4432
 20
10.7950
 30
0.0000
  0
SEQEND
  8
0
  0
POLYLINE
  8
16
 66
1
 10
0.0000
 20
0.0000
 30
0.0000
 40
0.4064
 41
0.4064
 70
0
  0
VERTEX
  8
16
 10
15.4432
 20
13.9700
 30
0.0000
 42
1.0000
  0
VERTEX
  8
16
 10
15.0368
 20
13.9700
 30
0.0000
  0
SEQEND
  8
0
  0
POLYLINE
  8
16
 66
1
 10
0.0000
 20
0.0000
 30
0.0000
 40
0.8128
 41
0.8128
 70
0
  0
VERTEX
  8
16
 10
-9.5250
 20
-14.6050
 30
0.0000
  0
VERTEX
  8
16
 10
-9.5250
 20
-12.7000
 30
0.0000
  0
SEQEND
  8
0
  0
POLYLINE
  8
16
 66
1
 10
0.0000
 20
0.0000
 30
0.0000
 40
0.4064
 41
0.4064
 70
0
  0
VERTEX
  8
16
 10
-9.3218
 20
-12.7000
 30
0.0000
 42
1.0000
  0
VERTEX
  8
16
 10
-9.7282
 20
-12.7000
 30
0.0000
  0
SEQEND
  8
0
  0
POLYLINE
  8
16
 66
1
 10
0.0000
 20
0.0000
 30
0.0000
 40
0.4064
 41
0.4064
 70
0
  0
VERTEX
  8
16
 10
-9.7282
 20
-14.6050
 30
0.0000
 42
1.0000
  0
VERTEX
  8
16
 10
-9.3218
 20
-14.6050
 30
0.0000
  0
SEQEND
  8
0
  0
POLYLINE
  8
16
 66
1
 10
0.0000
 20
0.0000
 30
0.0000
 40
0.8128
 41
0.8128
 70
0
  0
VERTEX
  8
16
 10
-9.5250
 20
-12.7000
 30
0.0000
  0
VERTEX
  8
16
 10
-11.4300
 20
-10.7950
 30
0.0000
  0
SEQEND
  8
0
  0
POLYLINE
  8
16
 66
1
 10
0.0000
 20
0.0000
 30
0.0000
 40
0.4064
 41
0.4064
 70
0
  0
VERTEX
  8
16
 10
-11.2863
 20
-10.6513
 30
0.0000
 42
1.0000
  0
VERTEX
  8
16
 10
-11.5737
 20
-10.9387
 30
0.0000
  0
SEQEND
  8
0
  0
POLYLINE
  8
16
 66
1
 10
0.0000
 20
0.0000
 30
0.0000
 40
0.4064
 41
0.4064
 70
0
  0
VERTEX
  8
16
 10
-9.6687
 20
-12.8437
 30
0.0000
 42
1.0000
  0
VERTEX
  8
16
 10
-9.3813
 20
-12.5563
 30
0.0000
  0
SEQEND
  8
0
  0
POLYLINE
  8
16
 66
1
 10
0.0000
 20
0.0000
 30
0.0000
 40
0.8128
 41
0.8128
 70
0
  0
VERTEX
  8
16
 10
-11.4300
 20
-10.7950
 30
0.0000
  0
VERTEX
  8
16
 10
-16.5100
 20
-10.7950
 30
0.0000
  0
SEQEND
  8
0
  0
POLYLINE
  8
16
 66
1
 10
0.0000
 20
0.0000
 30
0.0000
 40
0.4064
 41
0.4064
 70
0
  0
VERTEX
  8
16
 10
-16.5100
 20
-10.5918
 30
0.0000
 42
1.0000
  0
VERTEX
  8
16
 10
-16.5100
 20
-10.9982
 30
0.0000
  0
SEQEND
  8
0
  0
POLYLINE
  8
16
 66
1
 10
0.0000
 20
0.0000
 30
0.0000
 40
0.4064
 41
0.4064
 70
0
  0
VERTEX
  8
16
 10
-11.4300
 20
-10.9982
 30
0.0000
 42
1.0000
  0
VERTEX
  8
16
 10
-11.4300
 20
-10.5918
 30
0.0000
  0
SEQEND
  8
0
  0
POLYLINE
  8
16
 66
1
 10
0.0000
 20
0.0000
 30
0.0000
 40
0.8128
 41
0.8128
 70
0
  0
VERTEX
  8
16
 10
20.9550
 20
-11.4300
 30
0.0000
  0
VERTEX
  8
16
 10
20.9550
 20
-13.9700
 30
0.0000
  0
SEQEND
  8
0
  0
POLYLINE
  8
16
 66
1
 10
0.0000
 20
0.0000
 30
0.0000
 40
0.4064
 41
0.4064
 70
0
  0
VERTEX
  8
16
 10
20.7518
 20
-13.9700
 30
0.0000
 42
1.0000
  0
VERTEX
  8
16
 10
21.1582
 20
-13.9700
 30
0.0000
  0
SEQEND
  8
0
  0
POLYLINE
  8
16
 66
1
 10
0.0000
 20
0.0000
 30
0.0000
 40
0.4064
 41
0.4064
 70
0
  0
VERTEX
  8
16
 10
21.1582
 20
-11.4300
 30
0.0000
 42
1.0000
  0
VERTEX
  8
16
 10
20.7518
 20
-11.4300
 30
0.0000
  0
SEQEND
  8
0
  0
POLYLINE
  8
16
 66
1
 10
0.0000
 20
0.0000
 30
0.0000
 40
0.8128
 41
0.8128
 70
0
  0
VERTEX
  8
16
 10
20.9550
 20
-13.9700
 30
0.0000
  0
VERTEX
  8
16
 10
19.6850
 20
-15.2400
 30
0.0000
  0
SEQEND
  8
0
  0
POLYLINE
  8
16
 66
1
 10
0.0000
 20
0.0000
 30
0.0000
 40
0.4064
 41
0.4064
 70
0
  0
VERTEX
  8
16
 10
19.5413
 20
-15.0963
 30
0.0000
 42
1.0000
  0
VERTEX
  8
16
 10
19.8287
 20
-15.3837
 30
0.0000
  0
SEQEND
  8
0
  0
POLYLINE
  8
16
 66
1
 10
0.0000
 20
0.0000
 30
0.0000
 40
0.4064
 41
0.4064
 70
0
  0
VERTEX
  8
16
 10
21.0987
 20
-14.1137
 30
0.0000
 42
1.0000
  0
VERTEX
  8
16
 10
20.8113
 20
-13.8263
 30
0.0000
  0
SEQEND
  8
0
  0
POLYLINE
  8
16
 66
1
 10
0.0000
 20
0.0000
 30
0.0000
 40
0.8128
 41
0.8128
 70
0
  0
VERTEX
  8
16
 10
19.6850
 20
-15.2400
 30
0.0000
  0
VERTEX
  8
16
 10
17.7800
 20
-15.2400
 30
0.0000
  0
SEQEND
  8
0
  0
POLYLINE
  8
16
 66
1
 10
0.0000
 20
0.0000
 30
0.0000
 40
0.4064
 41
0.4064
 70
0
  0
VERTEX
  8
16
 10
17.7800
 20
-15.0368
 30
0.0000
 42
1.0000
  0
VERTEX
  8
16
 10
17.7800
 20
-15.4432
 30
0.0000
  0
SEQEND
  8
0
  0
POLYLINE
  8
16
 66
1
 10
0.0000
 20
0.0000
 30
0.0000
 40
0.4064
 41
0.4064
 70
0
  0
VERTEX
  8
16
 10
19.6850
 20
-15.4432
 30
0.0000
 42
1.0000
  0
VERTEX
  8
16
 10
19.6850
 20
-15.0368
 30
0.0000
  0
SEQEND
  8
0
  0
POLYLINE
  8
16
 66
1
 10
0.0000
 20
0.0000
 30
0.0000
 40
0.8128
 41
0.8128
 70
0
  0
VERTEX
  8
16
 10
-13.9700
 20
13.7550
 30
0.0000
  0
VERTEX
  8
16
 10
-13.9700
 20
15.8750
 30
0.0000
  0
SEQEND
  8
0
  0
POLYLINE
  8
16
 66
1
 10
0.0000
 20
0.0000
 30
0.0000
 40
0.4064
 41
0.4064
 70
0
  0
VERTEX
  8
16
 10
-13.7668
 20
15.8750
 30
0.0000
 42
1.0000
  0
VERTEX
  8
16
 10
-14.1732
 20
15.8750
 30
0.0000
  0
SEQEND
  8
0
  0
POLYLINE
  8
16
 66
1
 10
0.0000
 20
0.0000
 30
0.0000
 40
0.4064
 41
0.4064
 70
0
  0
VERTEX
  8
16
 10
-14.1732
 20
13.7550
 30
0.0000
 42
1.0000
  0
VERTEX
  8
16
 10
-13.7668
 20
13.7550
 30
0.0000
  0
SEQEND
  8
0
  0
POLYLINE
  8
16
 66
1
 10
0.0000
 20
0.0000
 30
0.0000
 40
0.8128
 41
0.8128
 70
0
  0
VERTEX
  8
16
 10
-13.9700
 20
15.8750
 30
0.0000
  0
VERTEX
  8
16
 10
-12.0650
 20
17.7800
 30
0.0000
  0
SEQEND
  8
0
  0
POLYLINE
  8
16
 66
1
 10
0.0000
 20
0.0000
 30
0.0000
 40
0.4064
 41
0.4064
 70
0
  0
VERTEX
  8
16
 10
-11.9213
 20
17.6363
 30
0.0000
 42
1.0000
  0
VERTEX
  8
16
 10
-12.2087
 20
17.9237
 30
0.0000
  0
SEQEND
  8
0
  0
POLYLINE
  8
16
 66
1
 10
0.0000
 20
0.0000
 30
0.0000
 40
0.4064
 41
0.4064
 70
0
  0
VERTEX
  8
16
 10
-14.1137
 20
16.0187
 30
0.0000
 42
1.0000
  0
VERTEX
  8
16
 10
-13.8263
 20
15.7313
 30
0.0000
  0
SEQEND
  8
0
  0
POLYLINE
  8
16
 66
1
 10
0.0000
 20
0.0000
 30
0.0000
 40
0.8128
 41
0.8128
 70
0
  0
VERTEX
  8
16
 10
-12.0650
 20
17.7800
 30
0.0000
  0
VERTEX
  8
16
 10
-3.8100
 20
17.7800
 30
0.0000
  0
SEQEND
  8
0
  0
POLYLINE
  8
16
 66
1
 10
0.0000
 20
0.0000
 30
0.0000
 40
0.4064
 41
0.4064
 70
0
  0
VERTEX
  8
16
 10
-3.8100
 20
17.5768
 30
0.0000
 42
1.0000
  0
VERTEX
  8
16
 10
-3.8100
 20
17.9832
 30
0.0000
  0
SEQEND
  8
0
  0
POLYLINE
  8
16
 66
1
 10
0.0000
 20
0.0000
 30
0.0000
 40
0.4064
 41
0.4064
 70
0
  0
VERTEX
  8
16
 10
-12.0650
 20
17.9832
 30
0.0000
 42
1.0000
  0
VERTEX
  8
16
 10
-12.0650
 20
17.5768
 30
0.0000
  0
SEQEND
  8
0
  0
POLYLINE
  8
16
 66
1
 10
0.0000
 20
0.0000
 30
0.0000
 40
0.8128
 41
0.8128
 70
0
  0
VERTEX
  8
16
 10
-3.8100
 20
17.7800
 30
0.0000
  0
VERTEX
  8
16
 10
-1.9050
 20
19.6850
 30
0.0000
  0
SEQEND
  8
0
  0
POLYLINE
  8
16
 66
1
 10
0.0000
 20
0.0000
 30
0.0000
 40
0.4064
 41
0.4064
 70
0
  0
VERTEX
  8
16
 10
-1.7613
 20
19.5413
 30
0.0000
 42
1.0000
  0
VERTEX
  8
16
 10
-2.0487
 20
19.8287
 30
0.0000
  0
SEQEND
  8
0
  0
POLYLINE
  8
16
 66
1
 10
0.0000
 20
0.0000
 30
0.0000
 40
0.4064
 41
0.4064
 70
0
  0
VERTEX
  8
16
 10
-3.9537
 20
17.9237
 30
0.0000
 42
1.0000
  0
VERTEX
  8
16
 10
-3.6663
 20
17.6363
 30
0.0000
  0
SEQEND
  8
0
  0
POLYLINE
  8
16
 66
1
 10
0.0000
 20
0.0000
 30
0.0000
 40
0.8128
 41
0.8128
 70
0
  0
VERTEX
  8
16
 10
-16.5100
 20
-10.7950
 30
0.0000
  0
VERTEX
  8
16
 10
-16.5100
 20
0.6350
 30
0.0000
  0
SEQEND
  8
0
  0
POLYLINE
  8
16
 66
1
 10
0.0000
 20
0.0000
 30
0.0000
 40
0.4064
 41
0.4064
 70
0
  0
VERTEX
  8
16
 10
-16.3068
 20
0.6350
 30
0.0000
 42
1.0000
  0
VERTEX
  8
16
 10
-16.7132
 20
0.6350
 30
0.0000
  0
SEQEND
  8
0
  0
POLYLINE
  8
16
 66
1
 10
0.0000
 20
0.0000
 30
0.0000
 40
0.4064
 41
0.4064
 70
0
  0
VERTEX
  8
16
 10
-16.7132
 20
-10.7950
 30
0.0000
 42
1.0000
  0
VERTEX
  8
16
 10
-16.3068
 20
-10.7950
 30
0.0000
  0
SEQEND
  8
0
  0
POLYLINE
  8
16
 66
1
 10
0.0000
 20
0.0000
 30
0.0000
 40
0.8128
 41
0.8128
 70
0
  0
VERTEX
  8
16
 10
-16.5100
 20
0.6350
 30
0.0000
  0
VERTEX
  8
16
 10
-13.3350
 20
3.8100
 30
0.0000
  0
SEQEND
  8
0
  0
POLYLINE
  8
16
 66
1
 10
0.0000
 20
0.0000
 30
0.0000
 40
0.4064
 41
0.4064
 70
0
  0
VERTEX
  8
16
 10
-13.1913
 20
3.6663
 30
0.0000
 42
1.0000
  0
VERTEX
  8
16
 10
-13.4787
 20
3.9537
 30
0.0000
  0
SEQEND
  8
0
  0
POLYLINE
  8
16
 66
1
 10
0.0000
 20
0.0000
 30
0.0000
 40
0.4064
 41
0.4064
 70
0
  0
VERTEX
  8
16
 10
-16.6537
 20
0.7787
 30
0.0000
 42
1.0000
  0
VERTEX
  8
16
 10
-16.3663
 20
0.4913
 30
0.0000
  0
SEQEND
  8
0
  0
POLYLINE
  8
16
 66
1
 10
0.0000
 20
0.0000
 30
0.0000
 40
0.8128
 41
0.8128
 70
0
  0
VERTEX
  8
16
 10
-13.3350
 20
3.8100
 30
0.0000
  0
VERTEX
  8
16
 10
-7.6200
 20
3.8100
 30
0.0000
  0
SEQEND
  8
0
  0
POLYLINE
  8
16
 66
1
 10
0.0000
 20
0.0000
 30
0.0000
 40
0.4064
 41
0.4064
 70
0
  0
VERTEX
  8
16
 10
-7.6200
 20
3.6068
 30
0.0000
 42
1.0000
  0
VERTEX
  8
16
 10
-7.6200
 20
4.0132
 30
0.0000
  0
SEQEND
  8
0
  0
POLYLINE
  8
16
 66
1
 10
0.0000
 20
0.0000
 30
0.0000
 40
0.4064
 41
0.4064
 70
0
  0
VERTEX
  8
16
 10
-13.3350
 20
4.0132
 30
0.0000
 42
1.0000
  0
VERTEX
  8
16
 10
-13.3350
 20
3.6068
 30
0.0000
  0
SEQEND
  8
0
  0
POLYLINE
  8
16
 66
1
 10
0.0000
 20
0.0000
 30
0.0000
 40
0.8128
 41
0.8128
 70
0
  0
VERTEX
  8
16
 10
-13.9700
 20
4.4450
 30
0.0000
  0
VERTEX
  8
16
 10
-13.3350
 20
3.8100
 30
0.0000
  0
SEQEND
  8
0
  0
POLYLINE
  8
16
 66
1
 10
0.0000
 20
0.0000
 30
0.0000
 40
0.4064
 41
0.4064
 70
0
  0
VERTEX
  8
16
 10
-13.4787
 20
3.6663
 30
0.0000
 42
1.0000
  0
VERTEX
  8
16
 10
-13.1913
 20
3.9537
 30
0.0000
  0
SEQEND
  8
0
  0
POLYLINE
  8
16
 66
1
 10
0.0000
 20
0.0000
 30
0.0000
 40
0.4064
 41
0.4064
 70
0
  0
VERTEX
  8
16
 10
-13.8263
 20
4.5887
 30
0.0000
 42
1.0000
  0
VERTEX
  8
16
 10
-14.1137
 20
4.3013
 30
0.0000
  0
SEQEND
  8
0
  0
POLYLINE
  8
16
 66
1
 10
0.0000
 20
0.0000
 30
0.0000
 40
0.8128
 41
0.8128
 70
0
  0
VERTEX
  8
16
 10
-13.9700
 20
13.7550
 30
0.0000
  0
VERTEX
  8
16
 10
-13.9700
 20
4.4450
 30
0.0000
  0
SEQEND
  8
0
  0
POLYLINE
  8
16
 66
1
 10
0.0000
 20
0.0000
 30
0.0000
 40
0.4064
 41
0.4064
 70
0
  0
VERTEX
  8
16
 10
-14.1732
 20
4.4450
 30
0.0000
 42
1.0000
  0
VERTEX
  8
16
 10
-13.7668
 20
4.4450
 30
0.0000
  0
SEQEND
  8
0
  0
POLYLINE
  8
16
 66
1
 10
0.0000
 20
0.0000
 30
0.0000
 40
0.4064
 41
0.4064
 70
0
  0
VERTEX
  8
16
 10
-13.7668
 20
13.7550
 30
0.0000
 42
1.0000
  0
VERTEX
  8
16
 10
-14.1732
 20
13.7550
 30
0.0000
  0
SEQEND
  8
0
  0
POLYLINE
  8
16
 66
1
 10
0.0000
 20
0.0000
 30
0.0000
 40
0.8128
 41
0.8128
 70
0
  0
VERTEX
  8
16
 10
3.8100
 20
22.8600
 30
0.0000
  0
VERTEX
  8
16
 10
5.7150
 20
22.8600
 30
0.0000
  0
SEQEND
  8
0
  0
POLYLINE
  8
16
 66
1
 10
0.0000
 20
0.0000
 30
0.0000
 40
0.4064
 41
0.4064
 70
0
  0
VERTEX
  8
16
 10
5.7150
 20
22.6568
 30
0.0000
 42
1.0000
  0
VERTEX
  8
16
 10
5.7150
 20
23.0632
 30
0.0000
  0
SEQEND
  8
0
  0
POLYLINE
  8
16
 66
1
 10
0.0000
 20
0.0000
 30
0.0000
 40
0.4064
 41
0.4064
 70
0
  0
VERTEX
  8
16
 10
3.8100
 20
23.0632
 30
0.0000
 42
1.0000
  0
VERTEX
  8
16
 10
3.8100
 20
22.6568
 30
0.0000
  0
SEQEND
  8
0
  0
POLYLINE
  8
16
 66
1
 10
0.0000
 20
0.0000
 30
0.0000
 40
0.8128
 41
0.8128
 70
0
  0
VERTEX
  8
16
 10
8.8900
 20
19.6850
 30
0.0000
  0
VERTEX
  8
16
 10
8.8900
 20
15.8750
 30
0.0000
  0
SEQEND
  8
0
  0
POLYLINE
  8
16
 66
1
 10
0.0000
 20
0.0000
 30
0.0000
 40
0.4064
 41
0.4064
 70
0
  0
VERTEX
  8
16
 10
8.6868
 20
15.8750
 30
0.0000
 42
1.0000
  0
VERTEX
  8
16
 10
9.0932
 20
15.8750
 30
0.0000
  0
SEQEND
  8
0
  0
POLYLINE
  8
16
 66
1
 10
0.0000
 20
0.0000
 30
0.0000
 40
0.4064
 41
0.4064
 70
0
  0
VERTEX
  8
16
 10
9.0932
 20
19.6850
 30
0.0000
 42
1.0000
  0
VERTEX
  8
16
 10
8.6868
 20
19.6850
 30
0.0000
  0
SEQEND
  8
0
  0
POLYLINE
  8
16
 66
1
 10
0.0000
 20
0.0000
 30
0.0000
 40
0.8128
 41
0.8128
 70
0
  0
VERTEX
  8
16
 10
5.7150
 20
22.8600
 30
0.0000
  0
VERTEX
  8
16
 10
8.8900
 20
19.6850
 30
0.0000
  0
SEQEND
  8
0
  0
POLYLINE
  8
16
 66
1
 10
0.0000
 20
0.0000
 30
0.0000
 40
0.4064
 41
0.4064
 70
0
  0
VERTEX
  8
16
 10
8.7463
 20
19.5413
 30
0.0000
 42
1.0000
  0
VERTEX
  8
16
 10
9.0337
 20
19.8287
 30
0.0000
  0
SEQEND
  8
0
  0
POLYLINE
  8
16
 66
1
 10
0.0000
 20
0.0000
 30
0.0000
 40
0.4064
 41
0.4064
 70
0
  0
VERTEX
  8
16
 10
5.8587
 20
23.0037
 30
0.0000
 42
1.0000
  0
VERTEX
  8
16
 10
5.5713
 20
22.7163
 30
0.0000
  0
SEQEND
  8
0
  0
POLYLINE
  8
16
 66
1
 10
0.0000
 20
0.0000
 30
0.0000
 40
0.8128
 41
0.8128
 70
0
  0
VERTEX
  8
16
 10
17.7800
 20
-15.2400
 30
0.0000
  0
VERTEX
  8
16
 10
12.0650
 20
-15.2400
 30
0.0000
  0
SEQEND
  8
0
  0
POLYLINE
  8
16
 66
1
 10
0.0000
 20
0.0000
 30
0.0000
 40
0.4064
 41
0.4064
 70
0
  0
VERTEX
  8
16
 10
12.0650
 20
-15.0368
 30
0.0000
 42
1.0000
  0
VERTEX
  8
16
 10
12.0650
 20
-15.4432
 30
0.0000
  0
SEQEND
  8
0
  0
POLYLINE
  8
16
 66
1
 10
0.0000
 20
0.0000
 30
0.0000
 40
0.4064
 41
0.4064
 70
0
  0
VERTEX
  8
16
 10
17.7800
 20
-15.4432
 30
0.0000
 42
1.0000
  0
VERTEX
  8
16
 10
17.7800
 20
-15.0368
 30
0.0000
  0
SEQEND
  8
0
  0
POLYLINE
  8
16
 66
1
 10
0.0000
 20
0.0000
 30
0.0000
 40
0.8128
 41
0.8128
 70
0
  0
VERTEX
  8
16
 10
5.0800
 20
-22.2250
 30
0.0000
  0
VERTEX
  8
16
 10
-2.5400
 20
-22.2250
 30
0.0000
  0
SEQEND
  8
0
  0
POLYLINE
  8
16
 66
1
 10
0.0000
 20
0.0000
 30
0.0000
 40
0.4064
 41
0.4064
 70
0
  0
VERTEX
  8
16
 10
-2.5400
 20
-22.0218
 30
0.0000
 42
1.0000
  0
VERTEX
  8
16
 10
-2.5400
 20
-22.4282
 30
0.0000
  0
SEQEND
  8
0
  0
POLYLINE
  8
16
 66
1
 10
0.0000
 20
0.0000
 30
0.0000
 40
0.4064
 41
0.4064
 70
0
  0
VERTEX
  8
16
 10
5.0800
 20
-22.4282
 30
0.0000
 42
1.0000
  0
VERTEX
  8
16
 10
5.0800
 20
-22.0218
 30
0.0000
  0
SEQEND
  8
0
  0
POLYLINE
  8
16
 66
1
 10
0.0000
 20
0.0000
 30
0.0000
 40
0.8128
 41
0.8128
 70
0
  0
VERTEX
  8
16
 10
-2.5400
 20
-22.2250
 30
0.0000
  0
VERTEX
  8
16
 10
-3.1750
 20
-22.8600
 30
0.0000
  0
SEQEND
  8
0
  0
POLYLINE
  8
16
 66
1
 10
0.0000
 20
0.0000
 30
0.0000
 40
0.4064
 41
0.4064
 70
0
  0
VERTEX
  8
16
 10
-3.3187
 20
-22.7163
 30
0.0000
 42
1.0000
  0
VERTEX
  8
16
 10
-3.0313
 20
-23.0037
 30
0.0000
  0
SEQEND
  8
0
  0
POLYLINE
  8
16
 66
1
 10
0.0000
 20
0.0000
 30
0.0000
 40
0.4064
 41
0.4064
 70
0
  0
VERTEX
  8
16
 10
-2.3963
 20
-22.3687
 30
0.0000
 42
1.0000
  0
VERTEX
  8
16
 10
-2.6837
 20
-22.0813
 30
0.0000
  0
SEQEND
  8
0
  0
POLYLINE
  8
16
 66
1
 10
0.0000
 20
0.0000
 30
0.0000
 40
0.8128
 41
0.8128
 70
0
  0
VERTEX
  8
16
 10
12.0650
 20
-15.2400
 30
0.0000
  0
VERTEX
  8
16
 10
5.0800
 20
-22.2250
 30
0.0000
  0
SEQEND
  8
0
  0
POLYLINE
  8
16
 66
1
 10
0.0000
 20
0.0000
 30
0.0000
 40
0.4064
 41
0.4064
 70
0
  0
VERTEX
  8
16
 10
4.9363
 20
-22.0813
 30
0.0000
 42
1.0000
  0
VERTEX
  8
16
 10
5.2237
 20
-22.3687
 30
0.0000
  0
SEQEND
  8
0
  0
POLYLINE
  8
16
 66
1
 10
0.0000
 20
0.0000
 30
0.0000
 40
0.4064
 41
0.4064
 70
0
  0
VERTEX
  8
16
 10
12.2087
 20
-15.3837
 30
0.0000
 42
1.0000
  0
VERTEX
  8
16
 10
11.9213
 20
-15.0963
 30
0.0000
  0
SEQEND
  8
0
  0
POLYLINE
  8
16
 66
1
 10
0.0000
 20
0.0000
 30
0.0000
 40
0.8128
 41
0.8128
 70
0
  0
VERTEX
  8
16
 10
-9.5250
 20
-14.6050
 30
0.0000
  0
VERTEX
  8
16
 10
-3.8100
 20
-14.6050
 30
0.0000
  0
SEQEND
  8
0
  0
POLYLINE
  8
16
 66
1
 10
0.0000
 20
0.0000
 30
0.0000
 40
0.4064
 41
0.4064
 70
0
  0
VERTEX
  8
16
 10
-3.8100
 20
-14.8082
 30
0.0000
 42
1.0000
  0
VERTEX
  8
16
 10
-3.8100
 20
-14.4018
 30
0.0000
  0
SEQEND
  8
0
  0
POLYLINE
  8
16
 66
1
 10
0.0000
 20
0.0000
 30
0.0000
 40
0.4064
 41
0.4064
 70
0
  0
VERTEX
  8
16
 10
-9.5250
 20
-14.4018
 30
0.0000
 42
1.0000
  0
VERTEX
  8
16
 10
-9.5250
 20
-14.8082
 30
0.0000
  0
SEQEND
  8
0
  0
POLYLINE
  8
16
 66
1
 10
0.0000
 20
0.0000
 30
0.0000
 40
0.8128
 41
0.8128
 70
0
  0
VERTEX
  8
16
 10
-3.8100
 20
-14.6050
 30
0.0000
  0
VERTEX
  8
16
 10
-3.1750
 20
-15.2400
 30
0.0000
  0
SEQEND
  8
0
  0
POLYLINE
  8
16
 66
1
 10
0.0000
 20
0.0000
 30
0.0000
 40
0.4064
 41
0.4064
 70
0
  0
VERTEX
  8
16
 10
-3.3187
 20
-15.3837
 30
0.0000
 42
1.0000
  0
VERTEX
  8
16
 10
-3.0313
 20
-15.0963
 30
0.0000
  0
SEQEND
  8
0
  0
POLYLINE
  8
16
 66
1
 10
0.0000
 20
0.0000
 30
0.0000
 40
0.4064
 41
0.4064
 70
0
  0
VERTEX
  8
16
 10
-3.6663
 20
-14.4613
 30
0.0000
 42
1.0000
  0
VERTEX
  8
16
 10
-3.9537
 20
-14.7487
 30
0.0000
  0
SEQEND
  8
0
  0
POLYLINE
  8
16
 66
1
 10
0.0000
 20
0.0000
 30
0.0000
 40
0.8128
 41
0.8128
 70
0
  0
VERTEX
  8
16
 10
-3.1750
 20
-15.2400
 30
0.0000
  0
VERTEX
  8
16
 10
-3.1750
 20
-15.8750
 30
0.0000
  0
SEQEND
  8
0
  0
POLYLINE
  8
16
 66
1
 10
0.0000
 20
0.0000
 30
0.0000
 40
0.4064
 41
0.4064
 70
0
  0
VERTEX
  8
16
 10
-3.3782
 20
-15.8750
 30
0.0000
 42
1.0000
  0
VERTEX
  8
16
 10
-2.9718
 20
-15.8750
 30
0.0000
  0
SEQEND
  8
0
  0
POLYLINE
  8
16
 66
1
 10
0.0000
 20
0.0000
 30
0.0000
 40
0.4064
 41
0.4064
 70
0
  0
VERTEX
  8
16
 10
-2.9718
 20
-15.2400
 30
0.0000
 42
1.0000
  0
VERTEX
  8
16
 10
-3.3782
 20
-15.2400
 30
0.0000
  0
SEQEND
  8
0
  0
INSERT
  8
18
  2
ROUNDV
 10
-3.1750
 20
-15.8750
 30
0.0000
 41
1.5000
 42
1.5000
 43
1.0000
 50
0.0000
  0
INSERT
  8
18
  2
ROUNDV
 10
-3.1750
 20
-15.8750
 30
0.0000
 41
1.5000
 42
1.5000
 43
1.0000
 50
0.0000
  0
CIRCLE
  8
44
 10
-3.1750
 20
-15.8750
 30
0.0000
 40
0.5000
  0
INSERT
  8
18
  2
ROUNDV
 10
-3.1750
 20
-22.8600
 30
0.0000
 41
1.5000
 42
1.5000
 43
1.0000
 50
0.0000
  0
INSERT
  8
18
  2
ROUNDV
 10
-3.1750
 20
-22.8600
 30
0.0000
 41
1.5000
 42
1.5000
 43
1.0000
 50
0.0000
  0
CIRCLE
  8
44
 10
-3.1750
 20
-22.8600
 30
0.0000
 40
0.5000
  0
POLYLINE
  8
16
 66
1
 10
0.0000
 20
0.0000
 30
0.0000
 40
0.8128
 41
0.8128
 70
0
  0
VERTEX
  8
16
 10
-40.6400
 20
-30.4800
 30
0.0000
  0
VERTEX
  8
16
 10
-40.6400
 20
46.9900
 30
0.0000
  0
SEQEND
  8
0
  0
POLYLINE
  8
16
 66
1
 10
0.0000
 20
0.0000
 30
0.0000
 40
0.4064
 41
0.4064
 70
0
  0
VERTEX
  8
16
 10
-40.4368
 20
46.9900
 30
0.0000
 42
1.0000
  0
VERTEX
  8
16
 10
-40.8432
 20
46.9900
 30
0.0000
  0
SEQEND
  8
0
  0
POLYLINE
  8
16
 66
1
 10
0.0000
 20
0.0000
 30
0.0000
 40
0.4064
 41
0.4064
 70
0
  0
VERTEX
  8
16
 10
-40.8432
 20
-30.4800
 30
0.0000
 42
1.0000
  0
VERTEX
  8
16
 10
-40.4368
 20
-30.4800
 30
0.0000
  0
SEQEND
  8
0
  0
POLYLINE
  8
16
 66
1
 10
0.0000
 20
0.0000
 30
0.0000
 40
0.8128
 41
0.8128
 70
0
  0
VERTEX
  8
16
 10
-40.6400
 20
46.9900
 30
0.0000
  0
VERTEX
  8
16
 10
40.6400
 20
46.9900
 30
0.0000
  0
SEQEND
  8
0
  0
POLYLINE
  8
16
 66
1
 10
0.0000
 20
0.0000
 30
0.0000
 40
0.4064
 41
0.4064
 70
0
  0
VERTEX
  8
16
 10
40.6400
 20
46.7868
 30
0.0000
 42
1.0000
  0
VERTEX
  8
16
 10
40.6400
 20
47.1932
 30
0.0000
  0
SEQEND
  8
0
  0
POLYLINE
  8
16
 66
1
 10
0.0000
 20
0.0000
 30
0.0000
 40
0.4064
 41
0.4064
 70
0
  0
VERTEX
  8
16
 10
-40.6400
 20
47.1932
 30
0.0000
 42
1.0000
  0
VERTEX
  8
16
 10
-40.6400
 20
46.7868
 30
0.0000
  0
SEQEND
  8
0
  0
POLYLINE
  8
16
 66
1
 10
0.0000
 20
0.0000
 30
0.0000
 40
0.8128
 41
0.8128
 70
0
  0
VERTEX
  8
16
 10
40.6400
 20
46.9900
 30
0.0000
  0
VERTEX
  8
16
 10
40.6400
 20
-30.4800
 30
0.0000
  0
SEQEND
  8
0
  0
POLYLINE
  8
16
 66
1
 10
0.0000
 20
0.0000
 30
0.0000
 40
0.4064
 41
0.4064
 70
0
  0
VERTEX
  8
16
 10
40.4368
 20
-30.4800
 30
0.0000
 42
1.0000
  0
VERTEX
  8
16
 10
40.8432
 20
-30.4800
 30
0.0000
  0
SEQEND
  8
0
  0
POLYLINE
  8
16
 66
1
 10
0.0000
 20
0.0000
 30
0.0000
 40
0.4064
 41
0.4064
 70
0
  0
VERTEX
  8
16
 10
40.8432
 20
46.9900
 30
0.0000
 42
1.0000
  0
VERTEX
  8
16
 10
40.4368
 20
46.9900
 30
0.0000
  0
SEQEND
  8
0
  0
POLYLINE
  8
16
 66
1
 10
0.0000
 20
0.0000
 30
0.0000
 40
0.8128
 41
0.8128
 70
0
  0
VERTEX
  8
16
 10
40.6400
 20
-30.4800
 30
0.0000
  0
VERTEX
  8
16
 10
-40.6400
 20
-30.4800
 30
0.0000
  0
SEQEND
  8
0
  0
POLYLINE
  8
16
 66
1
 10
0.0000
 20
0.0000
 30
0.0000
 40
0.4064
 41
0.4064
 70
0
  0
VERTEX
  8
16
 10
-40.6400
 20
-30.2768
 30
0.0000
 42
1.0000
  0
VERTEX
  8
16
 10
-40.6400
 20
-30.6832
 30
0.0000
  0
SEQEND
  8
0
  0
POLYLINE
  8
16
 66
1
 10
0.0000
 20
0.0000
 30
0.0000
 40
0.4064
 41
0.4064
 70
0
  0
VERTEX
  8
16
 10
40.6400
 20
-30.6832
 30
0.0000
 42
1.0000
  0
VERTEX
  8
16
 10
40.6400
 20
-30.2768
 30
0.0000
  0
SEQEND
  8
0
  0
POLYLINE
  8
16
 66
1
 10
0.0000
 20
0.0000
 30
0.0000
 40
0.8128
 41
0.8128
 70
0
  0
VERTEX
  8
16
 10
-8.9950
 20
-6.2450
 30
0.0000
  0
VERTEX
  8
16
 10
-10.1600
 20
-6.2450
 30
0.0000
  0
SEQEND
  8
0
  0
POLYLINE
  8
16
 66
1
 10
0.0000
 20
0.0000
 30
0.0000
 40
0.4064
 41
0.4064
 70
0
  0
VERTEX
  8
16
 10
-10.1600
 20
-6.0418
 30
0.0000
 42
1.0000
  0
VERTEX
  8
16
 10
-10.1600
 20
-6.4482
 30
0.0000
  0
SEQEND
  8
0
  0
POLYLINE
  8
16
 66
1
 10
0.0000
 20
0.0000
 30
0.0000
 40
0.4064
 41
0.4064
 70
0
  0
VERTEX
  8
16
 10
-8.9950
 20
-6.4482
 30
0.0000
 42
1.0000
  0
VERTEX
  8
16
 10
-8.9950
 20
-6.0418
 30
0.0000
  0
SEQEND
  8
0
  0
POLYLINE
  8
16
 66
1
 10
0.0000
 20
0.0000
 30
0.0000
 40
0.8128
 41
0.8128
 70
0
  0
VERTEX
  8
16
 10
-10.1600
 20
-6.2450
 30
0.0000
  0
VERTEX
  8
16
 10
-13.9700
 20
-6.2450
 30
0.0000
  0
SEQEND
  8
0
  0
POLYLINE
  8
16
 66
1
 10
0.0000
 20
0.0000
 30
0.0000
 40
0.4064
 41
0.4064
 70
0
  0
VERTEX
  8
16
 10
-13.9700
 20
-6.0418
 30
0.0000
 42
1.0000
  0
VERTEX
  8
16
 10
-13.9700
 20
-6.4482
 30
0.0000
  0
SEQEND
  8
0
  0
POLYLINE
  8
16
 66
1
 10
0.0000
 20
0.0000
 30
0.0000
 40
0.4064
 41
0.4064
 70
0
  0
VERTEX
  8
16
 10
-10.1600
 20
-6.4482
 30
0.0000
 42
1.0000
  0
VERTEX
  8
16
 10
-10.1600
 20
-6.0418
 30
0.0000
  0
SEQEND
  8
0
  0
POLYLINE
  8
16
 66
1
 10
0.0000
 20
0.0000
 30
0.0000
 40
0.8128
 41
0.8128
 70
0
  0
VERTEX
  8
16
 10
-5.7150
 20
-9.5250
 30
0.0000
  0
VERTEX
  8
16
 10
-8.9950
 20
-6.2450
 30
0.0000
  0
SEQEND
  8
0
  0
POLYLINE
  8
16
 66
1
 10
0.0000
 20
0.0000
 30
0.0000
 40
0.4064
 41
0.4064
 70
0
  0
VERTEX
  8
16
 10
-8.8513
 20
-6.1013
 30
0.0000
 42
1.0000
  0
VERTEX
  8
16
 10
-9.1387
 20
-6.3887
 30
0.0000
  0
SEQEND
  8
0
  0
POLYLINE
  8
16
 66
1
 10
0.0000
 20
0.0000
 30
0.0000
 40
0.4064
 41
0.4064
 70
0
  0
VERTEX
  8
16
 10
-5.8587
 20
-9.6687
 30
0.0000
 42
1.0000
  0
VERTEX
  8
16
 10
-5.5713
 20
-9.3813
 30
0.0000
  0
SEQEND
  8
0
  0
POLYLINE
  8
16
 66
1
 10
0.0000
 20
0.0000
 30
0.0000
 40
0.8128
 41
0.8128
 70
0
  0
VERTEX
  8
16
 10
19.6850
 20
8.8900
 30
0.0000
  0
VERTEX
  8
16
 10
20.3200
 20
8.2550
 30
0.0000
  0
SEQEND
  8
0
  0
POLYLINE
  8
16
 66
1
 10
0.0000
 20
0.0000
 30
0.0000
 40
0.4064
 41
0.4064
 70
0
  0
VERTEX
  8
16
 10
20.1763
 20
8.1113
 30
0.0000
 42
1.0000
  0
VERTEX
  8
16
 10
20.4637
 20
8.3987
 30
0.0000
  0
SEQEND
  8
0
  0
POLYLINE
  8
16
 66
1
 10
0.0000
 20
0.0000
 30
0.0000
 40
0.4064
 41
0.4064
 70
0
  0
VERTEX
  8
16
 10
19.8287
 20
9.0337
 30
0.0000
 42
1.0000
  0
VERTEX
  8
16
 10
19.5413
 20
8.7463
 30
0.0000
  0
SEQEND
  8
0
  0
POLYLINE
  8
16
 66
1
 10
0.0000
 20
0.0000
 30
0.0000
 40
0.8128
 41
0.8128
 70
0
  0
VERTEX
  8
16
 10
14.6050
 20
7.6200
 30
0.0000
  0
VERTEX
  8
16
 10
18.4150
 20
7.6200
 30
0.0000
  0
SEQEND
  8
0
  0
POLYLINE
  8
16
 66
1
 10
0.0000
 20
0.0000
 30
0.0000
 40
0.4064
 41
0.4064
 70
0
  0
VERTEX
  8
16
 10
18.4150
 20
7.4168
 30
0.0000
 42
1.0000
  0
VERTEX
  8
16
 10
18.4150
 20
7.8232
 30
0.0000
  0
SEQEND
  8
0
  0
POLYLINE
  8
16
 66
1
 10
0.0000
 20
0.0000
 30
0.0000
 40
0.4064
 41
0.4064
 70
0
  0
VERTEX
  8
16
 10
14.6050
 20
7.8232
 30
0.0000
 42
1.0000
  0
VERTEX
  8
16
 10
14.6050
 20
7.4168
 30
0.0000
  0
SEQEND
  8
0
  0
POLYLINE
  8
16
 66
1
 10
0.0000
 20
0.0000
 30
0.0000
 40
0.8128
 41
0.8128
 70
0
  0
VERTEX
  8
16
 10
18.4150
 20
8.8900
 30
0.0000
  0
VERTEX
  8
16
 10
19.6850
 20
8.8900
 30
0.0000
  0
SEQEND
  8
0
  0
POLYLINE
  8
16
 66
1
 10
0.0000
 20
0.0000
 30
0.0000
 40
0.4064
 41
0.4064
 70
0
  0
VERTEX
  8
16
 10
19.6850
 20
8.6868
 30
0.0000
 42
1.0000
  0
VERTEX
  8
16
 10
19.6850
 20
9.0932
 30
0.0000
  0
SEQEND
  8
0
  0
POLYLINE
  8
16
 66
1
 10
0.0000
 20
0.0000
 30
0.0000
 40
0.4064
 41
0.4064
 70
0
  0
VERTEX
  8
16
 10
18.4150
 20
9.0932
 30
0.0000
 42
1.0000
  0
VERTEX
  8
16
 10
18.4150
 20
8.6868
 30
0.0000
  0
SEQEND
  8
0
  0
POLYLINE
  8
16
 66
1
 10
0.0000
 20
0.0000
 30
0.0000
 40
0.8128
 41
0.8128
 70
0
  0
VERTEX
  8
16
 10
18.4150
 20
12.7000
 30
0.0000
  0
VERTEX
  8
16
 10
12.7000
 20
18.4150
 30
0.0000
  0
SEQEND
  8
0
  0
POLYLINE
  8
16
 66
1
 10
0.0000
 20
0.0000
 30
0.0000
 40
0.4064
 41
0.4064
 70
0
  0
VERTEX
  8
16
 10
12.8437
 20
18.5587
 30
0.0000
 42
1.0000
  0
VERTEX
  8
16
 10
12.5563
 20
18.2713
 30
0.0000
  0
SEQEND
  8
0
  0
POLYLINE
  8
16
 66
1
 10
0.0000
 20
0.0000
 30
0.0000
 40
0.4064
 41
0.4064
 70
0
  0
VERTEX
  8
16
 10
18.2713
 20
12.5563
 30
0.0000
 42
1.0000
  0
VERTEX
  8
16
 10
18.5587
 20
12.8437
 30
0.0000
  0
SEQEND
  8
0
  0
POLYLINE
  8
16
 66
1
 10
0.0000
 20
0.0000
 30
0.0000
 40
0.8128
 41
0.8128
 70
0
  0
VERTEX
  8
16
 10
12.0650
 20
18.4150
 30
0.0000
  0
VERTEX
  8
16
 10
12.7000
 20
18.4150
 30
0.0000
  0
SEQEND
  8
0
  0
POLYLINE
  8
16
 66
1
 10
0.0000
 20
0.0000
 30
0.0000
 40
0.4064
 41
0.4064
 70
0
  0
VERTEX
  8
16
 10
12.7000
 20
18.2118
 30
0.0000
 42
1.0000
  0
VERTEX
  8
16
 10
12.7000
 20
18.6182
 30
0.0000
  0
SEQEND
  8
0
  0
POLYLINE
  8
16
 66
1
 10
0.0000
 20
0.0000
 30
0.0000
 40
0.4064
 41
0.4064
 70
0
  0
VERTEX
  8
16
 10
12.0650
 20
18.6182
 30
0.0000
 42
1.0000
  0
VERTEX
  8
16
 10
12.0650
 20
18.2118
 30
0.0000
  0
SEQEND
  8
0
  0
POLYLINE
  8
16
 66
1
 10
0.0000
 20
0.0000
 30
0.0000
 40
0.8128
 41
0.8128
 70
0
  0
VERTEX
  8
16
 10
18.4150
 20
12.7000
 30
0.0000
  0
VERTEX
  8
16
 10
18.4150
 20
8.8900
 30
0.0000
  0
SEQEND
  8
0
  0
POLYLINE
  8
16
 66
1
 10
0.0000
 20
0.0000
 30
0.0000
 40
0.4064
 41
0.4064
 70
0
  0
VERTEX
  8
16
 10
18.2118
 20
8.8900
 30
0.0000
 42
1.0000
  0
VERTEX
  8
16
 10
18.6182
 20
8.8900
 30
0.0000
  0
SEQEND
  8
0
  0
POLYLINE
  8
16
 66
1
 10
0.0000
 20
0.0000
 30
0.0000
 40
0.4064
 41
0.4064
 70
0
  0
VERTEX
  8
16
 10
18.6182
 20
12.7000
 30
0.0000
 42
1.0000
  0
VERTEX
  8
16
 10
18.2118
 20
12.7000
 30
0.0000
  0
SEQEND
  8
0
  0
POLYLINE
  8
16
 66
1
 10
0.0000
 20
0.0000
 30
0.0000
 40
0.8128
 41
0.8128
 70
0
  0
VERTEX
  8
16
 10
18.4150
 20
8.8900
 30
0.0000
  0
VERTEX
  8
16
 10
18.4150
 20
7.6200
 30
0.0000
  0
SEQEND
  8
0
  0
POLYLINE
  8
16
 66
1
 10
0.0000
 20
0.0000
 30
0.0000
 40
0.4064
 41
0.4064
 70
0
  0
VERTEX
  8
16
 10
18.2118
 20
7.6200
 30
0.0000
 42
1.0000
  0
VERTEX
  8
16
 10
18.6182
 20
7.6200
 30
0.0000
  0
SEQEND
  8
0
  0
POLYLINE
  8
16
 66
1
 10
0.0000
 20
0.0000
 30
0.0000
 40
0.4064
 41
0.4064
 70
0
  0
VERTEX
  8
16
 10
18.6182
 20
8.8900
 30
0.0000
 42
1.0000
  0
VERTEX
  8
16
 10
18.2118
 20
8.8900
 30
0.0000
  0
SEQEND
  8
0
  0
POLYLINE
  8
16
 66
1
 10
0.0000
 20
0.0000
 30
0.0000
 40
0.8128
 41
0.8128
 70
0
  0
VERTEX
  8
16
 10
11.4300
 20
6.3500
 30
0.0000
  0
VERTEX
  8
16
 10
12.7000
 20
7.6200
 30
0.0000
  0
SEQEND
  8
0
  0
POLYLINE
  8
16
 66
1
 10
0.0000
 20
0.0000
 30
0.0000
 40
0.4064
 41
0.4064
 70
0
  0
VERTEX
  8
16
 10
12.8437
 20
7.4763
 30
0.0000
 42
1.0000
  0
VERTEX
  8
16
 10
12.5563
 20
7.7637
 30
0.0000
  0
SEQEND
  8
0
  0
POLYLINE
  8
16
 66
1
 10
0.0000
 20
0.0000
 30
0.0000
 40
0.4064
 41
0.4064
 70
0
  0
VERTEX
  8
16
 10
11.2863
 20
6.4937
 30
0.0000
 42
1.0000
  0
VERTEX
  8
16
 10
11.5737
 20
6.2063
 30
0.0000
  0
SEQEND
  8
0
  0
POLYLINE
  8
16
 66
1
 10
0.0000
 20
0.0000
 30
0.0000
 40
0.8128
 41
0.8128
 70
0
  0
VERTEX
  8
16
 10
12.7000
 20
7.6200
 30
0.0000
  0
VERTEX
  8
16
 10
14.6050
 20
7.6200
 30
0.0000
  0
SEQEND
  8
0
  0
POLYLINE
  8
16
 66
1
 10
0.0000
 20
0.0000
 30
0.0000
 40
0.4064
 41
0.4064
 70
0
  0
VERTEX
  8
16
 10
14.6050
 20
7.4168
 30
0.0000
 42
1.0000
  0
VERTEX
  8
16
 10
14.6050
 20
7.8232
 30
0.0000
  0
SEQEND
  8
0
  0
POLYLINE
  8
16
 66
1
 10
0.0000
 20
0.0000
 30
0.0000
 40
0.4064
 41
0.4064
 70
0
  0
VERTEX
  8
16
 10
12.7000
 20
7.8232
 30
0.0000
 42
1.0000
  0
VERTEX
  8
16
 10
12.7000
 20
7.4168
 30
0.0000
  0
SEQEND
  8
0
  0
POLYLINE
  8
16
 66
1
 10
0.0000
 20
0.0000
 30
0.0000
 40
0.8128
 41
0.8128
 70
0
  0
VERTEX
  8
16
 10
-7.6200
 20
6.3500
 30
0.0000
  0
VERTEX
  8
16
 10
-5.0800
 20
6.3500
 30
0.0000
  0
SEQEND
  8
0
  0
POLYLINE
  8
16
 66
1
 10
0.0000
 20
0.0000
 30
0.0000
 40
0.4064
 41
0.4064
 70
0
  0
VERTEX
  8
16
 10
-5.0800
 20
6.1468
 30
0.0000
 42
1.0000
  0
VERTEX
  8
16
 10
-5.0800
 20
6.5532
 30
0.0000
  0
SEQEND
  8
0
  0
POLYLINE
  8
16
 66
1
 10
0.0000
 20
0.0000
 30
0.0000
 40
0.4064
 41
0.4064
 70
0
  0
VERTEX
  8
16
 10
-7.6200
 20
6.5532
 30
0.0000
 42
1.0000
  0
VERTEX
  8
16
 10
-7.6200
 20
6.1468
 30
0.0000
  0
SEQEND
  8
0
  0
POLYLINE
  8
16
 66
1
 10
0.0000
 20
0.0000
 30
0.0000
 40
0.8128
 41
0.8128
 70
0
  0
VERTEX
  8
16
 10
-5.0800
 20
6.3500
 30
0.0000
  0
VERTEX
  8
16
 10
11.4300
 20
6.3500
 30
0.0000
  0
SEQEND
  8
0
  0
POLYLINE
  8
16
 66
1
 10
0.0000
 20
0.0000
 30
0.0000
 40
0.4064
 41
0.4064
 70
0
  0
VERTEX
  8
16
 10
11.4300
 20
6.1468
 30
0.0000
 42
1.0000
  0
VERTEX
  8
16
 10
11.4300
 20
6.5532
 30
0.0000
  0
SEQEND
  8
0
  0
POLYLINE
  8
16
 66
1
 10
0.0000
 20
0.0000
 30
0.0000
 40
0.4064
 41
0.4064
 70
0
  0
VERTEX
  8
16
 10
-5.0800
 20
6.5532
 30
0.0000
 42
1.0000
  0
VERTEX
  8
16
 10
-5.0800
 20
6.1468
 30
0.0000
  0
SEQEND
  8
0
  0
POLYLINE
  8
16
 66
1
 10
0.0000
 20
0.0000
 30
0.0000
 40
0.1270
 41
0.1270
 70
0
  0
VERTEX
  8
16
 10
-5.0800
 20
6.3500
 30
0.0000
  0
VERTEX
  8
16
 10
-5.0800
 20
3.8100
 30
0.0000
  0
SEQEND
  8
0
  0
POLYLINE
  8
16
 66
1
 10
0.0000
 20
0.0000
 30
0.0000
 40
0.0635
 41
0.0635
 70
0
  0
VERTEX
  8
16
 10
-5.1117
 20
3.8100
 30
0.0000
 42
1.0000
  0
VERTEX
  8
16
 10
-5.0483
 20
3.8100
 30
0.0000
  0
SEQEND
  8
0
  0
POLYLINE
  8
16
 66
1
 10
0.0000
 20
0.0000
 30
0.0000
 40
0.0635
 41
0.0635
 70
0
  0
VERTEX
  8
16
 10
-5.0483
 20
6.3500
 30
0.0000
 42
1.0000
  0
VERTEX
  8
16
 10
-5.1117
 20
6.3500
 30
0.0000
  0
SEQEND
  8
0
  0
POLYLINE
  8
16
 66
1
 10
0.0000
 20
0.0000
 30
0.0000
 40
0.1270
 41
0.1270
 70
0
  0
VERTEX
  8
16
 10
-6.3500
 20
2.5400
 30
0.0000
  0
VERTEX
  8
16
 10
-9.5250
 20
2.5400
 30
0.0000
  0
SEQEND
  8
0
  0
POLYLINE
  8
16
 66
1
 10
0.0000
 20
0.0000
 30
0.0000
 40
0.0635
 41
0.0635
 70
0
  0
VERTEX
  8
16
 10
-9.5250
 20
2.5718
 30
0.0000
 42
1.0000
  0
VERTEX
  8
16
 10
-9.5250
 20
2.5082
 30
0.0000
  0
SEQEND
  8
0
  0
POLYLINE
  8
16
 66
1
 10
0.0000
 20
0.0000
 30
0.0000
 40
0.0635
 41
0.0635
 70
0
  0
VERTEX
  8
16
 10
-6.3500
 20
2.5082
 30
0.0000
 42
1.0000
  0
VERTEX
  8
16
 10
-6.3500
 20
2.5718
 30
0.0000
  0
SEQEND
  8
0
  0
POLYLINE
  8
16
 66
1
 10
0.0000
 20
0.0000
 30
0.0000
 40
0.1270
 41
0.1270
 70
0
  0
VERTEX
  8
16
 10
-9.5250
 20
2.5400
 30
0.0000
  0
VERTEX
  8
16
 10
-10.1600
 20
1.9050
 30
0.0000
  0
SEQEND
  8
0
  0
POLYLINE
  8
16
 66
1
 10
0.0000
 20
0.0000
 30
0.0000
 40
0.0635
 41
0.0635
 70
0
  0
VERTEX
  8
16
 10
-10.1825
 20
1.9275
 30
0.0000
 42
1.0000
  0
VERTEX
  8
16
 10
-10.1375
 20
1.8825
 30
0.0000
  0
SEQEND
  8
0
  0
POLYLINE
  8
16
 66
1
 10
0.0000
 20
0.0000
 30
0.0000
 40
0.0635
 41
0.0635
 70
0
  0
VERTEX
  8
16
 10
-9.5025
 20
2.5175
 30
0.0000
 42
1.0000
  0
VERTEX
  8
16
 10
-9.5475
 20
2.5625
 30
0.0000
  0
SEQEND
  8
0
  0
POLYLINE
  8
16
 66
1
 10
0.0000
 20
0.0000
 30
0.0000
 40
0.1270
 41
0.1270
 70
0
  0
VERTEX
  8
16
 10
-10.1600
 20
1.9050
 30
0.0000
  0
VERTEX
  8
16
 10
-10.1600
 20
-6.2450
 30
0.0000
  0
SEQEND
  8
0
  0
POLYLINE
  8
16
 66
1
 10
0.0000
 20
0.0000
 30
0.0000
 40
0.0635
 41
0.0635
 70
0
  0
VERTEX
  8
16
 10
-10.1918
 20
-6.2450
 30
0.0000
 42
1.0000
  0
VERTEX
  8
16
 10
-10.1282
 20
-6.2450
 30
0.0000
  0
SEQEND
  8
0
  0
POLYLINE
  8
16
 66
1
 10
0.0000
 20
0.0000
 30
0.0000
 40
0.0635
 41
0.0635
 70
0
  0
VERTEX
  8
16
 10
-10.1282
 20
1.9050
 30
0.0000
 42
1.0000
  0
VERTEX
  8
16
 10
-10.1918
 20
1.9050
 30
0.0000
  0
SEQEND
  8
0
  0
POLYLINE
  8
16
 66
1
 10
0.0000
 20
0.0000
 30
0.0000
 40
0.1270
 41
0.1270
 70
0
  0
VERTEX
  8
16
 10
-5.0800
 20
3.8100
 30
0.0000
  0
VERTEX
  8
16
 10
-6.3500
 20
2.5400
 30
0.0000
  0
SEQEND
  8
0
  0
POLYLINE
  8
16
 66
1
 10
0.0000
 20
0.0000
 30
0.0000
 40
0.0635
 41
0.0635
 70
0
  0
VERTEX
  8
16
 10
-6.3725
 20
2.5625
 30
0.0000
 42
1.0000
  0
VERTEX
  8
16
 10
-6.3275
 20
2.5175
 30
0.0000
  0
SEQEND
  8
0
  0
POLYLINE
  8
16
 66
1
 10
0.0000
 20
0.0000
 30
0.0000
 40
0.0635
 41
0.0635
 70
0
  0
VERTEX
  8
16
 10
-5.0575
 20
3.7875
 30
0.0000
 42
1.0000
  0
VERTEX
  8
16
 10
-5.1025
 20
3.8325
 30
0.0000
  0
SEQEND
  8
0
  0
INSERT
  8
18
  2
ROUNDV
 10
-4.4450
 20
11.4300
 30
0.0000
 41
1.5000
 42
1.5000
 43
1.0000
 50
0.0000
  0
INSERT
  8
18
  2
ROUNDV
 10
-4.4450
 20
11.4300
 30
0.0000
 41
1.5000
 42
1.5000
 43
1.0000
 50
0.0000
  0
CIRCLE
  8
44
 10
-4.4450
 20
11.4300
 30
0.0000
 40
0.5000
  0
INSERT
  8
18
  2
ROUNDV
 10
-3.8100
 20
-6.3500
 30
0.0000
 41
1.5000
 42
1.5000
 43
1.0000
 50
0.0000
  0
INSERT
  8
18
  2
ROUNDV
 10
-3.8100
 20
-6.3500
 30
0.0000
 41
1.5000
 42
1.5000
 43
1.0000
 50
0.0000
  0
CIRCLE
  8
44
 10
-3.8100
 20
-6.3500
 30
0.0000
 40
0.5000
  0
POLYLINE
  8
16
 66
1
 10
0.0000
 20
0.0000
 30
0.0000
 40
0.8128
 41
0.8128
 70
0
  0
VERTEX
  8
16
 10
-7.6200
 20
1.2700
 30
0.0000
  0
VERTEX
  8
16
 10
10.7950
 20
1.2700
 30
0.0000
  0
SEQEND
  8
0
  0
POLYLINE
  8
16
 66
1
 10
0.0000
 20
0.0000
 30
0.0000
 40
0.4064
 41
0.4064
 70
0
  0
VERTEX
  8
16
 10
10.7950
 20
1.0668
 30
0.0000
 42
1.0000
  0
VERTEX
  8
16
 10
10.7950
 20
1.4732
 30
0.0000
  0
SEQEND
  8
0
  0
POLYLINE
  8
16
 66
1
 10
0.0000
 20
0.0000
 30
0.0000
 40
0.4064
 41
0.4064
 70
0
  0
VERTEX
  8
16
 10
-7.6200
 20
1.4732
 30
0.0000
 42
1.0000
  0
VERTEX
  8
16
 10
-7.6200
 20
1.0668
 30
0.0000
  0
SEQEND
  8
0
  0
POLYLINE
  8
16
 66
1
 10
0.0000
 20
0.0000
 30
0.0000
 40
0.8128
 41
0.8128
 70
0
  0
VERTEX
  8
16
 10
-7.6200
 20
-1.2700
 30
0.0000
  0
VERTEX
  8
16
 10
10.7950
 20
-1.2700
 30
0.0000
  0
SEQEND
  8
0
  0
POLYLINE
  8
16
 66
1
 10
0.0000
 20
0.0000
 30
0.0000
 40
0.4064
 41
0.4064
 70
0
  0
VERTEX
  8
16
 10
10.7950
 20
-1.4732
 30
0.0000
 42
1.0000
  0
VERTEX
  8
16
 10
10.7950
 20
-1.0668
 30
0.0000
  0
SEQEND
  8
0
  0
POLYLINE
  8
16
 66
1
 10
0.0000
 20
0.0000
 30
0.0000
 40
0.4064
 41
0.4064
 70
0
  0
VERTEX
  8
16
 10
-7.6200
 20
-1.0668
 30
0.0000
 42
1.0000
  0
VERTEX
  8
16
 10
-7.6200
 20
-1.4732
 30
0.0000
  0
SEQEND
  8
0
  0
POLYLINE
  8
16
 66
1
 10
0.0000
 20
0.0000
 30
0.0000
 40
0.8128
 41
0.8128
 70
0
  0
VERTEX
  8
16
 10
1.2700
 20
22.8600
 30
0.0000
  0
VERTEX
  8
16
 10
1.2700
 20
20.9550
 30
0.0000
  0
SEQEND
  8
0
  0
POLYLINE
  8
16
 66
1
 10
0.0000
 20
0.0000
 30
0.0000
 40
0.4064
 41
0.4064
 70
0
  0
VERTEX
  8
16
 10
1.0668
 20
20.9550
 30
0.0000
 42
1.0000
  0
VERTEX
  8
16
 10
1.4732
 20
20.9550
 30
0.0000
  0
SEQEND
  8
0
  0
POLYLINE
  8
16
 66
1
 10
0.0000
 20
0.0000
 30
0.0000
 40
0.4064
 41
0.4064
 70
0
  0
VERTEX
  8
16
 10
1.4732
 20
22.8600
 30
0.0000
 42
1.0000
  0
VERTEX
  8
16
 10
1.0668
 20
22.8600
 30
0.0000
  0
SEQEND
  8
0
  0
POLYLINE
  8
16
 66
1
 10
0.0000
 20
0.0000
 30
0.0000
 40
0.8128
 41
0.8128
 70
0
  0
VERTEX
  8
16
 10
1.2700
 20
20.9550
 30
0.0000
  0
VERTEX
  8
16
 10
2.5400
 20
19.6850
 30
0.0000
  0
SEQEND
  8
0
  0
POLYLINE
  8
16
 66
1
 10
0.0000
 20
0.0000
 30
0.0000
 40
0.4064
 41
0.4064
 70
0
  0
VERTEX
  8
16
 10
2.3963
 20
19.5413
 30
0.0000
 42
1.0000
  0
VERTEX
  8
16
 10
2.6837
 20
19.8287
 30
0.0000
  0
SEQEND
  8
0
  0
POLYLINE
  8
16
 66
1
 10
0.0000
 20
0.0000
 30
0.0000
 40
0.4064
 41
0.4064
 70
0
  0
VERTEX
  8
16
 10
1.4137
 20
21.0987
 30
0.0000
 42
1.0000
  0
VERTEX
  8
16
 10
1.1263
 20
20.8113
 30
0.0000
  0
SEQEND
  8
0
  0
POLYLINE
  8
16
 66
1
 10
0.0000
 20
0.0000
 30
0.0000
 40
0.8128
 41
0.8128
 70
0
  0
VERTEX
  8
16
 10
2.5400
 20
19.6850
 30
0.0000
  0
VERTEX
  8
16
 10
3.8100
 20
18.4150
 30
0.0000
  0
SEQEND
  8
0
  0
POLYLINE
  8
16
 66
1
 10
0.0000
 20
0.0000
 30
0.0000
 40
0.4064
 41
0.4064
 70
0
  0
VERTEX
  8
16
 10
3.6663
 20
18.2713
 30
0.0000
 42
1.0000
  0
VERTEX
  8
16
 10
3.9537
 20
18.5587
 30
0.0000
  0
SEQEND
  8
0
  0
POLYLINE
  8
16
 66
1
 10
0.0000
 20
0.0000
 30
0.0000
 40
0.4064
 41
0.4064
 70
0
  0
VERTEX
  8
16
 10
2.6837
 20
19.8287
 30
0.0000
 42
1.0000
  0
VERTEX
  8
16
 10
2.3963
 20
19.5413
 30
0.0000
  0
SEQEND
  8
0
  0
POLYLINE
  8
16
 66
1
 10
0.0000
 20
0.0000
 30
0.0000
 40
0.8128
 41
0.8128
 70
0
  0
VERTEX
  8
16
 10
3.8100
 20
18.4150
 30
0.0000
  0
VERTEX
  8
16
 10
4.4450
 20
18.4150
 30
0.0000
  0
SEQEND
  8
0
  0
POLYLINE
  8
16
 66
1
 10
0.0000
 20
0.0000
 30
0.0000
 40
0.4064
 41
0.4064
 70
0
  0
VERTEX
  8
16
 10
4.4450
 20
18.2118
 30
0.0000
 42
1.0000
  0
VERTEX
  8
16
 10
4.4450
 20
18.6182
 30
0.0000
  0
SEQEND
  8
0
  0
POLYLINE
  8
16
 66
1
 10
0.0000
 20
0.0000
 30
0.0000
 40
0.4064
 41
0.4064
 70
0
  0
VERTEX
  8
16
 10
3.8100
 20
18.6182
 30
0.0000
 42
1.0000
  0
VERTEX
  8
16
 10
3.8100
 20
18.2118
 30
0.0000
  0
SEQEND
  8
0
  0
POLYLINE
  8
16
 66
1
 10
0.0000
 20
0.0000
 30
0.0000
 40
0.8128
 41
0.8128
 70
0
  0
VERTEX
  8
16
 10
14.6050
 20
0.0000
 30
0.0000
  0
VERTEX
  8
16
 10
16.5100
 20
0.0000
 30
0.0000
  0
SEQEND
  8
0
  0
POLYLINE
  8
16
 66
1
 10
0.0000
 20
0.0000
 30
0.0000
 40
0.4064
 41
0.4064
 70
0
  0
VERTEX
  8
16
 10
16.5100
 20
-0.2032
 30
0.0000
 42
1.0000
  0
VERTEX
  8
16
 10
16.5100
 20
0.2032
 30
0.0000
  0
SEQEND
  8
0
  0
POLYLINE
  8
16
 66
1
 10
0.0000
 20
0.0000
 30
0.0000
 40
0.4064
 41
0.4064
 70
0
  0
VERTEX
  8
16
 10
14.6050
 20
0.2032
 30
0.0000
 42
1.0000
  0
VERTEX
  8
16
 10
14.6050
 20
-0.2032
 30
0.0000
  0
SEQEND
  8
0
  0
POLYLINE
  8
16
 66
1
 10
0.0000
 20
0.0000
 30
0.0000
 40
0.8128
 41
0.8128
 70
0
  0
VERTEX
  8
16
 10
22.2250
 20
5.7150
 30
0.0000
  0
VERTEX
  8
16
 10
22.2250
 20
8.8900
 30
0.0000
  0
SEQEND
  8
0
  0
POLYLINE
  8
16
 66
1
 10
0.0000
 20
0.0000
 30
0.0000
 40
0.4064
 41
0.4064
 70
0
  0
VERTEX
  8
16
 10
22.4282
 20
8.8900
 30
0.0000
 42
1.0000
  0
VERTEX
  8
16
 10
22.0218
 20
8.8900
 30
0.0000
  0
SEQEND
  8
0
  0
POLYLINE
  8
16
 66
1
 10
0.0000
 20
0.0000
 30
0.0000
 40
0.4064
 41
0.4064
 70
0
  0
VERTEX
  8
16
 10
22.0218
 20
5.7150
 30
0.0000
 42
1.0000
  0
VERTEX
  8
16
 10
22.4282
 20
5.7150
 30
0.0000
  0
SEQEND
  8
0
  0
POLYLINE
  8
16
 66
1
 10
0.0000
 20
0.0000
 30
0.0000
 40
0.8128
 41
0.8128
 70
0
  0
VERTEX
  8
16
 10
22.2250
 20
8.8900
 30
0.0000
  0
VERTEX
  8
16
 10
20.3200
 20
10.7950
 30
0.0000
  0
SEQEND
  8
0
  0
POLYLINE
  8
16
 66
1
 10
0.0000
 20
0.0000
 30
0.0000
 40
0.4064
 41
0.4064
 70
0
  0
VERTEX
  8
16
 10
20.4637
 20
10.9387
 30
0.0000
 42
1.0000
  0
VERTEX
  8
16
 10
20.1763
 20
10.6513
 30
0.0000
  0
SEQEND
  8
0
  0
POLYLINE
  8
16
 66
1
 10
0.0000
 20
0.0000
 30
0.0000
 40
0.4064
 41
0.4064
 70
0
  0
VERTEX
  8
16
 10
22.0813
 20
8.7463
 30
0.0000
 42
1.0000
  0
VERTEX
  8
16
 10
22.3687
 20
9.0337
 30
0.0000
  0
SEQEND
  8
0
  0
POLYLINE
  8
16
 66
1
 10
0.0000
 20
0.0000
 30
0.0000
 40
0.8128
 41
0.8128
 70
0
  0
VERTEX
  8
16
 10
20.3200
 20
10.7950
 30
0.0000
  0
VERTEX
  8
16
 10
20.3200
 20
12.7000
 30
0.0000
  0
SEQEND
  8
0
  0
POLYLINE
  8
16
 66
1
 10
0.0000
 20
0.0000
 30
0.0000
 40
0.4064
 41
0.4064
 70
0
  0
VERTEX
  8
16
 10
20.5232
 20
12.7000
 30
0.0000
 42
1.0000
  0
VERTEX
  8
16
 10
20.1168
 20
12.7000
 30
0.0000
  0
SEQEND
  8
0
  0
POLYLINE
  8
16
 66
1
 10
0.0000
 20
0.0000
 30
0.0000
 40
0.4064
 41
0.4064
 70
0
  0
VERTEX
  8
16
 10
20.1168
 20
10.7950
 30
0.0000
 42
1.0000
  0
VERTEX
  8
16
 10
20.5232
 20
10.7950
 30
0.0000
  0
SEQEND
  8
0
  0
POLYLINE
  8
16
 66
1
 10
0.0000
 20
0.0000
 30
0.0000
 40
0.8128
 41
0.8128
 70
0
  0
VERTEX
  8
16
 10
20.3200
 20
12.7000
 30
0.0000
  0
VERTEX
  8
16
 10
12.7000
 20
20.3200
 30
0.0000
  0
SEQEND
  8
0
  0
POLYLINE
  8
16
 66
1
 10
0.0000
 20
0.0000
 30
0.0000
 40
0.4064
 41
0.4064
 70
0
  0
VERTEX
  8
16
 10
12.8437
 20
20.4637
 30
0.0000
 42
1.0000
  0
VERTEX
  8
16
 10
12.5563
 20
20.1763
 30
0.0000
  0
SEQEND
  8
0
  0
POLYLINE
  8
16
 66
1
 10
0.0000
 20
0.0000
 30
0.0000
 40
0.4064
 41
0.4064
 70
0
  0
VERTEX
  8
16
 10
20.1763
 20
12.5563
 30
0.0000
 42
1.0000
  0
VERTEX
  8
16
 10
20.4637
 20
12.8437
 30
0.0000
  0
SEQEND
  8
0
  0
POLYLINE
  8
16
 66
1
 10
0.0000
 20
0.0000
 30
0.0000
 40
0.8128
 41
0.8128
 70
0
  0
VERTEX
  8
16
 10
12.7000
 20
20.3200
 30
0.0000
  0
VERTEX
  8
16
 10
11.4300
 20
20.3200
 30
0.0000
  0
SEQEND
  8
0
  0
POLYLINE
  8
16
 66
1
 10
0.0000
 20
0.0000
 30
0.0000
 40
0.4064
 41
0.4064
 70
0
  0
VERTEX
  8
16
 10
11.4300
 20
20.5232
 30
0.0000
 42
1.0000
  0
VERTEX
  8
16
 10
11.4300
 20
20.1168
 30
0.0000
  0
SEQEND
  8
0
  0
POLYLINE
  8
16
 66
1
 10
0.0000
 20
0.0000
 30
0.0000
 40
0.4064
 41
0.4064
 70
0
  0
VERTEX
  8
16
 10
12.7000
 20
20.1168
 30
0.0000
 42
1.0000
  0
VERTEX
  8
16
 10
12.7000
 20
20.5232
 30
0.0000
  0
SEQEND
  8
0
  0
POLYLINE
  8
16
 66
1
 10
0.0000
 20
0.0000
 30
0.0000
 40
0.8128
 41
0.8128
 70
0
  0
VERTEX
  8
16
 10
11.4300
 20
20.3200
 30
0.0000
  0
VERTEX
  8
16
 10
10.1600
 20
21.5900
 30
0.0000
  0
SEQEND
  8
0
  0
POLYLINE
  8
16
 66
1
 10
0.0000
 20
0.0000
 30
0.0000
 40
0.4064
 41
0.4064
 70
0
  0
VERTEX
  8
16
 10
10.3037
 20
21.7337
 30
0.0000
 42
1.0000
  0
VERTEX
  8
16
 10
10.0163
 20
21.4463
 30
0.0000
  0
SEQEND
  8
0
  0
POLYLINE
  8
16
 66
1
 10
0.0000
 20
0.0000
 30
0.0000
 40
0.4064
 41
0.4064
 70
0
  0
VERTEX
  8
16
 10
11.2863
 20
20.1763
 30
0.0000
 42
1.0000
  0
VERTEX
  8
16
 10
11.5737
 20
20.4637
 30
0.0000
  0
SEQEND
  8
0
  0
POLYLINE
  8
16
 66
1
 10
0.0000
 20
0.0000
 30
0.0000
 40
0.8128
 41
0.8128
 70
0
  0
VERTEX
  8
16
 10
16.5100
 20
0.0000
 30
0.0000
  0
VERTEX
  8
16
 10
22.2250
 20
5.7150
 30
0.0000
  0
SEQEND
  8
0
  0
POLYLINE
  8
16
 66
1
 10
0.0000
 20
0.0000
 30
0.0000
 40
0.4064
 41
0.4064
 70
0
  0
VERTEX
  8
16
 10
22.3687
 20
5.5713
 30
0.0000
 42
1.0000
  0
VERTEX
  8
16
 10
22.0813
 20
5.8587
 30
0.0000
  0
SEQEND
  8
0
  0
POLYLINE
  8
16
 66
1
 10
0.0000
 20
0.0000
 30
0.0000
 40
0.4064
 41
0.4064
 70
0
  0
VERTEX
  8
16
 10
16.3663
 20
0.1437
 30
0.0000
 42
1.0000
  0
VERTEX
  8
16
 10
16.6537
 20
-0.1437
 30
0.0000
  0
SEQEND
  8
0
  0
INSERT
  8
18
  2
ROUNDV
 10
10.1600
 20
21.5900
 30
0.0000
 41
1.5000
 42
1.5000
 43
1.0000
 50
0.0000
  0
INSERT
  8
18
  2
ROUNDV
 10
10.1600
 20
21.5900
 30
0.0000
 41
1.5000
 42
1.5000
 43
1.0000
 50
0.0000
  0
CIRCLE
  8
44
 10
10.1600
 20
21.5900
 30
0.0000
 40
0.5000
  0
INSERT
  8
18
  2
ROUNDV
 10
2.5400
 20
19.6850
 30
0.0000
 41
1.5000
 42
1.5000
 43
1.0000
 50
0.0000
  0
INSERT
  8
18
  2
ROUNDV
 10
2.5400
 20
19.6850
 30
0.0000
 41
1.5000
 42
1.5000
 43
1.0000
 50
0.0000
  0
CIRCLE
  8
44
 10
2.5400
 20
19.6850
 30
0.0000
 40
0.5000
  0
POLYLINE
  8
16
 66
1
 10
0.0000
 20
0.0000
 30
0.0000
 40
0.8128
 41
0.8128
 70
0
  0
VERTEX
  8
16
 10
2.5400
 20
39.3700
 30
0.0000
  0
VERTEX
  8
16
 10
2.5400
 20
24.7650
 30
0.0000
  0
SEQEND
  8
0
  0
POLYLINE
  8
16
 66
1
 10
0.0000
 20
0.0000
 30
0.0000
 40
0.4064
 41
0.4064
 70
0
  0
VERTEX
  8
16
 10
2.3368
 20
24.7650
 30
0.0000
 42
1.0000
  0
VERTEX
  8
16
 10
2.7432
 20
24.7650
 30
0.0000
  0
SEQEND
  8
0
  0
POLYLINE
  8
16
 66
1
 10
0.0000
 20
0.0000
 30
0.0000
 40
0.4064
 41
0.4064
 70
0
  0
VERTEX
  8
16
 10
2.7432
 20
39.3700
 30
0.0000
 42
1.0000
  0
VERTEX
  8
16
 10
2.3368
 20
39.3700
 30
0.0000
  0
SEQEND
  8
0
  0
POLYLINE
  8
16
 66
1
 10
0.0000
 20
0.0000
 30
0.0000
 40
0.8128
 41
0.8128
 70
0
  0
VERTEX
  8
16
 10
-1.9050
 20
39.3700
 30
0.0000
  0
VERTEX
  8
16
 10
-1.9050
 20
27.3050
 30
0.0000
  0
SEQEND
  8
0
  0
POLYLINE
  8
16
 66
1
 10
0.0000
 20
0.0000
 30
0.0000
 40
0.4064
 41
0.4064
 70
0
  0
VERTEX
  8
16
 10
-2.1082
 20
27.3050
 30
0.0000
 42
1.0000
  0
VERTEX
  8
16
 10
-1.7018
 20
27.3050
 30
0.0000
  0
SEQEND
  8
0
  0
POLYLINE
  8
16
 66
1
 10
0.0000
 20
0.0000
 30
0.0000
 40
0.4064
 41
0.4064
 70
0
  0
VERTEX
  8
16
 10
-1.7018
 20
39.3700
 30
0.0000
 42
1.0000
  0
VERTEX
  8
16
 10
-2.1082
 20
39.3700
 30
0.0000
  0
SEQEND
  8
0
  0
POLYLINE
  8
16
 66
1
 10
0.0000
 20
0.0000
 30
0.0000
 40
0.8128
 41
0.8128
 70
0
  0
VERTEX
  8
16
 10
-34.9250
 20
-17.1450
 30
0.0000
  0
VERTEX
  8
16
 10
-24.1300
 20
-10.7950
 30
0.0000
  0
SEQEND
  8
0
  0
POLYLINE
  8
16
 66
1
 10
0.0000
 20
0.0000
 30
0.0000
 40
0.4064
 41
0.4064
 70
0
  0
VERTEX
  8
16
 10
-24.0270
 20
-10.9701
 30
0.0000
 42
1.0000
  0
VERTEX
  8
16
 10
-24.2330
 20
-10.6199
 30
0.0000
  0
SEQEND
  8
0
  0
POLYLINE
  8
16
 66
1
 10
0.0000
 20
0.0000
 30
0.0000
 40
0.4064
 41
0.4064
 70
0
  0
VERTEX
  8
16
 10
-35.0280
 20
-16.9699
 30
0.0000
 42
1.0000
  0
VERTEX
  8
16
 10
-34.8220
 20
-17.3201
 30
0.0000
  0
SEQEND
  8
0
  0
POLYLINE
  8
16
 66
1
 10
0.0000
 20
0.0000
 30
0.0000
 40
0.8128
 41
0.8128
 70
0
  0
VERTEX
  8
16
 10
34.9250
 20
-17.1450
 30
0.0000
  0
VERTEX
  8
16
 10
22.8600
 20
-10.1600
 30
0.0000
  0
SEQEND
  8
0
  0
POLYLINE
  8
16
 66
1
 10
0.0000
 20
0.0000
 30
0.0000
 40
0.4064
 41
0.4064
 70
0
  0
VERTEX
  8
16
 10
22.9618
 20
-9.9841
 30
0.0000
 42
1.0000
  0
VERTEX
  8
16
 10
22.7582
 20
-10.3359
 30
0.0000
  0
SEQEND
  8
0
  0
POLYLINE
  8
16
 66
1
 10
0.0000
 20
0.0000
 30
0.0000
 40
0.4064
 41
0.4064
 70
0
  0
VERTEX
  8
16
 10
34.8232
 20
-17.3209
 30
0.0000
 42
1.0000
  0
VERTEX
  8
16
 10
35.0268
 20
-16.9691
 30
0.0000
  0
SEQEND
  8
0
  0
POLYLINE
  8
16
 66
1
 10
0.0000
 20
0.0000
 30
0.0000
 40
0.8128
 41
0.8128
 70
0
  0
VERTEX
  8
16
 10
-32.3850
 20
-21.5900
 30
0.0000
  0
VERTEX
  8
16
 10
-22.2250
 20
-15.8750
 30
0.0000
  0
SEQEND
  8
0
  0
POLYLINE
  8
16
 66
1
 10
0.0000
 20
0.0000
 30
0.0000
 40
0.4064
 41
0.4064
 70
0
  0
VERTEX
  8
16
 10
-22.1254
 20
-16.0521
 30
0.0000
 42
1.0000
  0
VERTEX
  8
16
 10
-22.3246
 20
-15.6979
 30
0.0000
  0
SEQEND
  8
0
  0
POLYLINE
  8
16
 66
1
 10
0.0000
 20
0.0000
 30
0.0000
 40
0.4064
 41
0.4064
 70
0
  0
VERTEX
  8
16
 10
-32.4846
 20
-21.4129
 30
0.0000
 42
1.0000
  0
VERTEX
  8
16
 10
-32.2854
 20
-21.7671
 30
0.0000
  0
SEQEND
  8
0
  0
POLYLINE
  8
16
 66
1
 10
0.0000
 20
0.0000
 30
0.0000
 40
0.8128
 41
0.8128
 70
0
  0
VERTEX
  8
16
 10
-22.2250
 20
-15.8750
 30
0.0000
  0
VERTEX
  8
16
 10
-11.4300
 20
-15.8750
 30
0.0000
  0
SEQEND
  8
0
  0
POLYLINE
  8
16
 66
1
 10
0.0000
 20
0.0000
 30
0.0000
 40
0.4064
 41
0.4064
 70
0
  0
VERTEX
  8
16
 10
-11.4300
 20
-16.0782
 30
0.0000
 42
1.0000
  0
VERTEX
  8
16
 10
-11.4300
 20
-15.6718
 30
0.0000
  0
SEQEND
  8
0
  0
POLYLINE
  8
16
 66
1
 10
0.0000
 20
0.0000
 30
0.0000
 40
0.4064
 41
0.4064
 70
0
  0
VERTEX
  8
16
 10
-22.2250
 20
-15.6718
 30
0.0000
 42
1.0000
  0
VERTEX
  8
16
 10
-22.2250
 20
-16.0782
 30
0.0000
  0
SEQEND
  8
0
  0
POLYLINE
  8
16
 66
1
 10
0.0000
 20
0.0000
 30
0.0000
 40
0.8128
 41
0.8128
 70
0
  0
VERTEX
  8
16
 10
-9.5250
 20
-17.1450
 30
0.0000
  0
VERTEX
  8
16
 10
-5.7150
 20
-17.1450
 30
0.0000
  0
SEQEND
  8
0
  0
POLYLINE
  8
16
 66
1
 10
0.0000
 20
0.0000
 30
0.0000
 40
0.4064
 41
0.4064
 70
0
  0
VERTEX
  8
16
 10
-5.7150
 20
-17.3482
 30
0.0000
 42
1.0000
  0
VERTEX
  8
16
 10
-5.7150
 20
-16.9418
 30
0.0000
  0
SEQEND
  8
0
  0
POLYLINE
  8
16
 66
1
 10
0.0000
 20
0.0000
 30
0.0000
 40
0.4064
 41
0.4064
 70
0
  0
VERTEX
  8
16
 10
-9.5250
 20
-16.9418
 30
0.0000
 42
1.0000
  0
VERTEX
  8
16
 10
-9.5250
 20
-17.3482
 30
0.0000
  0
SEQEND
  8
0
  0
POLYLINE
  8
16
 66
1
 10
0.0000
 20
0.0000
 30
0.0000
 40
0.8128
 41
0.8128
 70
0
  0
VERTEX
  8
16
 10
-5.7150
 20
-17.1450
 30
0.0000
  0
VERTEX
  8
16
 10
-2.5400
 20
-20.3200
 30
0.0000
  0
SEQEND
  8
0
  0
POLYLINE
  8
16
 66
1
 10
0.0000
 20
0.0000
 30
0.0000
 40
0.4064
 41
0.4064
 70
0
  0
VERTEX
  8
16
 10
-2.6837
 20
-20.4637
 30
0.0000
 42
1.0000
  0
VERTEX
  8
16
 10
-2.3963
 20
-20.1763
 30
0.0000
  0
SEQEND
  8
0
  0
POLYLINE
  8
16
 66
1
 10
0.0000
 20
0.0000
 30
0.0000
 40
0.4064
 41
0.4064
 70
0
  0
VERTEX
  8
16
 10
-5.5713
 20
-17.0013
 30
0.0000
 42
1.0000
  0
VERTEX
  8
16
 10
-5.8587
 20
-17.2887
 30
0.0000
  0
SEQEND
  8
0
  0
POLYLINE
  8
16
 66
1
 10
0.0000
 20
0.0000
 30
0.0000
 40
0.8128
 41
0.8128
 70
0
  0
VERTEX
  8
16
 10
-2.5400
 20
-20.3200
 30
0.0000
  0
VERTEX
  8
16
 10
1.9050
 20
-20.3200
 30
0.0000
  0
SEQEND
  8
0
  0
POLYLINE
  8
16
 66
1
 10
0.0000
 20
0.0000
 30
0.0000
 40
0.4064
 41
0.4064
 70
0
  0
VERTEX
  8
16
 10
1.9050
 20
-20.5232
 30
0.0000
 42
1.0000
  0
VERTEX
  8
16
 10
1.9050
 20
-20.1168
 30
0.0000
  0
SEQEND
  8
0
  0
POLYLINE
  8
16
 66
1
 10
0.0000
 20
0.0000
 30
0.0000
 40
0.4064
 41
0.4064
 70
0
  0
VERTEX
  8
16
 10
-2.5400
 20
-20.1168
 30
0.0000
 42
1.0000
  0
VERTEX
  8
16
 10
-2.5400
 20
-20.5232
 30
0.0000
  0
SEQEND
  8
0
  0
POLYLINE
  8
16
 66
1
 10
0.0000
 20
0.0000
 30
0.0000
 40
0.8128
 41
0.8128
 70
0
  0
VERTEX
  8
16
 10
1.9050
 20
-20.3200
 30
0.0000
  0
VERTEX
  8
16
 10
3.8100
 20
-18.4150
 30
0.0000
  0
SEQEND
  8
0
  0
POLYLINE
  8
16
 66
1
 10
0.0000
 20
0.0000
 30
0.0000
 40
0.4064
 41
0.4064
 70
0
  0
VERTEX
  8
16
 10
3.9537
 20
-18.5587
 30
0.0000
 42
1.0000
  0
VERTEX
  8
16
 10
3.6663
 20
-18.2713
 30
0.0000
  0
SEQEND
  8
0
  0
POLYLINE
  8
16
 66
1
 10
0.0000
 20
0.0000
 30
0.0000
 40
0.4064
 41
0.4064
 70
0
  0
VERTEX
  8
16
 10
1.7613
 20
-20.1763
 30
0.0000
 42
1.0000
  0
VERTEX
  8
16
 10
2.0487
 20
-20.4637
 30
0.0000
  0
SEQEND
  8
0
  0
POLYLINE
  8
16
 66
1
 10
0.0000
 20
0.0000
 30
0.0000
 40
0.8128
 41
0.8128
 70
0
  0
VERTEX
  8
16
 10
3.8100
 20
-5.0800
 30
0.0000
  0
VERTEX
  8
16
 10
5.0800
 20
-3.8100
 30
0.0000
  0
SEQEND
  8
0
  0
POLYLINE
  8
16
 66
1
 10
0.0000
 20
0.0000
 30
0.0000
 40
0.4064
 41
0.4064
 70
0
  0
VERTEX
  8
16
 10
5.2237
 20
-3.9537
 30
0.0000
 42
1.0000
  0
VERTEX
  8
16
 10
4.9363
 20
-3.6663
 30
0.0000
  0
SEQEND
  8
0
  0
POLYLINE
  8
16
 66
1
 10
0.0000
 20
0.0000
 30
0.0000
 40
0.4064
 41
0.4064
 70
0
  0
VERTEX
  8
16
 10
3.6663
 20
-4.9363
 30
0.0000
 42
1.0000
  0
VERTEX
  8
16
 10
3.9537
 20
-5.2237
 30
0.0000
  0
SEQEND
  8
0
  0
POLYLINE
  8
16
 66
1
 10
0.0000
 20
0.0000
 30
0.0000
 40
0.8128
 41
0.8128
 70
0
  0
VERTEX
  8
16
 10
5.0800
 20
-3.8100
 30
0.0000
  0
VERTEX
  8
16
 10
11.4300
 20
-3.8100
 30
0.0000
  0
SEQEND
  8
0
  0
POLYLINE
  8
16
 66
1
 10
0.0000
 20
0.0000
 30
0.0000
 40
0.4064
 41
0.4064
 70
0
  0
VERTEX
  8
16
 10
11.4300
 20
-4.0132
 30
0.0000
 42
1.0000
  0
VERTEX
  8
16
 10
11.4300
 20
-3.6068
 30
0.0000
  0
SEQEND
  8
0
  0
POLYLINE
  8
16
 66
1
 10
0.0000
 20
0.0000
 30
0.0000
 40
0.4064
 41
0.4064
 70
0
  0
VERTEX
  8
16
 10
5.0800
 20
-3.6068
 30
0.0000
 42
1.0000
  0
VERTEX
  8
16
 10
5.0800
 20
-4.0132
 30
0.0000
  0
SEQEND
  8
0
  0
POLYLINE
  8
16
 66
1
 10
0.0000
 20
0.0000
 30
0.0000
 40
0.8128
 41
0.8128
 70
0
  0
VERTEX
  8
16
 10
11.4300
 20
-3.8100
 30
0.0000
  0
VERTEX
  8
16
 10
12.7000
 20
-2.5400
 30
0.0000
  0
SEQEND
  8
0
  0
POLYLINE
  8
16
 66
1
 10
0.0000
 20
0.0000
 30
0.0000
 40
0.4064
 41
0.4064
 70
0
  0
VERTEX
  8
16
 10
12.8437
 20
-2.6837
 30
0.0000
 42
1.0000
  0
VERTEX
  8
16
 10
12.5563
 20
-2.3963
 30
0.0000
  0
SEQEND
  8
0
  0
POLYLINE
  8
16
 66
1
 10
0.0000
 20
0.0000
 30
0.0000
 40
0.4064
 41
0.4064
 70
0
  0
VERTEX
  8
16
 10
11.2863
 20
-3.6663
 30
0.0000
 42
1.0000
  0
VERTEX
  8
16
 10
11.5737
 20
-3.9537
 30
0.0000
  0
SEQEND
  8
0
  0
POLYLINE
  8
16
 66
1
 10
0.0000
 20
0.0000
 30
0.0000
 40
0.8128
 41
0.8128
 70
0
  0
VERTEX
  8
16
 10
12.7000
 20
-2.5400
 30
0.0000
  0
VERTEX
  8
16
 10
14.6050
 20
-2.5400
 30
0.0000
  0
SEQEND
  8
0
  0
POLYLINE
  8
16
 66
1
 10
0.0000
 20
0.0000
 30
0.0000
 40
0.4064
 41
0.4064
 70
0
  0
VERTEX
  8
16
 10
14.6050
 20
-2.7432
 30
0.0000
 42
1.0000
  0
VERTEX
  8
16
 10
14.6050
 20
-2.3368
 30
0.0000
  0
SEQEND
  8
0
  0
POLYLINE
  8
16
 66
1
 10
0.0000
 20
0.0000
 30
0.0000
 40
0.4064
 41
0.4064
 70
0
  0
VERTEX
  8
16
 10
12.7000
 20
-2.3368
 30
0.0000
 42
1.0000
  0
VERTEX
  8
16
 10
12.7000
 20
-2.7432
 30
0.0000
  0
SEQEND
  8
0
  0
POLYLINE
  8
16
 66
1
 10
0.0000
 20
0.0000
 30
0.0000
 40
0.8128
 41
0.8128
 70
0
  0
VERTEX
  8
16
 10
3.8100
 20
-18.4150
 30
0.0000
  0
VERTEX
  8
16
 10
3.8100
 20
-5.0800
 30
0.0000
  0
SEQEND
  8
0
  0
POLYLINE
  8
16
 66
1
 10
0.0000
 20
0.0000
 30
0.0000
 40
0.4064
 41
0.4064
 70
0
  0
VERTEX
  8
16
 10
4.0132
 20
-5.0800
 30
0.0000
 42
1.0000
  0
VERTEX
  8
16
 10
3.6068
 20
-5.0800
 30
0.0000
  0
SEQEND
  8
0
  0
POLYLINE
  8
16
 66
1
 10
0.0000
 20
0.0000
 30
0.0000
 40
0.4064
 41
0.4064
 70
0
  0
VERTEX
  8
16
 10
3.6068
 20
-18.4150
 30
0.0000
 42
1.0000
  0
VERTEX
  8
16
 10
4.0132
 20
-18.4150
 30
0.0000
  0
SEQEND
  8
0
  0
POLYLINE
  8
16
 66
1
 10
0.0000
 20
0.0000
 30
0.0000
 40
0.8128
 41
0.8128
 70
0
  0
VERTEX
  8
16
 10
14.6050
 20
-5.0800
 30
0.0000
  0
VERTEX
  8
16
 10
20.3200
 20
-5.0800
 30
0.0000
  0
SEQEND
  8
0
  0
POLYLINE
  8
16
 66
1
 10
0.0000
 20
0.0000
 30
0.0000
 40
0.4064
 41
0.4064
 70
0
  0
VERTEX
  8
16
 10
20.3200
 20
-5.2832
 30
0.0000
 42
1.0000
  0
VERTEX
  8
16
 10
20.3200
 20
-4.8768
 30
0.0000
  0
SEQEND
  8
0
  0
POLYLINE
  8
16
 66
1
 10
0.0000
 20
0.0000
 30
0.0000
 40
0.4064
 41
0.4064
 70
0
  0
VERTEX
  8
16
 10
14.6050
 20
-4.8768
 30
0.0000
 42
1.0000
  0
VERTEX
  8
16
 10
14.6050
 20
-5.2832
 30
0.0000
  0
SEQEND
  8
0
  0
POLYLINE
  8
16
 66
1
 10
0.0000
 20
0.0000
 30
0.0000
 40
0.8128
 41
0.8128
 70
0
  0
VERTEX
  8
16
 10
20.3200
 20
-5.0800
 30
0.0000
  0
VERTEX
  8
16
 10
20.3200
 20
-3.8100
 30
0.0000
  0
SEQEND
  8
0
  0
POLYLINE
  8
16
 66
1
 10
0.0000
 20
0.0000
 30
0.0000
 40
0.4064
 41
0.4064
 70
0
  0
VERTEX
  8
16
 10
20.5232
 20
-3.8100
 30
0.0000
 42
1.0000
  0
VERTEX
  8
16
 10
20.1168
 20
-3.8100
 30
0.0000
  0
SEQEND
  8
0
  0
POLYLINE
  8
16
 66
1
 10
0.0000
 20
0.0000
 30
0.0000
 40
0.4064
 41
0.4064
 70
0
  0
VERTEX
  8
16
 10
20.1168
 20
-5.0800
 30
0.0000
 42
1.0000
  0
VERTEX
  8
16
 10
20.5232
 20
-5.0800
 30
0.0000
  0
SEQEND
  8
0
  0
POLYLINE
  8
16
 66
1
 10
0.0000
 20
0.0000
 30
0.0000
 40
0.8128
 41
0.8128
 70
0
  0
VERTEX
  8
16
 10
20.3200
 20
-3.8100
 30
0.0000
  0
VERTEX
  8
16
 10
20.3200
 20
0.6350
 30
0.0000
  0
SEQEND
  8
0
  0
POLYLINE
  8
16
 66
1
 10
0.0000
 20
0.0000
 30
0.0000
 40
0.4064
 41
0.4064
 70
0
  0
VERTEX
  8
16
 10
20.5232
 20
0.6350
 30
0.0000
 42
1.0000
  0
VERTEX
  8
16
 10
20.1168
 20
0.6350
 30
0.0000
  0
SEQEND
  8
0
  0
POLYLINE
  8
16
 66
1
 10
0.0000
 20
0.0000
 30
0.0000
 40
0.4064
 41
0.4064
 70
0
  0
VERTEX
  8
16
 10
20.1168
 20
-3.8100
 30
0.0000
 42
1.0000
  0
VERTEX
  8
16
 10
20.5232
 20
-3.8100
 30
0.0000
  0
SEQEND
  8
0
  0
POLYLINE
  8
16
 66
1
 10
0.0000
 20
0.0000
 30
0.0000
 40
0.8128
 41
0.8128
 70
0
  0
VERTEX
  8
16
 10
20.9550
 20
-4.4450
 30
0.0000
  0
VERTEX
  8
16
 10
20.3200
 20
-3.8100
 30
0.0000
  0
SEQEND
  8
0
  0
POLYLINE
  8
16
 66
1
 10
0.0000
 20
0.0000
 30
0.0000
 40
0.4064
 41
0.4064
 70
0
  0
VERTEX
  8
16
 10
20.4637
 20
-3.6663
 30
0.0000
 42
1.0000
  0
VERTEX
  8
16
 10
20.1763
 20
-3.9537
 30
0.0000
  0
SEQEND
  8
0
  0
POLYLINE
  8
16
 66
1
 10
0.0000
 20
0.0000
 30
0.0000
 40
0.4064
 41
0.4064
 70
0
  0
VERTEX
  8
16
 10
20.8113
 20
-4.5887
 30
0.0000
 42
1.0000
  0
VERTEX
  8
16
 10
21.0987
 20
-4.3013
 30
0.0000
  0
SEQEND
  8
0
  0
POLYLINE
  8
16
 66
1
 10
0.0000
 20
0.0000
 30
0.0000
 40
0.8128
 41
0.8128
 70
0
  0
VERTEX
  8
16
 10
20.9550
 20
-8.8900
 30
0.0000
  0
VERTEX
  8
16
 10
20.9550
 20
-4.4450
 30
0.0000
  0
SEQEND
  8
0
  0
POLYLINE
  8
16
 66
1
 10
0.0000
 20
0.0000
 30
0.0000
 40
0.4064
 41
0.4064
 70
0
  0
VERTEX
  8
16
 10
21.1582
 20
-4.4450
 30
0.0000
 42
1.0000
  0
VERTEX
  8
16
 10
20.7518
 20
-4.4450
 30
0.0000
  0
SEQEND
  8
0
  0
POLYLINE
  8
16
 66
1
 10
0.0000
 20
0.0000
 30
0.0000
 40
0.4064
 41
0.4064
 70
0
  0
VERTEX
  8
16
 10
20.7518
 20
-8.8900
 30
0.0000
 42
1.0000
  0
VERTEX
  8
16
 10
21.1582
 20
-8.8900
 30
0.0000
  0
SEQEND
  8
0
  0
POLYLINE
  8
16
 66
1
 10
0.0000
 20
0.0000
 30
0.0000
 40
0.8128
 41
0.8128
 70
0
  0
VERTEX
  8
16
 10
32.3850
 20
-21.5900
 30
0.0000
  0
VERTEX
  8
16
 10
26.6457
 20
-18.4595
 30
0.0000
  0
SEQEND
  8
0
  0
POLYLINE
  8
16
 66
1
 10
0.0000
 20
0.0000
 30
0.0000
 40
0.4064
 41
0.4064
 70
0
  0
VERTEX
  8
16
 10
26.7430
 20
-18.2811
 30
0.0000
 42
1.0000
  0
VERTEX
  8
16
 10
26.5484
 20
-18.6379
 30
0.0000
  0
SEQEND
  8
0
  0
POLYLINE
  8
16
 66
1
 10
0.0000
 20
0.0000
 30
0.0000
 40
0.4064
 41
0.4064
 70
0
  0
VERTEX
  8
16
 10
32.2877
 20
-21.7684
 30
0.0000
 42
1.0000
  0
VERTEX
  8
16
 10
32.4823
 20
-21.4116
 30
0.0000
  0
SEQEND
  8
0
  0
POLYLINE
  8
16
 66
1
 10
0.0000
 20
0.0000
 30
0.0000
 40
0.8128
 41
0.8128
 70
0
  0
VERTEX
  8
16
 10
26.6457
 20
-18.4595
 30
0.0000
  0
VERTEX
  8
16
 10
25.4000
 20
-17.7800
 30
0.0000
  0
SEQEND
  8
0
  0
POLYLINE
  8
16
 66
1
 10
0.0000
 20
0.0000
 30
0.0000
 40
0.4064
 41
0.4064
 70
0
  0
VERTEX
  8
16
 10
25.4973
 20
-17.6016
 30
0.0000
 42
1.0000
  0
VERTEX
  8
16
 10
25.3027
 20
-17.9584
 30
0.0000
  0
SEQEND
  8
0
  0
POLYLINE
  8
16
 66
1
 10
0.0000
 20
0.0000
 30
0.0000
 40
0.4064
 41
0.4064
 70
0
  0
VERTEX
  8
16
 10
26.5484
 20
-18.6379
 30
0.0000
 42
1.0000
  0
VERTEX
  8
16
 10
26.7430
 20
-18.2811
 30
0.0000
  0
SEQEND
  8
0
  0
POLYLINE
  8
16
 66
1
 10
0.0000
 20
0.0000
 30
0.0000
 40
0.8128
 41
0.8128
 70
0
  0
VERTEX
  8
16
 10
25.4000
 20
-17.7800
 30
0.0000
  0
VERTEX
  8
16
 10
25.4000
 20
-15.2400
 30
0.0000
  0
SEQEND
  8
0
  0
POLYLINE
  8
16
 66
1
 10
0.0000
 20
0.0000
 30
0.0000
 40
0.4064
 41
0.4064
 70
0
  0
VERTEX
  8
16
 10
25.6032
 20
-15.2400
 30
0.0000
 42
1.0000
  0
VERTEX
  8
16
 10
25.1968
 20
-15.2400
 30
0.0000
  0
SEQEND
  8
0
  0
POLYLINE
  8
16
 66
1
 10
0.0000
 20
0.0000
 30
0.0000
 40
0.4064
 41
0.4064
 70
0
  0
VERTEX
  8
16
 10
25.1968
 20
-17.7800
 30
0.0000
 42
1.0000
  0
VERTEX
  8
16
 10
25.6032
 20
-17.7800
 30
0.0000
  0
SEQEND
  8
0
  0
ENDSEC
  0
EOF
