  0
SECTION
  2
HEADER
  9
$ACADVER
  1
AC1009
  9
$DWGCODEPAGE
  3
ansi_1252
  9
$INSBASE
 10
0.0
 20
0.0
 30
0.0
  9
$EXTMIN
 10
58.35841538633116
 20
-25.00053461366882
 30
0.0
  9
$EXTMAX
 10
137.6415846136688
 20
45.00050000000001
 30
0.0
  9
$LIMMIN
 10
0.0
 20
0.0
  9
$LIMMAX
 10
12.0
 20
9.0
  9
$ORTHOMODE
 70
     0
  9
$REGENMODE
 70
     1
  9
$FILLMODE
 70
     1
  9
$QTEXTMODE
 70
     0
  9
$MIRRTEXT
 70
     1
  9
$DRAGMODE
 70
     2
  9
$LTSCALE
 40
1.0
  9
$OSMODE
 70
    37
  9
$ATTMODE
 70
     1
  9
$TEXTSIZE
 40
0.2
  9
$TRACEWID
 40
0.05
  9
$TEXTSTYLE
  7
STANDARD
  9
$CLAYER
  8
ROUTES
  9
$CELTYPE
  6
BYLAYER
  9
$CECOLOR
 62
   256
  9
$DIMSCALE
 40
1.0
  9
$DIMASZ
 40
0.18
  9
$DIMEXO
 40
0.0625
  9
$DIMDLI
 40
0.38
  9
$DIMRND
 40
0.0
  9
$DIMDLE
 40
0.0
  9
$DIMEXE
 40
0.18
  9
$DIMTP
 40
0.0
  9
$DIMTM
 40
0.0
  9
$DIMTXT
 40
0.18
  9
$DIMCEN
 40
0.09
  9
$DIMTSZ
 40
0.0
  9
$DIMTOL
 70
     0
  9
$DIMLIM
 70
     0
  9
$DIMTIH
 70
     1
  9
$DIMTOH
 70
     1
  9
$DIMSE1
 70
     0
  9
$DIMSE2
 70
     0
  9
$DIMTAD
 70
     0
  9
$DIMZIN
 70
     0
  9
$DIMBLK
  1

  9
$DIMASO
 70
     1
  9
$DIMSHO
 70
     1
  9
$DIMPOST
  1

  9
$DIMAPOST
  1

  9
$DIMALT
 70
     0
  9
$DIMALTD
 70
     2
  9
$DIMALTF
 40
25.4
  9
$DIMLFAC
 40
1.0
  9
$DIMTOFL
 70
     0
  9
$DIMTVP
 40
0.0
  9
$DIMTIX
 70
     0
  9
$DIMSOXD
 70
     0
  9
$DIMSAH
 70
     0
  9
$DIMBLK1
  1

  9
$DIMBLK2
  1

  9
$DIMSTYLE
  2
STANDARD
  9
$DIMCLRD
 70
     0
  9
$DIMCLRE
 70
     0
  9
$DIMCLRT
 70
     0
  9
$DIMTFAC
 40
1.0
  9
$DIMGAP
 40
0.09
  9
$LUNITS
 70
     2
  9
$LUPREC
 70
     3
  9
$SKETCHINC
 40
0.1
  9
$FILLETRAD
 40
0.5
  9
$AUNITS
 70
     0
  9
$AUPREC
 70
     0
  9
$MENU
  1
.
  9
$ELEVATION
 40
0.0
  9
$PELEVATION
 40
0.0
  9
$THICKNESS
 40
0.0
  9
$LIMCHECK
 70
     0
  9
$CHAMFERA
 40
0.0
  9
$CHAMFERB
 40
0.0
  9
$SKPOLY
 70
     0
  9
$TDCREATE
 40
2458633.693615567
  9
$TDUPDATE
 40
2458633.693638032
  9
$TDINDWG
 40
0.0000000116
  9
$TDUSRTIMER
 40
0.0000000116
  9
$USRTIMER
 70
     1
  9
$ANGBASE
 50
0.0
  9
$ANGDIR
 70
     0
  9
$PDMODE
 70
     0
  9
$PDSIZE
 40
0.0
  9
$PLINEWID
 40
0.0
  9
$COORDS
 70
     1
  9
$SPLFRAME
 70
     0
  9
$SPLINETYPE
 70
     6
  9
$SPLINESEGS
 70
     8
  9
$ATTDIA
 70
     0
  9
$ATTREQ
 70
     1
  9
$HANDLING
 70
     1
  9
$HANDSEED
  5
33B
  9
$SURFTAB1
 70
     6
  9
$SURFTAB2
 70
     6
  9
$SURFTYPE
 70
     6
  9
$SURFU
 70
     6
  9
$SURFV
 70
     6
  9
$UCSNAME
  2

  9
$UCSORG
 10
0.0
 20
0.0
 30
0.0
  9
$UCSXDIR
 10
1.0
 20
0.0
 30
0.0
  9
$UCSYDIR
 10
0.0
 20
1.0
 30
0.0
  9
$PUCSNAME
  2

  9
$PUCSORG
 10
0.0
 20
0.0
 30
0.0
  9
$PUCSXDIR
 10
1.0
 20
0.0
 30
0.0
  9
$PUCSYDIR
 10
0.0
 20
1.0
 30
0.0
  9
$USERI1
 70
     0
  9
$USERI2
 70
     0
  9
$USERI3
 70
     0
  9
$USERI4
 70
     0
  9
$USERI5
 70
     0
  9
$USERR1
 40
0.0
  9
$USERR2
 40
0.0
  9
$USERR3
 40
0.0
  9
$USERR4
 40
0.0
  9
$USERR5
 40
0.0
  9
$WORLDVIEW
 70
     1
  9
$SHADEDGE
 70
     3
  9
$SHADEDIF
 70
    70
  9
$TILEMODE
 70
     1
  9
$MAXACTVP
 70
    64
  9
$PLIMCHECK
 70
     0
  9
$PEXTMIN
 10
1.000000000000000E+20
 20
1.000000000000000E+20
 30
1.000000000000000E+20
  9
$PEXTMAX
 10
-1.000000000000000E+20
 20
-1.000000000000000E+20
 30
-1.000000000000000E+20
  9
$PLIMMIN
 10
0.0
 20
0.0
  9
$PLIMMAX
 10
12.0
 20
9.0
  9
$UNITMODE
 70
     0
  9
$VISRETAIN
 70
     1
  9
$PLINEGEN
 70
     0
  9
$PSLTSCALE
 70
     1
  0
ENDSEC
  0
SECTION
  2
TABLES
  0
TABLE
  2
VPORT
 70
     1
  0
VPORT
  2
*ACTIVE
 70
     0
 10
0.0
 20
0.0
 11
1.0
 21
1.0
 12
98.0
 22
9.999982693165595
 13
0.0
 23
0.0
 14
0.5
 24
0.5
 15
0.5
 25
0.5
 16
0.0
 26
0.0
 36
1.0
 17
0.0
 27
0.0
 37
0.0
 40
71.40105530594221
 41
1.132599963199063
 42
50.0
 43
0.0
 44
0.0
 50
0.0
 51
0.0
 71
     0
 72
   100
 73
     1
 74
     3
 75
     0
 76
     0
 77
     0
 78
     0
  0
ENDTAB
  0
TABLE
  2
LTYPE
 70
     1
  0
LTYPE
  2
CONTINUOUS
 70
     0
  3
Solid line
 72
    65
 73
     0
 40
0.0
  0
ENDTAB
  0
TABLE
  2
LAYER
 70
     4
  0
LAYER
  2
0
 70
     0
 62
     7
  6
CONTINUOUS
  0
LAYER
  2
ROUTES
 70
     0
 62
     5
  6
CONTINUOUS
  0
LAYER
  2
20
 70
     0
 62
    31
  6
CONTINUOUS
  0
LAYER
  2
44
 70
     0
 62
    70
  6
CONTINUOUS
  0
ENDTAB
  0
TABLE
  2
STYLE
 70
     1
  0
STYLE
  2
STANDARD
 70
     0
 40
0.0
 41
1.0
 50
0.0
 71
     0
 42
0.2
  3
txt
  4

  0
ENDTAB
  0
TABLE
  2
VIEW
 70
     0
  0
ENDTAB
  0
TABLE
  2
UCS
 70
     0
  0
ENDTAB
  0
TABLE
  2
APPID
 70
     1
  0
APPID
  2
ACAD
 70
     0
  0
ENDTAB
  0
TABLE
  2
DIMSTYLE
 70
     1
  0
DIMSTYLE
  2
STANDARD
 70
     0
  3

  4

  5

  6

  7

 40
1.0
 41
0.18
 42
0.0625
 43
0.38
 44
0.18
 45
0.0
 46
0.0
 47
0.0
 48
0.0
140
0.18
141
0.09
142
0.0
143
25.4
144
1.0
145
0.0
146
1.0
147
0.09
 71
     0
 72
     0
 73
     1
 74
     1
 75
     0
 76
     0
 77
     0
 78
     0
170
     0
171
     2
172
     0
173
     0
174
     0
175
     0
176
     0
177
     0
178
     0
  0
ENDTAB
  0
ENDSEC
  0
SECTION
  2
BLOCKS
  0
BLOCK
  8
0
  2
$MODEL_SPACE
 70
     0
 10
0.0
 20
0.0
 30
0.0
  3
$MODEL_SPACE
  1

  0
ENDBLK
  5
21
  8
0
  0
BLOCK
 67
     1
  8
0
  2
$PAPER_SPACE
 70
     0
 10
0.0
 20
0.0
 30
0.0
  3
$PAPER_SPACE
  1

  0
ENDBLK
  5
1D
 67
     1
  8
0
  0
ENDSEC
  0
SECTION
  2
ENTITIES
  0
POLYLINE
  5
6B
  8
ROUTES
 66
     1
 10
0.0
 20
0.0
 30
0.0
  0
VERTEX
  5
6C
  8
ROUTES
 10
86.90653402813655
 20
21.23133402813619
 30
0.0
 42
-4.708325515138523
  0
VERTEX
  5
6D
  8
ROUTES
 10
87.48133402813622
 20
20.65653402813658
 30
0.0
  0
VERTEX
  5
6E
  8
ROUTES
 10
86.8574
 20
20.0326
 30
0.0
 42
-0.2119986001410462
  0
VERTEX
  5
6F
  8
ROUTES
 10
86.54896971686163
 20
19.91384973072757
 30
0.0
 42
-0.0001311499524657
  0
VERTEX
  5
70
  8
ROUTES
 10
85.4684673698942
 20
19.91363368494694
 30
0.0
  0
VERTEX
  5
71
  8
ROUTES
 10
78.0864
 20
12.5316
 30
0.0
  0
VERTEX
  5
72
  8
ROUTES
 10
78.08639999999998
 20
10.795
 30
0.0
 42
-0.2119260650824975
  0
VERTEX
  5
73
  8
ROUTES
 10
77.95232262067667
 20
10.49293935890834
 30
0.0
 42
-0.0000625289471262
  0
VERTEX
  5
74
  8
ROUTES
 10
76.18141312153944
 20
8.721639364563089
 30
0.0
  0
VERTEX
  5
75
  8
ROUTES
 10
76.1814000000013
 20
5.883399999999998
 30
0.0
  0
VERTEX
  5
76
  8
ROUTES
 10
81.6584
 20
0.4063999999999993
 30
0.0
  0
VERTEX
  5
77
  8
ROUTES
 10
81.82730473351339
 20
0.4064000000000004
 30
0.0
 42
-0.2963135363443158
  0
VERTEX
  5
78
  8
ROUTES
 10
82.74099983138272
 20
0.9999999999999666
 30
0.0
  0
VERTEX
  5
79
  8
ROUTES
 10
84.04899983140828
 20
0.9999999999999716
 30
0.0
 42
-1.000000168626002
  0
VERTEX
  5
7A
  8
ROUTES
 10
84.04899983133973
 20
-0.9999999999999716
 30
0.0
  0
VERTEX
  5
7B
  8
ROUTES
 10
82.74099983140826
 20
-0.9999999999999791
 30
0.0
 42
-0.2963135363441167
  0
VERTEX
  5
7C
  8
ROUTES
 10
81.8273047335134
 20
-0.4063999999999749
 30
0.0
 42
-0.0003948004201688
  0
VERTEX
  5
7D
  8
ROUTES
 10
81.51103028313837
 20
-0.4061502692724783
 30
0.0
 42
-0.2119986001412838
  0
VERTEX
  5
7E
  8
ROUTES
 10
81.2026
 20
-0.2873999999999955
 30
0.0
  0
VERTEX
  5
7F
  8
ROUTES
 10
75.4876
 20
5.427600000000001
 30
0.0
 42
-0.2027816728130141
  0
VERTEX
  5
80
  8
ROUTES
 10
75.36860000002372
 20
5.721046488161541
 30
0.0
 42
-0.0000396659438899
  0
VERTEX
  5
81
  8
ROUTES
 10
75.36884973073029
 20
8.868969716861635
 30
0.0
 42
-0.2119985515172202
  0
VERTEX
  5
82
  8
ROUTES
 10
75.48760000001116
 20
9.177399999981454
 30
0.0
 42
0.0000031253985959
  0
VERTEX
  5
83
  8
ROUTES
 10
77.27362232829879
 20
10.96344465654693
 30
0.0
 42
-0.0000792932224106
  0
VERTEX
  5
84
  8
ROUTES
 10
77.27384973072822
 20
12.67896971686163
 30
0.0
 42
-0.211998600141953
  0
VERTEX
  5
85
  8
ROUTES
 10
77.3926
 20
12.9874
 30
0.0
  0
VERTEX
  5
86
  8
ROUTES
 10
85.01261595051493
 20
20.60738414638912
 30
0.0
 42
-0.1988747411795976
  0
VERTEX
  5
87
  8
ROUTES
 10
85.3
 20
20.72640000000001
 30
0.0
  0
VERTEX
  5
88
  8
ROUTES
 10
86.4016
 20
20.7264
 30
0.0
  0
VERTEX
  5
89
  8
ROUTES
 10
86.90653402813655
 20
21.23133402813619
 30
0.0
  0
SEQEND
  5
8A
  8
ROUTES
  0
POLYLINE
  5
8B
  8
ROUTES
 66
     1
 10
0.0
 20
0.0
 30
0.0
  0
VERTEX
  5
8C
  8
ROUTES
 10
104.6286952664865
 20
-16.73860000000002
 30
0.0
  0
VERTEX
  5
8D
  8
ROUTES
 10
106.6113047335134
 20
-16.7386
 30
0.0
 42
-4.708895832890124
  0
VERTEX
  5
8E
  8
ROUTES
 10
106.6113047335134
 20
-17.55139999999999
 30
0.0
  0
VERTEX
  5
8F
  8
ROUTES
 10
104.6286952664866
 20
-17.5514
 30
0.0
 42
-0.3991588544211506
  0
VERTEX
  5
90
  8
ROUTES
 10
103.3563340281019
 20
-18.07846597186488
 30
0.0
 42
-0.0000031440352289
  0
VERTEX
  5
91
  8
ROUTES
 10
100.8273840494803
 20
-20.60738414642402
 30
0.0
 42
-0.198874741129446
  0
VERTEX
  5
92
  8
ROUTES
 10
100.54
 20
-20.72639999999798
 30
0.0
 42
-0.0000282247346222
  0
VERTEX
  5
93
  8
ROUTES
 10
96.11603028313837
 20
-20.72615026927088
 30
0.0
 42
-0.211998600150657
  0
VERTEX
  5
94
  8
ROUTES
 10
95.80760000000897
 20
-20.60739999999102
 30
0.0
 42
-0.0000041737541844
  0
VERTEX
  5
95
  8
ROUTES
 10
93.90261585362896
 20
-18.70238404946576
 30
0.0
 42
-0.1988746920086789
  0
VERTEX
  5
96
  8
ROUTES
 10
93.7836
 20
-18.415
 30
0.0
  0
VERTEX
  5
97
  8
ROUTES
 10
93.78359999999951
 20
-5.248400000046729
 30
0.0
  0
VERTEX
  5
98
  8
ROUTES
 10
92.75158670937526
 20
-4.216393354733318
 30
0.0
 42
-0.0000208078523282
  0
VERTEX
  5
99
  8
ROUTES
 10
86.59103028313837
 20
-4.21615026926157
 30
0.0
 42
-0.2119986001583156
  0
VERTEX
  5
9A
  8
ROUTES
 10
86.2826
 20
-4.0974
 30
0.0
  0
VERTEX
  5
9B
  8
ROUTES
 10
85.1316
 20
-2.946400000000001
 30
0.0
  0
VERTEX
  5
9C
  8
ROUTES
 10
84.96269526648659
 20
-2.946399999999997
 30
0.0
 42
-0.2963137228371322
  0
VERTEX
  5
9D
  8
ROUTES
 10
84.04899983141179
 20
-3.539999999999972
 30
0.0
  0
VERTEX
  5
9E
  8
ROUTES
 10
82.74099983141193
 20
-3.539999999999971
 30
0.0
 42
-0.9999995785274828
  0
VERTEX
  5
9F
  8
ROUTES
 10
82.74099983140425
 20
-1.540000000000038
 30
0.0
  0
VERTEX
  5
A0
  8
ROUTES
 10
84.04899983134503
 20
-1.540000000000018
 30
0.0
 42
-0.2963137440859941
  0
VERTEX
  5
A1
  8
ROUTES
 10
84.96269526648658
 20
-2.133600000000003
 30
0.0
  0
VERTEX
  5
A2
  8
ROUTES
 10
85.3
 20
-2.133600000000011
 30
0.0
 42
-0.2119260650818622
  0
VERTEX
  5
A3
  8
ROUTES
 10
85.60206064109194
 20
-2.267677379323315
 30
0.0
 42
-0.0001004018243463
  0
VERTEX
  5
A4
  8
ROUTES
 10
86.73834071337433
 20
-3.403580237779854
 30
0.0
  0
VERTEX
  5
A5
  8
ROUTES
 10
92.92000000000002
 20
-3.403599999961445
 30
0.0
 42
-0.2119260688217787
  0
VERTEX
  5
A6
  8
ROUTES
 10
93.22206064109254
 20
-3.537677379323486
 30
0.0
 42
-0.0001680040741835
  0
VERTEX
  5
A7
  8
ROUTES
 10
94.46232262067656
 20
-4.777939358907588
 30
0.0
  0
VERTEX
  5
A8
  8
ROUTES
 10
94.47050579701003
 20
-4.78554789090415
 30
0.0
  0
VERTEX
  5
A9
  8
ROUTES
 10
94.47848000508995
 20
-4.793381150626874
 30
0.0
  0
VERTEX
  5
AA
  8
ROUTES
 10
94.4862361075524
 20
-4.80143034812533
 30
0.0
  0
VERTEX
  5
AB
  8
ROUTES
 10
94.49376546327053
 20
-4.809686205351319
 30
0.0
  0
VERTEX
  5
AC
  8
ROUTES
 10
94.50105995940137
 20
-4.818138991760624
 30
0.0
  0
VERTEX
  5
AD
  8
ROUTES
 10
94.50811204036337
 20
-4.826778562383894
 30
0.0
  0
VERTEX
  5
AE
  8
ROUTES
 10
94.51491473352931
 20
-4.835594398055211
 30
0.0
  0
VERTEX
  5
AF
  8
ROUTES
 10
94.52146167145389
 20
-4.844575647466147
 30
0.0
  0
VERTEX
  5
B0
  8
ROUTES
 10
94.52774711049439
 20
-4.853711170697119
 30
0.0
  0
VERTEX
  5
B1
  8
ROUTES
 10
94.53376594572188
 20
-4.862989583866646
 30
0.0
  0
VERTEX
  5
B2
  8
ROUTES
 10
94.5395137220605
 20
-4.872399304532941
 30
0.0
  0
VERTEX
  5
B3
  8
ROUTES
 10
94.54498664163285
 20
-4.88192859748111
 30
0.0
  0
VERTEX
  5
B4
  8
ROUTES
 10
94.55018156732952
 20
-4.891565620532957
 30
0.0
  0
VERTEX
  5
B5
  8
ROUTES
 10
94.55509602265893
 20
-4.90129847002482
 30
0.0
  0
VERTEX
  5
B6
  8
ROUTES
 10
94.55972818797005
 20
-4.911115225611751
 30
0.0
  0
VERTEX
  5
B7
  8
ROUTES
 10
94.56407689317562
 20
-4.921003994073345
 30
0.0
  0
VERTEX
  5
B8
  8
ROUTES
 10
94.56814160713442
 20
-4.930952951817065
 30
0.0
  0
VERTEX
  5
B9
  8
ROUTES
 10
94.57192242387914
 20
-4.940950385798768
 30
0.0
  0
VERTEX
  5
BA
  8
ROUTES
 10
94.57542004590145
 20
-4.950984732606494
 30
0.0
  0
VERTEX
  5
BB
  8
ROUTES
 10
94.57863576472658
 20
-4.961044615482156
 30
0.0
  0
VERTEX
  5
BC
  8
ROUTES
 10
94.58157143902653
 20
-4.971118879085837
 30
0.0
  0
VERTEX
  5
BD
  8
ROUTES
 10
94.58422947053398
 20
-4.981196621838434
 30
0.0
  0
VERTEX
  5
BE
  8
ROUTES
 10
94.586612778028
 20
-4.991267225709921
 30
0.0
  0
VERTEX
  5
BF
  8
ROUTES
 10
94.58872476966776
 20
-5.00132038335189
 30
0.0
  0
VERTEX
  5
C0
  8
ROUTES
 10
94.59056931395173
 20
-5.011346122503956
 30
0.0
  0
VERTEX
  5
C1
  8
ROUTES
 10
94.59215070957775
 20
-5.021334827633407
 30
0.0
  0
VERTEX
  5
C2
  8
ROUTES
 10
94.59347365447425
 20
-5.031277258796075
 30
0.0
  0
VERTEX
  5
C3
  8
ROUTES
 10
94.59454321426419
 20
-5.041164567733082
 30
0.0
  0
VERTEX
  5
C4
  8
ROUTES
 10
94.59536479041316
 20
-5.050988311243009
 30
0.0
  0
VERTEX
  5
C5
  8
ROUTES
 10
94.59594408829922
 20
-5.06074046189156
 30
0.0
  0
VERTEX
  5
C6
  8
ROUTES
 10
94.59628708542805
 20
-5.070413416141078
 30
0.0
  0
VERTEX
  5
C7
  8
ROUTES
 10
94.5963984206272
 20
-18.2465968412544
 30
0.0
  0
VERTEX
  5
C8
  8
ROUTES
 10
96.2634
 20
-19.9136
 30
0.0
  0
VERTEX
  5
C9
  8
ROUTES
 10
100.3716
 20
-19.9136
 30
0.0
  0
VERTEX
  5
CA
  8
ROUTES
 10
102.7815340281365
 20
-17.50366597186381
 30
0.0
 42
-0.9744920136075998
  0
VERTEX
  5
CB
  8
ROUTES
 10
104.6286952664866
 20
-16.73860000000002
 30
0.0
  0
SEQEND
  5
CC
  8
ROUTES
  0
POLYLINE
  5
CD
  8
ROUTES
 66
     1
 10
0.0
 20
0.0
 30
0.0
  0
VERTEX
  5
CE
  8
ROUTES
 10
82.74100016862214
 20
-16.78000000000003
 30
0.0
  0
VERTEX
  5
CF
  8
ROUTES
 10
84.04899983140174
 20
-16.78000000000003
 30
0.0
 42
-1.000000168602313
  0
VERTEX
  5
D0
  8
ROUTES
 10
84.0489998313937
 20
-18.77999999999997
 30
0.0
  0
VERTEX
  5
D1
  8
ROUTES
 10
82.74099983141144
 20
-18.77999999999997
 30
0.0
 42
-0.9999997471363605
  0
VERTEX
  5
D2
  8
ROUTES
 10
82.74100016862214
 20
-16.78000000000004
 30
0.0
  0
SEQEND
  5
D3
  8
ROUTES
  0
POLYLINE
  5
D4
  8
ROUTES
 66
     1
 10
0.0
 20
0.0
 30
0.0
  0
VERTEX
  5
D5
  8
ROUTES
 10
95.0536
 20
37.7698
 30
0.0
 42
-8.000000000000643
  0
VERTEX
  5
D6
  8
ROUTES
 10
95.86639999999998
 20
37.76979999999998
 30
0.0
  0
VERTEX
  5
D7
  8
ROUTES
 10
95.8664
 20
25.6786952664866
 30
0.0
 42
-4.708895832890176
  0
VERTEX
  5
D8
  8
ROUTES
 10
95.0536
 20
25.67869526648659
 30
0.0
  0
VERTEX
  5
D9
  8
ROUTES
 10
95.0536
 20
37.7698
 30
0.0
  0
SEQEND
  5
DA
  8
ROUTES
  0
POLYLINE
  5
DB
  8
ROUTES
 66
     1
 10
0.0
 20
0.0
 30
0.0
  0
VERTEX
  5
DC
  8
ROUTES
 10
96.32360000000001
 20
21.94630473351341
 30
0.0
 42
-4.708895832890325
  0
VERTEX
  5
DD
  8
ROUTES
 10
97.13639999999982
 20
21.94630473351341
 30
0.0
 42
-0.0001286907589484
  0
VERTEX
  5
DE
  8
ROUTES
 10
97.13615026927279
 20
20.97603028313837
 30
0.0
 42
-0.2119985477020054
  0
VERTEX
  5
DF
  8
ROUTES
 10
97.0174
 20
20.6676
 30
0.0
  0
VERTEX
  5
E0
  8
ROUTES
 10
96.39346597186349
 20
20.04366597186382
 30
0.0
 42
-0.6496345566321127
  0
VERTEX
  5
E1
  8
ROUTES
 10
95.10133402813618
 20
18.75153402813654
 30
0.0
  0
VERTEX
  5
E2
  8
ROUTES
 10
94.52609119323108
 20
18.17629119323108
 30
0.0
 42
-3.983325692873307
  0
VERTEX
  5
E3
  8
ROUTES
 10
94.29156584489273
 20
19.09136584489271
 30
0.0
  0
VERTEX
  5
E4
  8
ROUTES
 10
94.52653402813654
 20
19.32633402813619
 30
0.0
 42
-0.6496345566319985
  0
VERTEX
  5
E5
  8
ROUTES
 10
95.81866597186381
 20
20.61846597186343
 30
0.0
  0
VERTEX
  5
E6
  8
ROUTES
 10
96.3236
 20
21.1234
 30
0.0
  0
VERTEX
  5
E7
  8
ROUTES
 10
96.32360000000001
 20
21.94630473351341
 30
0.0
  0
SEQEND
  5
E8
  8
ROUTES
  0
POLYLINE
  5
E9
  8
ROUTES
 66
     1
 10
0.0
 20
0.0
 30
0.0
  0
VERTEX
  5
EA
  8
ROUTES
 10
74.14564511779855
 20
-10.26610545811663
 30
0.0
 42
-4.709131597660267
  0
VERTEX
  5
EB
  8
ROUTES
 10
74.55286876925071
 20
-10.96949176517046
 30
0.0
  0
VERTEX
  5
EC
  8
ROUTES
 10
64.66347105372152
 20
-16.69493254784544
 30
0.0
 42
-8.000377593670779
  0
VERTEX
  5
ED
  8
ROUTES
 10
64.25624740226921
 20
-15.9915462407915
 30
0.0
  0
VERTEX
  5
EE
  8
ROUTES
 10
74.14564511779855
 20
-10.26610545811663
 30
0.0
  0
SEQEND
  5
EF
  8
ROUTES
  0
POLYLINE
  5
F0
  8
ROUTES
 66
     1
 10
0.0
 20
0.0
 30
0.0
  0
VERTEX
  5
F1
  8
ROUTES
 10
99.49860000000001
 20
37.7698
 30
0.0
 42
-8.00000000000008
  0
VERTEX
  5
F2
  8
ROUTES
 10
100.3114
 20
37.7698
 30
0.0
  0
VERTEX
  5
F3
  8
ROUTES
 10
100.3114
 20
28.21869526648659
 30
0.0
 42
-4.708895832890325
  0
VERTEX
  5
F4
  8
ROUTES
 10
99.49860000000001
 20
28.21869526648659
 30
0.0
  0
VERTEX
  5
F5
  8
ROUTES
 10
99.49860000000001
 20
37.7698
 30
0.0
  0
SEQEND
  5
F6
  8
ROUTES
  0
POLYLINE
  5
F7
  8
ROUTES
 66
     1
 10
0.0
 20
0.0
 30
0.0
  0
VERTEX
  5
F8
  8
ROUTES
 10
129.1895271353434
 20
-20.45129651363066
 30
0.0
 42
-8.000566804314277
  0
VERTEX
  5
F9
  8
ROUTES
 10
128.7910701620497
 20
-21.15966446615293
 30
0.0
  0
VERTEX
  5
FA
  8
ROUTES
 10
120.1186
 20
-16.2814
 30
0.0
  0
VERTEX
  5
FB
  8
ROUTES
 10
110.3436952664866
 20
-16.2814
 30
0.0
 42
-4.708895832890628
  0
VERTEX
  5
FC
  8
ROUTES
 10
110.3436952664866
 20
-15.46860000000001
 30
0.0
  0
VERTEX
  5
FD
  8
ROUTES
 10
120.225
 20
-15.4686
 30
0.0
  0
VERTEX
  5
FE
  8
ROUTES
 10
120.4476003077912
 20
-15.53446411044366
 30
0.0
 42
-0.0000217871359333
  0
VERTEX
  5
FF
  8
ROUTES
 10
129.1895271353351
 20
-20.45129651363823
 30
0.0
  0
SEQEND
  5
100
  8
ROUTES
  0
POLYLINE
  5
102
  8
20
 66
     1
 10
0.0
 20
0.0
 30
0.0
  0
VERTEX
  5
103
  8
20
 10
119.9947
 20
-18.4727
 30
0.0
 42
0.3178000000000024
  0
VERTEX
  5
104
  8
20
 10
114.2461
 20
-19.00240000000002
 30
0.0
 42
-0.3692000000000012
  0
VERTEX
  5
105
  8
20
 10
81.7539
 20
-19.00240000000001
 30
0.0
 42
0.3177999999999952
  0
VERTEX
  5
106
  8
20
 10
76.0053
 20
-18.4727
 30
0.0
 42
-1.000000000039556
  0
VERTEX
  5
107
  8
20
 10
76.00489999999999
 20
-18.47180000000002
 30
0.0
 42
-0.3178000000000054
  0
VERTEX
  5
108
  8
20
 10
81.7546
 20
-19.00160000000001
 30
0.0
 42
-0.9999999999811359
  0
VERTEX
  5
109
  8
20
 10
81.7539
 20
-19.00240000000001
 30
0.0
 42
-0.9999999999811359
  0
VERTEX
  5
10A
  8
20
 10
81.75460000000001
 20
-19.00159999999999
 30
0.0
 42
0.3692000000000026
  0
VERTEX
  5
10B
  8
20
 10
114.2454
 20
-19.0016
 30
0.0
 42
-0.3177999999999984
  0
VERTEX
  5
10C
  8
20
 10
119.9951
 20
-18.47179999999998
 30
0.0
 42
-0.9999999999688681
  0
VERTEX
  5
10D
  8
20
 10
119.9947
 20
-18.47269999999999
 30
0.0
  0
SEQEND
  5
10E
  8
20
  0
POLYLINE
  5
10F
  8
20
 66
     1
 10
0.0
 20
0.0
 30
0.0
  0
VERTEX
  5
110
  8
20
 10
124.9951
 20
-9.811599999999999
 30
0.0
  0
VERTEX
  5
111
  8
20
 10
135.1413
 20
-15.6694
 30
0.0
 42
0.9999999999993295
  0
VERTEX
  5
112
  8
20
 10
135.1408
 20
-15.6703
 30
0.0
  0
VERTEX
  5
113
  8
20
 10
124.9947
 20
-9.8124
 30
0.0
 42
0.9999999999893415
  0
VERTEX
  5
114
  8
20
 10
124.9951
 20
-9.811599999999995
 30
0.0
 42
0.9999999999893415
  0
VERTEX
  5
115
  8
20
 10
124.9947
 20
-9.8124
 30
0.0
 42
-0.3177999999999966
  0
VERTEX
  5
116
  8
20
 10
122.5786
 20
-4.568099999999998
 30
0.0
 42
0.3692000000000013
  0
VERTEX
  5
117
  8
20
 10
106.3332
 20
23.56980000000001
 30
0.0
 42
-0.3178000000000005
  0
VERTEX
  5
118
  8
20
 10
102.9995
 20
28.2843
 30
0.0
 42
-1.000000000014211
  0
VERTEX
  5
119
  8
20
 10
103.0005
 20
28.2843
 30
0.0
 42
0.3177999999999991
  0
VERTEX
  5
11A
  8
20
 10
106.3335
 20
23.5707
 30
0.0
 42
-0.3692000000000019
  0
VERTEX
  5
11B
  8
20
 10
122.5796
 20
-4.568300000000001
 30
0.0
 42
0.317800000000001
  0
VERTEX
  5
11C
  8
20
 10
124.9951
 20
-9.811599999999999
 30
0.0
  0
SEQEND
  5
11D
  8
20
  0
POLYLINE
  5
11E
  8
ROUTES
 66
     1
 10
0.0
 20
0.0
 30
0.0
  0
VERTEX
  5
11F
  8
ROUTES
 10
82.74100016858746
 20
6.079999999999971
 30
0.0
  0
VERTEX
  5
120
  8
ROUTES
 10
84.04899983141192
 20
6.079999999999972
 30
0.0
 42
-1.000000084294062
  0
VERTEX
  5
121
  8
ROUTES
 10
84.049
 20
4.079999999999997
 30
0.0
  0
VERTEX
  5
122
  8
ROUTES
 10
82.74100016858762
 20
4.080000000000028
 30
0.0
 42
-1.000000084293714
  0
VERTEX
  5
123
  8
ROUTES
 10
82.74100016858746
 20
6.07999999999997
 30
0.0
  0
SEQEND
  5
124
  8
ROUTES
  0
POLYLINE
  5
125
  8
ROUTES
 66
     1
 10
0.0
 20
0.0
 30
0.0
  0
VERTEX
  5
126
  8
ROUTES
 10
114.9161502692732
 20
0.6139697168616323
 30
0.0
 42
-0.0000118972994882
  0
VERTEX
  5
127
  8
ROUTES
 10
114.9164000000228
 20
-9.88130473351344
 30
0.0
 42
-1.455583454939509
  0
VERTEX
  5
128
  8
ROUTES
 10
113.5963047335134
 20
-11.2014
 30
0.0
  0
VERTEX
  5
129
  8
ROUTES
 10
109.5984
 20
-11.2014
 30
0.0
  0
VERTEX
  5
12A
  8
ROUTES
 10
107.9314
 20
-12.8684
 30
0.0
  0
VERTEX
  5
12B
  8
ROUTES
 10
107.9314
 20
-13.6913047335134
 30
0.0
 42
-1.455583454953022
  0
VERTEX
  5
12C
  8
ROUTES
 10
106.6113047335134
 20
-15.01139999999999
 30
0.0
  0
VERTEX
  5
12D
  8
ROUTES
 10
101.9784
 20
-15.0114
 30
0.0
  0
VERTEX
  5
12E
  8
ROUTES
 10
101.8513658448927
 20
-15.13843415510726
 30
0.0
 42
-3.983325692873427
  0
VERTEX
  5
12F
  8
ROUTES
 10
100.9362911932311
 20
-14.90390880676891
 30
0.0
  0
VERTEX
  5
130
  8
ROUTES
 10
101.5226
 20
-14.31759999999999
 30
0.0
 42
-0.2119985476982594
  0
VERTEX
  5
131
  8
ROUTES
 10
101.8310302831383
 20
-14.19884973072744
 30
0.0
 42
-0.0000261209553014
  0
VERTEX
  5
132
  8
ROUTES
 10
106.6113047335134
 20
-14.19860000000335
 30
0.0
 42
-0.185529615797921
  0
VERTEX
  5
133
  8
ROUTES
 10
107.1186000000003
 20
-13.6913047335134
 30
0.0
 42
-0.0001286907280914
  0
VERTEX
  5
134
  8
ROUTES
 10
107.1188497307276
 20
-12.72103028313837
 30
0.0
 42
-0.2119985514924484
  0
VERTEX
  5
135
  8
ROUTES
 10
107.2376000000008
 20
-12.41260000001282
 30
0.0
 42
-0.0000041737648977
  0
VERTEX
  5
136
  8
ROUTES
 10
109.1426156749658
 20
-10.5076161291654
 30
0.0
 42
-0.1988747515246857
  0
VERTEX
  5
137
  8
ROUTES
 10
109.43
 20
-10.38859999999999
 30
0.0
  0
VERTEX
  5
138
  8
ROUTES
 10
113.5963047335134
 20
-10.38860000000001
 30
0.0
 42
-0.1855296157962774
  0
VERTEX
  5
139
  8
ROUTES
 10
114.1036
 20
-9.881304733513407
 30
0.0
  0
VERTEX
  5
13A
  8
ROUTES
 10
114.1035999999941
 20
0.4665999999999508
 30
0.0
 42
0.0000205878110589
  0
VERTEX
  5
13B
  8
ROUTES
 10
111.1661162089731
 20
3.403841895515097
 30
0.0
 42
-0.0000261089738815
  0
VERTEX
  5
13C
  8
ROUTES
 10
106.5336952664866
 20
3.403600000005099
 30
0.0
 42
-4.708895832920529
  0
VERTEX
  5
13D
  8
ROUTES
 10
106.5336952664866
 20
4.216400000000002
 30
0.0
  0
VERTEX
  5
13E
  8
ROUTES
 10
111.1666
 20
4.2164
 30
0.0
  0
VERTEX
  5
13F
  8
ROUTES
 10
111.5636
 20
4.613399999999999
 30
0.0
  0
VERTEX
  5
140
  8
ROUTES
 10
111.5636
 20
12.84130473351341
 30
0.0
 42
-0.6496695580820264
  0
VERTEX
  5
141
  8
ROUTES
 10
111.5636
 20
14.6686952664866
 30
0.0
  0
VERTEX
  5
142
  8
ROUTES
 10
111.563599999981
 20
15.70660000003052
 30
0.0
  0
VERTEX
  5
143
  8
ROUTES
 10
109.8965897845337
 20
17.37360510777789
 30
0.0
 42
-0.0000157979415955
  0
VERTEX
  5
144
  8
ROUTES
 10
101.8310302831384
 20
17.37384973073495
 30
0.0
 42
-0.2119985916727102
  0
VERTEX
  5
145
  8
ROUTES
 10
101.5225997729063
 20
17.49260022709369
 30
0.0
  0
VERTEX
  5
146
  8
ROUTES
 10
100.2636659718638
 20
18.75153402813655
 30
0.0
 42
-0.1855041552812283
  0
VERTEX
  5
147
  8
ROUTES
 10
99.54633402804829
 20
18.75153402816258
 30
0.0
 42
-0.0000025130322659
  0
VERTEX
  5
148
  8
ROUTES
 10
96.38238404947333
 20
15.58761585358298
 30
0.0
 42
-0.1988746463286877
  0
VERTEX
  5
149
  8
ROUTES
 10
96.09499999999998
 20
15.468599999993
 30
0.0
 42
-0.0000144985971577
  0
VERTEX
  5
14A
  8
ROUTES
 10
89.12811741122202
 20
15.46880202007014
 30
0.0
  0
VERTEX
  5
14B
  8
ROUTES
 10
89.091882588778
 20
15.46880202007723
 30
0.0
 42
-0.000023719717315
  0
VERTEX
  5
14C
  8
ROUTES
 10
84.8334
 20
15.46860000000015
 30
0.0
  0
VERTEX
  5
14D
  8
ROUTES
 10
83.1664
 20
13.8016
 30
0.0
  0
VERTEX
  5
14E
  8
ROUTES
 10
83.1664
 20
11.16
 30
0.0
  0
VERTEX
  5
14F
  8
ROUTES
 10
84.04899983141254
 20
11.15999999999998
 30
0.0
 42
-1.000000168592806
  0
VERTEX
  5
150
  8
ROUTES
 10
84.04899983140189
 20
9.160000000000013
 30
0.0
  0
VERTEX
  5
151
  8
ROUTES
 10
82.74100016861048
 20
9.160000000000027
 30
0.0
 42
-0.8185428613753206
  0
VERTEX
  5
152
  8
ROUTES
 10
82.3536
 20
11.08191173113266
 30
0.0
  0
VERTEX
  5
153
  8
ROUTES
 10
82.35360000000001
 20
13.97
 30
0.0
 42
-0.2119261175039668
  0
VERTEX
  5
154
  8
ROUTES
 10
82.4876773793234
 20
14.27206064109216
 30
0.0
  0
VERTEX
  5
155
  8
ROUTES
 10
84.38445938354823
 20
16.16909964264213
 30
0.0
  0
VERTEX
  5
156
  8
ROUTES
 10
84.39154255680964
 20
16.1756975758191
 30
0.0
  0
VERTEX
  5
157
  8
ROUTES
 10
84.39884884373748
 20
16.18218432650634
 30
0.0
  0
VERTEX
  5
158
  8
ROUTES
 10
84.40637709429254
 20
16.18855028820379
 30
0.0
  0
VERTEX
  5
159
  8
ROUTES
 10
84.41412566620912
 20
16.19478574717137
 30
0.0
  0
VERTEX
  5
15A
  8
ROUTES
 10
84.42209240826652
 20
16.20088091066753
 30
0.0
  0
VERTEX
  5
15B
  8
ROUTES
 10
84.43027464528232
 20
16.20682593711509
 30
0.0
  0
VERTEX
  5
15C
  8
ROUTES
 10
84.43866916504403
 20
16.21261096809489
 30
0.0
  0
VERTEX
  5
15D
  8
ROUTES
 10
84.44727220739082
 20
16.21822616204263
 30
0.0
  0
VERTEX
  5
15E
  8
ROUTES
 10
84.45607945565148
 20
16.22366172949929
 30
0.0
  0
VERTEX
  5
15F
  8
ROUTES
 10
84.46508603063356
 20
16.22890796974022
 30
0.0
  0
VERTEX
  5
160
  8
ROUTES
 10
84.47428648734652
 20
16.23395530858316
 30
0.0
  0
VERTEX
  5
161
  8
ROUTES
 10
84.48367481462506
 20
16.23879433715178
 30
0.0
  0
VERTEX
  5
162
  8
ROUTES
 10
84.49324443779872
 20
16.24341585134846
 30
0.0
  0
VERTEX
  5
163
  8
ROUTES
 10
84.50298822453169
 20
16.24781089176915
 30
0.0
  0
VERTEX
  5
164
  8
ROUTES
 10
84.51289849393045
 20
16.25197078377484
 30
0.0
  0
VERTEX
  5
165
  8
ROUTES
 10
84.52296702898879
 20
16.25588717741791
 30
0.0
  0
VERTEX
  5
166
  8
ROUTES
 10
84.53318509240779
 20
16.25955208690893
 30
0.0
  0
VERTEX
  5
167
  8
ROUTES
 10
84.54354344579603
 20
16.26295792930021
 30
0.0
  0
VERTEX
  5
168
  8
ROUTES
 10
84.55403237221991
 20
16.26609756205692
 30
0.0
  0
VERTEX
  5
169
  8
ROUTES
 10
84.56464170203769
 20
16.26896431918538
 30
0.0
  0
VERTEX
  5
16A
  8
ROUTES
 10
84.57536084191463
 20
16.27155204559113
 30
0.0
  0
VERTEX
  5
16B
  8
ROUTES
 10
84.58617880687949
 20
16.27385512934728
 30
0.0
  0
VERTEX
  5
16C
  8
ROUTES
 10
84.59708425524614
 20
16.27586853156568
 30
0.0
  0
VERTEX
  5
16D
  8
ROUTES
 10
84.60806552618983
 20
16.27758781358025
 30
0.0
  0
VERTEX
  5
16E
  8
ROUTES
 10
84.61911067973337
 20
16.27900916117344
 30
0.0
  0
VERTEX
  5
16F
  8
ROUTES
 10
84.63020753886882
 20
16.28012940560171
 30
0.0
  0
VERTEX
  5
170
  8
ROUTES
 10
84.6413437335119
 20
16.28094604120578
 30
0.0
  0
VERTEX
  5
171
  8
ROUTES
 10
84.65250674596233
 20
16.28145723942391
 30
0.0
  0
VERTEX
  5
172
  8
ROUTES
 10
84.6636839575237
 20
16.28166185906245
 30
0.0
  0
VERTEX
  5
173
  8
ROUTES
 10
84.67486269592032
 20
16.28155945271623
 30
0.0
  0
VERTEX
  5
174
  8
ROUTES
 10
84.68603028313836
 20
16.28115026927173
 30
0.0
 42
-0.0000308233408005
  0
VERTEX
  5
175
  8
ROUTES
 10
88.70362678606816
 20
16.28140205585805
 30
0.0
 42
-0.0000408738201788
  0
VERTEX
  5
176
  8
ROUTES
 10
88.70384973072942
 20
19.66396971686164
 30
0.0
 42
-0.211998600143754
  0
VERTEX
  5
177
  8
ROUTES
 10
88.8226
 20
19.9724
 30
0.0
  0
VERTEX
  5
178
  8
ROUTES
 10
91.9976
 20
23.14740000000001
 30
0.0
 42
-0.211998600141672
  0
VERTEX
  5
179
  8
ROUTES
 10
92.30603028313836
 20
23.26615026927234
 30
0.0
 42
-0.0001286907596679
  0
VERTEX
  5
17A
  8
ROUTES
 10
93.2763047335134
 20
23.26639999999998
 30
0.0
 42
-4.708895832890664
  0
VERTEX
  5
17B
  8
ROUTES
 10
93.27630473351344
 20
22.45360000000001
 30
0.0
  0
VERTEX
  5
17C
  8
ROUTES
 10
92.4534
 20
22.4536
 30
0.0
  0
VERTEX
  5
17D
  8
ROUTES
 10
89.51640000000002
 20
19.5166
 30
0.0
 42
-0.0000139382547741
  0
VERTEX
  5
17E
  8
ROUTES
 10
89.51630981392373
 20
16.2814
 30
0.0
  0
VERTEX
  5
17F
  8
ROUTES
 10
95.9266
 20
16.2814
 30
0.0
  0
VERTEX
  5
180
  8
ROUTES
 10
98.97153402813653
 20
19.32633402813619
 30
0.0
 42
-1.455506695280304
  0
VERTEX
  5
181
  8
ROUTES
 10
100.8384659718635
 20
19.32633402813618
 30
0.0
  0
VERTEX
  5
182
  8
ROUTES
 10
101.9784
 20
18.1864
 30
0.0
  0
VERTEX
  5
183
  8
ROUTES
 10
110.065
 20
18.18640000000001
 30
0.0
 42
-0.2119260650836498
  0
VERTEX
  5
184
  8
ROUTES
 10
110.3670606410922
 20
18.0523226206766
 30
0.0
  0
VERTEX
  5
185
  8
ROUTES
 10
112.2640996426421
 20
16.15554061645175
 30
0.0
  0
VERTEX
  5
186
  8
ROUTES
 10
112.2706975758191
 20
16.14845744319036
 30
0.0
  0
VERTEX
  5
187
  8
ROUTES
 10
112.2771843265064
 20
16.1411511562625
 30
0.0
  0
VERTEX
  5
188
  8
ROUTES
 10
112.2835502882038
 20
16.13362290570746
 30
0.0
  0
VERTEX
  5
189
  8
ROUTES
 10
112.2897857471714
 20
16.12587433379089
 30
0.0
  0
VERTEX
  5
18A
  8
ROUTES
 10
112.2958809106676
 20
16.1179075917335
 30
0.0
  0
VERTEX
  5
18B
  8
ROUTES
 10
112.3018259371152
 20
16.10972535471768
 30
0.0
  0
VERTEX
  5
18C
  8
ROUTES
 10
112.307610968095
 20
16.10133083495598
 30
0.0
  0
VERTEX
  5
18D
  8
ROUTES
 10
112.3132261620427
 20
16.09272779260918
 30
0.0
  0
VERTEX
  5
18E
  8
ROUTES
 10
112.3186617294994
 20
16.08392054434852
 30
0.0
  0
VERTEX
  5
18F
  8
ROUTES
 10
112.3239079697404
 20
16.07491396936646
 30
0.0
  0
VERTEX
  5
190
  8
ROUTES
 10
112.3289553085833
 20
16.06571351265349
 30
0.0
  0
VERTEX
  5
191
  8
ROUTES
 10
112.333794337152
 20
16.05632518537493
 30
0.0
  0
VERTEX
  5
192
  8
ROUTES
 10
112.3384158513487
 20
16.04675556220126
 30
0.0
  0
VERTEX
  5
193
  8
ROUTES
 10
112.3428108917694
 20
16.03701177546832
 30
0.0
  0
VERTEX
  5
194
  8
ROUTES
 10
112.3469707837751
 20
16.02710150606955
 30
0.0
  0
VERTEX
  5
195
  8
ROUTES
 10
112.3508871774182
 20
16.01703297101121
 30
0.0
  0
VERTEX
  5
196
  8
ROUTES
 10
112.3545520869093
 20
16.00681490759222
 30
0.0
  0
VERTEX
  5
197
  8
ROUTES
 10
112.3579579293006
 20
15.99645655420395
 30
0.0
  0
VERTEX
  5
198
  8
ROUTES
 10
112.3610975620574
 20
15.98596762778006
 30
0.0
  0
VERTEX
  5
199
  8
ROUTES
 10
112.3639643191859
 20
15.97535829796229
 30
0.0
  0
VERTEX
  5
19A
  8
ROUTES
 10
112.3665520455916
 20
15.96463915808535
 30
0.0
  0
VERTEX
  5
19B
  8
ROUTES
 10
112.3688551293478
 20
15.9538211931205
 30
0.0
  0
VERTEX
  5
19C
  8
ROUTES
 10
112.3708685315663
 20
15.94291574475384
 30
0.0
  0
VERTEX
  5
19D
  8
ROUTES
 10
112.3725878135809
 20
15.93193447381016
 30
0.0
  0
VERTEX
  5
19E
  8
ROUTES
 10
112.3740091611742
 20
15.92088932026663
 30
0.0
  0
VERTEX
  5
19F
  8
ROUTES
 10
112.3751294056026
 20
15.90979246113117
 30
0.0
  0
VERTEX
  5
1A0
  8
ROUTES
 10
112.3759460412067
 20
15.89865626648809
 30
0.0
  0
VERTEX
  5
1A1
  8
ROUTES
 10
112.3764572394249
 20
15.88749325403766
 30
0.0
  0
VERTEX
  5
1A2
  8
ROUTES
 10
112.3766618590635
 20
15.8763160424763
 30
0.0
  0
VERTEX
  5
1A3
  8
ROUTES
 10
112.3765594527173
 20
15.86513730407968
 30
0.0
  0
VERTEX
  5
1A4
  8
ROUTES
 10
112.3761502692722
 20
15.85396971686164
 30
0.0
 42
-0.0001053471858126
  0
VERTEX
  5
1A5
  8
ROUTES
 10
112.3763999999996
 20
14.66869526648659
 30
0.0
 42
-0.649669558082179
  0
VERTEX
  5
1A6
  8
ROUTES
 10
112.3764
 20
12.84130473351343
 30
0.0
  0
VERTEX
  5
1A7
  8
ROUTES
 10
112.3764
 20
4.445
 30
0.0
 42
-0.211926117503237
  0
VERTEX
  5
1A8
  8
ROUTES
 10
112.2423226206766
 20
4.142939358907825
 30
0.0
 42
-0.0005421788130847
  0
VERTEX
  5
1A9
  8
ROUTES
 10
111.9096330717667
 20
3.810137999952474
 30
0.0
  0
VERTEX
  5
1AA
  8
ROUTES
 10
114.804099641053
 20
0.9155406180421269
 30
0.0
  0
VERTEX
  5
1AB
  8
ROUTES
 10
114.8106975726842
 20
0.908457446331617
 30
0.0
  0
VERTEX
  5
1AC
  8
ROUTES
 10
114.8171843218757
 20
0.9011511609105511
 30
0.0
  0
VERTEX
  5
1AD
  8
ROUTES
 10
114.8235502821341
 20
0.8936229118133027
 30
0.0
  0
VERTEX
  5
1AE
  8
ROUTES
 10
114.8297857397264
 20
0.8858743413003034
 30
0.0
  0
VERTEX
  5
1AF
  8
ROUTES
 10
114.8358809019176
 20
0.8779076005867468
 30
0.0
  0
VERTEX
  5
1B0
  8
ROUTES
 10
114.8418259271378
 20
0.8697253648491988
 30
0.0
  0
VERTEX
  5
1B1
  8
ROUTES
 10
114.8476109569744
 20
0.8613308462940811
 30
0.0
  0
VERTEX
  5
1B2
  8
ROUTES
 10
114.8532261498702
 20
0.8527278050757685
 30
0.0
  0
VERTEX
  5
1B3
  8
ROUTES
 10
114.8586617163728
 20
0.8439205578588238
 30
0.0
  0
VERTEX
  5
1B4
  8
ROUTES
 10
114.8639079557641
 20
0.8349139838287702
 30
0.0
  0
VERTEX
  5
1B5
  8
ROUTES
 10
114.8689552938683
 20
0.8257135279689347
 30
0.0
  0
VERTEX
  5
1B6
  8
ROUTES
 10
114.8737943218152
 20
0.8163252014372655
 30
0.0
  0
VERTEX
  5
1B7
  8
ROUTES
 10
114.878415835513
 20
0.8067555788966838
 30
0.0
  0
VERTEX
  5
1B8
  8
ROUTES
 10
114.8828108755632
 20
0.7970117926753199
 30
0.0
  0
VERTEX
  5
1B9
  8
ROUTES
 10
114.8869707673319
 20
0.7871015236588236
 30
0.0
  0
VERTEX
  5
1BA
  8
ROUTES
 10
114.8908871608762
 20
0.7770329888455416
 30
0.0
  0
VERTEX
  5
1BB
  8
ROUTES
 10
114.8945520704108
 20
0.766814925526467
 30
0.0
  0
VERTEX
  5
1BC
  8
ROUTES
 10
114.8979579129918
 20
0.7564565720850889
 30
0.0
  0
VERTEX
  5
1BD
  8
ROUTES
 10
114.9010975460875
 20
0.7459676454471974
 30
0.0
  0
VERTEX
  5
1BE
  8
ROUTES
 10
114.9039643037067
 20
0.7353583152467917
 30
0.0
  0
VERTEX
  5
1BF
  8
ROUTES
 10
114.9065520307569
 20
0.7246391748110046
 30
0.0
  0
VERTEX
  5
1C0
  8
ROUTES
 10
114.9088551153126
 20
0.713821209103746
 30
0.0
  0
VERTEX
  5
1C1
  8
ROUTES
 10
114.910868518486
 20
0.7029157598040093
 30
0.0
  0
VERTEX
  5
1C2
  8
ROUTES
 10
114.9125878016111
 20
0.6919344877298094
 30
0.0
  0
VERTEX
  5
1C3
  8
ROUTES
 10
114.9140091504696
 20
0.6808893328519166
 30
0.0
  0
VERTEX
  5
1C4
  8
ROUTES
 10
114.9151293963162
 20
0.6697924721722793
 30
0.0
  0
VERTEX
  5
1C5
  8
ROUTES
 10
114.9159460334897
 20
0.6586562757697102
 30
0.0
  0
VERTEX
  5
1C6
  8
ROUTES
 10
114.9164572334252
 20
0.6474932613395071
 30
0.0
  0
VERTEX
  5
1C7
  8
ROUTES
 10
114.9166618549255
 20
0.6363160475737007
 30
0.0
  0
VERTEX
  5
1C8
  8
ROUTES
 10
114.9165594505812
 20
0.625137306744171
 30
0.0
  0
VERTEX
  5
1C9
  8
ROUTES
 10
114.9161502692732
 20
0.6139697168616324
 30
0.0
  0
SEQEND
  5
1CA
  8
ROUTES
  0
POLYLINE
  5
1CB
  8
ROUTES
 66
     1
 10
0.0
 20
0.0
 30
0.0
  0
VERTEX
  5
1CC
  8
ROUTES
 10
82.74100016860422
 20
3.539999999999972
 30
0.0
  0
VERTEX
  5
1CD
  8
ROUTES
 10
84.04899983140828
 20
3.539999999999972
 30
0.0
 42
-1.000000168590226
  0
VERTEX
  5
1CE
  8
ROUTES
 10
84.04899983141132
 20
1.540000000000044
 30
0.0
  0
VERTEX
  5
1CF
  8
ROUTES
 10
82.74099983141153
 20
1.540000000000028
 30
0.0
 42
-0.9999997471274008
  0
VERTEX
  5
1D0
  8
ROUTES
 10
82.74100016860422
 20
3.53999999999996
 30
0.0
  0
SEQEND
  5
1D1
  8
ROUTES
  0
POLYLINE
  5
1D2
  8
ROUTES
 66
     1
 10
0.0
 20
0.0
 30
0.0
  0
VERTEX
  5
1D3
  8
ROUTES
 10
97.98099983141014
 20
11.15999999999997
 30
0.0
  0
VERTEX
  5
1D4
  8
ROUTES
 10
99.289
 20
11.16
 30
0.0
 42
-1.000000084322328
  0
VERTEX
  5
1D5
  8
ROUTES
 10
99.28899983135528
 20
9.160000000000032
 30
0.0
  0
VERTEX
  5
1D6
  8
ROUTES
 10
97.981000168613
 20
9.160000000000029
 30
0.0
 42
-0.9999999157050564
  0
VERTEX
  5
1D7
  8
ROUTES
 10
97.98099983141013
 20
11.15999999999998
 30
0.0
  0
SEQEND
  5
1D8
  8
ROUTES
  0
POLYLINE
  5
1D9
  8
ROUTES
 66
     1
 10
0.0
 20
0.0
 30
0.0
  0
VERTEX
  5
1DA
  8
ROUTES
 10
86.55100016859902
 20
-7.890000000000028
 30
0.0
  0
VERTEX
  5
1DB
  8
ROUTES
 10
87.85900016859756
 20
-7.890000000000029
 30
0.0
 42
-0.9999999999999999
  0
VERTEX
  5
1DC
  8
ROUTES
 10
87.85899983140243
 20
-9.89
 30
0.0
  0
VERTEX
  5
1DD
  8
ROUTES
 10
86.55100016858745
 20
-9.889999999999972
 30
0.0
 42
-1.000000084299518
  0
VERTEX
  5
1DE
  8
ROUTES
 10
86.55100016859902
 20
-7.890000000000025
 30
0.0
  0
SEQEND
  5
1DF
  8
ROUTES
  0
POLYLINE
  5
1E0
  8
ROUTES
 66
     1
 10
0.0
 20
0.0
 30
0.0
  0
VERTEX
  5
1E1
  8
ROUTES
 10
86.55100016858765
 20
-10.43000000000003
 30
0.0
  0
VERTEX
  5
1E2
  8
ROUTES
 10
87.85899983141223
 20
-10.43000000000003
 30
0.0
 42
-1.000000168587839
  0
VERTEX
  5
1E3
  8
ROUTES
 10
87.85899983141215
 20
-12.42999999999998
 30
0.0
  0
VERTEX
  5
1E4
  8
ROUTES
 10
86.55099983141244
 20
-12.42999999999997
 30
0.0
 42
-0.9999999157064713
  0
VERTEX
  5
1E5
  8
ROUTES
 10
86.55100016858765
 20
-10.43000000000003
 30
0.0
  0
SEQEND
  5
1E6
  8
ROUTES
  0
POLYLINE
  5
1E7
  8
ROUTES
 66
     1
 10
0.0
 20
0.0
 30
0.0
  0
VERTEX
  5
1E8
  8
ROUTES
 10
88.7726952664866
 20
1.676399999999998
 30
0.0
  0
VERTEX
  5
1E9
  8
ROUTES
 10
104.7063047335134
 20
1.676399999999997
 30
0.0
 42
-4.708895832889959
  0
VERTEX
  5
1EA
  8
ROUTES
 10
104.7063047335133
 20
0.8635999999999829
 30
0.0
  0
VERTEX
  5
1EB
  8
ROUTES
 10
88.77269526648658
 20
0.8636000000000001
 30
0.0
 42
-0.296313604973731
  0
VERTEX
  5
1EC
  8
ROUTES
 10
87.85900016859841
 20
0.2700000000000191
 30
0.0
  0
VERTEX
  5
1ED
  8
ROUTES
 10
86.55099983141139
 20
0.2700000000000284
 30
0.0
 42
-0.9999997471236063
  0
VERTEX
  5
1EE
  8
ROUTES
 10
86.55100016859664
 20
2.269999999999968
 30
0.0
  0
VERTEX
  5
1EF
  8
ROUTES
 10
87.85900016858832
 20
2.269999999999971
 30
0.0
 42
-0.2963136049736356
  0
VERTEX
  5
1F0
  8
ROUTES
 10
88.7726952664866
 20
1.6764
 30
0.0
  0
SEQEND
  5
1F1
  8
ROUTES
  0
POLYLINE
  5
1F2
  8
ROUTES
 66
     1
 10
0.0
 20
0.0
 30
0.0
  0
VERTEX
  5
1F3
  8
ROUTES
 10
131.7518093712332
 20
-15.98335257131362
 30
0.0
 42
-7.999341934644411
  0
VERTEX
  5
1F4
  8
ROUTES
 10
131.3396705537524
 20
-16.68398856103085
 30
0.0
  0
VERTEX
  5
1F5
  8
ROUTES
 10
122.711463380252
 20
-11.60857257661881
 30
0.0
 42
-4.708484943276497
  0
VERTEX
  5
1F6
  8
ROUTES
 10
123.1236021977326
 20
-10.90793658690152
 30
0.0
  0
VERTEX
  5
1F7
  8
ROUTES
 10
131.7518093712332
 20
-15.98335257131362
 30
0.0
  0
SEQEND
  5
1F8
  8
ROUTES
  0
POLYLINE
  5
1F9
  8
ROUTES
 66
     1
 10
0.0
 20
0.0
 30
0.0
  0
VERTEX
  5
1FA
  8
ROUTES
 10
88.7726952664866
 20
-0.8635999999999987
 30
0.0
  0
VERTEX
  5
1FB
  8
ROUTES
 10
104.7063047335134
 20
-0.8636000000000021
 30
0.0
 42
-4.708895832890278
  0
VERTEX
  5
1FC
  8
ROUTES
 10
104.7063047335134
 20
-1.676400000000001
 30
0.0
  0
VERTEX
  5
1FD
  8
ROUTES
 10
88.7726952664866
 20
-1.676400000000003
 30
0.0
 42
-0.2963136049739211
  0
VERTEX
  5
1FE
  8
ROUTES
 10
87.8590001686172
 20
-2.269999999999973
 30
0.0
  0
VERTEX
  5
1FF
  8
ROUTES
 10
86.5510001686034
 20
-2.269999999999972
 30
0.0
 42
-1.000000084304869
  0
VERTEX
  5
200
  8
ROUTES
 10
86.5510001686098
 20
-0.2700000000000427
 30
0.0
  0
VERTEX
  5
201
  8
ROUTES
 10
87.85899983140021
 20
-0.2700000000000331
 30
0.0
 42
-0.2963137440710355
  0
VERTEX
  5
202
  8
ROUTES
 10
88.77269526648658
 20
-0.863600000000002
 30
0.0
  0
SEQEND
  5
203
  8
ROUTES
  0
POLYLINE
  5
204
  8
ROUTES
 66
     1
 10
0.0
 20
0.0
 30
0.0
  0
VERTEX
  5
205
  8
ROUTES
 10
72.1936
 20
-16.15369526648659
 30
0.0
 42
-4.70889583289001
  0
VERTEX
  5
206
  8
ROUTES
 10
73.0064
 20
-16.15369526648658
 30
0.0
  0
VERTEX
  5
207
  8
ROUTES
 10
73.0064
 20
-17.77620000069272
 30
0.0
 42
-0.2769839644967489
  0
VERTEX
  5
208
  8
ROUTES
 10
72.7946
 20
-18.1368
 30
0.0
  0
VERTEX
  5
209
  8
ROUTES
 10
71.54890014849902
 20
-18.81629991899728
 30
0.0
  0
VERTEX
  5
20A
  8
ROUTES
 10
67.21442004716607
 20
-21.18054119532811
 30
0.0
 42
-7.999639206978547
  0
VERTEX
  5
20B
  8
ROUTES
 10
66.82519463501279
 20
-20.46695505638187
 30
0.0
  0
VERTEX
  5
20C
  8
ROUTES
 10
71.1597
 20
-18.1027
 30
0.0
  0
VERTEX
  5
20D
  8
ROUTES
 10
72.1936
 20
-17.53873190976961
 30
0.0
  0
VERTEX
  5
20E
  8
ROUTES
 10
72.1936
 20
-16.15369526648659
 30
0.0
  0
SEQEND
  5
20F
  8
ROUTES
  0
POLYLINE
  5
210
  8
20
 66
     1
 10
0.0
 20
0.0
 30
0.0
  0
VERTEX
  5
211
  8
20
 10
71.0053
 20
-9.8124
 30
0.0
  0
VERTEX
  5
212
  8
20
 10
60.8592
 20
-15.6703
 30
0.0
 42
0.99999999998961
  0
VERTEX
  5
213
  8
20
 10
60.8587
 20
-15.6694
 30
0.0
  0
VERTEX
  5
214
  8
20
 10
71.0049
 20
-9.811600000000002
 30
0.0
 42
0.3177999999999993
  0
VERTEX
  5
215
  8
20
 10
73.4204
 20
-4.568300000000002
 30
0.0
 42
-1.00000000001059
  0
VERTEX
  5
216
  8
20
 10
73.4214
 20
-4.5681
 30
0.0
 42
-1.00000000001059
  0
VERTEX
  5
217
  8
20
 10
73.42040000000001
 20
-4.568299999999999
 30
0.0
 42
-0.3692000000000022
  0
VERTEX
  5
218
  8
20
 10
89.66649999999998
 20
23.5707
 30
0.0
 42
0.3178000000000019
  0
VERTEX
  5
219
  8
20
 10
92.9995
 20
28.28430000000001
 30
0.0
 42
-1.000000000010658
  0
VERTEX
  5
21A
  8
20
 10
93.0005
 20
28.2843
 30
0.0
 42
-0.3178000000000021
  0
VERTEX
  5
21B
  8
20
 10
89.6668
 20
23.5698
 30
0.0
 42
0.369200000000001
  0
VERTEX
  5
21C
  8
20
 10
73.4214
 20
-4.5681
 30
0.0
 42
-0.3178000000000073
  0
VERTEX
  5
21D
  8
20
 10
71.00529999999998
 20
-9.812400000000004
 30
0.0
 42
-0.9999999999964474
  0
VERTEX
  5
21E
  8
20
 10
71.00489999999999
 20
-9.811599999999999
 30
0.0
 42
-0.9999999999964474
  0
VERTEX
  5
21F
  8
20
 10
71.00529999999998
 20
-9.812400000000004
 30
0.0
  0
SEQEND
  5
220
  8
20
  0
POLYLINE
  5
221
  8
ROUTES
 66
     1
 10
0.0
 20
0.0
 30
0.0
  0
VERTEX
  5
222
  8
ROUTES
 10
82.74099983141238
 20
-4.080000000000028
 30
0.0
  0
VERTEX
  5
223
  8
ROUTES
 10
84.04899983141205
 20
-4.080000000000028
 30
0.0
 42
-1.000000084293983
  0
VERTEX
  5
224
  8
ROUTES
 10
84.049
 20
-6.079999999999993
 30
0.0
  0
VERTEX
  5
225
  8
ROUTES
 10
82.74100016858797
 20
-6.079999999999973
 30
0.0
 42
-0.2963136501970263
  0
VERTEX
  5
226
  8
ROUTES
 10
81.8273047335134
 20
-5.486399999998073
 30
0.0
 42
-0.0000244624488042
  0
VERTEX
  5
227
  8
ROUTES
 10
77.69811741122203
 20
-5.486197979924327
 30
0.0
  0
VERTEX
  5
228
  8
ROUTES
 10
77.4514
 20
-5.416010416505227
 30
0.0
  0
VERTEX
  5
229
  8
ROUTES
 10
77.4514
 20
-7.97630473351341
 30
0.0
 42
-4.708895832890325
  0
VERTEX
  5
22A
  8
ROUTES
 10
76.6386
 20
-7.976304733513409
 30
0.0
  0
VERTEX
  5
22B
  8
ROUTES
 10
76.6386
 20
-4.445
 30
0.0
 42
-0.2119260650827789
  0
VERTEX
  5
22C
  8
ROUTES
 10
76.7726773793234
 20
-4.142939358907787
 30
0.0
 42
-0.0002478599114934
  0
VERTEX
  5
22D
  8
ROUTES
 10
77.27355998813034
 20
-3.641720035603669
 30
0.0
 42
0.0000059487898127
  0
VERTEX
  5
22E
  8
ROUTES
 10
77.273600000015
 20
-0.2786952664865848
 30
0.0
 42
-4.708895832926395
  0
VERTEX
  5
22F
  8
ROUTES
 10
78.08639999999559
 20
-0.2786952664865892
 30
0.0
 42
-0.000035571391007
  0
VERTEX
  5
230
  8
ROUTES
 10
78.08615026927146
 20
-3.788969716861635
 30
0.0
  0
VERTEX
  5
231
  8
ROUTES
 10
78.08615026927254
 20
-3.831030283138366
 30
0.0
 42
-0.0001964170201143
  0
VERTEX
  5
232
  8
ROUTES
 10
78.08631874056982
 20
-4.6736
 30
0.0
  0
VERTEX
  5
233
  8
ROUTES
 10
81.8273047335134
 20
-4.673599999999998
 30
0.0
 42
-0.2963135323339295
  0
VERTEX
  5
234
  8
ROUTES
 10
82.74099983141238
 20
-4.080000000000028
 30
0.0
  0
SEQEND
  5
235
  8
ROUTES
  0
POLYLINE
  5
236
  8
ROUTES
 66
     1
 10
0.0
 20
0.0
 30
0.0
  0
VERTEX
  5
237
  8
ROUTES
 10
82.74099983139857
 20
-6.620000000000029
 30
0.0
  0
VERTEX
  5
238
  8
ROUTES
 10
84.04900016858744
 20
-6.620000000000028
 30
0.0
 42
-0.9999999999999932
  0
VERTEX
  5
239
  8
ROUTES
 10
84.04899983141263
 20
-8.61999999999999
 30
0.0
  0
VERTEX
  5
23A
  8
ROUTES
 10
82.7409998314028
 20
-8.619999999999973
 30
0.0
 42
-0.9999997471119738
  0
VERTEX
  5
23B
  8
ROUTES
 10
82.74099983139857
 20
-6.620000000000026
 30
0.0
  0
SEQEND
  5
23C
  8
ROUTES
  0
POLYLINE
  5
23D
  8
ROUTES
 66
     1
 10
0.0
 20
0.0
 30
0.0
  0
VERTEX
  5
23E
  8
ROUTES
 10
82.7410001685919
 20
-9.160000000000027
 30
0.0
  0
VERTEX
  5
23F
  8
ROUTES
 10
84.04900016860172
 20
-9.160000000000029
 30
0.0
 42
-0.9999999999999928
  0
VERTEX
  5
240
  8
ROUTES
 10
84.04899983139832
 20
-11.15999999999999
 30
0.0
  0
VERTEX
  5
241
  8
ROUTES
 10
82.74099983141232
 20
-11.15999999999997
 30
0.0
 42
-0.9999999157085956
  0
VERTEX
  5
242
  8
ROUTES
 10
82.7410001685919
 20
-9.160000000000043
 30
0.0
  0
SEQEND
  5
243
  8
ROUTES
  0
POLYLINE
  5
244
  8
ROUTES
 66
     1
 10
0.0
 20
0.0
 30
0.0
  0
VERTEX
  5
245
  8
ROUTES
 10
82.74099983141252
 20
-11.70000000000003
 30
0.0
  0
VERTEX
  5
246
  8
ROUTES
 10
84.04899983141235
 20
-11.70000000000003
 30
0.0
 42
-0.9999999999999999
  0
VERTEX
  5
247
  8
ROUTES
 10
84.04900016858767
 20
-13.69999999999998
 30
0.0
  0
VERTEX
  5
248
  8
ROUTES
 10
82.741
 20
-13.7
 30
0.0
 42
-0.999999915706259
  0
VERTEX
  5
249
  8
ROUTES
 10
82.74099983141252
 20
-11.70000000000002
 30
0.0
  0
SEQEND
  5
24A
  8
ROUTES
  0
CIRCLE
  5
24B
  8
20
 10
-89.66665000000002
 20
23.57025000000001
 30
0.0
 40
0.0004743416490264
210
0.0
220
0.0
230
-1.0
  0
POLYLINE
  5
24C
  8
ROUTES
 66
     1
 10
0.0
 20
0.0
 30
0.0
  0
VERTEX
  5
24D
  8
ROUTES
 10
100.5189697168616
 20
-21.81884973073677
 30
0.0
 42
-0.2018523149928974
  0
VERTEX
  5
24E
  8
ROUTES
 10
100.8160207551219
 20
-21.92665445747745
 30
0.0
 42
-4.029665371927798
  0
VERTEX
  5
24F
  8
ROUTES
 10
100.2014795636454
 20
-22.63140000000611
 30
0.0
 42
-0.0000171980182126
  0
VERTEX
  5
250
  8
ROUTES
 10
92.94103028313836
 20
-22.63115026926971
 30
0.0
  0
VERTEX
  5
251
  8
ROUTES
 10
92.92986269325574
 20
-22.63155945057789
 30
0.0
  0
VERTEX
  5
252
  8
ROUTES
 10
92.91868395242619
 20
-22.63166185492238
 30
0.0
  0
VERTEX
  5
253
  8
ROUTES
 10
92.90750673866035
 20
-22.63145723342221
 30
0.0
  0
VERTEX
  5
254
  8
ROUTES
 10
92.89634372423009
 20
-22.63094603348686
 30
0.0
  0
VERTEX
  5
255
  8
ROUTES
 10
92.88520752782752
 20
-22.63012939631358
 30
0.0
  0
VERTEX
  5
256
  8
ROUTES
 10
92.87411066714783
 20
-22.62900915046705
 30
0.0
  0
VERTEX
  5
257
  8
ROUTES
 10
92.86306551226991
 20
-22.62758780160878
 30
0.0
  0
VERTEX
  5
258
  8
ROUTES
 10
92.8520842401957
 20
-22.6258685184838
 30
0.0
  0
VERTEX
  5
259
  8
ROUTES
 10
92.84117879089595
 20
-22.62385511531049
 30
0.0
  0
VERTEX
  5
25A
  8
ROUTES
 10
92.83036082518866
 20
-22.621552030755
 30
0.0
  0
VERTEX
  5
25B
  8
ROUTES
 10
92.81964168475285
 20
-22.61896430370491
 30
0.0
  0
VERTEX
  5
25C
  8
ROUTES
 10
92.80903235455247
 20
-22.61609754608583
 30
0.0
  0
VERTEX
  5
25D
  8
ROUTES
 10
92.79854342791455
 20
-22.61295791299028
 30
0.0
  0
VERTEX
  5
25E
  8
ROUTES
 10
92.78818507447319
 20
-22.60955207040941
 30
0.0
  0
VERTEX
  5
25F
  8
ROUTES
 10
92.77796701115412
 20
-22.6058871608749
 30
0.0
  0
VERTEX
  5
260
  8
ROUTES
 10
92.76789847634085
 20
-22.60197076733075
 30
0.0
  0
VERTEX
  5
261
  8
ROUTES
 10
92.75798820732435
 20
-22.59781087556216
 30
0.0
  0
VERTEX
  5
262
  8
ROUTES
 10
92.74824442110298
 20
-22.59341583551207
 30
0.0
  0
VERTEX
  5
263
  8
ROUTES
 10
92.73867479856243
 20
-22.58879432181436
 30
0.0
  0
VERTEX
  5
264
  8
ROUTES
 10
92.72928647203076
 20
-22.58395529386755
 30
0.0
  0
VERTEX
  5
265
  8
ROUTES
 10
92.72008601617094
 20
-22.57890795576344
 30
0.0
  0
VERTEX
  5
266
  8
ROUTES
 10
92.7110794421409
 20
-22.5736617163722
 30
0.0
  0
VERTEX
  5
267
  8
ROUTES
 10
92.70227219492398
 20
-22.56822614986969
 30
0.0
  0
VERTEX
  5
268
  8
ROUTES
 10
92.69366915370571
 20
-22.562610956974
 30
0.0
  0
VERTEX
  5
269
  8
ROUTES
 10
92.68527463515059
 20
-22.5568259271374
 30
0.0
  0
VERTEX
  5
26A
  8
ROUTES
 10
92.67709239941306
 20
-22.55088090191735
 30
0.0
  0
VERTEX
  5
26B
  8
ROUTES
 10
92.66912565869953
 20
-22.54478573972612
 30
0.0
  0
VERTEX
  5
26C
  8
ROUTES
 10
92.66137708818658
 20
-22.53855028213398
 30
0.0
  0
VERTEX
  5
26D
  8
ROUTES
 10
92.65384883908936
 20
-22.53218432187557
 30
0.0
  0
VERTEX
  5
26E
  8
ROUTES
 10
92.64654255366833
 20
-22.52569757268412
 30
0.0
  0
VERTEX
  5
26F
  8
ROUTES
 10
92.63945938195783
 20
-22.51909964105295
 30
0.0
  0
VERTEX
  5
270
  8
ROUTES
 10
85.76660533634147
 20
-15.64640177878634
 30
0.0
  0
VERTEX
  5
271
  8
ROUTES
 10
84.9626952664866
 20
-15.64639999999781
 30
0.0
 42
-0.296313532335258
  0
VERTEX
  5
272
  8
ROUTES
 10
84.049000168595
 20
-16.23999999999997
 30
0.0
  0
VERTEX
  5
273
  8
ROUTES
 10
82.74099983139766
 20
-16.23999999999999
 30
0.0
 42
-0.2963135363441921
  0
VERTEX
  5
274
  8
ROUTES
 10
81.82730473351337
 20
-15.6464
 30
0.0
  0
VERTEX
  5
275
  8
ROUTES
 10
81.1336952664866
 20
-15.64639999999999
 30
0.0
 42
-0.6496695580820454
  0
VERTEX
  5
276
  8
ROUTES
 10
79.3063047335134
 20
-15.64639999999999
 30
0.0
  0
VERTEX
  5
277
  8
ROUTES
 10
78.315
 20
-15.6464
 30
0.0
 42
-0.211926117502487
  0
VERTEX
  5
278
  8
ROUTES
 10
78.01293935890786
 20
-15.51232262067661
 30
0.0
  0
VERTEX
  5
279
  8
ROUTES
 10
76.75090035894704
 20
-14.25054061804216
 30
0.0
  0
VERTEX
  5
27A
  8
ROUTES
 10
76.74430242731587
 20
-14.24345744633168
 30
0.0
  0
VERTEX
  5
27B
  8
ROUTES
 10
76.73781567812439
 20
-14.23615116091064
 30
0.0
  0
VERTEX
  5
27C
  8
ROUTES
 10
76.73144971786596
 20
-14.22862291181342
 30
0.0
  0
VERTEX
  5
27D
  8
ROUTES
 10
76.72521426027379
 20
-14.22087434130045
 30
0.0
  0
VERTEX
  5
27E
  8
ROUTES
 10
76.71911909808253
 20
-14.21290760058692
 30
0.0
  0
VERTEX
  5
27F
  8
ROUTES
 10
76.71317407286246
 20
-14.2047253648494
 30
0.0
  0
VERTEX
  5
280
  8
ROUTES
 10
76.70738904302581
 20
-14.19633084629431
 30
0.0
  0
VERTEX
  5
281
  8
ROUTES
 10
76.70177385013005
 20
-14.18772780507602
 30
0.0
  0
VERTEX
  5
282
  8
ROUTES
 10
76.6963382836275
 20
-14.1789205578591
 30
0.0
  0
VERTEX
  5
283
  8
ROUTES
 10
76.6910920442362
 20
-14.16991398382906
 30
0.0
  0
VERTEX
  5
284
  8
ROUTES
 10
76.68604470613202
 20
-14.16071352796924
 30
0.0
  0
VERTEX
  5
285
  8
ROUTES
 10
76.68120567818514
 20
-14.15132520143759
 30
0.0
  0
VERTEX
  5
286
  8
ROUTES
 10
76.67658416448734
 20
-14.14175557889702
 30
0.0
  0
VERTEX
  5
287
  8
ROUTES
 10
76.67218912443717
 20
-14.13201179267567
 30
0.0
  0
VERTEX
  5
288
  8
ROUTES
 10
76.66802923266849
 20
-14.12210152365918
 30
0.0
  0
VERTEX
  5
289
  8
ROUTES
 10
76.66411283912423
 20
-14.1120329888459
 30
0.0
  0
VERTEX
  5
28A
  8
ROUTES
 10
76.6604479295896
 20
-14.10181492552683
 30
0.0
  0
VERTEX
  5
28B
  8
ROUTES
 10
76.65704208700862
 20
-14.09145657208545
 30
0.0
  0
VERTEX
  5
28C
  8
ROUTES
 10
76.65390245391295
 20
-14.08096764544755
 30
0.0
  0
VERTEX
  5
28D
  8
ROUTES
 10
76.65103569629373
 20
-14.07035831524714
 30
0.0
  0
VERTEX
  5
28E
  8
ROUTES
 10
76.64844796924349
 20
-14.05963917481134
 30
0.0
  0
VERTEX
  5
28F
  8
ROUTES
 10
76.64614488468787
 20
-14.04882120910407
 30
0.0
  0
VERTEX
  5
290
  8
ROUTES
 10
76.6441314815144
 20
-14.03791575980431
 30
0.0
  0
VERTEX
  5
291
  8
ROUTES
 10
76.64241219838928
 20
-14.02693448773009
 30
0.0
  0
VERTEX
  5
292
  8
ROUTES
 10
76.64099084953084
 20
-14.01588933285217
 30
0.0
  0
VERTEX
  5
293
  8
ROUTES
 10
76.63987060368413
 20
-14.0047924721725
 30
0.0
  0
VERTEX
  5
294
  8
ROUTES
 10
76.63905396651069
 20
-13.9936562757699
 30
0.0
  0
VERTEX
  5
295
  8
ROUTES
 10
76.63854276657514
 20
-13.98249326133966
 30
0.0
  0
VERTEX
  5
296
  8
ROUTES
 10
76.63833814507477
 20
-13.97131604757381
 30
0.0
  0
VERTEX
  5
297
  8
ROUTES
 10
76.63844054941909
 20
-13.96013730674423
 30
0.0
  0
VERTEX
  5
298
  8
ROUTES
 10
76.63884973072742
 20
-13.94896971686164
 30
0.0
 42
-0.0000777844328735
  0
VERTEX
  5
299
  8
ROUTES
 10
76.63859999999931
 20
-12.3436952664866
 30
0.0
 42
-4.708895832890067
  0
VERTEX
  5
29A
  8
ROUTES
 10
77.45139999999998
 20
-12.34369526648658
 30
0.0
  0
VERTEX
  5
29B
  8
ROUTES
 10
77.4514
 20
-13.8016
 30
0.0
  0
VERTEX
  5
29C
  8
ROUTES
 10
78.4834
 20
-14.8336
 30
0.0
  0
VERTEX
  5
29D
  8
ROUTES
 10
79.3063047335134
 20
-14.83360000000001
 30
0.0
 42
-0.6496695580820535
  0
VERTEX
  5
29E
  8
ROUTES
 10
81.13369526648657
 20
-14.83360000000001
 30
0.0
  0
VERTEX
  5
29F
  8
ROUTES
 10
81.82730473351339
 20
-14.8336
 30
0.0
 42
-0.2963135323339613
  0
VERTEX
  5
2A0
  8
ROUTES
 10
82.74099983140795
 20
-14.24000000000004
 30
0.0
  0
VERTEX
  5
2A1
  8
ROUTES
 10
84.04900016860367
 20
-14.24000000000002
 30
0.0
 42
-0.296313532334048
  0
VERTEX
  5
2A2
  8
ROUTES
 10
84.9626952664866
 20
-14.83360000000003
 30
0.0
 42
-0.0001312611261322
  0
VERTEX
  5
2A3
  8
ROUTES
 10
85.91396971686163
 20
-14.83384973072747
 30
0.0
 42
-0.2119985477023051
  0
VERTEX
  5
2A4
  8
ROUTES
 10
86.2224
 20
-14.9526
 30
0.0
  0
VERTEX
  5
2A5
  8
ROUTES
 10
93.08839900600772
 20
-21.81859950301227
 30
0.0
 42
-0.0000167708377147
  0
VERTEX
  5
2A6
  8
ROUTES
 10
100.5189697168616
 20
-21.81884973074193
 30
0.0
  0
SEQEND
  5
2A7
  8
ROUTES
  0
POLYLINE
  5
2A8
  8
20
 66
     1
 10
0.0
 20
0.0
 30
0.0
  0
VERTEX
  5
2A9
  8
20
 10
92.9995
 20
40.0
 30
0.0
 42
-1.000000000014211
  0
VERTEX
  5
2AA
  8
20
 10
93.0005
 20
40.0
 30
0.0
 42
-0.9999999999999988
  0
VERTEX
  5
2AB
  8
20
 10
102.9995
 20
40.0
 30
0.0
 42
1.000000000014211
  0
VERTEX
  5
2AC
  8
20
 10
103.0005
 20
40.0
 30
0.0
  0
VERTEX
  5
2AD
  8
20
 10
103.0005
 20
28.2843
 30
0.0
 42
-1.000000000014211
  0
VERTEX
  5
2AE
  8
20
 10
102.9995
 20
28.2843
 30
0.0
  0
VERTEX
  5
2AF
  8
20
 10
102.9995
 20
40.0
 30
0.0
 42
-1.000000000014211
  0
VERTEX
  5
2B0
  8
20
 10
103.0005
 20
40.0
 30
0.0
 42
1.000000000000002
  0
VERTEX
  5
2B1
  8
20
 10
92.9995
 20
40.0
 30
0.0
 42
1.000000000014211
  0
VERTEX
  5
2B2
  8
20
 10
93.0005
 20
40.0
 30
0.0
  0
VERTEX
  5
2B3
  8
20
 10
93.0005
 20
28.2843
 30
0.0
 42
-1.000000000014211
  0
VERTEX
  5
2B4
  8
20
 10
92.9995
 20
28.2843
 30
0.0
  0
VERTEX
  5
2B5
  8
20
 10
92.9995
 20
40.0
 30
0.0
  0
SEQEND
  5
2B6
  8
20
  0
POLYLINE
  5
2B7
  8
20
 66
     1
 10
0.0
 20
0.0
 30
0.0
  0
VERTEX
  5
2B8
  8
20
 10
135.1408
 20
-15.67029999999999
 30
0.0
 42
1.000000000004022
  0
VERTEX
  5
2B9
  8
20
 10
135.1413
 20
-15.6694
 30
0.0
 42
-0.9999999999999994
  0
VERTEX
  5
2BA
  8
20
 10
130.1408
 20
-24.3306
 30
0.0
  0
VERTEX
  5
2BB
  8
20
 10
119.9946
 20
-18.47269999999999
 30
0.0
 42
-0.999999999979048
  0
VERTEX
  5
2BC
  8
20
 10
119.9952
 20
-18.4718
 30
0.0
  0
VERTEX
  5
2BD
  8
20
 10
130.1413
 20
-24.3297
 30
0.0
 42
0.9999999999986592
  0
VERTEX
  5
2BE
  8
20
 10
130.1408
 20
-24.33059999999999
 30
0.0
 42
0.9999999999986592
  0
VERTEX
  5
2BF
  8
20
 10
130.1413
 20
-24.32969999999999
 30
0.0
 42
0.9999999999999999
  0
VERTEX
  5
2C0
  8
20
 10
135.1408
 20
-15.67029999999999
 30
0.0
  0
SEQEND
  5
2C1
  8
20
  0
CIRCLE
  5
2C2
  8
20
 10
-114.24575
 20
-19.00200000000001
 30
0.0
 40
0.0005315072906343
210
0.0
220
0.0
230
-1.0
  0
POLYLINE
  5
2C3
  8
ROUTES
 66
     1
 10
0.0
 20
0.0
 30
0.0
  0
VERTEX
  5
2C4
  8
ROUTES
 10
97.98100016858749
 20
-4.080000000000028
 30
0.0
  0
VERTEX
  5
2C5
  8
ROUTES
 10
99.2889998314126
 20
-4.080000000000028
 30
0.0
 42
-1.000000168587604
  0
VERTEX
  5
2C6
  8
ROUTES
 10
99.28899983141226
 20
-6.079999999999981
 30
0.0
  0
VERTEX
  5
2C7
  8
ROUTES
 10
97.98099983141259
 20
-6.079999999999972
 30
0.0
 42
-0.9999999157063725
  0
VERTEX
  5
2C8
  8
ROUTES
 10
97.98100016858749
 20
-4.080000000000044
 30
0.0
  0
SEQEND
  5
2C9
  8
ROUTES
  0
POLYLINE
  5
2CA
  8
ROUTES
 66
     1
 10
0.0
 20
0.0
 30
0.0
  0
VERTEX
  5
2CB
  8
ROUTES
 10
97.9809998314054
 20
-6.620000000000029
 30
0.0
  0
VERTEX
  5
2CC
  8
ROUTES
 10
99.28899983135153
 20
-6.620000000000028
 30
0.0
 42
-1.000000000000008
  0
VERTEX
  5
2CD
  8
ROUTES
 10
99.28900016864853
 20
-8.619999999999983
 30
0.0
  0
VERTEX
  5
2CE
  8
ROUTES
 10
97.98099983139343
 20
-8.619999999999973
 30
0.0
 42
-0.9999995785280643
  0
VERTEX
  5
2CF
  8
ROUTES
 10
97.98099983140538
 20
-6.62000000000004
 30
0.0
  0
SEQEND
  5
2D0
  8
ROUTES
  0
POLYLINE
  5
2D1
  8
ROUTES
 66
     1
 10
0.0
 20
0.0
 30
0.0
  0
VERTEX
  5
2D2
  8
ROUTES
 10
97.98099983138187
 20
-9.160000000000029
 30
0.0
  0
VERTEX
  5
2D3
  8
ROUTES
 10
99.28899983137819
 20
-9.160000000000029
 30
0.0
 42
-1.000000168604656
  0
VERTEX
  5
2D4
  8
ROUTES
 10
99.28899983141253
 20
-11.15999999999998
 30
0.0
  0
VERTEX
  5
2D5
  8
ROUTES
 10
97.98100016858744
 20
-11.15999999999997
 30
0.0
 42
-0.9999999156909033
  0
VERTEX
  5
2D6
  8
ROUTES
 10
97.98099983138185
 20
-9.160000000000029
 30
0.0
  0
SEQEND
  5
2D7
  8
ROUTES
  0
POLYLINE
  5
2D8
  8
ROUTES
 66
     1
 10
0.0
 20
0.0
 30
0.0
  0
VERTEX
  5
2D9
  8
ROUTES
 10
97.98099983141229
 20
-11.70000000000003
 30
0.0
  0
VERTEX
  5
2DA
  8
ROUTES
 10
99.28899983141183
 20
-11.70000000000003
 30
0.0
 42
-1.000000168619231
  0
VERTEX
  5
2DB
  8
ROUTES
 10
99.28899983134977
 20
-13.69999999999997
 30
0.0
  0
VERTEX
  5
2DC
  8
ROUTES
 10
97.98099983140668
 20
-13.69999999999997
 30
0.0
 42
-0.9999997471187755
  0
VERTEX
  5
2DD
  8
ROUTES
 10
97.98099983141228
 20
-11.70000000000003
 30
0.0
  0
SEQEND
  5
2DE
  8
ROUTES
  0
POLYLINE
  5
2DF
  8
ROUTES
 66
     1
 10
0.0
 20
0.0
 30
0.0
  0
VERTEX
  5
2E0
  8
ROUTES
 10
97.981
 20
-16.78
 30
0.0
  0
VERTEX
  5
2E1
  8
ROUTES
 10
99.289
 20
-16.78
 30
0.0
 42
-1.000000084320806
  0
VERTEX
  5
2E2
  8
ROUTES
 10
99.2889998313584
 20
-18.77999999999999
 30
0.0
  0
VERTEX
  5
2E3
  8
ROUTES
 10
97.98099983140045
 20
-18.77999999999998
 30
0.0
 42
-0.9999998314125943
  0
VERTEX
  5
2E4
  8
ROUTES
 10
97.981
 20
-16.78
 30
0.0
  0
SEQEND
  5
2E5
  8
ROUTES
  0
CIRCLE
  5
2E6
  8
20
 10
-65.85895
 20
-24.33015
 30
0.0
 40
0.000514781507044
210
0.0
220
0.0
230
-1.0
  0
CIRCLE
  5
2E7
  8
20
 10
-122.5791
 20
-4.5682
 30
0.0
 40
0.0005099019513616
210
0.0
220
0.0
230
-1.0
  0
CIRCLE
  5
2E8
  8
20
 10
-106.33335
 20
23.57025000000001
 30
0.0
 40
0.0004743416490197
210
0.0
220
0.0
230
-1.0
  0
POLYLINE
  5
2E9
  8
20
 66
     1
 10
0.0
 20
0.0
 30
0.0
  0
VERTEX
  5
2EA
  8
20
 10
76.00540000000001
 20
-18.4727
 30
0.0
  0
VERTEX
  5
2EB
  8
20
 10
65.8592
 20
-24.3306
 30
0.0
 42
-1.0
  0
VERTEX
  5
2EC
  8
20
 10
60.85869999999999
 20
-15.66939999999999
 30
0.0
 42
1.000000000014412
  0
VERTEX
  5
2ED
  8
20
 10
60.85919999999999
 20
-15.67029999999999
 30
0.0
 42
1.000000000000002
  0
VERTEX
  5
2EE
  8
20
 10
65.8587
 20
-24.3297
 30
0.0
  0
VERTEX
  5
2EF
  8
20
 10
76.0048
 20
-18.4718
 30
0.0
 42
-0.9999999999990893
  0
VERTEX
  5
2F0
  8
20
 10
76.00540000000002
 20
-18.4727
 30
0.0
  0
SEQEND
  5
2F1
  8
20
  0
CIRCLE
  5
2F3
  8
44
 10
-111.97
 20
13.755
 30
0.0
 40
0.65
210
0.0
220
0.0
230
-1.0
  0
CIRCLE
  5
2F4
  8
44
 10
-111.97
 20
-6.245
 30
0.0
 40
0.65
210
0.0
220
0.0
230
-1.0
  0
CIRCLE
  5
2F5
  8
44
 10
-105.62
 20
-1.27
 30
0.0
 40
0.508
210
0.0
220
0.0
230
-1.0
  0
CIRCLE
  5
2F6
  8
44
 10
-105.62
 20
1.27
 30
0.0
 40
0.508
210
0.0
220
0.0
230
-1.0
  0
CIRCLE
  5
2F7
  8
44
 10
-105.62
 20
3.81
 30
0.0
 40
0.508
210
0.0
220
0.0
230
-1.0
  0
CIRCLE
  5
2F8
  8
44
 10
-105.62
 20
6.35
 30
0.0
 40
0.508
210
0.0
220
0.0
230
-1.0
  0
CIRCLE
  5
2F9
  8
44
 10
-95.46
 20
39.37
 30
0.0
 40
1.0
210
0.0
220
0.0
230
-1.0
  0
CIRCLE
  5
2FA
  8
44
 10
-99.905
 20
39.37
 30
0.0
 40
1.0
210
0.0
220
0.0
230
-1.0
  0
CIRCLE
  5
2FB
  8
44
 10
-132.925
 20
-17.145
 30
0.0
 40
1.0
210
0.0
220
0.0
230
-1.0
  0
CIRCLE
  5
2FC
  8
44
 10
-130.385
 20
-21.59
 30
0.0
 40
1.0
210
0.0
220
0.0
230
-1.0
  0
CIRCLE
  5
2FD
  8
44
 10
-65.61500000000001
 20
-21.59
 30
0.0
 40
1.0
210
0.0
220
0.0
230
-1.0
  0
CIRCLE
  5
2FE
  8
44
 10
-63.075
 20
-17.145
 30
0.0
 40
1.0
210
0.0
220
0.0
230
-1.0
  0
CIRCLE
  5
2FF
  8
44
 10
-96.73
 20
22.86
 30
0.0
 40
0.4064
210
0.0
220
0.0
230
-1.0
  0
CIRCLE
  5
300
  8
44
 10
-95.46
 20
24.765
 30
0.0
 40
0.4064
210
0.0
220
0.0
230
-1.0
  0
CIRCLE
  5
301
  8
44
 10
-94.19
 20
22.86
 30
0.0
 40
0.4064
210
0.0
220
0.0
230
-1.0
  0
CIRCLE
  5
302
  8
44
 10
-107.525
 20
-17.145
 30
0.0
 40
0.4064
210
0.0
220
0.0
230
-1.0
  0
CIRCLE
  5
303
  8
44
 10
-109.43
 20
-15.875
 30
0.0
 40
0.4064
210
0.0
220
0.0
230
-1.0
  0
CIRCLE
  5
304
  8
44
 10
-107.525
 20
-14.605
 30
0.0
 40
0.4064
210
0.0
220
0.0
230
-1.0
  0
CIRCLE
  5
305
  8
44
 10
-77.045
 20
-8.89
 30
0.0
 40
0.4064
210
0.0
220
0.0
230
-1.0
  0
CIRCLE
  5
306
  8
44
 10
-75.14
 20
-10.16
 30
0.0
 40
0.4064
210
0.0
220
0.0
230
-1.0
  0
CIRCLE
  5
307
  8
44
 10
-77.045
 20
-11.43
 30
0.0
 40
0.4064
210
0.0
220
0.0
230
-1.0
  0
CIRCLE
  5
308
  8
44
 10
-99.905
 20
27.305
 30
0.0
 40
0.4064
210
0.0
220
0.0
230
-1.0
  0
CIRCLE
  5
309
  8
44
 10
-99.905
 20
19.685
 30
0.0
 40
0.4064
210
0.0
220
0.0
230
-1.0
  0
CIRCLE
  5
30A
  8
44
 10
-85.935
 20
18.415
 30
0.0
 40
0.4064
210
0.0
220
0.0
230
-1.0
  0
CIRCLE
  5
30B
  8
44
 10
-93.555
 20
18.415
 30
0.0
 40
0.4064
210
0.0
220
0.0
230
-1.0
  0
CIRCLE
  5
30C
  8
44
 10
-122.13
 20
-10.795
 30
0.0
 40
0.4064
210
0.0
220
0.0
230
-1.0
  0
CIRCLE
  5
30D
  8
44
 10
-114.51
 20
-10.795
 30
0.0
 40
0.4064
210
0.0
220
0.0
230
-1.0
  0
CIRCLE
  5
30E
  8
44
 10
-103.715
 20
-9.525
 30
0.0
 40
0.4064
210
0.0
220
0.0
230
-1.0
  0
CIRCLE
  5
30F
  8
44
 10
-103.715
 20
-17.145
 30
0.0
 40
0.4064
210
0.0
220
0.0
230
-1.0
  0
CIRCLE
  5
310
  8
44
 10
-72.6
 20
-15.24
 30
0.0
 40
0.4064
210
0.0
220
0.0
230
-1.0
  0
CIRCLE
  5
311
  8
44
 10
-80.22
 20
-15.24
 30
0.0
 40
0.4064
210
0.0
220
0.0
230
-1.0
  0
CIRCLE
  5
312
  8
44
 10
-77.68
 20
8.255
 30
0.0
 40
0.4064
210
0.0
220
0.0
230
-1.0
  0
CIRCLE
  5
313
  8
44
 10
-77.68
 20
0.635
 30
0.0
 40
0.4064
210
0.0
220
0.0
230
-1.0
  0
CIRCLE
  5
314
  8
44
 10
-83.395
 20
0.0
 30
0.0
 40
0.4
210
0.0
220
0.0
230
-1.0
  0
CIRCLE
  5
315
  8
44
 10
-83.395
 20
-2.54
 30
0.0
 40
0.4
210
0.0
220
0.0
230
-1.0
  0
CIRCLE
  5
316
  8
44
 10
-83.395
 20
-5.08
 30
0.0
 40
0.4
210
0.0
220
0.0
230
-1.0
  0
CIRCLE
  5
317
  8
44
 10
-83.395
 20
-7.62
 30
0.0
 40
0.4
210
0.0
220
0.0
230
-1.0
  0
CIRCLE
  5
318
  8
44
 10
-87.205
 20
-1.27
 30
0.0
 40
0.4
210
0.0
220
0.0
230
-1.0
  0
CIRCLE
  5
319
  8
44
 10
-87.205
 20
1.27
 30
0.0
 40
0.4
210
0.0
220
0.0
230
-1.0
  0
CIRCLE
  5
31A
  8
44
 10
-87.205
 20
-11.43
 30
0.0
 40
0.4
210
0.0
220
0.0
230
-1.0
  0
CIRCLE
  5
31B
  8
44
 10
-87.205
 20
-8.89
 30
0.0
 40
0.4
210
0.0
220
0.0
230
-1.0
  0
CIRCLE
  5
31C
  8
44
 10
-98.635
 20
-5.08
 30
0.0
 40
0.4
210
0.0
220
0.0
230
-1.0
  0
CIRCLE
  5
31D
  8
44
 10
-98.635
 20
-7.62
 30
0.0
 40
0.4
210
0.0
220
0.0
230
-1.0
  0
CIRCLE
  5
31E
  8
44
 10
-98.635
 20
-10.16
 30
0.0
 40
0.4
210
0.0
220
0.0
230
-1.0
  0
CIRCLE
  5
31F
  8
44
 10
-98.635
 20
-12.7
 30
0.0
 40
0.4
210
0.0
220
0.0
230
-1.0
  0
CIRCLE
  5
320
  8
44
 10
-98.635
 20
-17.78
 30
0.0
 40
0.4
210
0.0
220
0.0
230
-1.0
  0
CIRCLE
  5
321
  8
44
 10
-83.395
 20
-17.78
 30
0.0
 40
0.4
210
0.0
220
0.0
230
-1.0
  0
CIRCLE
  5
322
  8
44
 10
-83.395
 20
-15.24
 30
0.0
 40
0.4
210
0.0
220
0.0
230
-1.0
  0
CIRCLE
  5
323
  8
44
 10
-83.395
 20
-12.7
 30
0.0
 40
0.4
210
0.0
220
0.0
230
-1.0
  0
CIRCLE
  5
324
  8
44
 10
-83.395
 20
-10.16
 30
0.0
 40
0.4
210
0.0
220
0.0
230
-1.0
  0
CIRCLE
  5
325
  8
44
 10
-83.395
 20
7.62
 30
0.0
 40
0.4
210
0.0
220
0.0
230
-1.0
  0
CIRCLE
  5
326
  8
44
 10
-83.395
 20
10.16
 30
0.0
 40
0.4
210
0.0
220
0.0
230
-1.0
  0
CIRCLE
  5
327
  8
44
 10
-83.395
 20
5.08
 30
0.0
 40
0.4
210
0.0
220
0.0
230
-1.0
  0
CIRCLE
  5
328
  8
44
 10
-98.635
 20
10.16
 30
0.0
 40
0.4
210
0.0
220
0.0
230
-1.0
  0
CIRCLE
  5
329
  8
44
 10
-83.395
 20
2.54
 30
0.0
 40
0.4
210
0.0
220
0.0
230
-1.0
  0
CIRCLE
  5
32A
  8
44
 10
-101.175
 20
-15.875
 30
0.0
 40
0.5
210
0.0
220
0.0
230
-1.0
  0
CIRCLE
  5
32B
  8
44
 10
-101.175
 20
-22.86
 30
0.0
 40
0.5
210
0.0
220
0.0
230
-1.0
  0
CIRCLE
  5
32C
  8
44
 10
-102.445
 20
11.43
 30
0.0
 40
0.5
210
0.0
220
0.0
230
-1.0
  0
CIRCLE
  5
32D
  8
44
 10
-101.81
 20
-6.35
 30
0.0
 40
0.5
210
0.0
220
0.0
230
-1.0
  0
CIRCLE
  5
32E
  8
44
 10
-87.84
 20
21.59
 30
0.0
 40
0.5
210
0.0
220
0.0
230
-1.0
  0
CIRCLE
  5
32F
  8
44
 10
-95.46
 20
19.685
 30
0.0
 40
0.5
210
0.0
220
0.0
230
-1.0
  0
CIRCLE
  5
330
  8
ROUTES
 10
-101.81
 20
-6.350000000000009
 30
0.0
 40
1.0
210
0.0
220
0.0
230
-1.0
  0
CIRCLE
  5
331
  8
ROUTES
 10
-102.445
 20
11.42999999999999
 30
0.0
 40
1.000000000000014
210
0.0
220
0.0
230
-1.0
  0
ENDSEC
  0
EOF
